<!DOCTYPE svg PUBLIC "-//W3C//DTD SVG 20010904//EN" "http://www.w3.org/TR/2001/REC-SVG-20010904/DTD/svg10.dtd">
<svg version="1.0" xmlns="http://www.w3.org/2000/svg" width="162px" height="162px" viewBox="0 0 1620 1620" preserveAspectRatio="xMidYMid meet">
<g id="layer101" fill="#869429" stroke="none">
 <path d="M295 898 c-10 -25 -1 -203 10 -201 13 4 19 193 6 206 -7 7 -12 5 -16 -5z"/>
 <path d="M1035 898 c-10 -25 -1 -203 10 -201 13 4 19 193 6 206 -7 7 -12 5 -16 -5z"/>
 <path d="M106 862 c-2 -4 -3 -34 -2 -67 l1 -60 42 0 c24 0 42 5 40 10 -1 6 -10 9 -19 8 -21 -3 -30 26 -26 76 2 26 -1 34 -14 36 -10 2 -20 0 -22 -3z"/>
 <path d="M435 861 c-3 -6 -3 -22 1 -36 7 -28 -2 -75 -15 -75 -4 0 -13 12 -20 27 -16 35 -36 17 -22 -19 8 -21 16 -25 42 -24 26 1 34 7 42 29 15 46 -8 129 -28 98z"/>
 <path d="M890 845 c-23 -60 -6 -109 39 -111 26 -1 34 3 42 24 14 36 -6 54 -22 19 -7 -15 -16 -27 -20 -27 -13 0 -21 40 -15 75 8 41 -10 56 -24 20z"/>
 <path d="M1206 861 c-4 -5 -4 -22 0 -36 9 -37 -3 -75 -24 -72 -9 1 -19 -2 -22 -8 -3 -5 10 -10 28 -11 28 -1 35 3 43 25 17 43 -6 134 -25 102z"/>
 <path d="M1485 848 c-9 -24 -1 -103 10 -103 14 0 19 95 6 108 -7 7 -12 5 -16 -5z"/>
 <path d="M1445 751 c-7 -12 12 -24 25 -16 11 7 4 25 -10 25 -5 0 -11 -4 -15 -9z"/>
 </g>
<g id="layer102" fill="#906a72" stroke="none">
 <path d="M676 1541 c-7 -10 28 -43 37 -35 8 8 -11 44 -23 44 -5 0 -11 -4 -14 -9z"/>
 <path d="M900 1531 c-5 -11 -6 -22 -1 -25 11 -7 43 28 34 37 -11 12 -22 8 -33 -12z"/>
 <path d="M627 1533 c-4 -6 0 -18 7 -28 8 -11 16 -14 19 -8 4 6 0 18 -7 28 -8 11 -16 14 -19 8z"/>
 <path d="M557 1513 c-4 -6 0 -18 7 -28 8 -11 16 -14 19 -8 4 6 0 18 -7 28 -8 11 -16 14 -19 8z"/>
 <path d="M1080 1481 c-6 -12 -6 -22 -1 -26 6 -3 15 3 21 14 6 12 6 22 1 26 -6 3 -15 -3 -21 -14z"/>
 <path d="M429 1456 c-1 -3 -2 -9 -3 -13 -1 -5 -5 -13 -9 -20 -4 -6 -3 -14 3 -18 5 -3 11 -4 11 -1 1 3 2 9 3 14 1 4 5 12 9 19 4 6 3 14 -3 18 -5 3 -11 4 -11 1z"/>
 <path d="M1160 1441 c-6 -12 -6 -22 -1 -26 6 -3 15 3 21 14 6 12 6 22 1 26 -6 3 -15 -3 -21 -14z"/>
 <path d="M377 1423 c-4 -6 0 -18 7 -28 8 -11 16 -14 19 -8 4 6 0 18 -7 28 -8 11 -16 14 -19 8z"/>
 <path d="M337 1393 c-4 -6 0 -18 7 -28 8 -11 16 -14 19 -8 4 6 0 18 -7 28 -8 11 -16 14 -19 8z"/>
 <path d="M1365 1266 c-11 -8 -14 -16 -8 -19 6 -4 18 0 28 7 11 8 14 16 8 19 -6 4 -18 0 -28 -7z"/>
 <path d="M1395 1226 c-11 -8 -14 -16 -8 -19 6 -4 18 0 28 7 11 8 14 16 8 19 -6 4 -18 0 -28 -7z"/>
 <path d="M165 1201 c-3 -6 3 -15 14 -21 12 -6 22 -6 26 -1 3 6 -3 15 -14 21 -12 6 -22 6 -26 1z"/>
 <path d="M1415 1196 c-11 -8 -14 -16 -8 -19 6 -4 18 0 28 7 11 8 14 16 8 19 -6 4 -18 0 -28 -7z"/>
 <path d="M130 1141 c-8 -16 -6 -22 9 -31 16 -8 22 -6 31 9 8 16 6 22 -9 31 -16 8 -22 6 -31 -9z"/>
 <path d="M1475 1076 c-11 -8 -14 -16 -8 -19 6 -4 18 0 28 7 11 8 14 16 8 19 -6 4 -18 0 -28 -7z"/>
 <path d="M85 1031 c-3 -6 3 -15 14 -21 12 -6 22 -6 26 -1 3 6 -3 15 -14 21 -12 6 -22 6 -26 1z"/>
 <path d="M75 991 c-3 -6 3 -15 14 -21 12 -6 22 -6 26 -1 3 6 -3 15 -14 21 -12 6 -22 6 -26 1z"/>
 <path d="M1505 986 c-11 -8 -14 -16 -8 -19 6 -4 18 0 28 7 11 8 14 16 8 19 -6 4 -18 0 -28 -7z"/>
 <path d="M254 956 c-8 -21 3 -49 16 -41 13 8 13 42 0 50 -6 3 -13 -1 -16 -9z"/>
 <path d="M304 956 c-8 -21 3 -49 16 -41 5 3 10 15 10 25 0 25 -18 36 -26 16z"/>
 <path d="M664 956 c-8 -21 3 -49 16 -41 5 3 10 15 10 25 0 25 -18 36 -26 16z"/>
 <path d="M714 956 c-8 -21 3 -49 16 -41 5 3 10 15 10 25 0 25 -18 36 -26 16z"/>
 <path d="M1074 956 c-8 -21 3 -49 16 -41 5 3 10 15 10 25 0 25 -18 36 -26 16z"/>
 <path d="M1124 956 c-8 -21 3 -49 16 -41 5 3 10 15 10 25 0 25 -18 36 -26 16z"/>
 <path d="M66 951 c-7 -11 28 -43 37 -34 12 11 8 22 -12 33 -11 5 -22 6 -25 1z"/>
 <path d="M1476 941 c-7 -11 -6 -12 13 -15 5 0 13 -4 16 -8 10 -10 47 11 40 23 -4 6 -13 6 -24 -1 -12 -6 -22 -5 -28 1 -8 8 -13 7 -17 0z"/>
 <path d="M56 882 c-8 -13 23 -74 35 -67 5 4 9 14 9 24 0 22 -36 56 -44 43z"/>
 <path d="M1527 862 c-25 -27 -23 -104 3 -127 18 -17 20 -17 26 -1 4 10 2 22 -5 29 -15 15 -14 52 1 77 18 29 -3 47 -25 22z"/>
 <path d="M66 759 c-9 -17 -13 -36 -10 -41 8 -13 44 21 44 43 0 31 -18 30 -34 -2z"/>
 <path d="M209 693 c-4 -29 -3 -39 5 -50 21 -31 75 0 61 34 -6 17 -7 17 -19 1 -16 -22 -40 -24 -33 -3 4 8 2 17 -3 20 -6 4 -11 3 -11 -2z"/>
 <path d="M357 694 c-3 -3 -3 -12 0 -20 7 -20 -17 -17 -33 4 -12 16 -13 16 -19 -1 -14 -34 42 -66 61 -35 16 26 8 69 -9 52z"/>
 <path d="M619 693 c-4 -29 -3 -39 5 -50 21 -31 75 0 61 34 -6 17 -7 17 -19 1 -16 -22 -40 -24 -33 -3 4 8 2 17 -3 20 -6 4 -11 3 -11 -2z"/>
 <path d="M767 694 c-3 -3 -3 -12 0 -20 7 -20 -17 -17 -33 4 -12 16 -13 16 -19 -1 -14 -34 42 -66 61 -35 16 26 8 69 -9 52z"/>
 <path d="M1029 693 c-4 -29 -3 -39 5 -50 21 -31 75 0 61 34 -6 17 -7 17 -19 1 -16 -22 -40 -24 -33 -3 4 8 2 17 -3 20 -6 4 -11 3 -11 -2z"/>
 <path d="M1177 694 c-3 -3 -3 -12 0 -20 7 -20 -17 -17 -33 4 -12 16 -13 16 -19 -1 -14 -34 42 -66 61 -35 16 26 8 69 -9 52z"/>
 <path d="M1439 696 c-10 -50 21 -86 46 -53 14 20 14 48 -1 47 -5 0 -9 -5 -9 -12 0 -6 -6 -13 -14 -16 -10 -3 -12 0 -8 11 3 9 2 19 -3 22 -6 4 -10 4 -11 1z"/>
 <path d="M76 671 c-10 -11 -13 -22 -8 -25 5 -3 16 1 23 10 11 14 15 13 30 -7 11 -16 22 -20 35 -15 18 7 17 9 -6 26 -14 10 -27 17 -29 14 -2 -2 -10 1 -16 6 -8 7 -17 4 -29 -9z"/>
 <path d="M1505 681 c-3 -6 3 -15 14 -21 12 -6 22 -6 26 -1 3 6 -3 15 -14 21 -12 6 -22 6 -26 1z"/>
 <path d="M415 651 c-7 -13 17 -24 40 -19 9 1 16 8 16 13 0 14 -48 19 -56 6z"/>
 <path d="M515 651 c-7 -13 17 -24 40 -19 9 1 16 8 16 13 0 14 -48 19 -56 6z"/>
 <path d="M825 651 c-7 -13 17 -24 40 -19 9 1 16 8 16 13 0 14 -48 19 -56 6z"/>
 <path d="M925 651 c-7 -13 17 -24 40 -19 9 1 16 8 16 13 0 14 -48 19 -56 6z"/>
 <path d="M1235 651 c-7 -13 17 -24 40 -19 9 1 16 8 16 13 0 14 -48 19 -56 6z"/>
 <path d="M1335 651 c-7 -13 17 -24 40 -19 9 1 16 8 16 13 0 14 -48 19 -56 6z"/>
 <path d="M85 626 c-11 -8 -14 -16 -8 -19 6 -4 18 0 28 7 11 8 14 16 8 19 -6 4 -18 0 -28 -7z"/>
 <path d="M1495 631 c-3 -6 3 -15 14 -21 12 -6 22 -6 26 -1 3 6 -3 15 -14 21 -12 6 -22 6 -26 1z"/>
 <path d="M1465 541 c-3 -6 3 -15 14 -21 12 -6 22 -6 26 -1 3 6 -3 15 -14 21 -12 6 -22 6 -26 1z"/>
 <path d="M175 416 c-11 -8 -14 -16 -8 -19 6 -4 18 0 28 7 11 8 14 16 8 19 -6 4 -18 0 -28 -7z"/>
 <path d="M195 386 c-11 -8 -14 -16 -8 -19 6 -4 18 0 28 7 11 8 14 16 8 19 -6 4 -18 0 -28 -7z"/>
 <path d="M1385 391 c-3 -6 3 -15 14 -21 12 -6 22 -6 26 -1 3 6 -3 15 -14 21 -12 6 -22 6 -26 1z"/>
 <path d="M225 346 c-11 -8 -14 -16 -8 -19 6 -4 18 0 28 7 11 8 14 16 8 19 -6 4 -18 0 -28 -7z"/>
 <path d="M485 301 c-3 -6 3 -15 14 -21 12 -6 22 -6 26 -1 3 6 -3 15 -14 21 -12 6 -22 6 -26 1z"/>
 <path d="M416 251 c-4 -5 -2 -12 4 -16 6 -4 8 -10 5 -15 -3 -5 -1 -11 4 -14 5 -4 12 -2 15 3 4 5 2 12 -4 16 -6 4 -8 10 -5 15 3 5 1 11 -4 14 -5 4 -12 2 -15 -3z"/>
 <path d="M1257 253 c-4 -6 0 -18 7 -28 8 -11 16 -14 19 -8 4 6 0 18 -7 28 -8 11 -16 14 -19 8z"/>
 <path d="M1217 223 c-4 -6 0 -18 7 -28 8 -11 16 -14 19 -8 4 6 0 18 -7 28 -8 11 -16 14 -19 8z"/>
 <path d="M1187 203 c-4 -6 0 -18 7 -28 8 -11 16 -14 19 -8 4 6 0 18 -7 28 -8 11 -16 14 -19 8z"/>
 <path d="M430 171 c-8 -16 -7 -22 9 -31 21 -11 40 3 21 15 -6 4 -8 10 -5 15 3 5 1 11 -4 15 -6 3 -15 -3 -21 -14z"/>
 <path d="M1147 179 c-10 -6 -15 -14 -12 -19 3 -5 1 -11 -4 -14 -5 -4 -12 -2 -16 4 -12 19 -26 0 -15 -21 10 -18 13 -18 41 -3 17 8 28 18 25 21 -3 4 -1 12 5 19 13 16 -2 25 -24 13z"/>
 <path d="M515 140 c-4 -6 -10 -8 -15 -5 -5 3 -11 1 -14 -4 -4 -5 -2 -12 3 -15 5 -4 12 -2 16 4 4 6 10 8 15 5 5 -3 11 -1 14 4 4 5 2 12 -3 15 -5 4 -12 2 -16 -4z"/>
 <path d="M600 101 c-6 -12 -6 -22 -1 -26 6 -3 15 3 21 14 6 12 6 22 1 26 -6 3 -15 -3 -21 -14z"/>
 <path d="M987 113 c-4 -6 0 -18 7 -28 8 -11 16 -14 19 -8 4 6 0 18 -7 28 -8 11 -16 14 -19 8z"/>
 <path d="M640 91 c-6 -12 -6 -22 -1 -26 6 -3 15 3 21 14 6 12 6 22 1 26 -6 3 -15 -3 -21 -14z"/>
 <path d="M947 103 c-4 -6 0 -18 7 -28 8 -11 16 -14 19 -8 4 6 0 18 -7 28 -8 11 -16 14 -19 8z"/>
 <path d="M696 81 c-15 -17 -13 -31 5 -31 13 0 30 38 20 44 -4 3 -16 -3 -25 -13z"/>
 <path d="M876 91 c-8 -12 31 -44 44 -36 8 5 6 13 -6 26 -19 21 -30 24 -38 10z"/>
 </g>
<g id="layer103" fill="#b1afaf" stroke="none">
 <path d="M686 1531 c-12 -13 -14 -21 -6 -26 13 -8 52 24 44 36 -8 14 -19 11 -38 -10z"/>
 <path d="M886 1541 c-8 -12 31 -44 44 -36 8 5 6 13 -6 26 -19 21 -30 24 -38 10z"/>
 <path d="M630 1521 c-6 -12 -6 -22 -1 -26 6 -3 15 3 21 14 6 12 6 22 1 26 -6 3 -15 -3 -21 -14z"/>
 <path d="M775 1531 c-7 -13 17 -24 40 -19 9 1 16 8 16 13 0 14 -48 19 -56 6z"/>
 <path d="M960 1540 c-7 -31 -7 -41 2 -46 19 -12 29 11 13 32 -8 10 -15 17 -15 14z"/>
 <path d="M598 1523 c-7 -14 -3 -33 6 -33 12 -1 17 28 6 35 -5 3 -10 2 -12 -2z"/>
 <path d="M998 1523 c-7 -14 -3 -33 6 -33 12 -1 17 28 6 35 -5 3 -10 2 -12 -2z"/>
 <path d="M566 1512 c-4 -4 -13 -7 -19 -7 -7 0 -12 -8 -12 -17 0 -10 5 -18 10 -18 6 0 10 6 10 13 0 6 5 12 12 12 16 0 26 12 15 19 -5 3 -12 2 -16 -2z"/>
 <path d="M1025 1510 c-6 -10 -5 -12 18 -14 6 0 12 -7 12 -13 0 -7 5 -13 10 -13 6 0 10 8 10 18 0 9 -4 17 -10 17 -5 0 -15 4 -22 8 -6 4 -14 3 -18 -3z"/>
 <path d="M468 1474 c-23 -12 -27 -23 -19 -52 3 -11 59 31 57 43 -3 23 -9 24 -38 9z"/>
 <path d="M1109 1488 c-11 -42 15 -67 47 -44 17 13 16 15 -14 30 -18 9 -32 15 -33 14z"/>
 <path d="M399 1433 c-1 -4 -1 -12 0 -16 1 -4 -7 -7 -16 -5 -10 2 -18 -3 -18 -12 0 -8 -7 -15 -15 -15 -20 -1 -41 -15 -36 -24 3 -4 -10 -23 -29 -41 -19 -19 -35 -30 -35 -25 0 4 -9 0 -19 -9 -11 -10 -17 -24 -14 -32 3 -9 0 -14 -8 -12 -7 2 -13 -6 -13 -19 0 -13 4 -22 9 -21 6 1 8 9 7 18 -2 8 -1 12 4 8 10 -11 34 11 28 26 -3 7 2 19 11 26 8 7 15 9 15 4 0 -4 13 5 30 21 16 15 27 31 25 35 -7 11 20 31 36 28 7 -2 13 4 14 12 0 8 9 15 19 15 20 0 31 31 15 41 -5 3 -10 2 -10 -3z"/>
 <path d="M1185 1426 c-11 -8 -14 -16 -8 -19 6 -4 18 0 28 7 11 8 14 16 8 19 -6 4 -18 0 -28 -7z"/>
 <path d="M1227 1413 c-4 -3 -2 -12 4 -20 6 -7 8 -13 4 -13 -4 0 -2 -7 5 -15 7 -8 16 -12 22 -9 11 7 40 -15 33 -26 -2 -4 4 -15 14 -24 11 -10 22 -13 25 -8 3 5 -3 17 -14 27 -11 10 -17 21 -15 25 7 11 -24 35 -44 35 -9 0 -16 5 -16 12 0 15 -10 25 -18 16z"/>
 <path d="M1357 1294 c-4 -4 -2 -13 3 -20 6 -6 9 -18 8 -25 -2 -7 4 -13 12 -14 8 0 15 -9 15 -20 0 -12 7 -20 18 -20 9 0 16 5 15 10 -2 6 -7 9 -11 7 -4 -1 -7 6 -5 15 2 10 -3 18 -12 18 -8 0 -15 8 -15 17 0 21 -19 41 -28 32z"/>
 <path d="M155 1181 c-2 -5 2 -16 9 -26 13 -18 14 -18 25 3 6 12 10 22 9 23 -23 6 -39 6 -43 0z"/>
 <path d="M1432 1175 c-8 -15 -6 -28 9 -56 17 -34 25 -38 57 -30 1 1 -2 10 -8 21 -6 11 -16 17 -22 14 -7 -5 -9 0 -6 14 3 12 0 29 -7 38 -11 16 -13 16 -23 -1z"/>
 <path d="M110 1089 c-6 -10 -8 -19 -4 -19 3 0 1 -7 -6 -15 -7 -8 -9 -15 -5 -15 4 0 2 -6 -4 -14 -8 -10 -9 -16 -1 -21 5 -3 11 -4 11 -1 4 16 7 26 9 31 1 3 3 11 4 18 1 6 7 11 14 10 9 -2 39 35 30 38 -27 7 -40 4 -48 -12z"/>
 <path d="M1475 1050 c-3 -5 -2 -10 2 -12 13 -7 33 -3 36 6 3 12 -31 17 -38 6z"/>
 <path d="M1485 1020 c-3 -5 -2 -10 2 -12 13 -7 33 -3 36 6 3 12 -31 17 -38 6z"/>
 <path d="M85 986 c-11 -8 -14 -16 -8 -19 6 -4 18 0 28 7 11 8 14 16 8 19 -6 4 -18 0 -28 -7z"/>
 <path d="M1495 991 c-3 -6 3 -15 14 -21 12 -6 22 -6 26 -1 3 6 -3 15 -14 21 -12 6 -22 6 -26 1z"/>
 <path d="M142 953 c-6 -10 -14 -17 -19 -15 -4 1 -8 -3 -8 -10 0 -20 49 -15 53 6 6 27 -14 42 -26 19z"/>
 <path d="M454 956 c-8 -21 3 -49 16 -41 5 3 10 15 10 25 0 25 -18 36 -26 16z"/>
 <path d="M514 956 c-8 -21 3 -49 16 -41 5 3 10 15 10 25 0 25 -18 36 -26 16z"/>
 <path d="M864 956 c-8 -21 3 -49 16 -41 5 3 10 15 10 25 0 25 -18 36 -26 16z"/>
 <path d="M924 956 c-8 -21 3 -49 16 -41 5 3 10 15 10 25 0 25 -18 36 -26 16z"/>
 <path d="M1274 956 c-8 -21 3 -49 16 -41 5 3 10 15 10 25 0 25 -18 36 -26 16z"/>
 <path d="M1334 956 c-8 -21 3 -49 16 -41 5 3 10 15 10 25 0 25 -18 36 -26 16z"/>
 <path d="M74 945 c-14 -10 -16 -17 -8 -25 7 -7 15 -5 28 9 21 23 6 36 -20 16z"/>
 <path d="M1505 940 c-4 -6 -10 -8 -15 -5 -5 3 -11 1 -14 -4 -4 -5 -2 -12 3 -15 5 -4 12 -2 16 4 4 7 12 7 25 0 12 -6 21 -7 25 -1 3 6 -3 15 -14 21 -13 7 -22 7 -26 0z"/>
 <path d="M66 876 c-23 -36 -21 -124 4 -156 17 -23 19 -23 26 -7 4 10 2 23 -5 30 -15 15 -14 92 1 117 20 32 -5 47 -26 16z"/>
 <path d="M1514 876 c-4 -10 -2 -22 4 -28 8 -8 13 -7 18 6 4 10 2 22 -4 28 -8 8 -13 7 -18 -6z"/>
 <path d="M1535 838 c-9 -23 -2 -83 10 -83 14 0 19 75 6 88 -7 7 -12 5 -16 -5z"/>
 <path d="M1514 746 c-4 -10 -2 -22 4 -28 8 -8 13 -7 18 6 4 10 2 22 -4 28 -8 8 -13 7 -18 -6z"/>
 <path d="M114 689 c-3 -6 -1 -16 5 -22 6 -6 11 -7 11 -2 0 5 6 0 14 -11 14 -18 15 -18 21 -1 4 9 5 24 1 32 -6 17 -42 20 -52 4z"/>
 <path d="M212 687 c-7 -8 -9 -16 -6 -19 8 -9 53 5 56 17 5 16 -37 17 -50 2z"/>
 <path d="M315 690 c-3 -6 1 -12 9 -15 9 -3 22 -7 30 -9 20 -6 28 5 15 21 -13 15 -45 17 -54 3z"/>
 <path d="M415 690 c-3 -6 2 -13 12 -17 10 -4 23 -14 30 -22 10 -14 12 -14 18 2 4 9 5 24 1 32 -6 17 -51 20 -61 5z"/>
 <path d="M514 685 c-4 -8 -3 -23 1 -32 6 -16 8 -16 18 -2 7 8 20 18 30 22 10 4 15 11 12 17 -10 15 -55 12 -61 -5z"/>
 <path d="M622 687 c-7 -8 -9 -16 -6 -19 8 -9 53 5 56 17 5 16 -37 17 -50 2z"/>
 <path d="M725 690 c-3 -6 1 -12 9 -15 9 -3 22 -7 30 -9 20 -6 28 5 15 21 -13 15 -45 17 -54 3z"/>
 <path d="M825 690 c-3 -6 2 -13 12 -17 10 -4 23 -14 30 -22 10 -14 12 -14 18 2 4 9 5 24 1 32 -6 17 -51 20 -61 5z"/>
 <path d="M924 685 c-4 -8 -3 -23 1 -32 6 -16 8 -16 18 -2 7 8 20 18 30 22 10 4 15 11 12 17 -10 15 -55 12 -61 -5z"/>
 <path d="M1032 687 c-7 -8 -9 -16 -6 -19 8 -9 53 5 56 17 5 16 -37 17 -50 2z"/>
 <path d="M1135 690 c-3 -6 1 -12 9 -15 9 -3 22 -7 30 -9 20 -6 28 5 15 21 -13 15 -45 17 -54 3z"/>
 <path d="M1235 690 c-3 -6 2 -13 12 -17 10 -4 23 -14 30 -22 10 -14 12 -14 18 2 4 9 5 24 1 32 -6 17 -51 20 -61 5z"/>
 <path d="M1334 685 c-4 -8 -3 -23 1 -32 6 -16 8 -16 18 -2 7 8 20 18 30 22 10 4 15 11 12 17 -10 15 -55 12 -61 -5z"/>
 <path d="M1440 685 c-14 -17 -15 -16 25 -18 17 -1 35 -5 41 -9 16 -10 49 16 40 31 -6 9 -12 8 -26 -4 -15 -14 -18 -14 -30 0 -16 19 -34 19 -50 0z"/>
 <path d="M64 679 c-8 -13 24 -41 37 -33 15 9 10 23 -10 34 -14 7 -22 7 -27 -1z"/>
 <path d="M75 631 c-3 -6 3 -15 14 -21 12 -6 22 -6 26 -1 3 6 -3 15 -14 21 -12 6 -22 6 -26 1z"/>
 <path d="M85 590 c-3 -5 -2 -10 2 -12 13 -7 33 -3 36 6 3 12 -31 17 -38 6z"/>
 <path d="M95 560 c-3 -5 -2 -10 2 -12 13 -7 33 -3 36 6 3 12 -31 17 -38 6z"/>
 <path d="M1475 560 c-3 -5 -2 -10 2 -12 13 -7 33 -3 36 6 3 12 -31 17 -38 6z"/>
 <path d="M105 532 c-7 -8 15 -43 24 -37 10 6 33 -46 29 -66 -2 -8 3 -13 10 -11 7 1 12 -5 10 -15 -2 -11 2 -17 10 -15 7 1 12 -5 10 -15 -2 -10 3 -18 12 -18 8 0 15 -7 15 -16 0 -20 24 -50 35 -44 4 3 13 -2 20 -10 7 -8 16 -12 22 -9 5 3 4 12 -3 20 -6 7 -15 12 -19 9 -11 -7 -41 30 -38 46 2 7 -4 13 -12 14 -8 0 -15 9 -15 20 -1 11 -7 19 -14 17 -7 -1 -11 3 -8 10 7 20 -49 125 -67 125 -9 0 -18 -2 -21 -5z"/>
 <path d="M1440 480 c-16 -32 -17 -40 -6 -56 13 -16 16 -14 40 34 14 29 25 52 24 53 -31 9 -40 4 -58 -31z"/>
 <path d="M1392 368 c-7 -7 -12 -8 -12 -4 0 5 -7 3 -15 -4 -8 -7 -12 -17 -9 -22 3 -5 -2 -18 -11 -28 -9 -10 -12 -21 -7 -24 12 -7 47 31 47 52 0 9 6 17 13 17 6 0 12 4 13 8 1 15 -7 17 -19 5z"/>
 <path d="M1295 260 c-10 -11 -25 -19 -34 -18 -9 2 -16 -4 -16 -12 0 -8 -8 -15 -17 -15 -10 0 -18 -5 -18 -10 0 -5 10 -9 23 -9 13 0 22 6 22 14 0 8 8 14 17 14 20 -2 63 41 50 50 -5 3 -17 -3 -27 -14z"/>
 <path d="M307 253 c-12 -11 24 -42 41 -36 10 4 14 3 10 -2 -15 -16 13 -35 33 -24 23 12 16 31 -9 22 -9 -3 -14 -3 -10 2 10 11 -11 37 -24 29 -5 -3 -15 -1 -22 5 -7 6 -16 8 -19 4z"/>
 <path d="M405 186 c-11 -8 -14 -16 -8 -19 6 -4 18 0 28 7 11 8 14 16 8 19 -6 4 -18 0 -28 -7z"/>
 <path d="M1178 193 c-7 -14 -3 -33 6 -33 12 -1 17 28 6 35 -5 3 -10 2 -12 -2z"/>
 <path d="M1064 136 c-10 -8 -23 -14 -29 -15 -5 0 -10 -8 -10 -16 0 -18 20 -20 20 -2 1 6 6 11 13 10 7 -2 17 -4 23 -5 13 -3 21 29 10 37 -4 2 -16 -2 -27 -9z"/>
 <path d="M538 133 c-7 -14 -3 -33 6 -33 12 -1 17 28 6 35 -5 3 -10 2 -12 -2z"/>
 <path d="M568 123 c-7 -14 -3 -33 6 -33 12 -1 17 28 6 35 -5 3 -10 2 -12 -2z"/>
 <path d="M597 113 c-4 -6 0 -18 7 -28 8 -11 16 -14 19 -8 4 6 0 18 -7 28 -8 11 -16 14 -19 8z"/>
 <path d="M990 101 c-6 -12 -6 -22 -1 -26 6 -3 15 3 21 14 6 12 6 22 1 26 -6 3 -15 -3 -21 -14z"/>
 <path d="M637 103 c-4 -6 0 -18 7 -28 8 -11 16 -14 19 -8 4 6 0 18 -7 28 -8 11 -16 14 -19 8z"/>
 <path d="M950 91 c-6 -12 -6 -22 -1 -26 6 -3 15 3 21 14 6 12 6 22 1 26 -6 3 -15 -3 -21 -14z"/>
 <path d="M686 91 c-8 -12 31 -44 44 -36 8 5 6 13 -6 26 -19 21 -30 24 -38 10z"/>
 <path d="M886 81 c-12 -13 -14 -21 -6 -26 13 -8 52 24 44 36 -8 14 -19 11 -38 -10z"/>
 </g>
<g id="layer104" fill="#56514a" stroke="none">
 <path d="M745 1550 c-3 -5 0 -13 8 -16 23 -9 112 0 110 11 -4 14 -110 19 -118 5z"/>
 <path d="M586 1522 c-3 -5 3 -17 13 -26 11 -10 22 -13 25 -8 3 5 -3 17 -13 26 -11 10 -22 13 -25 8z"/>
 <path d="M705 1521 c-7 -12 12 -24 25 -16 11 7 4 25 -10 25 -5 0 -11 -4 -15 -9z"/>
 <path d="M875 1521 c-7 -12 12 -24 25 -16 11 7 4 25 -10 25 -5 0 -11 -4 -15 -9z"/>
 <path d="M996 1511 c-10 -11 -13 -22 -8 -25 5 -3 15 1 22 9 9 11 16 12 25 5 9 -8 15 -8 20 0 3 5 4 11 1 11 -3 1 -9 2 -13 3 -5 1 -13 5 -19 8 -6 4 -19 -1 -28 -11z"/>
 <path d="M529 1503 c-1 -4 -1 -11 0 -15 0 -4 -8 -12 -19 -18 -11 -6 -20 -7 -19 -3 3 19 -2 23 -21 13 -10 -6 -17 -16 -14 -24 6 -16 -22 -30 -31 -15 -4 5 -11 7 -16 3 -5 -3 -7 -10 -3 -15 3 -5 9 -7 14 -4 5 3 11 1 15 -5 4 -6 26 0 57 16 27 14 47 28 44 31 -3 4 -1 12 5 19 7 8 7 14 -1 19 -5 3 -11 3 -11 -2z"/>
 <path d="M1056 1491 c-10 -11 -13 -22 -8 -25 5 -3 17 3 26 13 10 11 13 22 8 25 -5 3 -17 -3 -26 -13z"/>
 <path d="M1095 1460 c-3 -5 8 -16 24 -25 18 -9 32 -11 36 -5 3 5 -8 16 -24 25 -18 9 -32 11 -36 5z"/>
 <path d="M1189 1446 c-5 -23 -2 -46 5 -48 12 -4 15 41 4 48 -4 3 -8 3 -9 0z"/>
 <path d="M1219 1426 c-5 -23 -2 -46 5 -48 12 -4 15 41 4 48 -4 3 -8 3 -9 0z"/>
 <path d="M346 1401 c-4 -5 -2 -12 4 -16 5 -3 10 -3 10 1 0 3 6 1 14 -5 10 -8 16 -9 21 -1 3 5 4 11 1 11 -3 1 -9 2 -13 3 -5 1 -13 5 -20 9 -6 4 -14 3 -17 -2z"/>
 <path d="M1256 1362 c-3 -6 1 -15 8 -21 8 -7 17 -8 20 -3 3 6 -1 15 -8 21 -8 7 -17 8 -20 3z"/>
 <path d="M204 1258 c-6 -9 -4 -10 26 -11 11 -1 19 3 18 8 -4 12 -37 14 -44 3z"/>
 <path d="M174 1218 c-6 -9 -4 -10 26 -11 11 -1 19 3 18 8 -4 12 -37 14 -44 3z"/>
 <path d="M1415 1172 c-8 -9 5 -21 18 -16 8 3 20 -10 30 -31 10 -20 13 -34 8 -31 -5 4 -12 2 -15 -3 -11 -18 11 -21 27 -3 14 15 14 20 -3 51 -15 31 -50 48 -65 33z"/>
 <path d="M110 1101 c-6 -12 -6 -22 -1 -26 6 -3 15 3 21 14 6 12 6 22 1 26 -6 3 -15 -3 -21 -14z"/>
 <path d="M125 1070 c-4 -6 -10 -8 -15 -5 -5 3 -11 1 -14 -4 -4 -5 -2 -12 3 -15 5 -4 12 -2 16 4 4 6 10 8 15 5 5 -3 11 -1 14 4 4 5 2 12 -3 15 -5 4 -12 2 -16 -4z"/>
 <path d="M1486 1051 c-11 -13 -14 -21 -7 -26 11 -6 15 1 12 18 -1 5 3 6 8 3 5 -4 12 -2 15 3 12 19 -12 20 -28 2z"/>
 <path d="M1496 1021 c-10 -11 -13 -22 -8 -25 5 -3 17 3 26 13 10 11 13 22 8 25 -5 3 -17 -3 -26 -13z"/>
 <path d="M105 1010 c-4 -6 -10 -8 -15 -5 -5 3 -11 1 -14 -4 -4 -5 -2 -12 3 -15 5 -4 12 -2 16 4 4 6 10 8 15 5 5 -3 11 -1 14 4 4 5 2 12 -3 15 -5 4 -12 2 -16 -4z"/>
 <path d="M95 970 c-4 -6 -10 -8 -15 -5 -5 3 -11 1 -14 -4 -4 -5 -2 -12 3 -15 5 -4 12 -2 16 4 4 6 10 8 15 5 5 -3 11 -1 14 4 4 5 2 12 -3 15 -5 4 -12 2 -16 -4z"/>
 <path d="M1486 961 c-10 -11 -13 -22 -8 -25 5 -3 17 3 26 13 10 11 13 22 8 25 -5 3 -17 -3 -26 -13z"/>
 <path d="M205 930 c-3 -5 -29 -8 -58 -7 -29 1 -53 -2 -54 -8 -2 -5 1 -10 6 -10 5 0 13 -3 17 -7 11 -11 162 -10 169 1 6 11 -6 20 -45 31 -17 5 -32 5 -35 0z"/>
 <path d="M345 932 c-27 -6 -46 -22 -39 -33 3 -5 52 -9 109 -9 l104 0 3 -95 c4 -128 22 -128 26 0 l3 100 110 -3 c129 -4 144 -1 130 27 -9 17 -15 18 -51 9 -27 -7 -53 -7 -80 0 -22 5 -42 7 -45 3 -5 -9 -225 -9 -240 0 -5 3 -19 4 -30 1z"/>
 <path d="M1025 930 c-3 -5 -48 -7 -100 -6 -124 4 -127 2 -123 -128 4 -125 22 -127 26 -2 l3 95 112 3 c62 2 165 2 229 0 l117 -4 3 -94 c4 -126 22 -123 26 5 3 97 2 101 -22 116 -17 11 -35 14 -59 10 -20 -4 -37 -2 -41 3 -4 7 -20 6 -46 0 -27 -7 -53 -7 -80 0 -22 5 -42 6 -45 2z"/>
 <path d="M1434 928 c-4 -5 -21 -7 -40 -3 -36 6 -79 -10 -68 -26 7 -12 193 -9 200 3 10 15 -7 30 -21 18 -8 -6 -16 -7 -19 -2 -9 14 -45 21 -52 10z"/>
 <path d="M55 900 c-4 -6 -3 -16 3 -22 6 -6 12 -6 17 2 4 6 3 16 -3 22 -6 6 -12 6 -17 -2z"/>
 <path d="M1535 890 c-4 -6 -3 -16 3 -22 6 -6 12 -6 17 2 4 6 3 16 -3 22 -6 6 -12 6 -17 -2z"/>
 <path d="M105 880 c-4 -6 -3 -16 3 -22 6 -6 12 -6 17 2 4 6 3 16 -3 22 -6 6 -12 6 -17 -2z"/>
 <path d="M1484 876 c-4 -10 -2 -22 4 -28 8 -8 13 -7 18 6 4 10 2 22 -4 28 -8 8 -13 7 -18 -6z"/>
 <path d="M74 816 c-8 -21 3 -49 16 -41 5 3 10 15 10 25 0 25 -18 36 -26 16z"/>
 <path d="M1485 750 c-4 -6 -3 -16 3 -22 6 -6 12 -6 17 2 4 6 3 16 -3 22 -6 6 -12 6 -17 -2z"/>
 <path d="M105 740 c-4 -6 -3 -16 3 -22 6 -6 12 -6 17 2 4 6 3 16 -3 22 -6 6 -12 6 -17 -2z"/>
 <path d="M1535 730 c-4 -6 -3 -16 3 -22 6 -6 12 -6 17 2 4 6 3 16 -3 22 -6 6 -12 6 -17 -2z"/>
 <path d="M55 720 c-4 -6 -3 -16 3 -22 6 -6 12 -6 17 2 4 6 3 16 -3 22 -6 6 -12 6 -17 -2z"/>
 <path d="M1505 700 c-4 -6 -3 -16 3 -22 6 -6 12 -6 17 2 4 6 3 16 -3 22 -6 6 -12 6 -17 -2z"/>
 <path d="M110 655 c-9 -11 -16 -12 -25 -5 -9 8 -15 8 -20 0 -3 -5 -4 -11 -1 -11 3 -1 9 -2 14 -3 4 -1 12 -5 18 -8 6 -4 19 1 28 11 10 11 13 22 8 25 -5 3 -15 -1 -22 -9z"/>
 <path d="M1476 662 c-3 -5 3 -17 13 -26 11 -10 22 -13 25 -8 3 5 -3 17 -13 26 -11 10 -22 13 -25 8z"/>
 <path d="M96 591 c-11 -13 -14 -21 -7 -26 11 -6 15 1 12 18 -1 5 3 6 8 3 5 -4 12 -2 15 3 12 19 -12 20 -28 2z"/>
 <path d="M1485 601 c-6 -11 1 -15 18 -12 5 1 6 -3 3 -8 -4 -5 -2 -12 3 -15 19 -12 20 12 2 28 -13 11 -21 14 -26 7z"/>
 <path d="M106 561 c-11 -13 -14 -21 -7 -26 11 -6 15 1 12 18 -1 5 3 6 8 3 5 -4 12 -2 15 3 12 19 -12 20 -28 2z"/>
 <path d="M1476 572 c-3 -5 3 -17 13 -26 11 -10 22 -13 25 -8 3 5 -3 17 -13 26 -11 10 -22 13 -25 8z"/>
 <path d="M1450 510 c-10 -18 -7 -24 12 -21 4 0 5 -6 1 -15 -3 -8 -12 -13 -19 -10 -17 6 -39 -30 -24 -39 6 -3 13 1 16 10 4 9 13 14 20 11 8 -3 20 7 29 24 14 28 13 35 -8 31 -5 -1 -6 3 -3 8 4 5 2 12 -3 16 -6 3 -15 -4 -21 -15z"/>
 <path d="M117 503 c-3 -3 2 -22 13 -43 14 -28 24 -36 42 -35 13 1 21 6 18 11 -2 5 -10 8 -16 6 -6 -1 -17 11 -24 28 -14 33 -24 43 -33 33z"/>
 <path d="M1394 408 c-6 -9 -4 -10 26 -11 11 -1 19 3 18 8 -4 12 -37 14 -44 3z"/>
 <path d="M1271 266 c-7 -8 -8 -17 -3 -20 6 -3 15 1 21 8 7 8 8 17 3 20 -6 3 -15 -1 -21 -8z"/>
 <path d="M327 263 c-4 -3 -2 -12 3 -19 6 -6 9 -16 8 -22 -2 -5 1 -12 6 -13 14 -6 15 40 1 51 -7 5 -15 7 -18 3z"/>
 <path d="M379 226 c-5 -23 -2 -46 5 -48 12 -4 15 41 4 48 -4 3 -8 3 -9 0z"/>
 <path d="M606 222 c-3 -6 1 -15 8 -21 8 -7 17 -8 20 -3 3 6 -1 15 -8 21 -8 7 -17 8 -20 3z"/>
 <path d="M921 206 c-7 -8 -8 -17 -3 -20 6 -3 15 1 21 8 7 8 8 17 3 20 -6 3 -15 -1 -21 -8z"/>
 <path d="M409 206 c-5 -23 -2 -46 5 -48 12 -4 15 41 4 48 -4 3 -8 3 -9 0z"/>
 <path d="M459 208 c-9 -32 -2 -51 23 -64 16 -8 26 -19 23 -24 -3 -5 3 -14 14 -20 12 -6 22 -6 26 -1 3 6 -3 15 -14 20 -13 7 -18 19 -16 36 2 20 -4 29 -26 41 -16 8 -29 13 -30 12z"/>
 <path d="M1107 189 c-10 -6 -15 -15 -12 -20 4 -5 11 -7 16 -3 5 3 8 1 7 -4 -2 -6 1 -12 6 -13 10 -4 16 40 7 46 -4 2 -14 -1 -24 -6z"/>
 <path d="M1049 166 c-5 -23 -2 -46 5 -48 12 -4 15 41 4 48 -4 3 -8 3 -9 0z"/>
 <path d="M566 111 c-11 -13 -14 -21 -7 -26 11 -6 15 1 12 18 -1 5 3 6 8 3 5 -4 12 -2 15 3 12 19 -12 20 -28 2z"/>
 <path d="M1015 121 c-6 -11 1 -15 18 -12 5 1 6 -3 3 -8 -4 -5 -2 -12 3 -15 19 -12 20 12 2 28 -13 11 -21 14 -26 7z"/>
 <path d="M715 90 c-8 -12 20 -24 35 -15 6 3 8 11 5 16 -8 12 -32 12 -40 -1z"/>
 <path d="M855 91 c-7 -12 12 -24 25 -16 11 7 4 25 -10 25 -5 0 -11 -4 -15 -9z"/>
 <path d="M765 60 c-3 -5 0 -13 9 -16 21 -8 71 -1 71 11 0 14 -72 19 -80 5z"/>
 </g>
<g id="layer105" fill="#e75b92" stroke="none">
 <path d="M442 267 l-43 -32 23 -18 c31 -25 114 -67 133 -67 8 0 29 13 47 29 l32 28 -64 47 c-35 25 -69 46 -75 46 -5 -1 -29 -15 -53 -33z"/>
 <path d="M732 253 c-73 -52 -74 -46 23 -116 l51 -36 67 50 c37 27 67 51 67 54 0 8 -123 95 -135 95 -5 0 -39 -21 -73 -47z"/>
 <path d="M1041 253 l-64 -47 33 -28 c19 -15 40 -28 47 -28 18 0 102 43 132 67 l24 20 -46 31 c-25 18 -49 32 -54 32 -4 0 -37 -22 -72 -47z"/>
 </g>
<g id="layer106" fill="#036cb4" stroke="none">
 <path d="M299 372 l-31 -28 57 -52 57 -52 44 31 c24 16 44 33 44 38 0 9 -116 91 -129 91 -6 0 -25 -13 -42 -28z"/>
 <path d="M580 354 c-34 -25 -58 -49 -54 -53 29 -24 116 -81 125 -81 5 0 37 19 69 42 56 39 59 43 43 60 -16 18 -105 78 -115 78 -3 0 -34 -21 -68 -46z"/>
 <path d="M890 359 c-30 -22 -56 -44 -58 -48 -3 -9 111 -91 127 -91 9 0 96 56 125 81 9 8 -109 100 -128 98 -6 0 -36 -19 -66 -40z"/>
 <path d="M1200 359 c-30 -22 -56 -44 -58 -49 -2 -4 17 -22 42 -39 l44 -31 57 52 57 52 -33 28 c-18 15 -38 28 -44 28 -5 -1 -35 -19 -65 -41z"/>
 </g>
<g id="layer107" fill="#582322" stroke="none">
 <path d="M739 1556 c-1 -3 -2 -10 -3 -15 0 -5 -4 -12 -8 -16 -4 -4 -4 -14 -1 -22 4 -9 -5 -24 -22 -37 -16 -13 -24 -26 -18 -29 5 -3 26 8 47 25 34 28 36 32 22 47 -11 12 -13 20 -5 28 8 8 8 13 0 17 -6 4 -12 5 -12 2z"/>
 <path d="M856 1511 c-16 -18 -15 -20 20 -49 21 -17 42 -28 47 -25 6 3 -2 16 -18 29 -18 14 -26 28 -22 38 9 23 -8 28 -27 7z"/>
 <path d="M656 1512 c-9 -15 21 -49 34 -36 7 7 5 15 -9 28 -10 9 -22 13 -25 8z"/>
 <path d="M922 1501 c-23 -17 -21 -31 4 -31 16 0 38 37 26 44 -4 2 -18 -3 -30 -13z"/>
 <path d="M578 1494 c-20 -20 36 -80 74 -79 20 0 25 19 5 20 -21 2 -47 17 -42 25 6 9 -30 42 -37 34z"/>
 <path d="M1010 1485 c-9 -11 -16 -12 -26 -4 -7 6 -18 8 -24 4 -14 -9 -1 -28 15 -21 8 3 19 -2 25 -9 15 -18 26 -12 33 15 7 26 -7 34 -23 15z"/>
 <path d="M625 1481 c-7 -12 12 -24 25 -16 11 7 4 25 -10 25 -5 0 -11 -4 -15 -9z"/>
 <path d="M975 1440 c-4 -6 -13 -9 -20 -8 -8 2 -15 -1 -17 -6 -2 -5 7 -10 20 -11 25 -2 49 19 33 29 -5 4 -13 2 -16 -4z"/>
 <path d="M635 1381 c-7 -12 12 -24 25 -16 11 7 4 25 -10 25 -5 0 -11 -4 -15 -9z"/>
 <path d="M932 1374 c-32 -22 -18 -35 18 -17 17 8 28 19 25 24 -8 13 -17 11 -43 -7z"/>
 <path d="M267 1332 c-48 -49 -35 -64 14 -16 25 24 39 32 44 24 9 -14 -35 -62 -51 -56 -14 5 -37 -17 -28 -27 3 -3 13 -3 22 0 10 4 14 3 10 -2 -4 -4 -2 -15 5 -24 11 -14 10 -14 -6 -2 -13 10 -21 11 -29 3 -8 -8 -4 -14 15 -23 32 -15 33 -20 7 -37 -12 -7 -18 -17 -14 -23 4 -6 12 -5 22 3 15 11 15 11 5 -3 -20 -26 -3 -30 29 -8 l29 21 39 -26 c21 -14 42 -21 45 -16 3 5 -13 21 -35 36 -24 16 -39 33 -36 40 6 15 -27 38 -38 27 -3 -4 1 -14 9 -23 13 -14 12 -17 -8 -29 -20 -13 -21 -13 -8 2 11 13 11 20 1 32 -6 8 -9 19 -6 24 4 5 1 13 -5 16 -7 5 2 21 25 44 33 34 35 39 21 56 -8 11 -15 16 -15 11 0 -5 -6 -4 -13 3 -10 8 -22 2 -50 -27z"/>
 <path d="M585 1346 c-15 -13 -24 -25 -19 -29 6 -3 23 4 39 17 15 13 24 25 19 29 -6 3 -23 -4 -39 -17z"/>
 <path d="M986 1361 c-4 -5 7 -19 23 -30 16 -12 32 -17 35 -12 4 5 -7 19 -23 30 -16 12 -32 17 -35 12z"/>
 <path d="M386 1352 c-3 -6 1 -15 8 -21 8 -7 17 -8 20 -3 3 6 -1 15 -8 21 -8 7 -17 8 -20 3z"/>
 <path d="M1201 1346 c-7 -8 -8 -17 -3 -20 6 -3 15 1 21 8 7 8 8 17 3 20 -6 3 -15 -1 -21 -8z"/>
 <path d="M1306 1352 c-3 -5 8 -21 23 -36 16 -15 31 -23 35 -18 3 5 -8 21 -23 36 -16 15 -31 23 -35 18z"/>
 <path d="M705 1340 c-3 -5 6 -17 20 -26 14 -9 24 -23 21 -30 -7 -18 5 -26 20 -13 9 8 11 17 4 29 -13 24 -58 52 -65 40z"/>
 <path d="M869 1329 c-18 -13 -25 -26 -24 -44 3 -23 2 -24 -17 -10 -19 13 -25 11 -65 -16 -54 -37 -47 -59 7 -23 l39 26 30 -21 c16 -12 32 -17 35 -12 4 5 2 12 -3 16 -17 10 -7 52 18 72 32 26 13 37 -20 12z"/>
 <path d="M1271 1333 c-8 -17 -5 -25 19 -48 22 -21 27 -32 19 -41 -6 -7 -6 -14 -1 -18 6 -3 15 1 22 9 7 8 9 15 4 15 -4 0 0 6 11 13 15 12 16 15 4 23 -8 5 -21 9 -29 9 -8 0 -15 8 -15 17 0 10 -5 22 -12 29 -8 8 -14 6 -22 -8z"/>
 <path d="M426 1323 c-3 -3 0 -13 6 -21 10 -11 7 -18 -15 -34 -15 -11 -25 -24 -21 -29 3 -5 19 0 35 12 16 11 26 25 23 31 -4 6 -2 8 4 4 6 -3 13 -2 16 3 7 10 -39 43 -48 34z"/>
 <path d="M530 1301 c-7 -14 -7 -22 1 -26 6 -4 8 -13 5 -21 -6 -16 50 -59 58 -45 4 5 1 13 -5 16 -5 4 -8 13 -5 21 3 7 -4 20 -16 28 -11 8 -17 19 -14 25 4 5 2 12 -3 16 -6 3 -15 -3 -21 -14z"/>
 <path d="M1059 1315 c-1 -6 -1 -14 0 -18 1 -5 -8 -16 -20 -26 -12 -10 -18 -21 -13 -24 6 -3 23 5 40 18 28 23 28 24 12 41 -10 10 -19 14 -19 9z"/>
 <path d="M1135 1300 c-6 -10 1 -14 18 -11 5 1 6 -3 3 -8 -4 -5 -1 -13 5 -16 5 -4 8 -13 5 -21 -3 -7 7 -22 22 -34 l27 -20 -28 -21 c-15 -11 -24 -25 -21 -30 3 -6 12 -5 22 3 15 11 15 11 5 -3 -20 -26 -3 -30 29 -8 27 20 28 22 13 39 -10 11 -14 23 -11 29 4 5 1 13 -5 16 -5 4 -8 13 -5 20 6 16 -70 79 -79 65z"/>
 <path d="M480 1275 c-7 -8 -11 -15 -9 -16 47 -10 73 3 40 20 -14 8 -22 7 -31 -4z"/>
 <path d="M695 1246 c-15 -13 -24 -25 -19 -29 6 -3 23 4 39 17 15 13 24 25 19 29 -6 3 -23 -4 -39 -17z"/>
 <path d="M876 1263 c-3 -3 -1 -12 6 -20 6 -7 8 -16 5 -20 -4 -3 -2 -12 4 -20 8 -9 8 -17 0 -26 -15 -19 -1 -30 18 -14 14 10 14 10 4 -4 -18 -23 -5 -31 23 -13 13 9 28 13 33 10 5 -4 12 -2 16 4 3 6 -1 13 -10 16 -14 6 -14 8 0 24 19 21 9 33 -16 19 -10 -5 -16 -16 -13 -23 3 -8 1 -16 -4 -20 -5 -3 -8 8 -7 25 1 22 -5 35 -25 49 -15 11 -30 17 -34 13z"/>
 <path d="M596 1243 c-3 -3 -2 -11 2 -17 4 -6 7 -19 7 -28 0 -10 5 -17 10 -15 6 1 9 8 9 15 -2 10 1 10 13 1 12 -11 12 -14 -2 -21 -29 -17 0 -29 44 -19 2 1 -2 8 -9 16 -6 8 -9 18 -6 24 7 10 -59 53 -68 44z"/>
 <path d="M1030 1230 c-33 -25 -33 -57 1 -81 36 -26 47 -7 12 20 l-28 20 29 24 c34 28 22 44 -14 17z"/>
 <path d="M394 1214 l-29 -24 29 -24 c17 -14 34 -22 40 -19 5 3 -1 14 -13 25 l-23 18 23 18 c12 11 18 22 13 25 -6 3 -23 -5 -40 -19z"/>
 <path d="M1226 1231 c-4 -5 3 -16 15 -25 12 -8 18 -19 15 -24 -3 -5 5 -17 19 -26 31 -20 43 -3 13 19 -21 15 -22 17 -5 26 20 12 13 31 -8 22 -9 -3 -22 0 -29 6 -9 8 -16 8 -20 2z"/>
 <path d="M1320 1217 c-35 -22 -37 -32 -9 -47 15 -9 18 -15 9 -25 -8 -9 -8 -15 0 -20 10 -6 11 -5 14 14 0 5 4 13 8 17 4 4 3 13 -3 20 -17 20 -1 38 19 22 21 -17 45 -17 66 1 16 14 12 36 -5 25 -5 -3 -7 -9 -5 -13 3 -4 -4 -7 -14 -8 -11 -1 -22 3 -26 8 -3 5 -1 8 4 7 6 -2 9 1 9 7 -3 16 -35 12 -67 -8z"/>
 <path d="M690 1204 c-10 -11 -10 -18 -2 -26 8 -8 8 -15 1 -24 -7 -8 -7 -14 1 -19 5 -3 11 -4 11 -1 4 17 7 26 9 29 1 1 3 12 4 25 3 29 -8 36 -24 16z"/>
 <path d="M156 1192 c-7 -12 28 -44 39 -35 4 5 0 -4 -9 -18 -14 -23 -14 -28 -2 -38 15 -13 28 -1 32 29 1 8 3 22 5 30 2 9 -2 14 -10 12 -7 -2 -21 4 -31 13 -10 9 -21 12 -24 7z"/>
 <path d="M557 1158 c-15 -11 -24 -24 -21 -29 3 -6 12 -5 22 3 15 11 15 11 4 -4 -20 -26 1 -29 32 -5 27 22 27 23 9 39 -17 15 -20 15 -46 -4z"/>
 <path d="M1390 1180 c-8 -35 -3 -64 14 -76 12 -8 24 -10 29 -5 12 12 -1 33 -15 25 -7 -5 -9 -2 -5 8 3 9 -1 24 -8 35 -8 10 -15 16 -15 13z"/>
 <path d="M729 1166 c-1 -3 -2 -9 -3 -13 -1 -5 -5 -13 -9 -20 -4 -7 2 -18 14 -27 18 -12 20 -18 10 -30 -7 -9 -8 -16 -2 -20 5 -4 17 4 26 16 15 22 14 24 -10 43 -18 15 -22 24 -14 32 8 8 8 13 0 17 -6 4 -12 5 -12 2z"/>
 <path d="M855 1151 c-6 -11 1 -15 20 -12 6 1 -5 -11 -24 -27 -19 -16 -30 -31 -25 -34 5 -4 24 6 42 21 33 26 33 27 14 44 -13 12 -22 15 -27 8z"/>
 <path d="M996 1151 c-4 -5 7 -19 23 -30 16 -12 32 -17 35 -12 4 5 -7 19 -23 30 -16 12 -32 17 -35 12z"/>
 <path d="M1359 1156 c-1 -3 -2 -9 -3 -13 -1 -5 -5 -13 -9 -19 -4 -7 0 -17 8 -24 8 -7 13 -16 10 -20 -3 -5 -1 -11 4 -15 6 -3 15 3 21 14 8 17 6 22 -11 31 -15 9 -18 15 -9 25 8 9 8 15 0 20 -5 3 -11 4 -11 1z"/>
 <path d="M225 1141 c-6 -11 0 -15 20 -12 6 1 0 -7 -13 -16 -20 -16 -21 -21 -9 -37 10 -13 16 -15 21 -8 4 7 4 12 0 12 -4 0 0 8 10 18 15 18 15 20 -3 36 -12 11 -21 14 -26 7z"/>
 <path d="M449 1146 c-1 -3 -2 -9 -3 -13 -1 -5 -5 -13 -8 -19 -4 -6 1 -19 11 -28 11 -10 22 -13 25 -8 3 5 -1 15 -9 22 -11 9 -12 16 -5 25 8 9 8 15 0 20 -5 3 -11 4 -11 1z"/>
 <path d="M755 1141 c-3 -5 8 -19 23 -30 26 -18 31 -19 51 -5 12 9 19 20 15 25 -4 6 -11 6 -20 -2 -11 -9 -19 -8 -38 5 -14 9 -27 12 -31 7z"/>
 <path d="M1079 1133 c-1 -4 -1 -11 0 -15 0 -4 -15 -23 -35 -42 -19 -19 -31 -37 -26 -39 11 -8 62 34 65 53 2 8 6 20 10 27 4 6 3 14 -3 18 -5 3 -11 3 -11 -2z"/>
 <path d="M1135 1131 c-6 -11 1 -15 18 -12 5 1 6 -3 3 -8 -4 -5 -2 -12 3 -15 19 -12 20 12 2 28 -13 11 -21 14 -26 7z"/>
 <path d="M475 1122 c-3 -3 0 -11 6 -18 8 -10 16 -11 31 -3 12 7 18 7 14 1 -3 -5 2 -20 12 -33 11 -12 22 -18 25 -13 9 15 -37 67 -61 69 -12 1 -24 -1 -27 -3z"/>
 <path d="M1135 1091 c-3 -6 15 -24 39 -40 25 -17 47 -27 51 -22 3 6 -15 24 -39 40 -25 17 -47 27 -51 22z"/>
 <path d="M405 1056 c-15 -13 -24 -25 -19 -29 6 -3 23 4 39 17 15 13 24 25 19 29 -6 3 -23 -4 -39 -17z"/>
 <path d="M256 1061 c-4 -5 7 -19 23 -30 16 -12 32 -17 35 -12 4 5 -7 19 -23 30 -16 12 -32 17 -35 12z"/>
 <path d="M1315 1046 c-15 -13 -24 -25 -19 -29 6 -3 23 4 39 17 15 13 24 25 19 29 -6 3 -23 -4 -39 -17z"/>
 <path d="M685 1036 c-15 -13 -24 -25 -19 -29 6 -3 23 4 39 17 15 13 24 25 19 29 -6 3 -23 -4 -39 -17z"/>
 <path d="M886 1051 c-4 -5 7 -19 23 -30 16 -12 32 -17 35 -12 4 5 -7 19 -23 30 -16 12 -32 17 -35 12z"/>
 <path d="M606 1032 c-3 -6 1 -15 8 -21 8 -7 17 -8 20 -3 3 6 -1 15 -8 21 -8 7 -17 8 -20 3z"/>
 <path d="M981 1026 c-7 -8 -8 -17 -3 -20 6 -3 15 1 21 8 7 8 8 17 3 20 -6 3 -15 -1 -21 -8z"/>
 <path d="M355 1020 c-4 -6 -10 -8 -15 -5 -5 3 -11 1 -14 -4 -4 -5 -2 -12 3 -15 5 -4 12 -2 16 4 4 6 10 8 15 5 5 -3 11 -1 14 4 4 5 2 12 -3 15 -5 4 -12 2 -16 -4z"/>
 <path d="M1236 1021 c-7 -10 14 -27 32 -27 13 1 17 21 5 21 -5 0 -13 4 -20 8 -6 4 -14 3 -17 -2z"/>
 <path d="M301 916 c-7 -8 -8 -17 -3 -20 6 -3 15 1 21 8 7 8 8 17 3 20 -6 3 -15 -1 -21 -8z"/>
 <path d="M1026 922 c-3 -6 1 -15 8 -21 8 -7 17 -8 20 -3 3 6 -1 15 -8 21 -8 7 -17 8 -20 3z"/>
 <path d="M155 691 c-7 -13 17 -24 40 -19 9 1 16 8 16 13 0 14 -48 19 -56 6z"/>
 <path d="M265 690 c-8 -13 20 -24 41 -16 20 8 9 26 -16 26 -10 0 -22 -5 -25 -10z"/>
 <path d="M365 691 c-7 -13 17 -24 40 -19 9 1 16 8 16 13 0 14 -48 19 -56 6z"/>
 <path d="M465 691 c-7 -13 17 -24 40 -19 9 1 16 8 16 13 0 14 -48 19 -56 6z"/>
 <path d="M565 691 c-7 -13 17 -24 40 -19 9 1 16 8 16 13 0 14 -48 19 -56 6z"/>
 <path d="M675 690 c-8 -13 20 -24 41 -16 20 8 9 26 -16 26 -10 0 -22 -5 -25 -10z"/>
 <path d="M775 691 c-7 -13 17 -24 40 -19 9 1 16 8 16 13 0 14 -48 19 -56 6z"/>
 <path d="M875 691 c-7 -13 17 -24 40 -19 9 1 16 8 16 13 0 14 -48 19 -56 6z"/>
 <path d="M975 691 c-7 -13 17 -24 40 -19 9 1 16 8 16 13 0 14 -48 19 -56 6z"/>
 <path d="M1085 690 c-8 -13 20 -24 41 -16 20 8 9 26 -16 26 -10 0 -22 -5 -25 -10z"/>
 <path d="M1185 691 c-7 -13 17 -24 40 -19 9 1 16 8 16 13 0 14 -48 19 -56 6z"/>
 <path d="M1285 691 c-7 -13 17 -24 40 -19 9 1 16 8 16 13 0 14 -48 19 -56 6z"/>
 <path d="M1385 691 c-7 -13 17 -24 40 -19 9 1 16 8 16 13 0 14 -48 19 -56 6z"/>
 <path d="M155 651 c-7 -13 17 -24 40 -19 9 1 16 8 16 13 0 14 -48 19 -56 6z"/>
 <path d="M255 650 c-3 -5 0 -13 9 -16 21 -8 61 -1 61 11 0 14 -62 19 -70 5z"/>
 <path d="M365 651 c-7 -13 17 -24 40 -19 9 1 16 8 16 13 0 14 -48 19 -56 6z"/>
 <path d="M465 651 c-7 -13 17 -24 40 -19 9 1 16 8 16 13 0 14 -48 19 -56 6z"/>
 <path d="M565 651 c-7 -13 17 -24 40 -19 9 1 16 8 16 13 0 14 -48 19 -56 6z"/>
 <path d="M665 650 c-3 -5 0 -13 9 -16 21 -8 61 -1 61 11 0 14 -62 19 -70 5z"/>
 <path d="M775 651 c-7 -13 17 -24 40 -19 9 1 16 8 16 13 0 14 -48 19 -56 6z"/>
 <path d="M875 651 c-7 -13 17 -24 40 -19 9 1 16 8 16 13 0 14 -48 19 -56 6z"/>
 <path d="M975 651 c-7 -13 17 -24 40 -19 9 1 16 8 16 13 0 14 -48 19 -56 6z"/>
 <path d="M1075 650 c-3 -5 0 -13 9 -16 21 -8 61 -1 61 11 0 14 -62 19 -70 5z"/>
 <path d="M1185 651 c-7 -13 17 -24 40 -19 9 1 16 8 16 13 0 14 -48 19 -56 6z"/>
 <path d="M1285 651 c-7 -13 17 -24 40 -19 9 1 16 8 16 13 0 14 -48 19 -56 6z"/>
 <path d="M1385 651 c-7 -13 17 -24 40 -19 9 1 16 8 16 13 0 14 -48 19 -56 6z"/>
 <path d="M321 597 c-13 -17 -5 -28 15 -20 8 3 21 0 28 -6 9 -8 16 -8 20 -2 4 5 -4 17 -16 25 -27 19 -32 20 -47 3z"/>
 <path d="M617 589 c-38 -29 -24 -42 18 -18 19 12 32 25 29 30 -8 13 -16 11 -47 -12z"/>
 <path d="M946 601 c-3 -5 10 -18 29 -30 43 -25 56 -10 16 18 -33 24 -37 25 -45 12z"/>
 <path d="M1241 594 c-12 -9 -19 -20 -15 -25 4 -6 11 -6 20 2 7 6 20 9 29 6 22 -9 28 11 7 22 -14 7 -25 6 -41 -5z"/>
 <path d="M676 581 c-4 -5 7 -19 23 -30 16 -12 32 -17 35 -12 4 5 -7 19 -23 30 -16 12 -32 17 -35 12z"/>
 <path d="M895 566 c-15 -13 -24 -25 -19 -29 6 -3 23 4 39 17 15 13 24 25 19 29 -6 3 -23 -4 -39 -17z"/>
 <path d="M252 549 c-23 -17 -40 -35 -37 -40 4 -5 26 5 51 22 24 16 42 34 39 40 -8 11 -3 13 -53 -22z"/>
 <path d="M1306 571 c-4 -5 7 -19 23 -30 16 -12 32 -17 35 -12 4 5 -7 19 -23 30 -16 12 -32 17 -35 12z"/>
 <path d="M396 563 c-8 -8 56 -68 68 -65 5 2 4 -3 -2 -11 -15 -18 -3 -31 14 -16 11 9 9 16 -8 40 -25 34 -63 61 -72 52z"/>
 <path d="M1026 551 c-4 -5 7 -19 23 -30 16 -12 32 -17 35 -12 4 5 -7 19 -23 30 -16 12 -32 17 -35 12z"/>
 <path d="M1156 528 c-11 -15 -12 -25 -5 -34 5 -6 8 -16 7 -22 -2 -5 2 -9 7 -8 6 0 9 5 7 9 -1 5 2 5 8 2 6 -4 9 -13 6 -21 -3 -8 3 -20 14 -26 17 -11 18 -14 4 -29 -22 -24 -3 -31 26 -9 20 15 22 21 11 34 -7 8 -10 19 -7 25 4 5 -8 20 -26 32 -18 12 -35 24 -37 26 -2 1 2 9 8 17 8 9 8 16 2 20 -5 4 -17 -4 -25 -16z"/>
 <path d="M532 527 c-12 -15 -9 -63 4 -59 5 2 8 8 6 14 -1 5 2 6 8 3 6 -4 9 -13 6 -21 -3 -7 7 -22 22 -33 l27 -20 -23 -16 c-12 -9 -20 -21 -16 -26 3 -5 18 0 35 11 26 19 28 24 17 43 -7 12 -13 28 -13 34 0 7 -5 12 -10 10 -6 -1 -9 -6 -7 -10 1 -5 -2 -5 -8 -2 -6 4 -9 13 -6 20 3 8 -2 19 -9 25 -8 7 -13 16 -10 20 9 14 -12 21 -23 7z"/>
 <path d="M747 534 c-10 -11 13 -45 26 -39 7 4 0 -3 -16 -15 -15 -12 -24 -26 -21 -31 3 -6 20 1 38 15 31 24 33 24 56 6 27 -20 48 -16 30 5 -8 10 -8 19 -1 34 7 12 7 22 2 26 -12 7 -33 -29 -23 -41 4 -5 0 -3 -10 4 -13 10 -18 10 -24 1 -5 -9 -14 -4 -29 15 -11 14 -24 24 -28 20z"/>
 <path d="M104 518 c-6 -9 -4 -10 26 -11 11 -1 19 3 18 8 -4 12 -37 14 -44 3z"/>
 <path d="M1366 511 c-11 -13 -14 -21 -7 -26 11 -6 15 1 12 18 -1 5 3 6 8 3 5 -4 12 -2 15 3 12 19 -12 20 -28 2z"/>
 <path d="M175 500 c-8 -13 14 -52 26 -45 5 4 6 12 2 18 -4 8 -1 7 9 -1 10 -8 19 -9 22 -3 4 5 -4 17 -16 25 -26 19 -35 20 -43 6z"/>
 <path d="M1025 486 c-15 -13 -24 -25 -19 -29 6 -3 23 4 39 17 15 13 24 25 19 29 -6 3 -23 -4 -39 -17z"/>
 <path d="M1090 495 c-13 -16 -12 -17 25 -17 14 0 28 0 31 1 11 2 -18 31 -31 31 -7 0 -18 -7 -25 -15z"/>
 <path d="M1387 489 c-15 -12 -24 -25 -21 -30 3 -6 12 -5 22 3 12 9 10 3 -5 -24 -31 -53 -10 -58 23 -6 43 68 34 96 -19 57z"/>
 <path d="M395 476 c-15 -13 -24 -25 -19 -29 6 -3 23 4 39 17 15 13 24 25 19 29 -6 3 -23 -4 -39 -17z"/>
 <path d="M256 471 c-11 -13 -14 -21 -7 -26 11 -6 15 1 12 18 -1 5 3 5 9 2 6 -4 9 -13 6 -21 -3 -7 -1 -16 5 -20 6 -3 8 -12 5 -19 -7 -19 5 -27 21 -14 11 10 11 16 -4 38 -14 22 -14 24 -1 13 10 -8 19 -9 22 -3 4 5 -7 19 -23 30 -28 20 -29 20 -45 2z"/>
 <path d="M1305 466 c-15 -13 -24 -25 -19 -29 6 -3 23 4 39 17 15 13 24 25 19 29 -6 3 -23 -4 -39 -17z"/>
 <path d="M677 458 c-20 -15 -31 -17 -41 -9 -7 6 -16 8 -19 4 -10 -9 13 -33 27 -27 6 2 23 -7 35 -20 22 -23 49 -27 35 -5 -3 5 -10 7 -15 3 -5 -3 -8 0 -7 8 2 7 -4 12 -12 10 -8 -2 -2 8 14 21 36 29 21 43 -17 15z"/>
 <path d="M886 461 c-11 -13 -14 -21 -7 -26 11 -6 15 1 12 18 -1 5 3 5 9 2 6 -4 9 -13 6 -20 -7 -19 19 -52 28 -36 4 6 2 20 -6 29 -11 15 -11 16 2 7 26 -18 77 -5 64 16 -4 6 -11 6 -20 -1 -10 -9 -20 -7 -42 9 -29 20 -30 20 -46 2z"/>
 <path d="M1004 435 l-29 -25 25 -19 c28 -22 50 -17 27 7 -14 13 -13 17 5 32 12 9 17 20 12 23 -6 3 -23 -5 -40 -18z"/>
 <path d="M386 428 c-11 -16 -13 -25 -5 -35 12 -14 33 -7 23 8 -3 5 -1 16 6 24 7 8 7 15 1 19 -5 4 -17 -4 -25 -16z"/>
 <path d="M1300 424 c-9 -10 -10 -18 -3 -25 8 -8 14 -5 22 9 13 25 -2 38 -19 16z"/>
 <path d="M216 421 c-4 -5 -2 -13 4 -16 8 -5 7 -11 -1 -21 -6 -8 -10 -14 -8 -15 33 -6 60 -6 63 -1 2 4 -8 20 -24 35 -16 16 -31 24 -34 18z"/>
 <path d="M843 362 c-29 -19 -50 -39 -47 -43 6 -10 47 11 91 47 45 36 11 33 -44 -4z"/>
 <path d="M1325 391 c-3 -6 3 -15 14 -21 12 -6 22 -6 26 -1 3 6 -3 15 -14 21 -12 6 -22 6 -26 1z"/>
 <path d="M726 381 c-4 -5 7 -19 23 -30 16 -12 32 -17 35 -12 4 5 -7 19 -23 30 -16 12 -32 17 -35 12z"/>
 <path d="M445 361 c-3 -5 9 -19 25 -31 29 -20 32 -35 9 -35 -5 0 -9 -3 -9 -7 0 -8 4 -9 15 -7 3 1 11 2 18 3 6 1 11 8 9 15 -1 7 3 19 9 27 11 13 5 18 -15 15 -4 -1 -19 5 -32 14 -12 8 -25 11 -29 6z"/>
 <path d="M1075 350 c-7 -12 35 -41 49 -33 25 14 35 26 30 35 -3 5 -12 4 -21 -3 -11 -10 -19 -10 -33 -1 -11 7 -21 8 -25 2z"/>
 <path d="M256 332 c-3 -6 1 -15 8 -21 8 -7 17 -8 20 -3 3 6 -1 15 -8 21 -8 7 -17 8 -20 3z"/>
 <path d="M1306 301 c-15 -16 -23 -31 -18 -35 5 -3 21 8 36 23 15 16 23 31 18 35 -5 3 -21 -8 -36 -23z"/>
 <path d="M246 302 c-3 -5 8 -21 23 -36 16 -15 31 -23 35 -18 3 5 -8 21 -23 36 -16 15 -31 23 -35 18z"/>
 <path d="M781 296 c-15 -18 -1 -28 17 -13 8 6 17 11 19 10 1 -2 4 0 6 4 4 12 -32 11 -42 -1z"/>
 <path d="M1095 300 c-3 -5 -2 -10 2 -12 13 -7 33 -3 36 6 3 12 -31 17 -38 6z"/>
 <path d="M306 282 c-3 -6 1 -15 8 -21 8 -7 17 -8 20 -3 3 6 -1 15 -8 21 -8 7 -17 8 -20 3z"/>
 <path d="M836 282 c-3 -6 1 -15 8 -21 8 -7 17 -8 20 -3 3 6 -1 15 -8 21 -8 7 -17 8 -20 3z"/>
 <path d="M431 266 c-7 -8 -8 -17 -3 -20 6 -3 15 1 21 8 7 8 8 17 3 20 -6 3 -15 -1 -21 -8z"/>
 <path d="M711 246 c-7 -8 -8 -17 -3 -20 6 -3 15 1 21 8 7 8 8 17 3 20 -6 3 -15 -1 -21 -8z"/>
 <path d="M1189 259 c0 -2 -2 -12 -4 -21 -4 -21 11 -33 20 -18 5 8 11 8 20 0 8 -7 15 -7 19 -1 4 5 2 12 -4 16 -5 3 -10 3 -10 -1 0 -4 -9 1 -20 11 -11 10 -20 16 -21 14z"/>
 <path d="M396 242 c-3 -6 1 -15 8 -21 8 -7 17 -8 20 -3 3 6 -1 15 -8 21 -8 7 -17 8 -20 3z"/>
 <path d="M907 233 c-4 -3 -2 -12 4 -19 6 -8 7 -14 0 -18 -6 -4 -8 -13 -5 -20 3 -8 0 -17 -7 -22 -7 -4 -10 -3 -5 4 9 15 -10 24 -21 9 -7 -11 -8 -20 -4 -51 0 -5 9 -2 18 5 12 10 14 10 9 1 -10 -16 22 -28 36 -14 8 8 7 13 -5 18 -10 3 -14 11 -10 18 4 6 8 20 8 31 0 11 3 25 7 31 9 13 -15 38 -25 27z"/>
 <path d="M672 218 c-9 -9 -7 -17 6 -32 12 -14 13 -17 2 -10 -20 11 -42 12 -58 0 -8 -6 -12 -6 -10 0 2 5 -1 10 -7 11 -5 2 -10 -3 -11 -10 -2 -27 -5 -29 -19 -17 -8 7 -15 9 -15 6 0 -4 -9 -2 -19 4 -13 6 -22 6 -26 1 -6 -11 23 -28 45 -26 8 1 22 -5 32 -13 11 -9 18 -10 23 -3 3 6 3 11 -2 11 -4 0 2 7 15 15 19 14 24 14 47 -1 23 -15 24 -18 9 -29 -13 -9 -14 -14 -5 -19 29 -18 48 18 27 52 -4 6 -5 16 -1 21 3 5 1 12 -5 16 -6 4 -8 10 -5 15 9 14 -11 20 -23 8z"/>
 <path d="M981 216 c-7 -8 -8 -17 -3 -20 6 -3 15 1 21 8 7 8 8 17 3 20 -6 3 -15 -1 -21 -8z"/>
 <path d="M1145 206 c-11 -8 -14 -16 -8 -19 6 -4 18 0 28 7 11 8 14 16 8 19 -6 4 -18 0 -28 -7z"/>
 <path d="M934 178 c-5 -8 3 -12 20 -9 4 1 14 -3 21 -9 9 -7 15 -7 19 -1 4 5 1 13 -6 17 -18 11 -48 12 -54 2z"/>
 <path d="M1025 170 c-4 -7 -23 -19 -42 -27 -34 -14 -35 -15 -17 -34 17 -19 24 -19 27 -2 3 17 52 51 61 43 12 -11 49 8 41 21 -4 6 -13 6 -24 -1 -12 -6 -22 -5 -28 1 -8 8 -13 7 -18 -1z"/>
 <path d="M736 141 c-11 -12 -14 -21 -7 -26 11 -6 15 1 12 19 -1 5 4 4 13 -3 8 -7 17 -8 20 -3 3 6 0 15 -8 21 -10 8 -17 6 -30 -8z"/>
 <path d="M620 121 c-5 -11 -6 -22 -1 -25 11 -7 43 28 34 37 -11 12 -22 8 -33 -12z"/>
 <path d="M785 120 c-3 -5 -2 -10 2 -12 13 -7 33 -3 36 6 3 12 -31 17 -38 6z"/>
 </g>
<g id="layer108" fill="#f9f8f8" stroke="none">
 <path d="M678 1540 c-291 -53 -527 -274 -600 -562 -30 -119 -23 -299 17 -417 47 -138 139 -264 259 -355 145 -110 267 -150 451 -150 141 0 212 16 330 75 145 71 267 194 341 344 54 109 74 197 74 331 0 328 -215 614 -535 714 -79 24 -257 35 -337 20z m205 -30 c209 -24 402 -140 514 -309 196 -295 150 -686 -108 -925 -219 -202 -550 -245 -818 -106 -227 118 -364 335 -378 595 -13 253 106 493 312 630 79 52 217 103 308 114 39 5 74 9 77 10 3 0 44 -4 93 -9z"/>
 <path d="M124 956 c-8 -22 3 -49 19 -43 6 2 12 14 12 27 0 27 -22 39 -31 16z"/>
 <path d="M204 956 c-9 -22 15 -48 40 -44 15 2 21 10 21 28 0 20 -6 26 -28 28 -18 2 -29 -2 -33 -12z"/>
 <path d="M314 955 c-9 -23 3 -45 24 -45 25 0 46 25 38 45 -7 19 -55 20 -62 0z"/>
 <path d="M414 956 c-10 -26 4 -48 28 -44 17 2 23 10 23 28 0 18 -6 26 -23 28 -13 2 -25 -3 -28 -12z"/>
 <path d="M524 956 c-10 -26 4 -48 28 -44 17 2 23 10 23 28 0 18 -6 26 -23 28 -13 2 -25 -3 -28 -12z"/>
 <path d="M614 956 c-9 -22 15 -48 40 -44 15 2 21 10 21 28 0 20 -6 26 -28 28 -18 2 -29 -2 -33 -12z"/>
 <path d="M724 955 c-9 -23 3 -45 24 -45 25 0 46 25 38 45 -7 19 -55 20 -62 0z"/>
 <path d="M824 956 c-10 -26 4 -48 28 -44 17 2 23 10 23 28 0 18 -6 26 -23 28 -13 2 -25 -3 -28 -12z"/>
 <path d="M934 956 c-10 -26 4 -48 28 -44 17 2 23 10 23 28 0 18 -6 26 -23 28 -13 2 -25 -3 -28 -12z"/>
 <path d="M1024 956 c-9 -22 15 -48 40 -44 15 2 21 10 21 28 0 20 -6 26 -28 28 -18 2 -29 -2 -33 -12z"/>
 <path d="M1134 955 c-9 -23 3 -45 24 -45 25 0 46 25 38 45 -7 19 -55 20 -62 0z"/>
 <path d="M1234 956 c-10 -26 4 -48 28 -44 17 2 23 10 23 28 0 18 -6 26 -23 28 -13 2 -25 -3 -28 -12z"/>
 <path d="M1344 956 c-10 -26 4 -48 28 -44 17 2 23 10 23 28 0 18 -6 26 -23 28 -13 2 -25 -3 -28 -12z"/>
 <path d="M1434 955 c-4 -9 0 -23 9 -32 21 -21 49 -9 45 19 -4 28 -45 38 -54 13z"/>
 <path d="M123 674 c-8 -21 13 -42 28 -27 13 13 5 43 -11 43 -6 0 -13 -7 -17 -16z"/>
 <path d="M212 677 c-10 -11 -9 -17 2 -26 21 -18 51 -9 51 14 0 24 -36 32 -53 12z"/>
 <path d="M314 675 c-8 -19 3 -35 25 -35 26 0 44 23 29 38 -17 17 -47 15 -54 -3z"/>
 <path d="M414 675 c-4 -9 -2 -21 4 -27 16 -16 47 -5 47 17 0 26 -42 34 -51 10z"/>
 <path d="M524 675 c-4 -9 -2 -21 4 -27 16 -16 47 -5 47 17 0 26 -42 34 -51 10z"/>
 <path d="M622 677 c-10 -11 -9 -17 2 -26 21 -18 51 -9 51 14 0 24 -36 32 -53 12z"/>
 <path d="M724 675 c-8 -19 3 -35 25 -35 26 0 44 23 29 38 -17 17 -47 15 -54 -3z"/>
 <path d="M824 675 c-4 -9 -2 -21 4 -27 16 -16 47 -5 47 17 0 26 -42 34 -51 10z"/>
 <path d="M934 675 c-4 -9 -2 -21 4 -27 16 -16 47 -5 47 17 0 26 -42 34 -51 10z"/>
 <path d="M1032 677 c-10 -11 -9 -17 2 -26 21 -18 51 -9 51 14 0 24 -36 32 -53 12z"/>
 <path d="M1134 675 c-8 -19 3 -35 25 -35 26 0 44 23 29 38 -17 17 -47 15 -54 -3z"/>
 <path d="M1234 675 c-4 -9 -2 -21 4 -27 16 -16 47 -5 47 17 0 26 -42 34 -51 10z"/>
 <path d="M1344 675 c-4 -9 -2 -21 4 -27 16 -16 47 -5 47 17 0 26 -42 34 -51 10z"/>
 <path d="M1441 677 c-9 -11 -8 -17 4 -27 19 -16 47 -5 43 17 -4 23 -31 28 -47 10z"/>
 </g>
<g id="layer109" fill="#066231" stroke="none">
 <path d="M735 1454 c-33 -25 -61 -49 -63 -53 -3 -10 119 -101 135 -101 14 0 133 89 133 99 0 10 -124 101 -137 100 -4 0 -35 -20 -68 -45z"/>
 <path d="M476 1422 c-38 -21 -71 -42 -73 -48 -2 -6 18 -25 43 -44 46 -33 47 -33 78 -16 17 9 49 32 71 51 l40 35 -35 30 c-19 16 -39 30 -45 30 -5 0 -41 -17 -79 -38z"/>
 <path d="M1016 1434 c-20 -14 -36 -29 -36 -33 0 -9 101 -88 124 -97 16 -6 106 50 106 66 0 9 -88 62 -131 79 -22 8 -33 5 -63 -15z"/>
 <path d="M161 1066 c-13 -14 -24 -39 -24 -58 l-2 -33 89 -3 c49 -2 93 1 98 6 7 7 -65 66 -127 104 -7 4 -22 -3 -34 -16z"/>
 <path d="M426 1038 c-42 -31 -65 -53 -59 -59 13 -13 258 -7 258 6 0 8 -81 75 -115 95 -11 6 -35 -6 -84 -42z"/>
 <path d="M737 1039 c-37 -28 -65 -54 -62 -59 8 -13 252 -13 259 -1 6 9 -30 41 -99 88 l-30 21 -68 -49z"/>
 <path d="M1047 1039 c-38 -27 -65 -54 -62 -59 8 -13 252 -13 259 -1 6 9 -30 41 -99 88 l-31 22 -67 -50z"/>
 <path d="M1357 1039 c-37 -27 -65 -54 -62 -59 8 -13 172 -13 180 0 9 15 -12 75 -33 93 -16 15 -23 12 -85 -34z"/>
 <path d="M133 613 c-8 -20 27 -87 47 -91 20 -3 143 86 135 98 -4 6 -44 10 -91 10 -70 0 -86 -3 -91 -17z"/>
 <path d="M366 622 c-5 -9 116 -102 132 -102 17 0 132 91 127 100 -8 12 -252 13 -259 2z"/>
 <path d="M676 621 c-6 -8 114 -101 130 -101 16 0 134 92 129 101 -8 12 -252 12 -259 0z"/>
 <path d="M985 621 c-5 -9 113 -101 129 -101 16 0 136 93 130 101 -7 12 -251 12 -259 0z"/>
 <path d="M1295 621 c-8 -14 122 -104 141 -97 18 7 47 73 40 92 -6 16 -171 20 -181 5z"/>
 <path d="M325 396 c-11 -8 -14 -16 -8 -19 6 -4 18 0 28 7 11 8 14 16 8 19 -6 4 -18 0 -28 -7z"/>
 <path d="M624 388 c-6 -9 -4 -10 26 -11 11 -1 19 3 18 8 -4 12 -37 14 -44 3z"/>
 <path d="M527 323 c-4 -6 0 -18 7 -28 8 -11 16 -14 19 -8 4 6 0 18 -7 28 -8 11 -16 14 -19 8z"/>
 <path d="M750 311 c-6 -12 -6 -22 -1 -26 6 -3 15 3 21 14 6 12 6 22 1 26 -6 3 -15 -3 -21 -14z"/>
 <path d="M356 272 c-3 -6 1 -15 8 -21 10 -8 16 -9 21 -1 3 6 10 8 15 5 5 -3 11 -1 14 4 4 5 2 12 -3 15 -5 4 -13 2 -16 -4 -5 -8 -11 -8 -20 0 -8 7 -16 7 -19 2z"/>
 <path d="M1196 271 c-4 -5 -2 -12 4 -16 5 -3 10 -3 10 1 0 3 6 1 14 -5 10 -8 16 -8 25 3 8 9 8 16 2 20 -5 4 -13 2 -16 -4 -5 -8 -11 -8 -20 0 -8 7 -15 7 -19 1z"/>
 <path d="M635 231 c-7 -12 12 -24 25 -16 11 7 4 25 -10 25 -5 0 -11 -4 -15 -9z"/>
 <path d="M945 231 c-7 -12 12 -24 25 -16 11 7 4 25 -10 25 -5 0 -11 -4 -15 -9z"/>
 </g>
<g id="layer110" fill="#74ba2b" stroke="none">
 <path d="M115 899 c-11 -17 -9 -189 2 -200 6 -6 45 -9 89 -7 l79 3 0 105 0 105 -82 3 c-53 2 -84 -1 -88 -9z m71 -74 c9 -38 -3 -75 -26 -75 -13 0 -22 9 -26 25 -9 38 3 75 26 75 13 0 22 -9 26 -25z"/>
 <path d="M304 897 c-2 -7 -3 -56 -2 -108 l3 -94 115 0 115 0 0 105 0 105 -113 3 c-87 2 -114 0 -118 -11z m142 -72 c9 -38 -3 -75 -26 -75 -23 0 -35 37 -26 75 4 16 13 25 26 25 13 0 22 -9 26 -25z"/>
 <path d="M554 897 c-2 -7 -3 -56 -2 -108 l3 -94 120 0 120 0 0 105 0 105 -118 3 c-92 2 -119 0 -123 -11z m142 -72 c8 -34 -3 -75 -21 -75 -8 0 -17 11 -21 25 -8 34 3 75 21 75 8 0 17 -11 21 -25z"/>
 <path d="M814 897 c-2 -7 -3 -56 -2 -108 l3 -94 115 0 115 0 0 105 0 105 -113 3 c-87 2 -114 0 -118 -11z m142 -72 c9 -38 -3 -75 -26 -75 -13 0 -22 9 -26 25 -9 38 3 75 26 75 13 0 22 -9 26 -25z"/>
 <path d="M1064 897 c-2 -7 -3 -56 -2 -108 l3 -94 120 0 120 0 0 105 0 105 -118 3 c-92 2 -119 0 -123 -11z m152 -72 c9 -38 -3 -75 -26 -75 -23 0 -35 37 -26 75 4 16 13 25 26 25 13 0 22 -9 26 -25z"/>
 <path d="M1324 897 c-2 -7 -3 -56 -2 -108 l3 -94 85 0 85 0 0 105 0 105 -83 3 c-62 2 -84 0 -88 -11z m142 -72 c8 -34 -3 -75 -21 -75 -8 0 -17 11 -21 25 -8 34 3 75 21 75 8 0 17 -11 21 -25z"/>
 </g>
<g id="layer111" fill="#981d24" stroke="none">
 <path d="M437 1239 c-32 -22 -56 -46 -54 -52 2 -6 29 -29 60 -51 l56 -40 58 41 c31 22 59 45 60 50 4 10 -83 78 -111 89 -7 3 -38 -14 -69 -37z"/>
 <path d="M749 1242 c-30 -21 -54 -44 -54 -52 0 -8 25 -32 57 -54 l56 -39 61 43 c34 24 61 46 61 50 0 7 -113 90 -122 90 -3 0 -29 -17 -59 -38z"/>
 <path d="M1050 1239 c-30 -22 -55 -44 -55 -49 0 -9 108 -90 120 -90 9 0 125 83 125 90 0 8 -117 90 -127 90 -4 -1 -33 -19 -63 -41z"/>
 <path d="M214 1174 c-22 -34 -32 -60 -27 -65 10 -10 123 65 123 81 0 10 -40 40 -52 40 -5 0 -24 -25 -44 -56z"/>
 <path d="M1323 1213 c-13 -8 -23 -19 -23 -23 0 -14 119 -90 125 -80 6 10 -61 120 -73 119 -4 0 -17 -7 -29 -16z"/>
 <path d="M154 956 c-11 -28 4 -48 33 -44 22 2 28 8 28 28 0 20 -6 26 -28 28 -18 2 -29 -2 -33 -12z"/>
 <path d="M264 956 c-10 -26 4 -48 28 -44 17 2 23 10 23 28 0 18 -6 26 -23 28 -13 2 -25 -3 -28 -12z"/>
 <path d="M364 956 c-11 -28 4 -48 33 -44 22 2 28 8 28 28 0 20 -6 26 -28 28 -18 2 -29 -2 -33 -12z"/>
 <path d="M464 956 c-11 -28 4 -48 33 -44 22 2 28 8 28 28 0 20 -6 26 -28 28 -18 2 -29 -2 -33 -12z"/>
 <path d="M564 956 c-11 -28 4 -48 33 -44 22 2 28 8 28 28 0 20 -6 26 -28 28 -18 2 -29 -2 -33 -12z"/>
 <path d="M674 956 c-10 -26 4 -48 28 -44 17 2 23 10 23 28 0 18 -6 26 -23 28 -13 2 -25 -3 -28 -12z"/>
 <path d="M774 956 c-11 -28 4 -48 33 -44 22 2 28 8 28 28 0 20 -6 26 -28 28 -18 2 -29 -2 -33 -12z"/>
 <path d="M874 956 c-11 -28 4 -48 33 -44 22 2 28 8 28 28 0 20 -6 26 -28 28 -18 2 -29 -2 -33 -12z"/>
 <path d="M974 956 c-11 -28 4 -48 33 -44 22 2 28 8 28 28 0 20 -6 26 -28 28 -18 2 -29 -2 -33 -12z"/>
 <path d="M1084 956 c-10 -26 4 -48 28 -44 17 2 23 10 23 28 0 18 -6 26 -23 28 -13 2 -25 -3 -28 -12z"/>
 <path d="M1184 956 c-11 -28 4 -48 33 -44 22 2 28 8 28 28 0 20 -6 26 -28 28 -18 2 -29 -2 -33 -12z"/>
 <path d="M1284 956 c-11 -28 4 -48 33 -44 22 2 28 8 28 28 0 20 -6 26 -28 28 -18 2 -29 -2 -33 -12z"/>
 <path d="M1384 956 c-11 -28 4 -48 33 -44 22 2 28 8 28 28 0 20 -6 26 -28 28 -18 2 -29 -2 -33 -12z"/>
 <path d="M130 845 c-15 -39 -12 -70 8 -95 37 -46 85 15 65 83 -7 25 -15 33 -36 35 -21 3 -29 -2 -37 -23z"/>
 <path d="M379 843 c-12 -33 -6 -63 21 -94 l20 -24 20 24 c22 26 25 56 10 95 -14 37 -57 36 -71 -1z"/>
 <path d="M640 845 c-5 -14 -10 -35 -10 -45 0 -10 5 -31 10 -45 8 -21 16 -26 37 -23 34 4 51 51 37 101 -8 25 -16 33 -37 35 -21 3 -29 -2 -37 -23z"/>
 <path d="M900 844 c-15 -39 -12 -69 10 -95 l20 -24 20 24 c27 31 33 61 21 94 -14 37 -57 38 -71 1z"/>
 <path d="M1150 845 c-16 -41 -12 -73 11 -96 24 -24 39 -21 59 13 11 20 12 35 5 65 -8 31 -15 39 -37 41 -22 3 -30 -2 -38 -23z"/>
 <path d="M1409 843 c-12 -30 -6 -90 10 -106 16 -16 60 9 67 38 4 15 2 41 -3 58 -7 25 -15 33 -36 35 -22 3 -29 -2 -38 -25z"/>
 <path d="M154 675 c-9 -22 9 -37 37 -33 16 2 24 10 24 23 0 26 -52 35 -61 10z"/>
 <path d="M264 675 c-4 -9 -2 -21 4 -27 16 -16 47 -5 47 17 0 26 -42 34 -51 10z"/>
 <path d="M364 675 c-9 -22 9 -37 37 -33 16 2 24 10 24 23 0 26 -52 35 -61 10z"/>
 <path d="M464 675 c-9 -22 9 -37 37 -33 16 2 24 10 24 23 0 26 -52 35 -61 10z"/>
 <path d="M564 675 c-9 -22 9 -37 37 -33 16 2 24 10 24 23 0 26 -52 35 -61 10z"/>
 <path d="M674 675 c-4 -9 -2 -21 4 -27 16 -16 47 -5 47 17 0 26 -42 34 -51 10z"/>
 <path d="M774 675 c-9 -22 9 -37 37 -33 16 2 24 10 24 23 0 26 -52 35 -61 10z"/>
 <path d="M874 675 c-9 -22 9 -37 37 -33 16 2 24 10 24 23 0 26 -52 35 -61 10z"/>
 <path d="M974 675 c-9 -22 9 -37 37 -33 16 2 24 10 24 23 0 26 -52 35 -61 10z"/>
 <path d="M1084 675 c-4 -9 -2 -21 4 -27 16 -16 47 -5 47 17 0 26 -42 34 -51 10z"/>
 <path d="M1184 675 c-9 -22 9 -37 37 -33 16 2 24 10 24 23 0 26 -52 35 -61 10z"/>
 <path d="M1284 675 c-9 -22 9 -37 37 -33 16 2 24 10 24 23 0 26 -52 35 -61 10z"/>
 <path d="M1384 675 c-9 -22 9 -37 37 -33 16 2 24 10 24 23 0 26 -52 35 -61 10z"/>
 <path d="M277 559 c-31 -22 -57 -44 -57 -48 0 -4 28 -26 61 -49 l61 -43 55 38 c80 55 80 54 13 101 -32 23 -63 42 -67 42 -4 0 -34 -18 -66 -41z"/>
 <path d="M590 563 c-29 -21 -55 -43 -57 -49 -2 -6 23 -30 57 -53 l60 -42 59 40 c33 23 62 45 65 49 5 8 -107 92 -123 92 -4 0 -32 -17 -61 -37z"/>
 <path d="M888 557 c-32 -22 -55 -44 -52 -49 3 -4 32 -26 65 -48 l59 -41 60 43 c33 23 60 45 60 49 0 11 -111 89 -124 88 -6 0 -37 -19 -68 -42z"/>
 <path d="M1198 558 c-65 -46 -66 -46 15 -101 l55 -38 61 43 c33 23 61 45 61 49 0 10 -112 89 -125 89 -5 -1 -36 -19 -67 -42z"/>
 </g>
<g id="layer112" fill="#eea93f" stroke="none">
 <path d="M653 1487 c-63 -18 -70 -30 -33 -57 l31 -22 54 37 c30 21 52 42 49 46 -7 12 -49 10 -101 -4z"/>
 <path d="M856 1491 c-3 -4 19 -25 49 -46 l54 -37 31 22 c40 29 28 44 -47 59 -68 13 -80 14 -87 2z"/>
 <path d="M577 1337 l-59 -42 39 -32 c21 -18 52 -40 69 -49 31 -17 31 -17 87 24 30 23 58 45 61 50 6 10 -107 92 -126 91 -7 0 -39 -20 -71 -42z"/>
 <path d="M890 1339 c-30 -22 -55 -44 -55 -49 0 -10 111 -90 124 -90 13 0 121 80 121 90 0 13 -106 90 -122 90 -7 -1 -38 -19 -68 -41z"/>
 <path d="M321 1306 l-52 -53 31 -27 c17 -14 36 -26 41 -26 12 0 129 82 129 90 0 6 -84 70 -92 70 -2 0 -27 -24 -57 -54z"/>
 <path d="M1183 1329 c-24 -17 -43 -33 -43 -38 0 -9 116 -91 129 -91 5 0 24 12 41 26 l31 27 -52 53 c-30 30 -56 54 -59 54 -3 -1 -24 -14 -47 -31z"/>
 <path d="M277 1137 c-32 -23 -57 -46 -56 -52 2 -5 30 -29 63 -52 l60 -42 31 23 c16 12 45 32 63 45 32 22 32 24 16 42 -16 18 -106 79 -115 79 -2 0 -30 -20 -62 -43z"/>
 <path d="M581 1134 c-35 -25 -59 -49 -55 -53 5 -5 35 -27 67 -50 l57 -42 58 42 c31 23 61 45 66 50 7 7 -107 99 -123 99 -4 0 -35 -21 -70 -46z"/>
 <path d="M891 1135 c-34 -25 -61 -47 -61 -49 0 -3 29 -25 64 -49 l65 -45 61 43 c34 24 64 46 67 49 5 5 -116 96 -128 96 -4 0 -34 -20 -68 -45z"/>
 <path d="M1200 1139 c-30 -22 -55 -45 -55 -50 0 -6 27 -30 61 -54 l60 -44 64 44 c34 25 65 46 67 49 6 5 -122 96 -133 95 -5 0 -34 -19 -64 -40z"/>
 <path d="M433 462 c-59 -43 -62 -47 -47 -64 10 -10 39 -32 66 -49 l49 -32 54 38 c82 56 82 56 17 101 -31 22 -61 43 -67 46 -5 3 -38 -15 -72 -40z"/>
 <path d="M745 464 c-33 -23 -60 -47 -60 -53 0 -9 109 -91 121 -91 16 0 125 83 121 93 -2 7 -30 30 -63 53 l-59 41 -60 -43z"/>
 <path d="M185 489 c-9 -13 61 -119 78 -119 8 0 23 11 35 23 l22 24 -59 41 c-65 46 -67 47 -76 31z"/>
 <path d="M1047 459 c-32 -22 -57 -44 -57 -48 0 -9 113 -91 125 -91 12 0 125 82 125 91 0 11 -110 89 -125 89 -6 0 -37 -18 -68 -41z"/>
 <path d="M1363 465 c-28 -19 -55 -40 -59 -46 -7 -12 29 -49 47 -49 15 0 82 111 72 121 -5 5 -30 -6 -60 -26z"/>
 <path d="M616 167 c-36 -29 -24 -41 63 -57 86 -15 95 -2 27 43 -31 21 -57 37 -58 37 -2 0 -16 -10 -32 -23z"/>
 <path d="M903 153 c-29 -20 -50 -40 -47 -45 7 -11 88 0 134 19 l35 14 -30 25 c-16 13 -32 24 -35 24 -3 0 -28 -17 -57 -37z"/>
 </g>
<g id="layer113" fill="#080503" stroke="none">
 <path d="M605 1586 c-162 -46 -272 -113 -391 -238 -82 -87 -137 -176 -175 -285 -25 -70 -37 -317 -21 -429 19 -136 86 -265 201 -386 129 -136 261 -209 426 -234 115 -17 206 -17 325 1 250 38 488 237 591 497 33 82 34 86 37 266 3 166 2 190 -18 255 -42 139 -110 247 -222 353 -88 84 -169 134 -280 177 -79 29 -91 31 -253 34 -123 2 -184 -1 -220 -11z m170 -57 c-115 -11 -193 -32 -280 -73 -194 -92 -341 -270 -395 -476 -10 -41 -19 -65 -19 -54 -1 32 37 151 69 214 15 30 49 83 74 116 126 169 363 283 581 282 52 -1 48 -2 -30 -9z m210 -14 c174 -45 335 -157 430 -301 42 -63 105 -206 105 -239 0 -11 -13 17 -29 63 -84 242 -305 432 -556 477 -38 7 -56 14 -40 14 17 1 58 -6 90 -14z m-287 -60 c-42 -28 -55 -30 -81 -11 -16 13 -15 15 20 24 21 5 51 10 68 11 l30 1 -37 -25z m167 -12 c30 -21 54 -41 55 -44 0 -8 -104 -79 -116 -79 -5 0 -33 18 -62 39 l-54 39 54 40 c29 23 57 41 61 41 5 1 33 -16 62 -36z m98 26 c32 -8 36 -13 26 -25 -16 -20 -35 -18 -77 11 -34 23 -35 25 -12 25 14 0 42 -5 63 -11z m-374 -50 l25 -20 -30 -24 c-16 -13 -43 -32 -60 -41 -30 -17 -32 -16 -63 5 -17 12 -31 26 -31 32 0 9 107 68 125 68 6 0 21 -9 34 -20z m559 -26 l44 -25 -37 -25 c-20 -13 -43 -22 -51 -19 -18 7 -103 69 -104 76 0 3 12 13 27 22 30 18 49 14 121 -29z m-443 -59 c30 -20 55 -40 55 -43 0 -3 -25 -23 -55 -44 l-55 -38 -54 38 c-31 21 -55 40 -55 43 -1 4 99 78 107 80 1 0 27 -16 57 -36z m311 -1 c29 -21 54 -40 54 -43 -1 -3 -26 -22 -56 -43 l-55 -37 -55 37 c-29 21 -53 41 -51 45 2 7 98 78 105 78 2 0 28 -17 58 -37z m-596 -15 c17 -12 30 -25 30 -28 0 -4 -25 -24 -55 -44 -55 -36 -56 -36 -80 -19 -13 10 -25 23 -25 30 0 12 78 83 92 83 5 0 22 -10 38 -22z m856 -14 c24 -19 44 -41 44 -48 0 -6 -13 -19 -28 -28 -28 -17 -29 -16 -77 17 -26 19 -50 37 -54 40 -6 7 49 54 63 55 5 0 29 -16 52 -36z m-718 -76 c23 -16 42 -33 42 -38 0 -5 -23 -25 -51 -44 l-51 -34 -53 37 c-30 20 -54 38 -54 41 0 11 105 77 114 72 6 -3 29 -18 53 -34z m310 -2 c23 -16 41 -33 40 -37 -2 -5 -25 -24 -52 -43 l-49 -35 -53 37 c-29 20 -53 39 -53 42 -1 11 105 78 114 72 6 -3 29 -19 53 -36z m352 -36 c0 -4 -24 -23 -53 -42 l-52 -35 -50 34 c-28 18 -50 38 -50 43 0 5 22 25 50 43 l50 34 52 -35 c29 -19 53 -38 53 -42z m-920 0 c0 -7 -100 -71 -100 -64 0 3 14 25 30 50 27 39 33 42 50 31 11 -6 20 -14 20 -17z m1087 -28 l26 -44 -46 33 c-48 33 -53 40 -40 53 15 14 36 0 60 -42z m-937 -74 c0 -4 -25 -24 -54 -44 l-55 -36 -33 23 c-18 12 -43 31 -56 40 l-23 17 57 41 56 40 54 -37 c30 -20 54 -40 54 -44z m310 1 c0 -4 -25 -24 -55 -44 l-54 -38 -55 38 c-31 21 -53 42 -50 47 3 5 28 24 56 42 l50 34 53 -37 c30 -20 54 -39 55 -42z m282 21 l30 -26 -43 -29 c-69 -47 -72 -47 -128 -8 -28 20 -51 39 -51 42 1 3 24 22 53 42 51 36 53 37 80 20 16 -9 42 -27 59 -41z m291 12 l48 -35 -53 -38 c-29 -21 -56 -39 -60 -39 -4 0 -32 17 -62 39 l-55 38 57 41 c31 22 62 37 67 34 6 -3 32 -21 58 -40z m-1085 -96 c23 -16 42 -30 42 -32 0 -2 -32 -4 -71 -4 l-71 0 7 27 c9 37 24 55 39 45 6 -4 30 -20 54 -36z m310 0 c23 -16 42 -30 42 -32 0 -2 -48 -4 -107 -4 l-106 0 54 39 c30 21 59 36 64 32 6 -3 29 -19 53 -35z m331 -18 c23 -18 22 -18 -84 -18 l-108 0 54 39 54 39 30 -21 c17 -11 41 -29 54 -39z m310 0 c23 -18 22 -18 -85 -18 l-109 0 55 39 55 39 30 -21 c16 -11 41 -29 54 -39z m247 27 c7 -19 14 -37 14 -40 0 -3 -33 -5 -72 -5 l-73 0 55 40 c30 22 56 40 58 40 2 0 10 -16 18 -35z m39 -157 c4 -40 5 -93 3 -118 l-3 -45 -73 -3 -73 -3 2 108 c1 94 -1 108 -15 111 -29 6 -51 -7 -38 -20 8 -8 12 -47 12 -105 l0 -93 -110 0 -109 0 -3 103 c-2 83 -6 102 -18 102 -12 0 -16 -19 -18 -102 l-3 -103 -109 0 -110 0 0 93 c0 58 4 97 12 105 13 13 -9 26 -38 20 -14 -3 -16 -17 -15 -110 l2 -108 -105 0 -106 0 0 94 0 95 28 3 c57 6 19 23 -53 23 -75 0 -110 -17 -47 -23 l32 -3 0 -95 0 -94 -111 0 -110 0 2 108 c2 105 1 107 -21 107 -22 0 -23 -2 -21 -107 l2 -108 -75 0 -76 0 0 74 c0 40 3 94 6 120 l7 46 673 0 672 0 7 -72z m53 -78 c1 -126 -5 -104 -10 40 -3 63 -1 102 3 85 3 -16 7 -73 7 -125z m-1461 -52 c-2 -29 -3 -6 -3 52 0 58 1 81 3 53 2 -29 2 -77 0 -105z m73 -263 c84 -177 259 -325 450 -382 41 -12 68 -22 59 -22 -31 -2 -126 32 -199 70 -133 69 -230 164 -303 299 -37 68 -77 186 -76 224 0 11 9 -12 19 -52 11 -40 33 -102 50 -137z m1330 180 c0 -13 -82 -15 -675 -15 -593 0 -675 2 -675 15 0 13 82 15 675 15 593 0 675 -2 675 -15z m-1236 -90 c-27 -19 -54 -35 -60 -35 -11 0 -34 42 -34 60 0 6 32 10 72 10 l72 0 -50 -35z m310 0 c-27 -19 -53 -35 -57 -35 -7 0 -63 38 -91 62 -6 4 37 8 94 8 l104 0 -50 -35z m346 30 c0 -2 -21 -18 -46 -36 -50 -34 -57 -34 -119 17 l-30 24 98 0 c53 0 97 -2 97 -5z m285 -19 c-62 -51 -69 -51 -119 -17 -25 18 -46 34 -46 36 0 3 44 5 98 5 l97 0 -30 -24z m275 20 c0 -16 -24 -66 -32 -66 -10 0 -98 58 -98 65 0 3 29 5 65 5 36 0 65 -2 65 -4z m25 -87 c-61 -150 -191 -293 -332 -367 -76 -39 -171 -73 -202 -71 -9 0 18 10 59 22 111 34 194 83 286 170 90 85 147 167 185 264 13 34 25 58 27 53 2 -4 -9 -36 -23 -71z m-1087 34 l54 -38 -31 -26 c-67 -56 -75 -57 -136 -14 l-55 37 53 38 c28 21 54 39 56 39 3 1 29 -16 59 -36z m310 -2 l53 -38 -49 -37 c-27 -20 -55 -36 -61 -36 -6 0 -34 16 -61 36 l-50 36 52 39 c29 21 55 38 58 38 3 0 29 -17 58 -38z m308 0 l54 -39 -50 -36 c-27 -20 -55 -36 -61 -36 -6 0 -34 16 -61 36 l-49 37 53 38 c29 21 54 39 56 39 2 0 28 -18 58 -39z m332 -17 l27 -22 -25 -20 c-14 -12 -39 -29 -56 -38 -30 -16 -31 -16 -82 17 -28 19 -51 37 -49 41 1 4 24 23 51 42 49 34 50 35 78 18 16 -9 41 -26 56 -38z m-1090 -88 c23 -16 42 -31 42 -34 0 -6 -33 -31 -41 -32 -4 0 -14 15 -23 33 -9 17 -24 43 -34 56 -19 28 -17 27 56 -23z m332 -16 c14 -10 23 -20 20 -22 -3 -2 -29 -21 -58 -41 l-53 -37 -54 37 c-30 21 -53 41 -52 45 1 4 24 23 51 42 l50 35 35 -20 c20 -11 47 -28 61 -39z m276 21 l55 -39 -33 -25 c-84 -61 -75 -60 -134 -19 -30 20 -54 40 -54 43 0 6 100 79 108 79 2 0 28 -18 58 -39z m309 0 l55 -39 -52 -38 c-29 -20 -57 -37 -63 -37 -6 0 -34 17 -63 37 l-52 38 52 38 c29 21 56 39 60 39 4 1 32 -17 63 -38z m221 -3 c-32 -54 -49 -66 -70 -49 -14 12 -9 18 37 52 28 21 53 38 55 39 2 0 -8 -19 -22 -42z m-946 -138 c0 -3 -16 -16 -36 -29 l-35 -24 -45 44 -45 44 26 22 25 22 55 -37 c30 -20 54 -39 55 -42z m827 -8 l-45 -45 -36 22 c-20 13 -36 26 -36 29 1 4 24 23 53 43 l52 37 28 -21 29 -20 -45 -45z m-564 42 l48 -35 -55 -40 -55 -39 -56 39 -55 39 47 36 c27 19 55 35 63 35 8 0 37 -15 63 -35z m303 4 c24 -17 44 -35 44 -39 0 -4 -23 -23 -50 -43 l-51 -37 -55 40 -55 40 48 35 c26 20 54 36 61 36 8 0 34 -14 58 -32z m-455 -100 l59 -42 -27 -23 c-16 -12 -32 -22 -36 -23 -12 0 -125 59 -132 69 -4 8 59 61 73 61 2 0 30 -19 63 -42z m303 5 c28 -20 55 -39 59 -43 7 -6 -103 -90 -118 -90 -3 0 -33 19 -65 42 l-59 41 57 43 c31 23 61 43 66 43 4 1 31 -16 60 -36z m296 8 l40 -29 -70 -36 -70 -37 -36 21 -35 22 58 43 c32 24 61 44 66 44 4 1 25 -12 47 -28z m-465 -116 c34 -28 27 -30 -45 -14 -46 10 -50 12 -33 25 26 19 44 17 78 -11z m294 11 c14 -17 4 -22 -65 -31 l-49 -7 35 26 c40 29 62 32 79 12z m-251 -83 c-10 -2 -28 -2 -40 0 -13 2 -5 4 17 4 22 1 32 -1 23 -4z m180 0 c-10 -2 -28 -2 -40 0 -13 2 -5 4 17 4 22 1 32 -1 23 -4z m-95 -10 c-13 -2 -33 -2 -45 0 -13 2 -3 4 22 4 25 0 35 -2 23 -4z"/>
 <path d="M155 921 c-7 -13 17 -24 40 -19 9 1 16 8 16 13 0 14 -48 19 -56 6z"/>
 <path d="M365 921 c-7 -13 17 -24 40 -19 9 1 16 8 16 13 0 14 -48 19 -56 6z"/>
 <path d="M675 920 c-8 -13 20 -24 41 -16 20 8 9 26 -16 26 -10 0 -22 -5 -25 -10z"/>
 <path d="M875 921 c-7 -13 17 -24 40 -19 9 1 16 8 16 13 0 14 -48 19 -56 6z"/>
 <path d="M975 921 c-7 -13 17 -24 40 -19 9 1 16 8 16 13 0 14 -48 19 -56 6z"/>
 <path d="M1085 920 c-8 -13 20 -24 41 -16 20 8 9 26 -16 26 -10 0 -22 -5 -25 -10z"/>
 <path d="M1185 921 c-7 -13 17 -24 40 -19 9 1 16 8 16 13 0 14 -48 19 -56 6z"/>
 <path d="M1385 921 c-7 -13 17 -24 40 -19 9 1 16 8 16 13 0 14 -48 19 -56 6z"/>
 </g>

</svg>