<!DOCTYPE svg PUBLIC "-//W3C//DTD SVG 20010904//EN" "http://www.w3.org/TR/2001/REC-SVG-20010904/DTD/svg10.dtd">
<svg version="1.0" xmlns="http://www.w3.org/2000/svg" width="162px" height="162px" viewBox="0 0 1620 1620" preserveAspectRatio="xMidYMid meet">
<g id="layer101" fill="#ab8f39" stroke="none">
 <path d="M1215 1179 c-10 -25 -1 -239 10 -242 14 -3 19 233 6 246 -7 7 -12 5 -16 -4z"/>
 <path d="M1215 629 c-10 -26 -1 -234 10 -232 13 4 19 223 6 236 -7 7 -12 5 -16 -4z"/>
 </g>
<g id="layer102" fill="#cb5d2f" stroke="none">
 <path d="M836 1422 c-3 -6 1 -15 8 -21 8 -7 17 -8 20 -3 3 6 -1 15 -8 21 -8 7 -17 8 -20 3z"/>
 <path d="M781 1406 c-7 -8 -8 -17 -3 -20 6 -3 15 1 21 8 7 8 8 17 3 20 -6 3 -15 -1 -21 -8z"/>
 <path d="M876 1372 c-3 -6 1 -15 8 -21 8 -7 17 -8 20 -3 3 6 -1 15 -8 21 -8 7 -17 8 -20 3z"/>
 <path d="M916 1322 c-3 -6 1 -15 8 -21 8 -7 17 -8 20 -3 3 6 -1 15 -8 21 -8 7 -17 8 -20 3z"/>
 <path d="M691 1296 c-7 -8 -8 -17 -3 -20 6 -3 15 1 21 8 7 8 8 17 3 20 -6 3 -15 -1 -21 -8z"/>
 <path d="M956 1272 c-3 -6 1 -15 8 -21 8 -7 17 -8 20 -3 3 6 -1 15 -8 21 -8 7 -17 8 -20 3z"/>
 <path d="M651 1246 c-7 -8 -8 -17 -3 -20 6 -3 15 1 21 8 7 8 8 17 3 20 -6 3 -15 -1 -21 -8z"/>
 <path d="M195 820 l-29 -30 39 -40 c21 -21 42 -37 47 -33 6 3 -5 20 -23 39 l-33 34 23 24 c12 13 18 26 13 30 -5 3 -22 -8 -37 -24z"/>
 <path d="M1306 681 c-26 -27 -44 -51 -39 -54 5 -4 31 16 57 42 26 27 44 51 39 54 -5 4 -31 -16 -57 -42z"/>
 <path d="M355 371 c-3 -5 -2 -12 3 -15 7 -4 239 -9 286 -7 5 1 3 8 -4 16 -10 12 -39 15 -146 15 -73 0 -135 -4 -139 -9z"/>
 <path d="M1005 370 c-3 -5 0 -13 7 -15 25 -10 238 -1 238 10 0 14 -236 19 -245 5z"/>
 <path d="M961 326 c-7 -8 -8 -17 -3 -20 6 -3 15 1 21 8 7 8 8 17 3 20 -6 3 -15 -1 -21 -8z"/>
 <path d="M921 276 c-7 -8 -8 -17 -3 -20 6 -3 15 1 21 8 7 8 8 17 3 20 -6 3 -15 -1 -21 -8z"/>
 <path d="M706 262 c-3 -6 1 -15 8 -21 8 -7 17 -8 20 -3 3 6 -1 15 -8 21 -8 7 -17 8 -20 3z"/>
 <path d="M746 212 c-3 -6 1 -15 8 -21 8 -7 17 -8 20 -3 3 6 -1 15 -8 21 -8 7 -17 8 -20 3z"/>
 <path d="M831 166 c-6 -7 -7 -17 -3 -22 4 -5 -3 -1 -15 9 -26 22 -40 6 -14 -17 16 -15 19 -14 40 8 12 13 18 27 13 30 -5 3 -15 0 -21 -8z"/>
 </g>
<g id="layer103" fill="#828080" stroke="none">
 <path d="M696 1532 c-9 -15 21 -49 34 -36 7 7 5 15 -9 28 -10 9 -22 13 -25 8z"/>
 <path d="M890 1521 c-7 -14 -7 -22 1 -27 13 -8 41 24 33 37 -9 15 -23 10 -34 -10z"/>
 <path d="M637 1523 c-4 -6 0 -18 7 -28 8 -11 16 -14 19 -8 4 6 0 18 -7 28 -8 11 -16 14 -19 8z"/>
 <path d="M950 1511 c-6 -12 -6 -22 -1 -26 6 -3 15 3 21 14 6 12 6 22 1 26 -6 3 -15 -3 -21 -14z"/>
 <path d="M597 1513 c-4 -6 0 -18 7 -28 8 -11 16 -14 19 -8 4 6 0 18 -7 28 -8 11 -16 14 -19 8z"/>
 <path d="M990 1501 c-6 -12 -6 -22 -1 -26 6 -3 15 3 21 14 6 12 6 22 1 26 -6 3 -15 -3 -21 -14z"/>
 <path d="M567 1503 c-4 -6 0 -18 7 -28 8 -11 16 -14 19 -8 4 6 0 18 -7 28 -8 11 -16 14 -19 8z"/>
 <path d="M1105 1470 c-4 -6 -10 -8 -15 -5 -5 3 -11 1 -14 -4 -4 -5 -2 -12 3 -15 5 -4 12 -2 16 4 4 6 17 4 36 -5 16 -9 27 -20 24 -25 -3 -5 -1 -11 4 -14 5 -4 12 -2 15 3 4 5 2 12 -4 16 -6 4 -8 10 -5 15 3 5 -8 16 -24 25 -19 9 -32 11 -36 5z"/>
 <path d="M417 1433 c-4 -6 0 -18 7 -28 8 -11 16 -14 19 -8 4 6 0 18 -7 28 -8 11 -16 14 -19 8z"/>
 <path d="M1220 1391 c-6 -12 -6 -22 -1 -26 6 -3 15 3 21 14 6 12 6 22 1 26 -6 3 -15 -3 -21 -14z"/>
 <path d="M357 1393 c-4 -6 0 -18 7 -28 8 -11 16 -14 19 -8 4 6 0 18 -7 28 -8 11 -16 14 -19 8z"/>
 <path d="M1260 1361 c-6 -12 -6 -22 -1 -26 6 -3 15 3 21 14 6 12 6 22 1 26 -6 3 -15 -3 -21 -14z"/>
 <path d="M215 1251 c-3 -6 3 -15 14 -21 12 -6 22 -6 26 -1 3 6 -3 15 -14 21 -12 6 -22 6 -26 1z"/>
 <path d="M1385 1226 c-11 -8 -14 -16 -8 -19 6 -4 18 0 28 7 11 8 14 16 8 19 -6 4 -18 0 -28 -7z"/>
 <path d="M185 1211 c-3 -6 3 -15 14 -21 12 -6 22 -6 26 -1 3 6 -3 15 -14 21 -12 6 -22 6 -26 1z"/>
 <path d="M1405 1196 c-11 -8 -14 -16 -8 -19 6 -4 18 0 28 7 11 8 14 16 8 19 -6 4 -18 0 -28 -7z"/>
 <path d="M145 1141 c-9 -19 -11 -32 -5 -36 6 -4 8 -10 5 -15 -3 -5 -1 -11 4 -14 5 -4 12 -2 15 3 4 5 2 12 -4 16 -7 4 -7 13 0 26 6 11 15 17 20 14 5 -3 11 -1 15 4 3 6 -3 15 -14 21 -17 9 -23 6 -36 -19z"/>
 <path d="M1417 1164 c-9 -9 12 -46 23 -39 5 3 11 1 14 -4 4 -5 2 -12 -4 -16 -19 -12 0 -26 21 -15 18 10 18 13 3 41 -8 17 -18 28 -21 25 -4 -3 -11 -1 -18 4 -7 5 -15 7 -18 4z"/>
 <path d="M129 1046 c-1 -3 -2 -9 -3 -13 -1 -5 -5 -13 -9 -20 -4 -6 -3 -14 3 -18 5 -3 11 -4 11 -1 1 3 2 9 3 14 1 4 5 12 9 19 4 6 3 14 -3 18 -5 3 -11 4 -11 1z"/>
 <path d="M1495 996 c-11 -8 -14 -16 -8 -19 6 -4 18 0 28 7 11 8 14 16 8 19 -6 4 -18 0 -28 -7z"/>
 <path d="M85 981 c-3 -6 3 -15 14 -21 12 -6 22 -6 26 -1 3 6 -3 15 -14 21 -12 6 -22 6 -26 1z"/>
 <path d="M1505 956 c-11 -8 -14 -16 -8 -19 6 -4 18 0 28 7 11 8 14 16 8 19 -6 4 -18 0 -28 -7z"/>
 <path d="M75 931 c-3 -6 3 -15 14 -21 12 -6 22 -6 26 -1 3 6 -3 15 -14 21 -12 6 -22 6 -26 1z"/>
 <path d="M1514 895 c-14 -10 -16 -17 -8 -25 7 -7 15 -5 28 9 21 23 6 36 -20 16z"/>
 <path d="M64 856 c-4 -10 -1 -28 6 -40 9 -18 9 -27 -1 -43 -7 -11 -9 -29 -5 -39 7 -18 9 -17 26 6 26 33 26 92 0 115 -18 17 -20 17 -26 1z"/>
 <path d="M1504 719 c-8 -13 24 -41 37 -33 15 9 10 23 -10 34 -14 7 -22 7 -27 -1z"/>
 <path d="M85 676 c-11 -8 -14 -16 -8 -19 6 -4 18 0 28 7 11 8 14 16 8 19 -6 4 -18 0 -28 -7z"/>
 <path d="M1495 661 c-3 -6 3 -15 14 -21 12 -6 22 -6 26 -1 3 6 -3 15 -14 21 -12 6 -22 6 -26 1z"/>
 <path d="M95 626 c-11 -8 -14 -16 -8 -19 6 -4 18 0 28 7 11 8 14 16 8 19 -6 4 -18 0 -28 -7z"/>
 <path d="M1475 581 c-3 -6 3 -15 14 -21 12 -6 22 -6 26 -1 3 6 -3 15 -14 21 -12 6 -22 6 -26 1z"/>
 <path d="M125 536 c-11 -8 -14 -16 -8 -19 6 -4 18 0 28 7 11 8 14 16 8 19 -6 4 -18 0 -28 -7z"/>
 <path d="M1405 431 c-3 -6 3 -15 14 -21 12 -6 22 -6 26 -1 3 6 -3 15 -14 21 -12 6 -22 6 -26 1z"/>
 <path d="M185 416 c-11 -8 -14 -16 -8 -19 6 -4 18 0 28 7 11 8 14 16 8 19 -6 4 -18 0 -28 -7z"/>
 <path d="M205 386 c-11 -8 -14 -16 -8 -19 6 -4 18 0 28 7 11 8 14 16 8 19 -6 4 -18 0 -28 -7z"/>
 <path d="M1365 371 c-3 -6 3 -15 14 -21 12 -6 22 -6 26 -1 3 6 -3 15 -14 21 -12 6 -22 6 -26 1z"/>
 <path d="M380 211 c-6 -12 -6 -22 -1 -26 6 -3 15 3 21 14 6 12 6 22 1 26 -6 3 -15 -3 -21 -14z"/>
 <path d="M1197 213 c-4 -6 0 -18 7 -28 8 -11 16 -14 19 -8 4 6 0 18 -7 28 -8 11 -16 14 -19 8z"/>
 <path d="M410 191 c-6 -12 -6 -22 -1 -26 6 -3 15 3 21 14 6 12 6 22 1 26 -6 3 -15 -3 -21 -14z"/>
 <path d="M1169 196 c-1 -3 -2 -9 -3 -13 -1 -5 -5 -13 -9 -20 -4 -6 -3 -14 3 -18 5 -3 11 -4 11 -1 1 3 2 9 3 14 1 4 5 12 9 19 4 6 3 14 -3 18 -5 3 -11 4 -11 1z"/>
 <path d="M465 171 c-3 -6 3 -15 14 -21 12 -6 22 -6 26 -1 3 6 -3 15 -14 21 -12 6 -22 6 -26 1z"/>
 <path d="M1066 141 c-4 -5 -2 -12 4 -16 5 -3 10 -3 10 1 0 3 6 1 14 -5 10 -8 16 -9 21 -1 3 5 4 11 1 11 -3 1 -9 2 -13 3 -5 1 -13 5 -20 9 -6 4 -14 3 -17 -2z"/>
 <path d="M1007 123 c-4 -6 0 -18 7 -28 8 -11 16 -14 19 -8 4 6 0 18 -7 28 -8 11 -16 14 -19 8z"/>
 <path d="M620 101 c-6 -12 -6 -22 -1 -26 6 -3 15 3 21 14 6 12 6 22 1 26 -6 3 -15 -3 -21 -14z"/>
 <path d="M660 91 c-5 -11 -6 -22 -1 -25 11 -7 43 28 34 37 -11 12 -22 8 -33 -12z"/>
 <path d="M927 103 c-4 -6 0 -18 7 -28 8 -11 16 -14 19 -8 4 6 0 18 -7 28 -8 11 -16 14 -19 8z"/>
 <path d="M735 80 c-17 -18 -17 -20 -1 -26 10 -4 22 -2 29 5 14 14 80 14 94 0 18 -18 35 -1 23 22 -15 28 -119 28 -145 -1z"/>
 </g>
<g id="layer104" fill="#d8853e" stroke="none">
 <path d="M806 1431 c-11 -12 -14 -21 -7 -26 11 -6 15 1 12 19 -1 5 4 4 13 -3 8 -7 17 -8 20 -3 3 6 0 15 -8 21 -10 8 -17 6 -30 -8z"/>
 <path d="M856 1392 c-3 -6 1 -15 8 -21 8 -7 17 -8 20 -3 3 6 -1 15 -8 21 -8 7 -17 8 -20 3z"/>
 <path d="M751 1366 c-7 -8 -8 -17 -3 -20 6 -3 15 1 21 8 7 8 8 17 3 20 -6 3 -15 -1 -21 -8z"/>
 <path d="M896 1342 c-3 -6 1 -15 8 -21 8 -7 17 -8 20 -3 3 6 -1 15 -8 21 -8 7 -17 8 -20 3z"/>
 <path d="M710 1315 c-13 -16 0 -28 16 -15 6 6 16 9 22 8 5 -2 9 1 9 7 -3 13 -36 14 -47 0z"/>
 <path d="M671 1266 c-7 -8 -8 -17 -3 -20 6 -3 15 1 21 8 7 8 8 17 3 20 -6 3 -15 -1 -21 -8z"/>
 <path d="M954 1228 c-5 -8 3 -12 20 -9 5 1 16 -5 26 -14 14 -13 39 -15 136 -13 154 4 155 22 2 26 -62 1 -120 5 -128 9 -24 10 -50 10 -56 1z"/>
 <path d="M511 1222 c-79 -1 -140 -7 -148 -14 -9 -7 -13 -43 -13 -127 l0 -117 -35 -34 c-19 -18 -32 -37 -28 -43 3 -5 25 10 49 34 l44 43 0 113 0 113 123 0 c88 0 129 4 142 13 10 8 14 16 9 18 -5 2 -69 3 -143 1z"/>
 <path d="M1247 953 c-4 -6 11 -27 32 -47 21 -21 41 -34 44 -29 4 6 -11 27 -32 47 -21 21 -41 34 -44 29z"/>
 <path d="M1381 756 c-18 -19 -29 -36 -23 -39 5 -4 23 9 41 27 18 19 29 36 23 39 -5 4 -23 -9 -41 -27z"/>
 <path d="M317 664 c-4 -4 2 -17 13 -29 17 -18 20 -37 22 -145 4 -164 22 -166 26 -3 3 121 2 122 -25 153 -16 17 -32 28 -36 24z"/>
 <path d="M986 361 c-10 -11 -13 -22 -8 -25 5 -3 17 3 26 13 10 11 13 22 8 25 -5 3 -17 -3 -26 -13z"/>
 <path d="M636 352 c-3 -6 0 -14 7 -19 16 -11 47 -10 46 2 -1 6 -6 9 -11 7 -6 -1 -16 2 -23 8 -8 7 -16 7 -19 2z"/>
 <path d="M941 306 c-7 -8 -8 -17 -3 -20 6 -3 15 1 21 8 7 8 8 17 3 20 -6 3 -15 -1 -21 -8z"/>
 <path d="M676 302 c-3 -6 1 -15 8 -21 8 -7 17 -8 20 -3 3 6 -1 15 -8 21 -8 7 -17 8 -20 3z"/>
 <path d="M901 256 c-7 -8 -8 -17 -3 -20 6 -3 15 1 21 8 7 8 8 17 3 20 -6 3 -15 -1 -21 -8z"/>
 <path d="M726 242 c-3 -6 1 -15 8 -21 8 -7 17 -8 20 -3 3 6 -1 15 -8 21 -8 7 -17 8 -20 3z"/>
 <path d="M865 210 c-4 -6 -13 -9 -20 -8 -8 2 -15 -1 -17 -6 -2 -5 7 -10 20 -11 25 -2 49 19 33 29 -5 4 -13 2 -16 -4z"/>
 <path d="M766 192 c-3 -6 1 -15 8 -21 8 -7 17 -8 20 -3 3 6 -1 15 -8 21 -8 7 -17 8 -20 3z"/>
 </g>
<g id="layer105" fill="#adacac" stroke="none">
 <path d="M696 1521 c-12 -13 -14 -21 -6 -26 13 -8 52 24 44 36 -8 14 -19 11 -38 -10z"/>
 <path d="M875 1531 c-7 -12 12 -24 25 -16 6 4 9 3 8 -2 -2 -4 0 -9 5 -10 18 -7 19 -2 2 17 -20 22 -31 25 -40 11z"/>
 <path d="M640 1511 c-6 -12 -6 -22 -1 -26 6 -3 15 3 21 14 6 12 6 22 1 26 -6 3 -15 -3 -21 -14z"/>
 <path d="M947 1523 c-4 -6 0 -18 7 -28 8 -11 16 -14 19 -8 4 6 0 18 -7 28 -8 11 -16 14 -19 8z"/>
 <path d="M602 1508 c-7 -7 -12 -8 -12 -4 0 5 -7 3 -15 -4 -8 -7 -15 -9 -15 -5 0 4 -7 2 -15 -5 -8 -7 -15 -10 -15 -6 0 3 -22 -5 -49 -19 -46 -23 -51 -31 -42 -63 2 -6 101 49 100 56 -3 18 3 22 21 12 15 -8 21 -6 30 10 6 11 15 18 20 15 5 -3 11 -1 14 4 9 15 -9 22 -22 9z"/>
 <path d="M987 1513 c-4 -6 0 -18 7 -28 8 -11 16 -14 19 -8 4 6 0 18 -7 28 -8 11 -16 14 -19 8z"/>
 <path d="M1028 1503 c-7 -14 -3 -33 6 -33 12 -1 17 28 6 35 -5 3 -10 2 -12 -2z"/>
 <path d="M1059 1498 c-11 -42 -1 -54 26 -34 18 13 18 14 -3 25 -12 6 -22 10 -23 9z"/>
 <path d="M1178 1433 c-7 -14 -3 -33 6 -33 12 -1 17 28 6 35 -5 3 -10 2 -12 -2z"/>
 <path d="M379 1401 c-1 -3 -1 -10 0 -15 1 -5 -5 -6 -13 -3 -8 3 -20 -1 -26 -9 -7 -8 -9 -14 -4 -14 4 0 -14 -22 -40 -49 -27 -28 -54 -49 -60 -48 -5 1 -10 -7 -11 -18 0 -11 -6 -20 -12 -20 -7 0 -13 -3 -13 -7 0 -8 4 -9 15 -7 3 1 11 2 17 3 7 0 13 8 13 16 0 8 4 16 9 16 14 3 95 87 91 95 -7 10 20 30 36 27 8 -2 13 3 11 10 -1 7 4 12 12 10 8 -2 14 1 13 7 -2 10 -36 15 -38 6z"/>
 <path d="M1204 1388 c-5 -8 -3 -9 26 -12 8 0 15 -8 15 -16 0 -8 7 -14 16 -13 19 4 101 -79 97 -97 -2 -8 4 -14 12 -15 8 0 15 -7 15 -15 0 -8 5 -16 10 -17 5 -2 9 7 9 20 0 13 -6 22 -14 22 -8 0 -15 8 -15 17 0 23 -82 106 -103 104 -9 0 -17 5 -17 13 0 15 -43 23 -51 9z"/>
 <path d="M177 1193 c-4 -6 0 -18 7 -28 8 -11 16 -14 19 -8 4 6 0 18 -7 28 -8 11 -16 14 -19 8z"/>
 <path d="M1405 1180 c-3 -5 -2 -10 2 -12 13 -7 33 -3 36 6 3 12 -31 17 -38 6z"/>
 <path d="M1456 1083 c-3 -3 0 -15 6 -27 7 -11 12 -25 13 -31 0 -5 8 -10 18 -10 19 0 24 20 5 20 -7 1 -12 6 -10 13 1 7 3 17 5 23 2 12 -28 21 -37 12z"/>
 <path d="M119 1074 c-1 -2 -2 -7 -3 -11 -1 -5 -5 -14 -9 -20 -5 -7 -5 -13 -1 -13 3 0 1 -6 -5 -14 -8 -10 -9 -16 -1 -21 5 -3 11 -4 11 -1 4 16 7 26 9 31 1 3 3 11 4 18 0 6 7 12 14 12 19 0 19 18 0 21 -10 1 -19 0 -19 -2z"/>
 <path d="M1485 1001 c-3 -6 3 -15 14 -21 12 -6 22 -6 26 -1 3 6 -3 15 -14 21 -12 6 -22 6 -26 1z"/>
 <path d="M95 976 c-11 -8 -14 -16 -8 -19 6 -4 18 0 28 7 11 8 14 16 8 19 -6 4 -18 0 -28 -7z"/>
 <path d="M1495 961 c-3 -6 3 -15 14 -21 12 -6 22 -6 26 -1 3 6 -3 15 -14 21 -12 6 -22 6 -26 1z"/>
 <path d="M86 931 c-21 -23 -6 -36 20 -16 14 10 16 17 8 25 -7 7 -15 5 -28 -9z"/>
 <path d="M1506 911 c-9 -13 23 -63 35 -55 15 9 10 30 -10 48 -12 11 -21 14 -25 7z"/>
 <path d="M84 866 c-4 -10 -2 -22 4 -28 8 -8 13 -7 18 6 4 10 2 22 -4 28 -8 8 -13 7 -18 -6z"/>
 <path d="M64 817 c-7 -20 -2 -47 11 -50 14 -3 19 43 6 56 -7 7 -12 6 -17 -6z"/>
 <path d="M84 756 c-8 -21 3 -49 16 -41 5 3 10 15 10 25 0 25 -18 36 -26 16z"/>
 <path d="M1526 731 c-4 -6 -4 -16 0 -23 4 -6 3 -8 -4 -4 -6 3 -13 2 -16 -3 -12 -19 12 -20 29 -1 13 15 15 24 8 31 -8 8 -13 8 -17 0z"/>
 <path d="M77 693 c-12 -11 -8 -22 12 -33 11 -5 22 -6 25 -1 7 11 -28 43 -37 34z"/>
 <path d="M1504 655 c-14 -10 -16 -17 -8 -25 7 -7 15 -5 28 9 21 23 6 36 -20 16z"/>
 <path d="M85 631 c-3 -6 4 -15 15 -21 11 -6 18 -15 15 -20 -3 -5 -1 -11 4 -14 5 -4 12 -2 15 3 4 5 2 12 -4 16 -6 4 -8 10 -5 15 3 5 -3 14 -14 20 -12 6 -22 6 -26 1z"/>
 <path d="M1485 610 c-3 -5 -2 -10 2 -12 13 -7 33 -3 36 6 3 12 -31 17 -38 6z"/>
 <path d="M1499 586 c-4 -16 -7 -26 -9 -31 -1 -3 -3 -11 -4 -17 -1 -7 -7 -12 -14 -11 -9 2 -69 -95 -60 -98 32 -9 40 -4 63 42 14 27 22 49 19 49 -4 0 -1 7 6 15 7 8 9 15 5 15 -4 0 -2 6 4 14 8 10 9 16 1 21 -5 3 -11 4 -11 1z"/>
 <path d="M105 560 c-3 -5 -2 -10 2 -12 13 -7 33 -3 36 6 3 12 -31 17 -38 6z"/>
 <path d="M125 512 c-2 -2 7 -27 22 -55 23 -47 26 -49 39 -33 24 33 -33 116 -61 88z"/>
 <path d="M184 399 c-5 -9 2 -13 19 -10 4 1 7 -7 5 -16 -2 -10 3 -18 12 -18 8 0 14 -8 14 -17 -2 -21 91 -113 114 -113 9 0 17 -7 17 -15 0 -9 8 -14 18 -12 10 2 16 -3 15 -10 -2 -8 4 -12 16 -10 10 2 15 -1 12 -7 -4 -5 3 -15 14 -21 11 -6 20 -9 21 -8 10 37 -9 61 -39 51 -7 -3 -11 1 -10 8 2 7 -6 13 -17 14 -11 0 -20 7 -20 15 -1 8 -7 14 -15 12 -17 -4 -102 79 -96 95 5 11 -9 28 -29 35 -5 1 -10 9 -10 17 0 16 -32 24 -41 10z"/>
 <path d="M1379 383 c-1 -4 -2 -15 -3 -23 0 -8 -6 -14 -12 -13 -11 2 -109 -92 -109 -105 0 -4 -4 -7 -10 -7 -18 -1 -35 -16 -29 -26 3 -6 -2 -9 -12 -7 -12 2 -19 -3 -19 -14 0 -10 5 -17 10 -15 5 1 9 6 7 10 -1 4 6 7 15 5 11 -2 17 2 15 11 -2 8 3 11 12 8 8 -3 20 1 26 9 7 8 9 14 4 14 -4 0 14 22 41 50 26 27 52 47 56 44 10 -6 23 15 24 39 2 17 -14 36 -16 20z"/>
 <path d="M1119 168 c-11 -42 -1 -54 26 -34 18 13 18 14 -3 25 -12 6 -22 10 -23 9z"/>
 <path d="M509 158 c-7 -27 -4 -40 12 -48 10 -6 19 -9 20 -8 7 27 4 40 -12 48 -10 6 -19 9 -20 8z"/>
 <path d="M558 133 c-8 -15 -3 -38 7 -38 6 0 15 -4 22 -8 6 -4 14 -3 18 3 6 10 5 12 -17 14 -7 0 -13 6 -13 13 0 15 -12 27 -17 16z"/>
 <path d="M1045 130 c-4 -6 -10 -8 -15 -5 -5 3 -14 -4 -20 -15 -6 -11 -15 -18 -20 -15 -5 3 -11 1 -14 -4 -4 -5 -2 -12 3 -15 5 -4 12 -2 16 4 4 6 10 8 15 5 5 -3 14 4 20 15 9 16 15 18 30 10 12 -6 21 -6 25 -1 3 6 -3 15 -14 21 -13 7 -22 7 -26 0z"/>
 <path d="M617 113 c-4 -6 0 -18 7 -28 8 -11 16 -14 19 -8 4 6 0 18 -7 28 -8 11 -16 14 -19 8z"/>
 <path d="M656 102 c-9 -15 21 -49 34 -36 7 7 5 15 -9 28 -10 9 -22 13 -25 8z"/>
 <path d="M930 91 c-6 -12 -6 -22 -1 -26 6 -3 15 3 21 14 6 12 6 22 1 26 -6 3 -15 -3 -21 -14z"/>
 <path d="M715 90 c-8 -12 20 -24 35 -15 6 3 8 11 5 16 -8 12 -32 12 -40 -1z"/>
 <path d="M865 91 c-7 -12 12 -24 25 -16 11 7 4 25 -10 25 -5 0 -11 -4 -15 -9z"/>
 <path d="M755 70 c-3 -5 0 -13 8 -16 23 -8 102 0 102 11 0 14 -102 19 -110 5z"/>
 </g>
<g id="layer106" fill="#615431" stroke="none">
 <path d="M765 1540 c-3 -5 0 -13 9 -16 21 -8 71 -1 71 11 0 14 -72 19 -80 5z"/>
 <path d="M725 1511 c-7 -12 12 -24 25 -16 11 7 4 25 -10 25 -5 0 -11 -4 -15 -9z"/>
 <path d="M855 1511 c-7 -12 12 -24 25 -16 11 7 4 25 -10 25 -5 0 -11 -4 -15 -9z"/>
 <path d="M469 1465 c-25 -13 -34 -48 -14 -52 6 -1 9 5 7 13 -2 8 1 14 6 14 4 0 16 6 27 13 25 19 5 28 -26 12z"/>
 <path d="M836 1372 c-3 -6 1 -15 8 -21 8 -7 17 -8 20 -3 3 6 -1 15 -8 21 -8 7 -17 8 -20 3z"/>
 <path d="M876 1322 c-3 -6 1 -15 8 -21 8 -7 17 -8 20 -3 3 6 -1 15 -8 21 -8 7 -17 8 -20 3z"/>
 <path d="M691 1246 c-7 -8 -8 -17 -3 -20 6 -3 15 1 21 8 7 8 8 17 3 20 -6 3 -15 -1 -21 -8z"/>
 <path d="M206 1241 c-4 -5 -2 -12 4 -16 6 -4 8 -10 5 -15 -3 -5 -1 -11 4 -14 5 -4 12 -2 15 3 4 5 2 12 -4 16 -6 4 -8 10 -5 15 3 5 1 11 -4 14 -5 4 -12 2 -15 -3z"/>
 <path d="M651 1196 c-7 -8 -8 -17 -3 -20 6 -3 15 1 21 8 7 8 8 17 3 20 -6 3 -15 -1 -21 -8z"/>
 <path d="M164 1178 c-6 -9 -4 -10 26 -11 11 -1 19 3 18 8 -4 12 -37 14 -44 3z"/>
 <path d="M536 1088 c-14 -33 -12 -53 4 -43 4 3 13 18 18 35 15 42 -5 50 -22 8z"/>
 <path d="M595 1110 c-3 -5 -2 -10 2 -12 13 -7 33 -3 36 6 3 12 -31 17 -38 6z"/>
 <path d="M667 1113 c-4 -3 -3 -11 0 -17 14 -22 10 -34 -14 -45 -15 -7 -21 -16 -16 -24 4 -6 7 -22 8 -35 0 -29 17 -33 21 -5 7 41 9 48 18 55 13 9 16 37 5 44 -5 3 -7 9 -4 14 6 10 -10 22 -18 13z"/>
 <path d="M942 1103 c-20 -37 -4 -81 27 -78 31 2 35 12 11 25 -16 9 -21 18 -17 36 5 30 -9 41 -21 17z"/>
 <path d="M995 1110 c-3 -5 -2 -10 2 -12 13 -7 33 -3 36 6 3 12 -31 17 -38 6z"/>
 <path d="M1068 1115 c-4 -4 -2 -19 3 -34 6 -14 10 -27 10 -28 -1 -2 2 -4 6 -5 3 -2 7 6 9 18 4 23 -17 59 -28 49z"/>
 <path d="M116 1082 c-3 -5 3 -17 13 -26 11 -10 22 -13 25 -8 3 5 -3 17 -13 26 -11 10 -22 13 -25 8z"/>
 <path d="M555 1051 c-3 -6 3 -15 14 -21 12 -6 22 -6 26 -1 3 6 -3 15 -14 21 -12 6 -22 6 -26 1z"/>
 <path d="M1037 1043 c-4 -3 -3 -11 0 -17 4 -6 7 -21 8 -34 0 -12 4 -23 9 -25 13 -3 18 41 6 48 -6 4 -8 10 -5 15 6 10 -10 22 -18 13z"/>
 <path d="M720 1001 c-6 -12 -6 -22 -1 -26 6 -3 15 3 21 14 6 12 6 22 1 26 -6 3 -15 -3 -21 -14z"/>
 <path d="M1120 1001 c-6 -12 -6 -22 -1 -26 6 -3 15 3 21 14 6 12 6 22 1 26 -6 3 -15 -3 -21 -14z"/>
 <path d="M115 1000 c-4 -6 -10 -8 -15 -5 -5 3 -11 1 -14 -4 -4 -5 -2 -12 3 -15 5 -4 12 -2 16 4 4 6 10 8 15 5 5 -3 11 -1 14 4 4 5 2 12 -3 15 -5 4 -12 2 -16 -4z"/>
 <path d="M556 961 c-4 -5 -2 -12 4 -16 5 -3 10 -3 10 1 0 3 6 2 13 -3 16 -12 57 -11 57 2 0 6 -12 10 -27 10 -16 0 -33 4 -40 8 -6 4 -14 3 -17 -2z"/>
 <path d="M351 926 c-18 -19 -29 -36 -23 -39 5 -4 23 9 41 27 18 19 29 36 23 39 -5 4 -23 -9 -41 -27z"/>
 <path d="M866 952 c-3 -6 1 -15 8 -21 8 -7 17 -8 20 -3 3 6 -1 15 -8 21 -8 7 -17 8 -20 3z"/>
 <path d="M1005 950 c-3 -5 -2 -10 2 -12 13 -7 33 -3 36 6 3 12 -31 17 -38 6z"/>
 <path d="M667 944 c-4 -4 -3 -12 1 -18 4 -6 7 -19 7 -28 0 -28 19 -21 21 7 1 25 -18 50 -29 39z"/>
 <path d="M716 931 c-10 -11 -13 -22 -8 -25 5 -3 17 3 26 13 10 11 13 22 8 25 -5 3 -17 -3 -26 -13z"/>
 <path d="M1216 942 c-3 -5 5 -19 18 -31 13 -13 26 -18 30 -13 3 5 -5 19 -18 31 -13 13 -26 18 -30 13z"/>
 <path d="M525 926 c-11 -8 -14 -16 -8 -19 6 -4 18 0 28 7 11 8 14 16 8 19 -6 4 -18 0 -28 -7z"/>
 <path d="M924 925 c-18 -13 -18 -14 -2 -20 10 -4 16 -11 13 -15 -2 -4 4 -15 14 -24 11 -10 22 -13 25 -8 3 5 -1 15 -8 22 -8 6 -13 20 -11 30 5 26 -8 32 -31 15z"/>
 <path d="M1075 931 c-3 -6 3 -15 14 -21 12 -6 22 -6 26 -1 3 6 -3 15 -14 21 -12 6 -22 6 -26 1z"/>
 <path d="M565 870 c-3 -5 -2 -10 2 -12 13 -7 33 -3 36 6 3 12 -31 17 -38 6z"/>
 <path d="M1025 870 c-3 -5 -2 -10 2 -12 13 -7 33 -3 36 6 3 12 -31 17 -38 6z"/>
 <path d="M1504 866 c-4 -10 -2 -22 4 -28 8 -8 13 -7 18 6 4 10 2 22 -4 28 -8 8 -13 7 -18 -6z"/>
 <path d="M1534 806 c-4 -10 -2 -22 4 -28 8 -8 13 -7 18 6 4 10 2 22 -4 28 -8 8 -13 7 -18 -6z"/>
 <path d="M1505 750 c-4 -6 -3 -16 3 -22 6 -6 12 -6 17 2 4 6 3 16 -3 22 -6 6 -12 6 -17 -2z"/>
 <path d="M65 730 c-4 -6 -3 -16 3 -22 6 -6 12 -6 17 2 4 6 3 16 -3 22 -6 6 -12 6 -17 -2z"/>
 <path d="M947 733 c-4 -3 -2 -12 5 -20 9 -11 8 -13 -2 -11 -8 2 -14 -4 -15 -12 0 -8 -6 -15 -12 -15 -7 0 -13 -3 -13 -7 0 -5 0 -11 0 -14 0 -4 7 0 17 7 9 8 19 13 22 12 3 -2 6 0 6 5 0 16 17 32 30 30 8 -2 14 2 13 7 0 6 -5 9 -10 7 -6 -1 -16 2 -22 8 -7 5 -16 7 -19 3z"/>
 <path d="M554 718 c-6 -9 -4 -10 26 -11 11 -1 19 3 18 8 -4 12 -37 14 -44 3z"/>
 <path d="M624 718 c-5 -8 3 -12 20 -9 5 1 16 -5 26 -14 10 -9 21 -12 24 -7 3 5 -1 16 -10 23 -18 15 -53 19 -60 7z"/>
 <path d="M1024 719 c-6 -10 7 -16 33 -13 12 0 20 -3 17 -8 -8 -12 26 -49 37 -42 5 3 7 10 3 15 -3 5 -10 7 -15 4 -5 -3 -6 0 -3 8 9 25 -57 59 -72 36z"/>
 <path d="M366 652 c-3 -6 1 -15 8 -21 8 -7 17 -8 20 -3 3 6 -1 15 -8 21 -8 7 -17 8 -20 3z"/>
 <path d="M545 651 c-9 -8 17 -41 27 -35 6 4 25 8 42 9 43 4 61 9 64 19 2 9 -125 15 -133 7z"/>
 <path d="M959 638 c-9 -17 2 -33 14 -21 4 3 28 7 54 8 60 3 59 3 46 16 -19 19 -103 17 -114 -3z"/>
 <path d="M647 613 c-8 -14 3 -67 21 -100 8 -14 9 -24 2 -28 -6 -4 -8 -11 -4 -16 3 -5 10 -7 15 -3 5 3 7 8 5 12 -6 10 20 43 32 40 5 -2 10 1 11 7 1 5 -11 9 -26 10 -15 0 -27 6 -29 15 -1 8 -4 25 -6 37 -5 26 -14 38 -21 26z"/>
 <path d="M1048 613 c-8 -14 -3 -38 7 -41 12 -3 16 36 4 43 -4 3 -9 2 -11 -2z"/>
 <path d="M717 603 c-4 -6 0 -18 7 -28 8 -11 16 -14 19 -8 4 6 0 18 -7 28 -8 11 -16 14 -19 8z"/>
 <path d="M1117 604 c-3 -4 -2 -15 3 -25 9 -16 4 -49 -7 -49 -2 0 -13 5 -24 10 -28 16 -42 3 -24 -22 10 -15 11 -25 4 -34 -7 -8 -7 -14 1 -19 5 -3 11 -4 11 -1 9 38 22 57 35 52 16 -6 31 20 28 52 -2 26 -17 46 -27 36z"/>
 <path d="M537 543 c-12 -13 -19 -14 -30 -5 -8 7 -17 9 -20 5 -10 -9 13 -33 26 -27 7 2 18 -10 24 -27 13 -33 35 -32 26 1 -3 11 0 26 6 34 18 22 -11 40 -32 19z"/>
 <path d="M937 543 c-12 -13 -19 -14 -30 -5 -8 7 -17 9 -20 5 -10 -10 13 -32 27 -27 12 5 28 -16 30 -38 1 -5 4 -8 9 -8 4 0 10 0 13 0 4 0 2 6 -4 13 -9 10 -8 19 3 34 12 17 12 23 2 32 -10 8 -18 6 -30 -6z"/>
 <path d="M137 513 c-14 -14 -14 -19 -1 -45 8 -16 19 -26 24 -23 6 4 3 19 -6 37 -9 16 -11 27 -6 24 6 -4 13 -2 16 3 11 17 -10 20 -27 4z"/>
 <path d="M600 485 c-7 -8 -11 -15 -9 -16 31 -6 40 -6 44 1 3 4 -1 13 -9 19 -10 9 -16 8 -26 -4z"/>
 <path d="M1458 476 c-6 -15 -16 -25 -22 -24 -7 2 -14 -1 -16 -6 -3 -5 5 -10 18 -11 25 -2 61 48 42 60 -5 3 -15 -5 -22 -19z"/>
 <path d="M995 480 c-3 -5 -2 -10 2 -12 13 -7 33 -3 36 6 3 12 -31 17 -38 6z"/>
 <path d="M385 410 c-10 -17 12 -37 25 -24 8 8 6 15 -4 23 -10 9 -16 9 -21 1z"/>
 <path d="M961 376 c-7 -8 -8 -17 -3 -20 6 -3 15 1 21 8 7 8 8 17 3 20 -6 3 -15 -1 -21 -8z"/>
 <path d="M921 326 c-7 -8 -8 -17 -3 -20 6 -3 15 1 21 8 7 8 8 17 3 20 -6 3 -15 -1 -21 -8z"/>
 <path d="M746 262 c-3 -6 1 -15 8 -21 8 -7 17 -8 20 -3 3 6 -1 15 -8 21 -8 7 -17 8 -20 3z"/>
 <path d="M786 212 c-3 -6 1 -15 8 -21 8 -7 17 -8 20 -3 3 6 -1 15 -8 21 -8 7 -17 8 -20 3z"/>
 <path d="M439 196 c-5 -23 -2 -46 5 -48 12 -4 15 41 4 48 -4 3 -8 3 -9 0z"/>
 <path d="M636 111 c-4 -5 -2 -12 4 -16 6 -4 8 -10 5 -15 -3 -5 -1 -11 4 -14 5 -4 12 -2 15 3 4 5 2 12 -4 16 -6 4 -8 10 -5 15 3 5 1 11 -4 14 -5 4 -12 2 -15 -3z"/>
 </g>
<g id="layer107" fill="#a17d3f" stroke="none">
 <path d="M806 1391 c-10 -11 -13 -21 -7 -25 5 -4 12 -2 16 4 4 6 10 8 15 5 15 -9 21 12 6 24 -10 8 -17 6 -30 -8z"/>
 <path d="M856 1352 c-3 -6 1 -15 8 -21 8 -7 17 -8 20 -3 3 6 -1 15 -8 21 -8 7 -17 8 -20 3z"/>
 <path d="M721 1286 c-13 -13 -18 -26 -13 -30 5 -3 19 5 31 18 13 13 18 26 13 30 -5 3 -19 -5 -31 -18z"/>
 <path d="M896 1302 c-3 -6 1 -15 8 -21 8 -7 17 -8 20 -3 3 6 -1 15 -8 21 -8 7 -17 8 -20 3z"/>
 <path d="M671 1226 c-7 -8 -8 -17 -3 -20 6 -3 15 1 21 8 7 8 8 17 3 20 -6 3 -15 -1 -21 -8z"/>
 <path d="M615 1108 c-23 -14 -8 -30 16 -17 16 8 25 7 39 -6 10 -9 21 -12 24 -7 14 24 -47 47 -79 30z"/>
 <path d="M954 1109 c-5 -9 3 -13 19 -10 4 1 16 -3 27 -9 20 -11 39 3 20 15 -18 11 -60 13 -66 4z"/>
 <path d="M546 1071 c-3 -5 -15 -7 -25 -4 -26 7 -37 -19 -36 -82 1 -54 10 -79 26 -69 6 4 6 11 -1 19 -8 10 -8 19 0 35 9 16 9 25 0 35 -14 16 -5 35 15 35 20 0 35 -33 29 -61 -3 -13 -6 -34 -8 -47 -2 -12 -6 -25 -9 -29 -9 -8 12 -44 23 -38 5 3 11 1 15 -5 4 -6 13 -7 23 -1 11 6 24 6 35 0 18 -10 56 4 58 21 1 6 2 16 3 23 1 6 10 11 19 10 23 -1 45 43 30 58 -8 8 -8 18 -1 35 17 36 -14 67 -56 58 -49 -11 -127 -13 -121 -4 3 5 1 11 -4 14 -5 4 -12 2 -15 -3z m174 -51 c-5 -16 -5 -32 -1 -35 5 -2 6 -15 4 -29 -4 -17 -11 -23 -30 -23 -16 0 -22 4 -19 13 8 22 -12 26 -23 5 -8 -14 -7 -22 4 -31 27 -23 18 -42 -17 -37 -18 2 -41 0 -51 -5 -12 -6 -19 -4 -24 7 -7 20 21 50 47 50 11 0 20 5 20 10 0 13 -21 14 -37 2 -15 -11 -15 -13 -17 38 l-3 40 51 0 c28 0 62 5 76 12 14 7 26 13 27 13 1 0 -2 -13 -7 -30z"/>
 <path d="M891 1056 c-7 -8 -8 -16 -4 -19 13 -8 55 12 48 23 -9 14 -31 12 -44 -4z"/>
 <path d="M1057 1058 c-7 -5 -29 -7 -49 -6 -20 1 -40 -1 -43 -4 -11 -11 36 -30 61 -25 14 2 27 0 30 -5 3 -5 13 -3 22 5 10 8 24 17 34 20 14 5 15 1 8 -24 -5 -16 -5 -31 0 -34 5 -3 5 -19 0 -35 -11 -38 6 -50 22 -15 8 18 8 29 1 36 -8 8 -8 18 -1 35 20 44 -41 81 -85 52z"/>
 <path d="M959 1028 c0 -2 -2 -18 -3 -36 -3 -43 -29 -70 -50 -53 -9 7 -16 8 -20 2 -7 -11 12 -25 34 -26 8 0 16 -6 16 -12 1 -7 2 -17 3 -23 2 -18 40 -31 59 -21 11 6 24 6 32 1 9 -5 19 -5 27 2 7 6 13 7 13 2 0 -5 7 -1 15 10 10 13 11 24 4 37 -5 11 -7 19 -4 19 3 0 0 10 -6 22 -11 21 -12 21 -25 3 -12 -16 -11 -21 2 -36 21 -24 11 -53 -13 -41 -10 5 -33 7 -50 5 -24 -3 -33 0 -33 10 0 18 20 36 46 40 29 4 23 22 -7 21 -23 -2 -26 2 -24 33 1 19 -2 36 -7 39 -4 3 -8 4 -9 2z"/>
 <path d="M887 1014 c-3 -4 -2 -16 4 -26 8 -15 14 -17 22 -9 8 8 7 15 -4 26 -8 9 -18 13 -22 9z"/>
 <path d="M235 820 l-29 -30 44 -45 c24 -24 47 -42 53 -38 5 3 -8 23 -29 44 l-38 39 23 24 c12 13 18 26 13 30 -5 3 -22 -8 -37 -24z"/>
 <path d="M1365 800 c-3 -5 -3 -10 2 -10 4 0 -28 -35 -71 -79 -43 -43 -74 -81 -69 -84 12 -7 156 136 159 158 3 18 -12 29 -21 15z"/>
 <path d="M557 719 c-29 -17 -12 -25 50 -22 35 1 61 -3 65 -10 11 -18 10 -27 -4 -24 -6 1 -12 -8 -12 -20 0 -13 4 -22 9 -21 6 1 9 8 7 15 -2 7 2 12 9 11 6 -2 13 8 14 21 2 31 -30 65 -53 56 -21 -9 -32 -9 -52 -1 -8 3 -23 1 -33 -5z"/>
 <path d="M950 710 c-12 -12 -18 -25 -15 -30 3 -5 0 -12 -5 -15 -8 -5 -5 -13 6 -26 10 -11 18 -33 18 -49 1 -17 6 -30 11 -30 11 0 14 100 3 107 -5 2 -8 10 -8 18 0 11 14 13 61 12 65 -3 82 5 49 23 -13 7 -26 7 -38 1 -11 -6 -24 -6 -33 0 -20 13 -27 11 -49 -11z"/>
 <path d="M537 669 c-9 -6 -21 -8 -26 -4 -16 9 -25 -16 -25 -73 -1 -64 19 -91 53 -72 28 15 17 32 -13 20 -18 -6 -23 -5 -23 8 0 10 4 22 9 29 6 7 5 20 -2 33 -9 16 -9 25 -1 33 17 17 44 -16 46 -55 1 -19 7 -32 14 -30 6 1 10 -3 9 -10 -2 -7 13 -12 42 -12 25 -1 56 -7 69 -15 21 -11 26 -11 44 8 17 17 19 24 10 44 -8 18 -8 28 0 36 7 7 7 18 -1 36 -16 35 -33 23 -22 -15 5 -16 5 -32 0 -35 -5 -3 -5 -18 0 -34 7 -25 6 -29 -8 -24 -10 3 -21 9 -27 12 -5 4 -28 6 -50 5 -53 -2 -63 8 -61 62 2 50 -10 68 -37 53z"/>
 <path d="M1064 668 c-11 -17 -13 -48 -3 -53 4 -3 14 6 23 19 13 20 13 26 2 36 -11 8 -16 8 -22 -2z"/>
 <path d="M1118 665 c-3 -4 -3 -19 2 -35 4 -15 4 -32 0 -36 -13 -14 8 -60 21 -47 8 8 8 17 0 31 -7 14 -8 23 -1 27 5 3 10 12 10 19 0 17 -24 48 -32 41z"/>
 <path d="M895 600 c-27 -44 5 -101 44 -80 29 15 17 32 -13 20 -21 -8 -24 -6 -22 14 2 13 6 28 10 34 3 6 2 13 -3 16 -5 4 -13 1 -16 -4z"/>
 <path d="M1056 563 c-4 -4 -23 -8 -42 -8 -51 -2 -46 -19 6 -20 25 0 56 -6 69 -13 16 -10 26 -11 34 -3 7 7 5 12 -9 17 -10 4 -26 13 -35 21 -9 7 -19 10 -23 6z"/>
 <path d="M670 495 c-7 -9 -18 -14 -24 -13 -6 2 -11 -1 -11 -7 0 -5 8 -10 17 -10 21 -2 54 30 40 39 -5 3 -15 -1 -22 -9z"/>
 <path d="M936 502 c-11 -19 29 -37 80 -37 52 1 89 19 78 37 -3 5 -14 2 -24 -7 -14 -12 -23 -14 -37 -7 -12 7 -25 7 -36 0 -14 -7 -23 -6 -37 7 -10 9 -21 12 -24 7z"/>
 <path d="M554 478 c-6 -9 -4 -10 26 -11 11 -1 19 3 18 8 -4 12 -37 14 -44 3z"/>
 <path d="M636 392 c-3 -5 3 -17 13 -26 11 -10 22 -13 25 -8 3 5 -3 17 -13 26 -11 10 -22 13 -25 8z"/>
 <path d="M941 346 c-7 -8 -8 -17 -3 -20 6 -3 15 1 21 8 7 8 8 17 3 20 -6 3 -15 -1 -21 -8z"/>
 <path d="M894 287 c-48 -55 -55 -65 -46 -71 5 -3 26 14 46 38 36 45 36 75 0 33z"/>
 <path d="M726 282 c-3 -6 1 -15 8 -21 8 -7 17 -8 20 -3 3 6 -1 15 -8 21 -8 7 -17 8 -20 3z"/>
 <path d="M766 232 c-3 -6 1 -15 8 -21 8 -7 17 -8 20 -3 3 6 -1 15 -8 21 -8 7 -17 8 -20 3z"/>
 </g>
<g id="layer108" fill="#5b251d" stroke="none">
 <path d="M777 1482 c-18 -19 -12 -38 7 -23 6 5 25 11 41 13 39 4 39 22 -1 26 -20 2 -36 -3 -47 -16z"/>
 <path d="M866 1472 c-3 -5 5 -19 18 -31 13 -13 26 -18 30 -13 3 5 -5 19 -18 31 -13 13 -26 18 -30 13z"/>
 <path d="M731 1426 c-13 -13 -18 -26 -13 -30 5 -3 19 5 31 18 13 13 18 26 13 30 -5 3 -19 -5 -31 -18z"/>
 <path d="M916 1412 c-3 -5 3 -17 13 -26 11 -10 22 -13 25 -8 3 5 -3 17 -13 26 -11 10 -22 13 -25 8z"/>
 <path d="M686 1371 c-10 -11 -13 -22 -8 -25 5 -3 17 3 26 13 10 11 13 22 8 25 -5 3 -17 -3 -26 -13z"/>
 <path d="M956 1362 c-3 -5 3 -17 13 -26 11 -10 22 -13 25 -8 3 5 -3 17 -13 26 -11 10 -22 13 -25 8z"/>
 <path d="M646 1321 c-10 -11 -13 -22 -8 -25 5 -3 17 3 26 13 10 11 13 22 8 25 -5 3 -17 -3 -26 -13z"/>
 <path d="M996 1312 c-3 -5 7 -21 23 -36 28 -26 28 -27 159 -24 180 4 171 23 -10 23 -75 0 -134 3 -132 6 2 4 -5 14 -15 23 -11 10 -22 13 -25 8z"/>
 <path d="M471 1282 c-95 -1 -160 -7 -168 -14 -10 -8 -13 -42 -11 -144 4 -176 22 -179 26 -4 l3 130 148 0 c116 0 151 3 160 14 7 8 8 16 4 18 -4 1 -77 2 -162 0z"/>
 <path d="M906 1152 c-3 -5 1 -15 9 -22 13 -10 6 -21 -43 -71 l-57 -59 -66 66 c-64 64 -80 70 -73 30 1 -11 -1 -28 -7 -37 -6 -11 -6 -20 0 -24 13 -7 30 26 23 45 -4 11 1 10 16 -4 12 -10 20 -21 19 -25 -1 -3 1 -6 5 -6 4 0 24 -17 45 -37 l39 -38 58 60 c32 33 63 58 68 57 6 -1 12 6 13 15 3 19 -40 64 -49 50z"/>
 <path d="M1079 1103 c-1 -4 -1 -12 0 -17 1 -5 -5 -16 -14 -26 -12 -13 -13 -20 -5 -25 16 -10 31 7 34 39 3 23 -12 51 -15 29z"/>
 <path d="M546 1061 c-4 -5 -2 -12 4 -16 6 -4 8 -10 5 -15 -3 -5 -1 -11 4 -14 5 -4 12 -2 15 3 4 5 2 12 -4 16 -6 4 -8 10 -5 15 3 5 1 11 -4 14 -5 4 -12 2 -15 -3z"/>
 <path d="M1116 1062 c-3 -6 1 -15 8 -21 8 -7 17 -8 20 -3 3 6 -1 15 -8 21 -8 7 -17 8 -20 3z"/>
 <path d="M1049 1028 c0 -2 -2 -16 -3 -33 -2 -16 -5 -35 -7 -41 -2 -7 1 -13 6 -14 6 0 16 -12 23 -26 21 -40 34 -17 13 24 -10 20 -17 47 -16 60 1 13 -2 25 -7 28 -4 3 -8 4 -9 2z"/>
 <path d="M649 999 c-2 -14 -7 -36 -10 -45 -2 -7 0 -12 5 -12 5 0 13 -7 18 -16 5 -9 13 -14 18 -11 5 3 11 1 15 -5 4 -6 11 -8 16 -4 5 3 7 10 3 15 -3 5 -9 7 -14 4 -8 -5 -42 47 -39 61 0 3 -2 8 -5 12 -3 3 -6 3 -7 1z"/>
 <path d="M176 881 c-38 -38 -64 -71 -59 -74 5 -3 40 25 77 62 38 38 64 71 59 74 -5 3 -40 -25 -77 -62z"/>
 <path d="M544 934 c-4 -10 -9 -22 -11 -26 -2 -4 1 -9 6 -13 15 -9 35 35 22 48 -7 7 -12 5 -17 -9z"/>
 <path d="M945 940 c-4 -6 -3 -16 3 -22 6 -6 12 -6 17 2 4 6 3 16 -3 22 -6 6 -12 6 -17 -2z"/>
 <path d="M481 927 c-8 -10 0 -22 33 -50 35 -29 46 -34 55 -23 15 18 1 29 -17 13 -10 -7 -13 -8 -9 -1 4 7 0 17 -8 24 -8 7 -12 16 -10 21 10 15 -32 30 -44 16z"/>
 <path d="M875 930 c-7 -11 35 -31 49 -22 5 3 1 11 -9 19 -22 16 -32 16 -40 3z"/>
 <path d="M1139 933 c-1 -4 -1 -12 0 -17 1 -5 -4 -4 -12 2 -19 16 -30 3 -14 -16 7 -10 8 -13 1 -9 -14 8 -37 -16 -26 -29 4 -4 0 -3 -10 4 -20 15 -34 -1 -15 -17 10 -8 24 0 56 33 27 27 39 46 32 50 -6 4 -12 4 -12 -1z"/>
 <path d="M1367 923 c-3 -5 21 -36 53 -68 33 -33 60 -64 60 -69 0 -6 -41 -52 -91 -102 -50 -50 -87 -94 -82 -97 5 -3 53 38 107 92 84 84 97 101 88 117 -18 32 -129 137 -135 127z"/>
 <path d="M347 803 c-3 -5 30 -45 74 -88 43 -44 80 -76 80 -72 1 4 2 10 3 15 2 13 17 32 25 32 5 0 8 -9 7 -20 0 -11 4 -18 9 -17 6 1 10 16 10 34 0 24 10 42 38 71 22 22 35 42 30 45 -5 3 -38 -23 -73 -59 l-64 -64 -67 66 c-37 36 -69 62 -72 57z"/>
 <path d="M1007 803 c-3 -5 18 -34 48 -63 30 -30 55 -58 55 -63 0 -5 -6 -4 -14 2 -12 10 -17 8 -25 -8 -11 -20 2 -41 14 -22 3 5 13 10 23 10 9 1 25 2 34 3 22 2 153 134 141 141 -5 3 -38 -23 -73 -59 l-64 -64 -67 66 c-37 36 -69 62 -72 57z"/>
 <path d="M117 773 c-3 -5 27 -42 67 -82 41 -40 76 -69 79 -64 3 5 -27 42 -67 82 -41 40 -76 69 -79 64z"/>
 <path d="M662 653 c-19 -39 -23 -63 -9 -63 4 0 7 2 7 5 -1 17 33 65 43 63 7 -2 14 2 15 7 1 6 -1 10 -5 10 -5 0 -13 4 -20 8 -8 5 -19 -5 -31 -30z"/>
 <path d="M873 664 c-10 -27 12 -36 32 -14 10 11 16 20 14 21 -2 0 -12 2 -22 4 -10 2 -21 -3 -24 -11z"/>
 <path d="M936 662 c-3 -6 1 -15 8 -21 8 -7 17 -8 20 -3 3 6 -1 15 -8 21 -8 7 -17 8 -20 3z"/>
 <path d="M1048 623 c-7 -14 -3 -33 6 -33 12 -1 17 28 6 35 -5 3 -10 2 -12 -2z"/>
 <path d="M297 594 c-4 -4 -7 -64 -7 -134 0 -95 4 -131 15 -146 17 -23 16 -31 15 136 -1 126 -6 160 -23 144z"/>
 <path d="M556 562 c-3 -6 1 -15 8 -21 8 -7 17 -8 20 -3 3 6 -1 15 -8 21 -8 7 -17 8 -20 3z"/>
 <path d="M956 562 c-3 -6 1 -15 8 -21 8 -7 17 -8 20 -3 3 6 -1 15 -8 21 -8 7 -17 8 -20 3z"/>
 <path d="M646 552 c-3 -5 4 -16 15 -25 13 -12 18 -25 14 -45 -4 -24 5 -37 63 -95 37 -36 72 -67 77 -67 6 0 39 30 75 65 57 56 65 70 65 100 -1 42 -19 47 -20 5 0 -22 -14 -44 -60 -90 l-59 -60 -58 57 c-32 32 -56 63 -54 70 3 7 1 15 -5 18 -5 4 -9 12 -8 18 3 26 -2 37 -20 47 -11 5 -22 6 -25 2z"/>
 <path d="M729 549 c-6 -31 -6 -40 1 -44 4 -3 13 1 19 9 9 10 8 16 -4 26 -8 7 -15 11 -16 9z"/>
 <path d="M876 532 c-3 -6 1 -15 8 -21 8 -7 17 -8 20 -3 3 6 -1 15 -8 21 -8 7 -17 8 -20 3z"/>
 <path d="M606 302 c-3 -5 3 -17 13 -26 11 -10 22 -13 25 -8 3 5 -3 17 -13 26 -11 10 -22 13 -25 8z"/>
 <path d="M996 281 c-10 -11 -13 -22 -8 -25 5 -3 17 3 26 13 10 11 13 22 8 25 -5 3 -17 -3 -26 -13z"/>
 <path d="M646 252 c-3 -5 3 -17 13 -26 11 -10 22 -13 25 -8 3 5 -3 17 -13 26 -11 10 -22 13 -25 8z"/>
 <path d="M956 231 c-10 -11 -13 -22 -8 -25 5 -3 17 3 26 13 10 11 13 22 8 25 -5 3 -17 -3 -26 -13z"/>
 <path d="M686 202 c-3 -5 3 -17 13 -26 11 -10 22 -13 25 -8 3 5 -3 17 -13 26 -11 10 -22 13 -25 8z"/>
 <path d="M916 181 c-10 -11 -13 -22 -8 -25 5 -3 17 3 26 13 10 11 13 22 8 25 -5 3 -17 -3 -26 -13z"/>
 <path d="M726 152 c-3 -5 5 -19 18 -31 13 -13 26 -18 30 -13 3 5 -5 19 -18 31 -13 13 -26 18 -30 13z"/>
 <path d="M871 126 c-7 -8 -8 -17 -3 -20 6 -3 15 1 21 8 7 8 8 17 3 20 -6 3 -15 -1 -21 -8z"/>
 </g>
<g id="layer109" fill="#527050" stroke="none">
 <path d="M1026 1491 c-11 -13 -14 -21 -7 -26 11 -6 15 1 12 18 -1 5 3 6 8 3 5 -4 12 -2 15 3 12 19 -12 20 -28 2z"/>
 <path d="M539 1496 c-1 -3 -2 -9 -3 -13 -1 -5 -5 -13 -9 -20 -4 -6 -3 -14 3 -18 5 -3 11 -4 11 -1 1 3 2 9 3 14 1 4 5 12 9 19 4 6 3 14 -3 18 -5 3 -11 4 -11 1z"/>
 <path d="M1086 1481 c-4 -5 -2 -12 4 -16 6 -4 8 -10 5 -15 -3 -5 8 -16 24 -25 19 -9 32 -11 36 -5 4 6 10 8 15 5 5 -3 11 -1 14 4 4 5 2 12 -3 15 -5 4 -12 2 -16 -4 -4 -6 -17 -4 -36 5 -16 9 -27 20 -24 25 3 5 1 11 -4 14 -5 4 -12 2 -15 -3z"/>
 <path d="M281 1326 c-18 -19 -29 -36 -23 -39 5 -4 23 9 41 27 18 19 29 36 23 39 -5 4 -23 -9 -41 -27z"/>
 <path d="M1266 1342 c-3 -6 1 -15 8 -21 8 -7 17 -8 20 -3 3 6 -1 15 -8 21 -8 7 -17 8 -20 3z"/>
 <path d="M1326 1282 c-3 -6 0 -14 7 -19 16 -11 47 -10 46 2 -1 6 -6 9 -11 7 -6 -1 -16 2 -23 8 -8 7 -16 7 -19 2z"/>
 <path d="M160 1120 c-6 -11 -15 -18 -20 -15 -5 3 -11 1 -14 -4 -4 -5 -2 -12 3 -15 5 -4 12 -2 16 4 4 6 10 8 15 5 5 -3 14 3 20 14 6 12 6 22 1 26 -6 3 -15 -4 -21 -15z"/>
 <path d="M109 1056 c-1 -3 -2 -9 -3 -13 -1 -5 -5 -13 -9 -20 -4 -6 -3 -14 3 -18 5 -3 11 -4 11 -1 1 3 2 9 3 14 1 4 5 12 9 19 4 6 3 14 -3 18 -5 3 -11 4 -11 1z"/>
 <path d="M1486 1031 c-10 -11 -13 -22 -8 -25 5 -3 17 3 26 13 10 11 13 22 8 25 -5 3 -17 -3 -26 -13z"/>
 <path d="M777 965 c-32 -22 -37 -31 -37 -65 0 -38 -2 -40 -29 -40 -22 0 -37 -9 -57 -35 l-27 -35 27 -40 c21 -32 32 -40 56 -40 28 0 30 -2 30 -39 0 -33 5 -42 39 -64 l38 -26 37 25 c31 21 36 30 36 64 0 37 2 40 29 40 20 0 37 9 55 31 31 37 32 42 5 85 -17 28 -27 34 -55 34 -33 0 -34 1 -34 39 0 34 -5 44 -33 65 -19 15 -36 26 -38 26 -2 0 -21 -11 -42 -25z m55 -117 c3 -42 4 -43 41 -46 23 -2 37 -8 37 -17 0 -9 -14 -15 -37 -17 -37 -3 -38 -4 -41 -46 -4 -54 -25 -52 -32 4 -5 35 -8 39 -38 44 -18 3 -33 10 -33 15 0 6 15 12 33 15 31 5 33 8 36 48 2 28 8 42 17 42 9 0 15 -14 17 -42z"/>
 <path d="M1486 622 c-3 -5 3 -17 13 -26 11 -10 22 -13 25 -8 3 5 -3 17 -13 26 -11 10 -22 13 -25 8z"/>
 <path d="M106 591 c-11 -13 -14 -21 -7 -26 11 -6 15 1 12 18 -1 5 3 6 8 3 5 -4 12 -2 15 3 12 19 -12 20 -28 2z"/>
 <path d="M1485 540 c-4 -6 -10 -8 -15 -5 -5 3 -11 1 -14 -4 -4 -5 -2 -12 3 -15 5 -4 12 -2 16 4 4 6 10 8 15 5 5 -3 11 -1 14 4 4 5 2 12 -3 15 -5 4 -12 2 -16 -4z"/>
 <path d="M224 338 c-5 -8 3 -12 20 -9 4 1 14 -3 21 -9 9 -7 15 -7 19 -1 4 5 1 13 -6 17 -18 11 -48 12 -54 2z"/>
 <path d="M1316 281 c-21 -21 -34 -41 -29 -44 6 -4 27 11 47 32 21 21 34 41 29 44 -6 4 -27 -11 -47 -32z"/>
 <path d="M339 266 c-5 -23 -2 -46 5 -48 12 -4 15 41 4 48 -4 3 -8 3 -9 0z"/>
 <path d="M1239 246 c-5 -23 -2 -46 5 -48 12 -4 15 41 4 48 -4 3 -8 3 -9 0z"/>
 <path d="M1146 181 c-4 -5 -2 -12 4 -16 5 -3 10 -3 10 1 0 3 6 1 14 -5 10 -8 16 -9 21 -1 3 5 4 11 1 11 -3 1 -9 2 -13 3 -5 1 -13 5 -20 9 -6 4 -14 3 -17 -2z"/>
 <path d="M1094 155 c-10 -8 -15 -15 -10 -15 5 0 3 -6 -3 -14 -8 -10 -9 -16 -1 -21 10 -6 11 -5 14 15 0 5 10 15 20 23 11 8 15 17 9 20 -6 4 -19 0 -29 -8z"/>
 <path d="M455 150 c-3 -5 8 -16 24 -25 18 -9 32 -11 36 -5 3 5 -8 16 -24 25 -18 9 -32 11 -36 5z"/>
 <path d="M537 143 c-4 -3 -3 -11 1 -17 4 -6 7 -14 7 -18 0 -5 5 -8 10 -9 6 0 15 -5 21 -10 7 -6 17 -2 28 10 10 11 13 22 8 25 -5 3 -15 -1 -22 -9 -10 -12 -16 -13 -26 -4 -8 6 -12 15 -9 19 6 10 -10 22 -18 13z"/>
 <path d="M965 111 c-6 -11 1 -15 18 -12 5 1 6 -3 3 -8 -4 -5 -2 -12 3 -15 19 -12 20 12 2 28 -13 11 -21 14 -26 7z"/>
 </g>
<g id="layer110" fill="#f8f8f8" stroke="none">
 <path d="M688 1530 c-271 -49 -501 -248 -585 -505 -34 -105 -42 -274 -19 -385 50 -239 253 -465 491 -546 107 -37 289 -45 398 -19 214 52 397 196 493 390 62 126 78 196 78 335 -1 136 -17 209 -77 330 -34 71 -57 102 -141 186 -84 84 -115 107 -186 141 -47 23 -112 49 -145 58 -72 19 -242 27 -307 15z m296 -50 c193 -49 361 -183 448 -357 64 -126 82 -215 75 -362 -8 -187 -70 -333 -198 -461 -220 -223 -555 -272 -844 -122 -106 55 -228 182 -283 292 -60 123 -77 194 -76 330 0 92 4 130 23 190 78 252 253 424 497 490 96 26 256 26 358 0z"/>
 </g>
<g id="layer111" fill="#e3a94b" stroke="none">
 <path d="M725 1327 l-90 -112 -135 -5 -135 -5 -3 -120 -2 -120 -93 -87 -92 -88 90 -87 90 -87 5 -125 5 -126 131 -3 131 -3 92 -114 c51 -63 97 -112 102 -109 5 3 48 54 95 112 l86 107 127 5 126 5 3 125 3 125 85 86 86 86 -86 78 -85 79 -3 130 -3 131 -121 5 -121 5 -92 113 c-51 61 -95 112 -99 112 -4 0 -48 -51 -97 -113z m385 -157 l110 0 0 -118 0 -119 78 -76 79 -76 -79 -78 -78 -78 0 -112 0 -113 -115 0 -114 0 -83 -104 c-46 -58 -86 -105 -89 -105 -3 -1 -45 46 -92 104 l-87 105 -120 0 -120 0 0 114 0 114 -87 80 -88 80 88 82 87 82 0 109 0 109 124 0 124 0 87 109 88 109 89 -109 89 -109 109 0z"/>
 <path d="M555 1106 c-16 -12 -18 -18 -7 -40 13 -29 48 -41 95 -32 25 5 29 4 19 -6 -20 -20 -14 -67 13 -93 44 -45 64 -26 62 60 -2 54 -4 60 -24 63 -15 2 -23 10 -23 22 0 26 -34 44 -59 30 -13 -7 -22 -7 -26 0 -9 14 -28 12 -50 -4z"/>
 <path d="M958 1109 c-50 -29 5 -85 73 -76 31 4 38 2 30 -6 -14 -14 -14 -52 0 -80 9 -18 9 -20 -2 -9 -23 21 -73 14 -99 -13 -37 -39 -18 -60 53 -61 59 -2 84 12 74 40 -4 10 -1 13 9 9 29 -11 43 16 41 80 -2 56 -4 62 -24 65 -15 2 -23 10 -23 23 0 25 -44 47 -63 31 -8 -7 -18 -7 -27 -2 -18 12 -21 12 -42 -1z"/>
 <path d="M490 1039 c-8 -15 -8 -24 0 -34 9 -10 8 -19 0 -35 -9 -18 -8 -25 6 -41 23 -25 40 -24 59 5 26 39 27 71 4 100 -25 31 -54 34 -69 5z"/>
 <path d="M889 1044 c-10 -12 -10 -20 -1 -35 10 -15 9 -23 0 -39 -11 -17 -9 -23 10 -42 l22 -22 25 25 c35 34 40 70 14 103 -23 29 -50 34 -70 10z"/>
 <path d="M560 925 c-37 -40 -18 -60 55 -60 44 0 60 4 69 17 16 25 -27 68 -69 68 -21 0 -40 -9 -55 -25z"/>
 <path d="M551 707 c-41 -41 66 -105 108 -64 11 10 11 8 2 -10 -15 -29 -14 -66 2 -82 10 -11 8 -12 -9 -3 -22 11 -63 10 -83 -3 -10 -6 -11 -3 -2 13 15 27 6 62 -24 91 l-25 25 -21 -21 c-18 -17 -19 -24 -9 -42 8 -17 9 -26 0 -36 -18 -22 6 -58 34 -53 19 4 22 1 18 -18 -5 -28 29 -50 56 -35 11 6 24 6 35 0 25 -15 60 7 55 35 -4 18 0 21 21 21 25 0 26 2 26 65 0 56 -3 66 -21 74 -11 5 -25 19 -30 30 -7 17 -19 21 -66 22 -31 1 -61 -3 -67 -9z"/>
 <path d="M951 707 c-41 -41 66 -104 108 -64 11 10 11 8 2 -10 -15 -29 -14 -66 2 -82 10 -11 8 -12 -9 -3 -21 11 -63 10 -82 -2 -9 -5 -10 -1 -3 16 4 13 7 31 5 42 -3 23 -43 66 -61 66 -20 0 -39 -48 -25 -62 8 -8 8 -17 1 -30 -15 -27 7 -61 35 -56 19 4 22 1 18 -18 -5 -28 29 -50 56 -35 11 6 24 6 35 0 25 -15 60 7 55 35 -4 18 0 21 21 21 25 0 26 3 28 62 2 64 -12 91 -41 80 -10 -4 -13 -1 -9 9 10 27 -15 41 -71 41 -30 0 -60 -5 -65 -10z"/>
 </g>
<g id="layer112" fill="#b11312" stroke="none">
 <path d="M703 1381 l-88 -109 -155 -4 -155 -3 -3 -135 -3 -136 -94 -94 c-52 -52 -95 -102 -95 -110 0 -8 43 -58 95 -110 l95 -95 0 -130 c0 -89 4 -135 12 -143 8 -8 57 -12 153 -12 l142 0 65 -82 c92 -116 97 -120 154 -116 48 3 49 4 128 100 l79 98 133 0 c122 0 134 2 144 19 5 11 10 77 10 148 l0 128 90 90 c50 49 90 94 90 100 0 6 -40 51 -90 100 l-89 89 -3 146 -3 145 -137 3 -136 3 -89 109 c-83 104 -90 110 -125 110 -35 0 -42 -6 -125 -109z m226 -78 l82 -103 114 0 115 0 0 -122 0 -123 88 -88 87 -88 -87 -84 -88 -84 0 -121 0 -120 -119 0 -119 0 -93 -115 -93 -115 -26 32 c-14 18 -54 69 -90 113 l-66 80 -132 3 -132 3 0 123 0 124 -92 86 -92 85 92 86 92 87 0 119 0 119 133 0 133 0 94 116 c74 92 95 113 105 102 7 -7 49 -59 94 -115z"/>
 <path d="M740 1185 l-65 -65 70 -70 70 -70 68 68 68 68 -62 67 c-33 37 -66 67 -73 67 -6 0 -41 -29 -76 -65z"/>
 <path d="M409 864 l-64 -64 70 -70 70 -70 70 71 70 71 -50 44 c-27 25 -62 54 -76 64 l-26 19 -64 -65z"/>
 <path d="M1074 865 l-69 -65 70 -70 70 -70 70 70 69 70 -64 65 c-35 36 -67 65 -70 65 -4 0 -38 -29 -76 -65z"/>
 <path d="M745 530 l-70 -70 70 -70 70 -70 70 70 70 70 -70 70 -70 70 -70 -70z"/>
 </g>
<g id="layer113" fill="#111d0b" stroke="none">
 <path d="M665 1586 c-300 -59 -537 -273 -625 -563 -19 -65 -21 -90 -18 -245 3 -157 6 -180 30 -246 42 -116 102 -208 197 -302 125 -123 256 -193 391 -211 87 -11 260 -11 340 1 210 30 436 206 548 427 12 23 33 81 47 128 21 74 25 108 25 219 0 151 -14 223 -65 333 -101 218 -289 379 -517 443 -95 27 -260 34 -353 16z m163 -63 c-10 -2 -28 -2 -40 0 -13 2 -5 4 17 4 22 1 32 -1 23 -4z m-90 -10 c-10 -2 -28 -2 -40 0 -13 2 -5 4 17 4 22 1 32 -1 23 -4z m180 0 c-10 -2 -28 -2 -40 0 -13 2 -5 4 17 4 22 1 32 -1 23 -4z m127 -28 c39 -17 21 -18 -25 0 -19 7 -28 14 -20 14 8 0 29 -6 45 -14z m-187 -14 c10 -5 54 -55 97 -110 l80 -101 133 0 132 0 0 -144 0 -143 81 -73 c130 -118 129 -104 16 -218 l-97 -97 0 -133 0 -132 -133 0 -133 0 -80 -100 -79 -99 -56 -1 -56 0 -77 98 -78 97 -146 5 -147 5 -5 137 -5 136 -87 82 c-117 109 -117 112 2 222 l90 83 0 137 0 138 154 0 154 0 88 110 c91 112 109 124 152 101z m301 -36 c36 -19 86 -53 111 -76 47 -43 28 -35 -33 14 -20 16 -64 44 -99 63 -35 18 -59 34 -54 34 4 0 38 -16 75 -35z m-711 -15 c-128 -77 -233 -194 -298 -331 -17 -35 -28 -53 -24 -39 23 90 135 246 225 315 59 46 139 95 154 95 6 0 -20 -18 -57 -40z m952 -200 c39 -57 80 -134 80 -147 0 -4 -16 20 -34 55 -19 35 -47 79 -63 99 -15 19 -35 45 -43 57 -14 20 -14 20 4 6 10 -8 35 -39 56 -70z m-1286 -239 c-4 -17 -9 -30 -11 -27 -3 2 -2 19 2 36 9 41 17 33 9 -9z m1413 -123 c-2 -13 -4 -3 -4 22 0 25 2 35 4 23 2 -13 2 -33 0 -45z m-1440 -111 c-2 -23 -3 -1 -3 48 0 50 1 68 3 42 2 -26 2 -67 0 -90z m1440 -49 c-2 -13 -4 -5 -4 17 -1 22 1 32 4 23 2 -10 2 -28 0 -40z m-1345 -257 c12 -20 36 -54 53 -76 17 -22 35 -47 40 -55 8 -13 7 -13 -8 -1 -46 37 -158 241 -157 283 1 7 12 -16 26 -51 13 -35 34 -80 46 -100z m1263 2 c-48 -82 -123 -170 -188 -219 -59 -44 -175 -109 -182 -102 -2 2 31 21 73 43 94 48 229 178 282 272 19 34 37 60 39 58 2 -2 -9 -26 -24 -52z m-1092 -203 c19 -16 65 -48 103 -71 38 -23 60 -38 49 -35 -50 17 -217 134 -193 136 4 0 23 -13 41 -30z m297 -145 c30 -7 44 -13 30 -13 -24 0 -115 25 -95 27 6 0 35 -6 65 -14z m208 -22 c-26 -2 -71 -2 -100 0 -29 2 -8 3 47 3 55 0 79 -1 53 -3z"/>
 <path d="M739 1297 l-84 -106 -135 -3 -135 -3 -3 -120 -3 -120 -82 -77 -82 -77 83 -82 82 -82 0 -107 c0 -141 -1 -140 151 -140 l115 0 75 -92 c40 -50 79 -98 85 -106 8 -11 27 6 93 89 l83 104 121 5 122 5 3 120 3 120 80 81 80 80 -78 75 -78 74 -5 125 -5 125 -116 5 -117 5 -77 95 c-42 52 -80 99 -85 103 -4 5 -46 -38 -91 -96z m138 -243 l-62 -63 -63 62 -62 61 62 63 62 63 62 -61 62 -62 -61 -63z m-195 23 c2 -14 11 -23 25 -25 20 -3 22 -8 20 -65 -2 -59 -3 -62 -28 -62 -14 -1 -27 5 -28 12 -5 26 -5 78 0 93 3 12 -5 14 -42 12 -33 -3 -51 1 -63 13 -32 33 -20 44 48 44 59 0 65 -2 68 -22z m400 0 c2 -14 11 -23 25 -25 20 -3 22 -8 20 -65 -2 -59 -3 -62 -28 -62 -14 -1 -26 4 -27 10 -1 5 -5 25 -8 43 -4 18 -2 38 5 46 16 19 5 24 -43 19 -31 -4 -47 -1 -59 12 -33 33 -21 44 47 44 59 0 65 -2 68 -22z m-533 -41 c7 -8 11 -36 9 -63 -3 -45 -5 -49 -28 -48 -24 0 -25 3 -27 63 -3 55 -1 62 16 62 10 0 24 -6 30 -14z m400 0 c7 -8 11 -36 9 -63 -3 -45 -5 -49 -28 -47 -39 2 -42 3 -34 15 3 6 6 33 5 60 0 41 2 49 18 49 10 0 24 -6 30 -14z m-98 -85 c22 -11 25 -19 25 -59 l-1 -47 40 -5 c84 -11 83 -105 -2 -112 -31 -2 -39 -7 -41 -27 -4 -29 9 -43 44 -47 33 -4 44 -19 44 -65 0 -38 -14 -59 -42 -59 -15 0 -17 8 -17 49 2 69 -5 76 -48 46 l-36 -24 -28 20 c-22 15 -29 29 -31 62 -3 40 -4 42 -39 45 -27 2 -39 10 -53 32 -16 27 -16 31 -1 54 12 18 27 26 53 28 36 3 37 4 40 48 2 37 8 49 30 63 15 9 29 15 32 14 3 -1 17 -8 31 -16z m-186 -31 c9 -10 15 -26 12 -35 -7 -17 -38 -20 -54 -4 -8 8 -13 8 -17 0 -10 -16 -46 -13 -53 4 -17 45 76 74 112 35z m400 0 c9 -10 15 -26 12 -35 -7 -17 -38 -20 -54 -4 -8 8 -13 8 -17 0 -10 -16 -46 -13 -53 4 -17 45 76 74 112 35z m-515 -67 l60 -57 -62 -63 -62 -63 -63 62 -63 62 57 58 c32 32 61 58 65 58 4 0 34 -26 68 -57z m662 0 l58 -57 -57 -58 c-32 -32 -62 -58 -68 -58 -6 0 -36 26 -68 58 l-57 58 60 57 c34 31 64 57 68 57 3 0 32 -26 64 -57z m-532 -173 c4 -16 13 -25 25 -25 18 0 20 -8 22 -62 2 -56 0 -63 -17 -63 -11 0 -27 11 -36 25 -15 23 -15 37 -3 85 3 9 -2 14 -11 11 -48 -13 -68 -11 -90 7 -39 32 -21 50 46 48 53 -1 59 -3 64 -26z m400 0 c4 -16 13 -25 25 -25 18 0 20 -8 22 -62 2 -56 0 -63 -17 -63 -11 0 -27 11 -36 25 -15 23 -15 37 -3 85 3 9 -2 14 -11 11 -48 -13 -68 -11 -90 7 -39 32 -21 50 46 48 53 -1 59 -3 64 -26z m-528 -44 c12 -17 9 -81 -4 -94 -7 -7 -20 -12 -30 -12 -14 0 -17 9 -17 58 1 31 3 60 5 64 6 9 37 -2 46 -16z m359 -151 l28 -30 -57 -57 c-31 -32 -61 -58 -67 -58 -6 0 -37 26 -69 59 l-58 58 64 61 63 61 34 -32 c19 -18 47 -45 62 -62z m-233 24 c2 -28 2 -28 -63 -28 -67 0 -73 5 -54 40 8 17 19 20 63 18 49 -2 52 -4 54 -30z m399 0 c2 -28 2 -28 -62 -28 -55 0 -65 3 -65 18 0 30 23 42 75 40 47 -2 50 -4 52 -30z"/>
 <path d="M792 898 c-6 -6 -12 -27 -12 -45 0 -30 -3 -33 -30 -33 -18 0 -33 -7 -39 -18 -14 -27 5 -52 39 -52 27 0 30 -3 30 -35 0 -24 6 -37 21 -45 28 -16 49 4 49 46 0 29 3 33 31 36 63 6 61 68 -2 68 -26 0 -28 3 -31 43 -2 33 -7 43 -23 45 -11 1 -26 -3 -33 -10z"/>
 </g>

</svg>