<!DOCTYPE svg PUBLIC "-//W3C//DTD SVG 20010904//EN" "http://www.w3.org/TR/2001/REC-SVG-20010904/DTD/svg10.dtd">
<svg version="1.0" xmlns="http://www.w3.org/2000/svg" width="162px" height="162px" viewBox="0 0 1620 1620" preserveAspectRatio="xMidYMid meet">
<g id="layer101" fill="#f9cb6a" stroke="none">
 <path d="M716 1031 c-15 -16 -23 -31 -18 -35 5 -3 21 8 36 23 15 16 23 31 18 35 -5 3 -21 -8 -36 -23z"/>
 <path d="M776 1051 c-3 -4 3 -16 14 -26 19 -17 21 -17 40 0 28 25 14 38 -18 17 -14 -9 -23 -12 -19 -5 4 6 3 14 -2 17 -5 4 -12 2 -15 -3z"/>
 <path d="M646 1001 c-10 -11 -13 -22 -8 -25 5 -3 17 3 26 13 10 11 13 22 8 25 -5 3 -17 -3 -26 -13z"/>
 <path d="M590 935 c-7 -8 -9 -15 -5 -15 4 0 2 -6 -4 -14 -8 -9 -8 -16 -2 -20 5 -4 12 -2 16 4 3 5 3 10 -1 10 -4 0 1 9 10 19 10 11 13 22 8 25 -5 3 -15 -1 -22 -9z"/>
 <path d="M665 920 c-4 -6 -3 -16 3 -22 6 -6 12 -6 17 2 4 6 3 16 -3 22 -6 6 -12 6 -17 -2z"/>
 <path d="M206 911 c-4 -5 -2 -12 4 -16 6 -4 8 -10 5 -15 -3 -5 3 -14 14 -19 14 -8 22 -7 31 4 14 17 5 50 -10 40 -6 -4 -17 -2 -25 5 -8 7 -15 7 -19 1z"/>
 <path d="M935 910 c-4 -6 -3 -16 3 -22 6 -6 12 -6 17 2 4 6 3 16 -3 22 -6 6 -12 6 -17 -2z"/>
 <path d="M1024 906 c-4 -10 -2 -22 4 -28 8 -8 13 -7 18 6 4 10 2 22 -4 28 -8 8 -13 7 -18 -6z"/>
 <path d="M1395 909 c-4 -5 -13 -8 -21 -5 -20 8 -29 -20 -14 -39 9 -11 17 -12 32 -4 11 6 17 13 14 16 -3 4 -1 12 5 19 6 8 6 14 0 18 -5 4 -13 1 -16 -5z"/>
 <path d="M575 845 c-15 -14 -23 -30 -19 -37 5 -8 11 -6 20 6 7 10 20 23 30 30 12 9 14 15 6 20 -7 4 -23 -4 -37 -19z"/>
 <path d="M285 830 c-17 -19 -17 -21 0 -40 22 -24 35 -18 27 13 -5 19 -3 19 21 -8 l26 -30 22 22 c22 22 22 23 5 42 -18 20 -42 20 -30 0 3 -5 9 -7 13 -5 3 3 7 -3 7 -13 0 -9 -8 -17 -17 -17 -9 0 -16 7 -15 14 1 8 -8 20 -20 28 -18 13 -23 12 -39 -6z"/>
 <path d="M1234 829 c-17 -19 -17 -20 4 -41 21 -21 22 -21 41 -4 20 18 20 42 0 30 -5 -3 -7 -9 -5 -13 3 -3 -3 -7 -13 -7 -9 0 -17 8 -17 17 0 10 4 16 7 13 4 -2 10 0 13 5 12 20 -12 20 -30 0z"/>
 <path d="M1309 850 c-4 -26 -3 -73 2 -76 4 -2 15 6 25 17 17 19 17 20 -4 42 -12 12 -22 19 -23 17z"/>
 <path d="M1045 830 c-4 -6 -3 -16 3 -22 6 -6 12 -6 17 2 4 6 3 16 -3 22 -6 6 -12 6 -17 -2z"/>
 <path d="M855 817 c-3 -9 -7 -24 -10 -32 -2 -8 -13 -15 -24 -15 -25 0 -37 -18 -17 -26 36 -14 93 53 67 79 -7 7 -12 5 -16 -6z"/>
 <path d="M215 761 c-7 -12 12 -24 25 -16 5 3 7 0 4 -8 -6 -18 12 -32 21 -17 4 6 -1 20 -11 31 -19 21 -30 24 -39 10z"/>
 <path d="M1366 751 c-10 -11 -15 -25 -11 -31 9 -14 28 -1 21 15 -2 7 1 12 7 11 14 -1 22 17 10 21 -5 2 -17 -5 -27 -16z"/>
 </g>
<g id="layer102" fill="#5e5f66" stroke="none">
 <path d="M675 1551 c-7 -12 12 -24 25 -16 11 7 4 25 -10 25 -5 0 -11 -4 -15 -9z"/>
 <path d="M915 1551 c-7 -12 12 -24 25 -16 11 7 4 25 -10 25 -5 0 -11 -4 -15 -9z"/>
 <path d="M636 1542 c-3 -5 3 -17 13 -26 11 -10 22 -13 25 -8 3 5 -3 17 -13 26 -11 10 -22 13 -25 8z"/>
 <path d="M596 1532 c-4 -4 -12 -8 -17 -8 -5 -1 -11 -3 -14 -4 -3 -1 -11 -3 -17 -4 -7 0 -13 -5 -13 -11 0 -5 -4 -15 -8 -22 -4 -6 -3 -14 3 -18 5 -3 11 -4 11 -1 1 3 2 9 3 14 3 16 18 32 26 27 5 -3 11 -1 15 5 4 6 10 8 15 5 5 -3 11 -1 14 4 8 12 -9 23 -18 13z"/>
 <path d="M715 1531 c-7 -12 12 -24 25 -16 11 7 4 25 -10 25 -5 0 -11 -4 -15 -9z"/>
 <path d="M875 1531 c-7 -12 12 -24 25 -16 11 7 4 25 -10 25 -5 0 -11 -4 -15 -9z"/>
 <path d="M1026 1501 c-4 -5 -2 -12 4 -16 5 -3 10 -3 10 1 0 3 6 1 14 -5 10 -8 16 -9 21 -1 3 5 4 11 1 11 -3 1 -9 2 -13 3 -5 1 -13 5 -20 9 -6 4 -14 3 -17 -2z"/>
 <path d="M1115 1490 c-3 -5 8 -16 24 -25 18 -9 32 -11 36 -5 3 5 -8 16 -24 25 -18 9 -32 11 -36 5z"/>
 <path d="M1276 1391 c-4 -5 -1 -13 5 -16 5 -4 8 -13 5 -20 -5 -15 59 -81 68 -67 3 5 -8 22 -25 38 -16 15 -27 34 -25 40 6 16 -20 39 -28 25z"/>
 <path d="M301 1366 c-7 -8 -8 -17 -3 -20 6 -3 15 1 21 8 7 8 8 17 3 20 -6 3 -15 -1 -21 -8z"/>
 <path d="M251 1316 c-7 -8 -8 -17 -3 -20 6 -3 15 1 21 8 7 8 8 17 3 20 -6 3 -15 -1 -21 -8z"/>
 <path d="M136 1092 c-4 -4 -13 -7 -19 -7 -7 0 -13 -6 -13 -12 -1 -7 -3 -15 -4 -18 -1 -3 -3 -8 -4 -12 -1 -5 -5 -14 -9 -20 -8 -12 -2 -17 16 -14 5 1 6 -3 2 -8 -3 -6 3 -15 14 -21 30 -16 35 5 5 25 -20 13 -23 19 -13 31 6 8 8 14 4 14 -4 0 -2 7 5 15 7 8 16 13 20 10 5 -3 11 -1 14 4 8 12 -9 23 -18 13z"/>
 <path d="M1476 1071 c-4 -5 -2 -12 4 -16 5 -3 10 -3 10 1 0 3 6 1 14 -5 10 -8 16 -9 21 -1 3 5 4 11 1 11 -3 1 -9 2 -13 3 -5 1 -13 5 -20 9 -6 4 -14 3 -17 -2z"/>
 <path d="M1485 1006 c-11 -8 -14 -16 -8 -19 6 -4 18 0 28 7 11 8 14 16 8 19 -6 4 -18 0 -28 -7z"/>
 <path d="M1508 977 c-22 -17 -30 -18 -43 -7 -8 7 -15 11 -16 9 -6 -32 -7 -45 -1 -53 9 -15 9 -219 0 -231 -6 -9 -5 -21 1 -54 1 -2 7 2 15 8 8 6 18 10 22 9 5 -2 10 2 11 7 1 6 -4 9 -10 8 -9 -2 -12 35 -12 137 0 89 4 139 10 136 16 -6 46 14 39 26 -4 6 -3 8 4 4 6 -3 13 -2 16 3 12 19 -10 18 -36 -2z"/>
 <path d="M76 981 c-7 -10 -1 -15 16 -12 4 0 5 -5 2 -13 -7 -17 12 -30 22 -15 3 6 -3 20 -14 31 -13 13 -22 16 -26 9z"/>
 <path d="M148 973 c-2 -4 -4 -17 -4 -28 1 -29 31 -25 31 4 0 24 -19 40 -27 24z"/>
 <path d="M1535 950 c-4 -6 -3 -16 3 -22 6 -6 12 -6 17 2 4 6 3 16 -3 22 -6 6 -12 6 -17 -2z"/>
 <path d="M105 880 c-4 -6 -3 -16 3 -22 6 -6 12 -6 17 2 4 6 3 16 -3 22 -6 6 -12 6 -17 -2z"/>
 <path d="M641 786 c-7 -8 -8 -17 -3 -20 6 -3 15 1 21 8 7 8 8 17 3 20 -6 3 -15 -1 -21 -8z"/>
 <path d="M1024 775 c-14 -10 -16 -17 -8 -25 7 -7 15 -5 28 9 21 23 6 36 -20 16z"/>
 <path d="M575 730 c-4 -6 -3 -16 3 -22 6 -6 12 -6 17 2 4 6 3 16 -3 22 -6 6 -12 6 -17 -2z"/>
 <path d="M1495 730 c-4 -6 -3 -16 3 -22 6 -6 12 -6 17 2 4 6 3 16 -3 22 -6 6 -12 6 -17 -2z"/>
 <path d="M935 720 c-4 -6 -3 -16 3 -22 6 -6 12 -6 17 2 4 6 3 16 -3 22 -6 6 -12 6 -17 -2z"/>
 <path d="M65 700 c-4 -6 -3 -16 3 -22 6 -6 12 -6 17 2 4 6 3 16 -3 22 -6 6 -12 6 -17 -2z"/>
 <path d="M145 691 c-3 -6 -4 -15 -1 -20 3 -5 -1 -14 -9 -21 -16 -13 -10 -35 6 -24 5 3 7 9 4 14 -3 4 3 7 12 6 12 -1 17 7 18 23 0 26 -19 39 -30 22z"/>
 <path d="M615 680 c-8 -12 20 -24 35 -15 6 3 8 11 5 16 -8 12 -32 12 -40 -1z"/>
 <path d="M975 680 c-8 -12 20 -24 35 -15 6 3 8 11 5 16 -8 12 -32 12 -40 -1z"/>
 <path d="M86 661 c-10 -11 -13 -22 -8 -25 5 -3 17 3 26 13 10 11 13 22 8 25 -5 3 -17 -3 -26 -13z"/>
 <path d="M961 626 c-7 -8 -8 -17 -3 -20 6 -3 15 1 21 8 7 8 8 17 3 20 -6 3 -15 -1 -21 -8z"/>
 <path d="M1519 606 c-1 -3 -2 -9 -3 -13 -1 -5 -5 -13 -9 -20 -4 -6 -3 -14 3 -18 5 -3 11 -4 11 -1 1 3 2 9 3 14 1 4 5 12 9 19 4 6 3 14 -3 18 -5 3 -11 4 -11 1z"/>
 <path d="M881 586 c-7 -8 -8 -17 -3 -20 6 -3 15 1 21 8 7 8 8 17 3 20 -6 3 -15 -1 -21 -8z"/>
 <path d="M1445 491 c-9 -18 -11 -32 -5 -36 5 -3 16 8 25 24 9 18 11 32 5 36 -5 3 -16 -8 -25 -24z"/>
 <path d="M127 503 c-4 -6 0 -18 7 -28 8 -11 16 -14 19 -8 4 6 0 18 -7 28 -8 11 -16 14 -19 8z"/>
 <path d="M226 342 c-3 -6 1 -15 8 -21 8 -7 17 -8 20 -3 3 6 -1 15 -8 21 -8 7 -17 8 -20 3z"/>
 <path d="M1341 336 c-7 -8 -8 -17 -3 -20 6 -3 15 1 21 8 7 8 8 17 3 20 -6 3 -15 -1 -21 -8z"/>
 <path d="M276 322 c-3 -5 5 -19 18 -31 13 -13 26 -18 30 -13 3 5 -5 19 -18 31 -13 13 -26 18 -30 13z"/>
 <path d="M1281 276 c-7 -8 -8 -17 -3 -20 6 -3 15 1 21 8 7 8 8 17 3 20 -6 3 -15 -1 -21 -8z"/>
 <path d="M316 252 c-3 -6 1 -15 8 -21 8 -7 17 -8 20 -3 3 6 -1 15 -8 21 -8 7 -17 8 -20 3z"/>
 <path d="M369 246 c-5 -23 -2 -46 5 -48 12 -4 15 41 4 48 -4 3 -8 3 -9 0z"/>
 <path d="M1127 174 c-38 -20 -24 -38 14 -19 16 9 27 20 24 25 -7 12 -4 13 -38 -6z"/>
 <path d="M636 101 c-11 -13 -14 -21 -7 -26 11 -6 15 1 12 18 -1 5 3 6 8 3 5 -4 12 -2 15 3 12 19 -12 20 -28 2z"/>
 <path d="M1045 110 c-4 -6 -10 -8 -15 -5 -5 3 -11 1 -14 -4 -4 -5 -2 -12 3 -15 5 -4 12 -2 16 4 4 6 10 8 15 5 5 -3 11 -1 14 4 4 5 2 12 -3 15 -5 4 -12 2 -16 -4z"/>
 <path d="M665 81 c-7 -12 12 -24 25 -16 11 7 4 25 -10 25 -5 0 -11 -4 -15 -9z"/>
 <path d="M755 71 c-7 -12 12 -24 25 -16 11 7 4 25 -10 25 -5 0 -11 -4 -15 -9z"/>
 </g>
<g id="layer103" fill="#81889c" stroke="none">
 <path d="M697 1553 c-4 -6 0 -18 7 -28 8 -11 16 -14 19 -8 4 6 0 18 -7 28 -8 11 -16 14 -19 8z"/>
 <path d="M900 1541 c-6 -12 -6 -22 -1 -26 6 -3 15 3 21 14 6 12 6 22 1 26 -6 3 -15 -3 -21 -14z"/>
 <path d="M956 1531 c-15 -17 -13 -31 5 -31 13 0 30 38 20 44 -4 3 -16 -3 -25 -13z"/>
 <path d="M1000 1521 c-6 -12 -6 -22 -1 -26 6 -3 15 3 21 14 6 12 6 22 1 26 -6 3 -15 -3 -21 -14z"/>
 <path d="M645 1521 c-3 -6 -11 -9 -16 -5 -5 3 -16 0 -24 -6 -8 -7 -15 -9 -15 -5 0 4 -6 3 -12 -3 -7 -6 -16 -11 -20 -11 -5 -1 -8 -3 -8 -6 0 -3 0 -8 0 -11 0 -4 7 -1 15 6 8 7 15 9 15 5 0 -4 6 -2 13 4 8 6 17 8 20 4 4 -3 12 -1 19 5 7 6 16 11 21 11 8 1 11 11 4 17 -3 3 -8 0 -12 -5z"/>
 <path d="M1036 1521 c-4 -5 -2 -12 4 -16 5 -3 10 -3 10 1 0 3 6 1 14 -5 10 -8 16 -9 21 -1 3 5 4 11 1 11 -3 1 -9 2 -13 3 -5 1 -13 5 -20 9 -6 4 -14 3 -17 -2z"/>
 <path d="M1105 1470 c-3 -5 8 -16 24 -25 18 -9 32 -11 36 -5 3 5 -8 16 -24 25 -18 9 -32 11 -36 5z"/>
 <path d="M276 1341 c-10 -11 -13 -22 -8 -25 5 -3 17 3 26 13 10 11 13 22 8 25 -5 3 -17 -3 -26 -13z"/>
 <path d="M1376 1252 c-3 -6 1 -15 8 -21 8 -7 17 -8 20 -3 3 6 -1 15 -8 21 -8 7 -17 8 -20 3z"/>
 <path d="M1415 1216 c-11 -8 -14 -16 -8 -19 6 -4 18 0 28 7 11 8 14 16 8 19 -6 4 -18 0 -28 -7z"/>
 <path d="M165 1201 c-3 -6 3 -15 14 -21 12 -6 22 -6 26 -1 3 6 -3 15 -14 21 -12 6 -22 6 -26 1z"/>
 <path d="M1447 1169 c-9 -6 -15 -15 -12 -20 4 -5 10 -7 15 -4 5 3 11 1 14 -4 4 -5 2 -12 -4 -16 -7 -4 -7 -13 0 -26 6 -11 15 -17 21 -14 5 4 7 10 4 15 -3 5 -1 11 5 15 6 4 4 17 -5 36 -9 16 -17 29 -18 29 -1 0 -10 -5 -20 -11z"/>
 <path d="M116 1042 c-3 -5 3 -17 13 -26 11 -10 22 -13 25 -8 3 5 -3 17 -13 26 -11 10 -22 13 -25 8z"/>
 <path d="M1450 970 c-12 -7 -15 -39 -15 -160 -1 -136 1 -152 17 -161 17 -9 22 -5 19 14 -1 4 5 7 13 5 8 -2 14 2 13 7 -1 5 -5 9 -9 8 -17 -6 -25 39 -24 134 1 96 6 118 27 118 5 0 9 5 8 10 0 6 -7 9 -16 7 -8 -2 -12 1 -9 7 9 14 -7 21 -24 11z"/>
 <path d="M167 964 c-3 -3 -3 -12 -1 -19 3 -7 -1 -15 -8 -17 -18 -7 -18 -226 1 -237 6 -4 11 -13 9 -18 -2 -6 2 -13 7 -14 6 -3 10 52 10 149 1 141 -3 171 -18 156z"/>
 <path d="M115 950 c-4 -6 -3 -16 3 -22 6 -6 12 -6 17 2 4 6 3 16 -3 22 -6 6 -12 6 -17 -2z"/>
 <path d="M1516 919 c-26 -20 -34 -43 -18 -53 4 -2 20 10 35 29 31 39 21 54 -17 24z"/>
 <path d="M67 924 c-9 -9 24 -55 34 -48 15 9 10 33 -10 43 -10 6 -21 8 -24 5z"/>
 <path d="M105 858 c-9 -24 -1 -113 10 -111 14 4 19 103 6 116 -7 7 -12 5 -16 -5z"/>
 <path d="M1545 848 c-9 -24 -2 -93 10 -93 14 0 19 85 6 98 -7 7 -12 5 -16 -5z"/>
 <path d="M594 769 c-6 -10 6 -14 33 -14 13 0 24 5 25 10 3 11 -51 15 -58 4z"/>
 <path d="M965 770 c-3 -5 -2 -11 2 -13 12 -7 47 -2 53 7 7 11 -48 17 -55 6z"/>
 <path d="M1495 750 c-4 -6 -3 -16 3 -22 6 -6 12 -6 17 2 4 6 3 16 -3 22 -6 6 -12 6 -17 -2z"/>
 <path d="M1024 736 c-4 -10 -2 -22 4 -28 8 -8 13 -7 18 6 4 10 2 22 -4 28 -8 8 -13 7 -18 -6z"/>
 <path d="M76 721 c-21 -23 -6 -36 20 -16 14 10 16 17 8 25 -7 7 -15 5 -28 -9z"/>
 <path d="M1517 713 c-12 -11 -8 -22 12 -33 11 -5 22 -6 25 -1 7 11 -28 43 -37 34z"/>
 <path d="M586 702 c-3 -6 1 -15 8 -21 8 -7 17 -8 20 -3 3 6 -1 15 -8 21 -8 7 -17 8 -20 3z"/>
 <path d="M116 691 c-4 -6 -4 -16 0 -23 4 -6 3 -8 -4 -4 -6 3 -13 2 -16 -3 -4 -5 -2 -12 3 -16 6 -3 8 -12 5 -19 -7 -17 12 -30 21 -15 4 6 2 16 -4 22 -8 8 -6 16 6 29 12 13 13 22 6 29 -8 8 -13 8 -17 0z"/>
 <path d="M1505 660 c-4 -6 -3 -16 3 -22 6 -6 12 -6 17 2 4 6 3 16 -3 22 -6 6 -12 6 -17 -2z"/>
 <path d="M716 602 c-3 -5 3 -17 13 -26 11 -10 22 -13 25 -8 3 5 -3 17 -13 26 -11 10 -22 13 -25 8z"/>
 <path d="M1466 602 c-3 -5 3 -17 13 -26 11 -10 22 -13 25 -8 3 5 -3 17 -13 26 -11 10 -22 13 -25 8z"/>
 <path d="M1465 531 c-3 -6 3 -15 14 -21 12 -6 22 -6 26 -1 3 6 -3 15 -14 21 -12 6 -22 6 -26 1z"/>
 <path d="M1425 451 c-3 -6 3 -15 14 -21 12 -6 22 -6 26 -1 3 6 -3 15 -14 21 -12 6 -22 6 -26 1z"/>
 <path d="M196 382 c-3 -6 1 -15 8 -21 8 -7 17 -8 20 -3 3 6 -1 15 -8 21 -8 7 -17 8 -20 3z"/>
 <path d="M1354 349 c-2 -4 4 -13 15 -18 14 -8 22 -7 31 4 7 8 11 15 9 16 -24 5 -51 4 -55 -2z"/>
 <path d="M255 326 c-11 -8 -14 -16 -8 -19 6 -4 18 0 28 7 11 8 14 16 8 19 -6 4 -18 0 -28 -7z"/>
 <path d="M1269 270 c-10 -45 0 -70 20 -47 8 10 7 19 -4 33 -8 10 -15 17 -16 14z"/>
 <path d="M1169 198 c-1 -5 -2 -11 -3 -15 -1 -5 -5 -13 -9 -20 -11 -17 7 -24 27 -10 15 11 15 14 2 32 -9 11 -16 17 -17 13z"/>
 <path d="M455 181 c-3 -5 -1 -12 5 -16 6 -4 8 -10 5 -15 -3 -5 3 -14 14 -20 16 -8 22 -7 31 10 9 16 6 22 -19 35 -17 8 -32 11 -36 6z"/>
 <path d="M1087 153 c-4 -6 0 -18 7 -28 8 -11 16 -14 19 -8 4 6 0 18 -7 28 -8 11 -16 14 -19 8z"/>
 <path d="M955 111 c-7 -12 12 -24 25 -16 11 7 4 25 -10 25 -5 0 -11 -4 -15 -9z"/>
 <path d="M690 91 c-5 -11 -6 -22 -1 -25 11 -7 43 28 34 37 -11 12 -22 8 -33 -12z"/>
 <path d="M906 101 c-7 -10 28 -43 37 -35 8 8 -11 44 -23 44 -5 0 -11 -4 -14 -9z"/>
 <path d="M775 70 c-3 -5 0 -13 9 -16 21 -8 71 -1 71 11 0 14 -72 19 -80 5z"/>
 </g>
<g id="layer104" fill="#a5a6ab" stroke="none">
 <path d="M700 1541 c-5 -11 -6 -22 -1 -25 11 -7 43 28 34 37 -11 12 -22 8 -33 -12z"/>
 <path d="M886 1551 c-8 -12 31 -44 44 -36 8 5 6 13 -6 26 -19 21 -30 24 -38 10z"/>
 <path d="M957 1543 c-4 -6 0 -18 7 -28 8 -11 16 -14 19 -8 4 6 0 18 -7 28 -8 11 -16 14 -19 8z"/>
 <path d="M476 1483 c-46 -23 -48 -26 -32 -39 34 -24 114 32 85 60 -2 2 -26 -7 -53 -21z"/>
 <path d="M1088 1503 c-7 -14 -3 -33 6 -33 12 -1 17 28 6 35 -5 3 -10 2 -12 -2z"/>
 <path d="M1175 1446 c-11 -8 -14 -16 -8 -19 6 -4 18 0 28 7 11 8 14 16 8 19 -6 4 -18 0 -28 -7z"/>
 <path d="M1265 1372 c-9 -9 16 -31 29 -26 15 6 60 -41 52 -54 -3 -5 1 -15 9 -22 8 -7 15 -11 16 -9 8 35 1 52 -28 81 -30 29 -65 42 -78 30z"/>
 <path d="M315 1350 c-4 -6 -14 -9 -23 -8 -10 2 -16 -3 -14 -11 1 -7 -2 -19 -8 -26 -6 -7 -7 -16 -2 -19 5 -3 23 10 41 28 19 19 28 36 23 40 -6 3 -14 2 -17 -4z"/>
 <path d="M1430 1191 c-6 -12 -6 -22 -1 -26 6 -3 15 3 21 14 6 12 6 22 1 26 -6 3 -15 -3 -21 -14z"/>
 <path d="M136 1143 c-15 -32 -22 -54 -16 -58 6 -3 13 1 16 9 3 9 10 14 15 11 4 -3 15 7 23 23 13 25 13 32 2 48 -13 16 -16 14 -40 -33z"/>
 <path d="M1475 1080 c-3 -5 -2 -10 2 -12 13 -7 33 -3 36 6 3 12 -31 17 -38 6z"/>
 <path d="M105 1070 c-3 -5 -2 -10 2 -12 13 -7 33 -3 36 6 3 12 -31 17 -38 6z"/>
 <path d="M1485 1050 c-3 -5 -2 -10 2 -12 13 -7 33 -3 36 6 3 12 -31 17 -38 6z"/>
 <path d="M1495 1020 c-3 -5 -2 -10 2 -12 13 -7 33 -3 36 6 3 12 -31 17 -38 6z"/>
 <path d="M85 1010 c-3 -5 -2 -10 2 -12 13 -7 33 -3 36 6 3 12 -31 17 -38 6z"/>
 <path d="M1476 991 c-4 -5 -2 -12 4 -16 5 -3 10 -3 10 1 0 3 6 2 13 -3 16 -12 37 -11 37 2 0 6 -8 10 -17 10 -10 0 -23 4 -30 8 -6 4 -14 3 -17 -2z"/>
 <path d="M126 982 c-4 -4 -16 -7 -27 -7 -10 0 -18 -4 -16 -10 3 -13 25 -16 33 -4 3 5 9 7 14 4 5 -3 11 -1 14 4 8 12 -9 23 -18 13z"/>
 <path d="M168 973 c-8 -14 -3 -38 7 -41 12 -3 16 36 4 43 -4 3 -9 2 -11 -2z"/>
 <path d="M1439 978 c-7 -29 -6 -45 5 -58 17 -20 16 -201 -1 -221 -13 -17 -12 -51 3 -47 5 2 9 13 8 25 0 12 4 21 10 20 5 -1 9 44 9 113 0 73 -3 114 -10 113 -6 -1 -9 9 -7 22 1 14 -2 27 -7 31 -5 3 -9 4 -10 2z"/>
 <path d="M1484 938 c-3 -4 -3 -9 0 -9 3 -1 9 -2 14 -3 4 -1 17 -7 29 -14 26 -14 39 0 17 19 -18 15 -53 19 -60 7z"/>
 <path d="M115 931 c-3 -6 -10 -9 -14 -6 -14 8 -45 -21 -36 -34 5 -9 13 -7 29 8 11 11 24 20 29 20 8 1 11 11 4 17 -3 3 -8 0 -12 -5z"/>
 <path d="M1496 873 c-8 -8 -8 -118 1 -126 3 -4 13 -1 21 6 8 6 18 11 21 10 3 -2 6 21 6 50 0 28 -4 52 -10 52 -5 0 -15 3 -21 7 -6 4 -14 5 -18 1z"/>
 <path d="M1045 810 c-4 -6 -3 -16 3 -22 6 -6 12 -6 17 2 4 6 3 16 -3 22 -6 6 -12 6 -17 -2z"/>
 <path d="M566 792 c-8 -13 18 -34 30 -24 4 4 3 0 -4 -10 -16 -20 1 -34 17 -15 8 11 5 19 -13 36 -13 12 -27 18 -30 13z"/>
 <path d="M65 730 c-8 -13 5 -30 26 -33 8 -2 19 -6 26 -10 6 -4 14 -3 17 2 4 5 2 12 -4 16 -5 3 -10 3 -10 -1 0 -4 -11 3 -24 15 -17 16 -26 19 -31 11z"/>
 <path d="M665 727 c-10 -23 0 -46 19 -43 25 3 26 10 6 36 -17 22 -19 23 -25 7z"/>
 <path d="M1530 705 c-7 -8 -18 -14 -24 -13 -6 2 -11 -1 -11 -7 0 -14 33 -13 53 1 12 9 14 16 6 24 -8 8 -14 7 -24 -5z"/>
 <path d="M915 700 c-3 -5 -2 -10 2 -12 13 -7 33 -3 36 6 3 12 -31 17 -38 6z"/>
 <path d="M1011 696 c-7 -8 -8 -17 -3 -20 6 -3 15 1 21 8 7 8 8 17 3 20 -6 3 -15 -1 -21 -8z"/>
 <path d="M166 692 c-7 -12 -1 -47 9 -47 12 0 16 43 6 50 -5 3 -12 2 -15 -3z"/>
 <path d="M876 671 c-21 -23 -6 -36 20 -16 14 10 16 17 8 25 -7 7 -15 5 -28 -9z"/>
 <path d="M810 640 c-6 -11 -8 -20 -4 -20 3 0 1 -6 -5 -14 -9 -10 -6 -17 13 -29 29 -20 40 -11 21 16 -10 14 -11 26 -4 38 6 11 6 20 0 24 -6 3 -15 -4 -21 -15z"/>
 <path d="M895 621 c-7 -12 12 -24 25 -16 11 7 4 25 -10 25 -5 0 -11 -4 -15 -9z"/>
 <path d="M1495 610 c-3 -5 -2 -10 2 -12 13 -7 33 -3 36 6 3 12 -31 17 -38 6z"/>
 <path d="M1475 550 c-3 -5 -2 -10 2 -12 13 -7 33 -3 36 6 3 12 -31 17 -38 6z"/>
 <path d="M115 532 c-8 -8 15 -43 25 -37 10 6 25 -33 16 -42 -3 -3 0 -15 6 -26 10 -20 11 -20 24 -3 24 34 -43 136 -71 108z"/>
 <path d="M1465 481 c-9 -18 -11 -32 -5 -36 5 -3 16 8 25 24 9 18 11 32 5 36 -5 3 -16 -8 -25 -24z"/>
 <path d="M186 401 c-4 -5 -2 -12 4 -16 5 -3 10 -3 10 1 0 3 6 1 14 -5 10 -8 16 -9 21 -1 3 5 4 11 1 11 -3 1 -9 2 -13 3 -5 1 -13 5 -20 9 -6 4 -14 3 -17 -2z"/>
 <path d="M1369 366 c-5 -23 -2 -46 5 -48 12 -4 15 41 4 48 -4 3 -8 3 -9 0z"/>
 <path d="M259 343 c-5 -32 -1 -41 24 -69 24 -27 42 -32 76 -25 2 1 -2 7 -9 15 -6 8 -17 13 -24 10 -15 -6 -60 41 -52 55 4 5 2 12 -4 16 -5 3 -11 3 -11 -2z"/>
 <path d="M1254 248 c-6 -9 -4 -10 26 -11 11 -1 19 3 18 8 -4 12 -37 14 -44 3z"/>
 <path d="M365 226 c-11 -8 -14 -16 -8 -19 6 -4 18 0 28 7 11 8 14 16 8 19 -6 4 -18 0 -28 -7z"/>
 <path d="M425 186 c-11 -8 -14 -16 -8 -19 6 -4 18 0 28 7 11 8 14 16 8 19 -6 4 -18 0 -28 -7z"/>
 <path d="M515 151 c-3 -6 1 -13 9 -18 8 -4 15 -11 15 -15 1 -12 15 -4 17 10 3 16 -33 36 -41 23z"/>
 <path d="M1125 146 c-11 -8 -14 -16 -8 -19 6 -4 18 0 28 7 11 8 14 16 8 19 -6 4 -18 0 -28 -7z"/>
 <path d="M1069 146 c-1 -3 -2 -12 -3 -18 0 -7 -7 -13 -13 -13 -7 0 -13 -3 -13 -7 0 -8 4 -9 15 -7 3 1 10 2 17 3 14 1 20 34 7 42 -5 3 -10 3 -10 0z"/>
 <path d="M568 133 c-7 -14 -3 -33 6 -33 12 -1 17 28 6 35 -5 3 -10 2 -12 -2z"/>
 <path d="M598 123 c-7 -14 -3 -33 6 -33 12 -1 17 28 6 35 -5 3 -10 2 -12 -2z"/>
 <path d="M1008 123 c-7 -14 -3 -33 6 -33 12 -1 17 28 6 35 -5 3 -10 2 -12 -2z"/>
 <path d="M638 113 c-7 -14 -3 -33 6 -33 12 -1 17 28 6 35 -5 3 -10 2 -12 -2z"/>
 <path d="M687 103 c-4 -6 0 -18 7 -28 8 -11 16 -14 19 -8 4 6 0 18 -7 28 -8 11 -16 14 -19 8z"/>
 <path d="M916 91 c-15 -17 -13 -31 5 -31 13 0 30 38 20 44 -4 3 -16 -3 -25 -13z"/>
 <path d="M765 90 c-3 -5 0 -13 8 -16 23 -8 92 0 92 11 0 14 -92 19 -100 5z"/>
 </g>
<g id="layer105" fill="#612a35" stroke="none">
 <path d="M1427 1133 c-7 -13 32 -95 43 -88 6 4 4 19 -6 43 -17 42 -30 57 -37 45z"/>
 <path d="M160 1090 c-6 -11 -8 -20 -4 -20 3 0 1 -6 -5 -14 -8 -10 -9 -16 -1 -21 5 -3 11 -4 11 -1 1 3 2 9 3 14 1 4 7 17 14 29 7 13 8 24 3 28 -6 3 -15 -4 -21 -15z"/>
 <path d="M470 795 c-12 -14 -7 -20 14 -16 5 1 18 -7 30 -17 11 -10 29 -22 38 -25 9 -3 16 -15 15 -26 0 -11 -5 -17 -10 -14 -4 2 -15 2 -24 -1 -14 -6 -14 -8 2 -26 13 -14 22 -17 35 -10 13 7 22 5 31 -6 11 -13 9 -19 -11 -35 -24 -18 -24 -20 3 -23 6 0 12 -10 12 -21 0 -11 5 -19 10 -17 6 1 10 12 9 25 -1 16 5 22 21 22 28 0 30 -31 4 -46 -12 -6 -18 -13 -15 -17 12 -11 58 -8 63 5 3 7 14 13 24 13 27 0 25 -36 -2 -43 -12 -3 -18 -10 -14 -16 4 -8 -71 -11 -249 -11 -155 0 -257 -4 -261 -10 -8 -13 14 -52 26 -45 5 4 7 11 4 16 -4 5 223 9 585 9 581 0 591 0 580 -19 -6 -13 -6 -22 -1 -26 6 -3 15 4 21 15 6 11 8 20 4 20 -3 0 -1 6 5 13 6 8 8 17 4 20 -3 4 -120 7 -259 7 l-253 0 23 25 c14 15 30 23 39 19 8 -3 18 0 22 6 4 7 -2 14 -14 17 -27 7 -29 43 -2 43 10 0 22 -7 25 -16 3 -8 10 -12 16 -9 6 4 7 11 4 17 -4 6 -2 8 4 4 6 -3 13 -2 17 4 3 6 -1 13 -9 16 -9 3 -16 15 -16 25 0 27 36 25 43 -2 3 -12 10 -18 17 -14 6 4 9 14 6 22 -4 9 4 25 20 40 18 16 24 29 19 41 -4 9 -8 26 -10 36 -1 11 -7 22 -14 24 -18 6 -73 -57 -67 -75 4 -9 -4 -23 -20 -35 -16 -13 -24 -27 -21 -39 3 -12 0 -16 -9 -12 -7 2 -24 -6 -37 -19 -12 -13 -30 -22 -39 -20 -23 5 -82 -53 -74 -73 3 -9 10 -13 16 -10 5 3 18 1 27 -4 16 -9 14 -10 -9 -11 -15 0 -29 4 -33 10 -3 5 -12 7 -20 4 -9 -4 -18 3 -24 17 -5 13 -21 35 -35 48 -23 21 -29 23 -52 12 -22 -10 -26 -9 -21 3 7 17 -23 46 -47 46 -12 0 -16 5 -13 14 6 16 -26 50 -36 39 -4 -3 -5 8 -3 26 2 23 -2 35 -16 45 -13 9 -16 16 -9 21 18 11 3 23 -23 18 -13 -3 -27 0 -30 6 -10 15 -21 14 -36 -4z m630 -75 c0 -13 -7 -20 -20 -20 -13 0 -20 7 -20 20 0 13 7 20 20 20 13 0 20 -7 20 -20z m-180 -180 c0 -13 -7 -20 -20 -20 -13 0 -20 7 -20 20 0 13 7 20 20 20 13 0 20 -7 20 -20z m-146 -35 c4 -11 -2 -15 -21 -15 -26 0 -26 1 -7 15 10 8 20 15 20 15 1 0 4 -7 8 -15z"/>
 <path d="M955 800 c-4 -6 -3 -16 3 -22 6 -6 12 -6 17 2 4 6 3 16 -3 22 -6 6 -12 6 -17 -2z"/>
 <path d="M1115 801 c-6 -11 29 -33 39 -24 7 7 -12 33 -25 33 -4 0 -10 -4 -14 -9z"/>
 <path d="M416 751 c-10 -11 -13 -22 -8 -25 5 -3 17 3 26 13 10 11 13 22 8 25 -5 3 -17 -3 -26 -13z"/>
 <path d="M1176 762 c-3 -5 3 -17 13 -26 11 -10 22 -13 25 -8 3 5 -3 17 -13 26 -11 10 -22 13 -25 8z"/>
 <path d="M366 711 c-10 -11 -13 -22 -8 -25 5 -3 17 3 26 13 10 11 13 22 8 25 -5 3 -17 -3 -26 -13z"/>
 <path d="M676 722 c-3 -6 1 -15 8 -21 8 -7 17 -8 20 -3 3 6 -1 15 -8 21 -8 7 -17 8 -20 3z"/>
 <path d="M921 716 c-7 -8 -8 -17 -3 -20 6 -3 15 1 21 8 7 8 8 17 3 20 -6 3 -15 -1 -21 -8z"/>
 <path d="M1226 722 c-3 -5 3 -17 13 -26 11 -10 22 -13 25 -8 3 5 -3 17 -13 26 -11 10 -22 13 -25 8z"/>
 <path d="M316 671 c-10 -11 -13 -22 -8 -25 5 -3 17 3 26 13 10 11 13 22 8 25 -5 3 -17 -3 -26 -13z"/>
 <path d="M725 681 c-3 -6 3 -15 14 -21 12 -6 22 -6 26 -1 3 6 -3 15 -14 21 -12 6 -22 6 -26 1z"/>
 <path d="M1276 682 c-3 -5 3 -17 13 -26 11 -10 22 -13 25 -8 3 5 -3 17 -13 26 -11 10 -22 13 -25 8z"/>
 <path d="M785 660 c-8 -13 20 -24 41 -16 20 8 9 26 -16 26 -10 0 -22 -5 -25 -10z"/>
 <path d="M266 631 c-10 -11 -13 -22 -8 -25 5 -3 17 3 26 13 10 11 13 22 8 25 -5 3 -17 -3 -26 -13z"/>
 <path d="M1326 642 c-3 -5 3 -17 13 -26 11 -10 22 -13 25 -8 3 5 -3 17 -13 26 -11 10 -22 13 -25 8z"/>
 <path d="M211 586 c-7 -8 -8 -17 -3 -20 6 -3 15 1 21 8 7 8 8 17 3 20 -6 3 -15 -1 -21 -8z"/>
 <path d="M1386 592 c-3 -6 1 -15 8 -21 8 -7 17 -8 20 -3 3 6 -1 15 -8 21 -8 7 -17 8 -20 3z"/>
 <path d="M1446 561 c-10 -11 -13 -22 -8 -25 5 -3 17 3 26 13 10 11 13 22 8 25 -5 3 -17 -3 -26 -13z"/>
 <path d="M155 551 c-7 -12 12 -24 25 -16 11 7 4 25 -10 25 -5 0 -11 -4 -15 -9z"/>
 <path d="M256 382 c-3 -6 1 -15 8 -21 8 -7 17 -8 20 -3 3 6 -1 15 -8 21 -8 7 -17 8 -20 3z"/>
 <path d="M1291 316 c-18 -19 -29 -36 -23 -39 5 -4 23 9 41 27 18 19 29 36 23 39 -5 4 -23 -9 -41 -27z"/>
 <path d="M366 272 c-3 -6 1 -15 8 -21 8 -7 17 -8 20 -3 3 6 -1 15 -8 21 -8 7 -17 8 -20 3z"/>
 <path d="M1221 256 c-7 -8 -8 -17 -3 -20 6 -3 15 1 21 8 7 8 8 17 3 20 -6 3 -15 -1 -21 -8z"/>
 <path d="M406 241 c-6 -8 5 -20 31 -35 23 -13 22 12 -2 28 -13 9 -26 12 -29 7z"/>
 <path d="M1110 189 c-30 -16 -56 -30 -57 -29 -2 0 -3 -2 -3 -5 0 -3 0 -8 0 -11 0 -4 7 -1 15 6 8 7 15 10 15 6 0 -3 23 5 50 19 28 14 48 30 45 35 -8 12 -1 15 -65 -21z"/>
 <path d="M465 200 c-3 -5 8 -16 24 -25 18 -9 32 -11 36 -5 3 5 -8 16 -24 25 -18 9 -32 11 -36 5z"/>
 <path d="M556 161 c-4 -5 -2 -12 4 -16 5 -3 10 -3 10 1 0 3 7 1 15 -6 8 -7 15 -9 15 -5 0 4 7 2 15 -5 9 -7 18 -10 22 -7 3 4 12 2 19 -4 7 -6 18 -8 24 -4 14 9 1 28 -16 21 -7 -3 -16 -1 -20 5 -3 6 -12 8 -19 5 -7 -2 -18 1 -24 7 -6 6 -11 7 -11 3 0 -5 -6 -3 -14 3 -9 8 -16 8 -20 2z"/>
 <path d="M935 131 c-7 -12 12 -24 25 -16 11 7 4 25 -10 25 -5 0 -11 -4 -15 -9z"/>
 <path d="M705 121 c-7 -13 17 -24 40 -19 9 1 16 8 16 13 0 14 -48 19 -56 6z"/>
 <path d="M865 120 c-8 -13 20 -24 41 -16 8 3 12 10 9 16 -8 13 -42 13 -50 0z"/>
 </g>
<g id="layer106" fill="#eebca4" stroke="none">
 <path d="M575 1520 c-4 -6 -10 -8 -15 -5 -5 3 -11 1 -14 -4 -4 -5 -2 -12 3 -15 5 -4 12 -2 16 4 4 6 10 8 15 5 5 -3 11 -1 14 4 4 5 2 12 -3 15 -5 4 -12 2 -16 -4z"/>
 <path d="M1258 1403 c-7 -14 -3 -33 6 -33 12 -1 17 28 6 35 -5 3 -10 2 -12 -2z"/>
 <path d="M339 1396 c-1 -3 -2 -9 -3 -13 -1 -5 -5 -13 -9 -20 -4 -6 -3 -14 2 -17 10 -7 24 10 27 31 2 13 -15 30 -17 19z"/>
 <path d="M255 1290 c-4 -6 -10 -8 -15 -5 -5 3 -11 1 -14 -4 -4 -5 -2 -12 3 -15 5 -4 12 -2 16 4 4 6 10 8 15 5 5 -3 11 -1 14 4 4 5 2 12 -3 15 -5 4 -12 2 -16 -4z"/>
 <path d="M1394 1229 c-5 -9 2 -13 19 -10 4 1 7 -4 5 -11 -2 -7 1 -14 7 -15 5 -2 9 7 9 19 0 22 -29 34 -40 17z"/>
 <path d="M730 1040 c-12 -12 -18 -26 -14 -32 5 -7 11 -6 19 6 17 22 75 19 67 -4 -3 -8 -11 -22 -19 -32 -10 -11 -11 -18 -4 -23 11 -6 15 1 12 19 -1 5 9 2 23 -7 14 -9 28 -13 31 -8 3 5 1 12 -5 16 -5 3 -10 15 -10 25 0 20 -44 60 -66 60 -8 0 -23 -9 -34 -20z"/>
 <path d="M835 1050 c-8 -12 20 -24 35 -15 6 3 8 11 5 16 -8 12 -32 12 -40 -1z"/>
 <path d="M146 1032 c-3 -6 1 -15 8 -21 8 -7 17 -8 20 -3 3 6 -1 15 -8 21 -8 7 -17 8 -20 3z"/>
 <path d="M886 1031 c-4 -5 -2 -12 3 -15 13 -8 7 -41 -7 -41 -19 0 -18 -8 7 -37 29 -33 45 -28 26 9 -10 18 -11 31 -4 39 7 8 7 14 -1 19 -6 3 -8 10 -5 15 3 5 1 11 -4 14 -5 4 -12 2 -15 -3z"/>
 <path d="M1450 1025 c-7 -8 -11 -15 -9 -16 31 -6 40 -6 44 1 3 4 -1 13 -9 19 -10 9 -16 8 -26 -4z"/>
 <path d="M650 1000 c-21 -21 -24 -50 -5 -52 6 -1 12 7 14 17 2 11 10 25 19 31 10 7 12 13 4 18 -6 4 -21 -3 -32 -14z"/>
 <path d="M186 1002 c-3 -5 3 -17 13 -26 11 -10 22 -13 25 -8 3 5 -3 17 -13 26 -11 10 -22 13 -25 8z"/>
 <path d="M1406 991 c-10 -11 -13 -22 -8 -25 5 -3 17 3 26 13 10 11 13 22 8 25 -5 3 -17 -3 -26 -13z"/>
 <path d="M716 951 c-15 -16 -23 -31 -18 -35 5 -3 21 8 36 23 15 16 23 31 18 35 -5 3 -21 -8 -36 -23z"/>
 <path d="M236 962 c-3 -5 3 -17 13 -26 11 -10 22 -13 25 -8 3 5 -3 17 -13 26 -11 10 -22 13 -25 8z"/>
 <path d="M1356 951 c-10 -11 -13 -22 -8 -25 5 -3 17 3 26 13 10 11 13 22 8 25 -5 3 -17 -3 -26 -13z"/>
 <path d="M168 923 c-9 -19 -2 -228 7 -223 6 3 8 12 6 20 -2 10 6 6 23 -9 19 -18 29 -22 37 -14 8 8 5 17 -10 32 -15 15 -17 21 -7 21 8 0 18 -5 21 -11 5 -7 13 -4 26 7 10 9 16 20 14 24 -3 4 5 7 18 6 19 -1 22 4 22 34 0 30 -3 35 -22 34 -12 -1 -21 4 -20 10 1 6 -11 13 -28 14 -16 2 -33 10 -38 17 -4 8 -15 11 -24 8 -12 -5 -15 -2 -10 10 6 16 -8 35 -15 20z"/>
 <path d="M286 922 c-3 -5 3 -17 13 -26 11 -10 22 -13 25 -8 3 5 -3 17 -13 26 -11 10 -22 13 -25 8z"/>
 <path d="M1306 911 c-10 -11 -13 -22 -8 -25 5 -3 17 3 26 13 10 11 13 22 8 25 -5 3 -17 -3 -26 -13z"/>
 <path d="M1437 924 c-3 -3 -3 -13 0 -22 5 -11 2 -14 -10 -9 -9 3 -20 0 -24 -8 -5 -7 -21 -15 -38 -17 -16 -1 -29 -8 -28 -15 2 -7 -6 -10 -16 -8 -11 2 -27 -5 -36 -15 -15 -17 -15 -19 0 -27 9 -6 16 -14 16 -19 0 -5 8 -8 19 -8 11 1 18 -2 15 -6 -2 -4 4 -15 14 -24 13 -11 21 -14 26 -7 3 6 13 11 21 11 10 0 8 -6 -7 -21 -15 -15 -18 -24 -10 -32 8 -8 18 -4 37 14 20 18 25 20 22 7 -1 -9 1 -18 6 -20 6 -2 10 44 10 110 1 106 -3 130 -17 116z"/>
 <path d="M775 911 c-7 -12 12 -24 25 -16 11 7 4 25 -10 25 -5 0 -11 -4 -15 -9z"/>
 <path d="M825 911 c-7 -12 12 -24 25 -16 11 7 4 25 -10 25 -5 0 -11 -4 -15 -9z"/>
 <path d="M665 900 c-4 -6 -3 -16 3 -22 6 -6 12 -6 17 2 4 6 3 16 -3 22 -6 6 -12 6 -17 -2z"/>
 <path d="M731 886 c-7 -8 -8 -17 -3 -20 6 -3 15 1 21 8 7 8 8 17 3 20 -6 3 -15 -1 -21 -8z"/>
 <path d="M866 892 c-3 -6 1 -15 8 -21 8 -7 17 -8 20 -3 3 6 -1 15 -8 21 -8 7 -17 8 -20 3z"/>
 <path d="M336 881 c-4 -5 -1 -13 5 -16 5 -4 8 -13 5 -21 -8 -21 12 -27 23 -6 8 15 6 23 -8 36 -12 11 -21 13 -25 7z"/>
 <path d="M586 881 c-3 -5 6 -19 20 -30 20 -16 30 -18 40 -10 16 13 8 32 -9 26 -7 -2 -19 2 -29 10 -10 9 -18 10 -22 4z"/>
 <path d="M1247 861 c-14 -17 -27 -28 -29 -25 -3 2 -11 -2 -18 -11 -11 -13 -10 -19 5 -35 10 -11 20 -18 23 -15 3 2 13 -7 24 -20 11 -14 24 -23 29 -19 5 3 -3 21 -17 40 -26 33 -26 48 -1 49 7 1 11 7 9 14 -1 7 2 19 8 26 7 8 7 15 1 19 -5 3 -20 -7 -34 -23z"/>
 <path d="M795 869 c-4 -5 -5 -9 -3 -10 2 0 12 -2 23 -4 10 -2 26 -14 36 -26 9 -13 19 -18 23 -11 3 5 -2 19 -12 31 -19 23 -58 35 -67 20z"/>
 <path d="M971 852 c-13 -25 2 -38 19 -16 9 10 10 18 3 25 -8 8 -14 5 -22 -9z"/>
 <path d="M895 850 c-4 -6 -3 -16 3 -22 6 -6 12 -6 17 2 4 6 3 16 -3 22 -6 6 -12 6 -17 -2z"/>
 <path d="M1026 852 c-3 -6 1 -15 8 -21 8 -7 17 -8 20 -3 3 6 -1 15 -8 21 -8 7 -17 8 -20 3z"/>
 <path d="M382 837 c-7 -8 -9 -17 -5 -20 3 -4 1 -13 -6 -20 -9 -11 -8 -17 2 -26 11 -8 19 -5 37 14 l24 25 -20 21 c-17 17 -22 18 -32 6z"/>
 <path d="M645 820 c-4 -6 -3 -16 3 -22 6 -6 12 -6 17 2 4 6 3 16 -3 22 -6 6 -12 6 -17 -2z"/>
 <path d="M744 816 c-11 -29 45 -92 61 -67 3 6 -4 15 -15 21 -11 6 -20 19 -20 30 0 24 -18 36 -26 16z"/>
 <path d="M705 790 c-16 -26 65 -104 86 -83 8 8 2 15 -17 24 -16 8 -34 24 -40 37 -15 31 -21 35 -29 22z"/>
 <path d="M888 774 c-7 -16 -26 -35 -42 -42 -19 -10 -25 -17 -17 -25 13 -13 54 13 77 49 12 17 14 28 7 35 -8 8 -15 2 -25 -17z"/>
 <path d="M976 782 c-3 -6 1 -15 8 -21 8 -7 17 -8 20 -3 3 6 -1 15 -8 21 -8 7 -17 8 -20 3z"/>
 <path d="M336 751 c-10 -11 -13 -22 -8 -25 5 -3 17 3 26 13 10 11 13 22 8 25 -5 3 -17 -3 -26 -13z"/>
 <path d="M286 711 c-10 -11 -13 -22 -8 -25 5 -3 17 3 26 13 10 11 13 22 8 25 -5 3 -17 -3 -26 -13z"/>
 <path d="M1306 722 c-3 -5 3 -17 13 -26 11 -10 22 -13 25 -8 3 5 -3 17 -13 26 -11 10 -22 13 -25 8z"/>
 <path d="M115 710 c-4 -6 -10 -8 -15 -5 -5 3 -11 1 -14 -4 -4 -5 -2 -12 3 -15 5 -4 12 -2 16 4 4 6 10 8 15 5 5 -3 11 -1 14 4 4 5 2 12 -3 15 -5 4 -12 2 -16 -4z"/>
 <path d="M676 701 c-4 -5 -2 -12 4 -16 5 -3 10 -3 10 1 0 3 6 1 14 -5 10 -8 16 -9 21 -1 3 5 4 11 1 11 -3 1 -9 2 -13 3 -5 1 -13 5 -20 9 -6 4 -14 3 -17 -2z"/>
 <path d="M926 702 c-4 -4 -12 -7 -17 -7 -5 0 -9 -4 -10 -10 0 -5 -5 -15 -10 -22 -7 -7 -6 -13 0 -17 5 -4 12 -2 16 4 3 5 3 10 -1 10 -3 0 -1 7 6 15 7 8 16 13 20 10 5 -3 11 -1 14 4 8 12 -9 23 -18 13z"/>
 <path d="M236 671 c-10 -11 -13 -22 -8 -25 5 -3 17 3 26 13 10 11 13 22 8 25 -5 3 -17 -3 -26 -13z"/>
 <path d="M1356 682 c-3 -5 3 -17 13 -26 11 -10 22 -13 25 -8 3 5 -3 17 -13 26 -11 10 -22 13 -25 8z"/>
 <path d="M635 660 c-4 -6 -3 -16 3 -22 6 -6 12 -6 17 2 4 6 3 16 -3 22 -6 6 -12 6 -17 -2z"/>
 <path d="M186 631 c-10 -11 -13 -22 -8 -25 5 -3 17 3 26 13 10 11 13 22 8 25 -5 3 -17 -3 -26 -13z"/>
 <path d="M1406 642 c-3 -5 3 -17 13 -26 11 -10 22 -13 25 -8 3 5 -3 17 -13 26 -11 10 -22 13 -25 8z"/>
 <path d="M695 621 c-3 -6 3 -15 14 -21 12 -6 22 -6 26 -1 3 6 -3 15 -14 21 -12 6 -22 6 -26 1z"/>
 <path d="M95 591 c-3 -5 -1 -12 5 -16 6 -4 8 -10 5 -15 -3 -5 -1 -11 4 -15 6 -3 15 3 21 14 8 16 7 22 -9 31 -12 6 -22 6 -26 1z"/>
 <path d="M216 361 c-4 -5 -2 -12 4 -16 5 -3 10 -3 10 1 0 3 6 1 14 -5 10 -8 16 -9 21 -1 3 5 4 11 1 11 -3 1 -9 2 -13 3 -5 1 -13 5 -20 9 -6 4 -14 3 -17 -2z"/>
 <path d="M1326 291 c-21 -21 -34 -41 -29 -44 6 -4 27 11 47 32 21 21 34 41 29 44 -6 4 -27 -11 -47 -32z"/>
 <path d="M348 253 c-7 -14 -3 -33 6 -33 12 -1 17 28 6 35 -5 3 -10 2 -12 -2z"/>
 <path d="M675 100 c-4 -6 -10 -8 -15 -5 -5 3 -11 1 -14 -4 -4 -5 -2 -12 3 -15 5 -4 12 -2 16 4 4 6 10 8 15 5 5 -3 11 -1 14 4 4 5 2 12 -3 15 -5 4 -12 2 -16 -4z"/>
 </g>
<g id="layer107" fill="#0361a9" stroke="none">
 <path d="M261 1244 c-17 -19 -29 -39 -26 -45 8 -13 1142 -12 1150 1 3 5 -6 26 -21 45 l-26 35 -523 0 -523 0 -31 -36z"/>
 </g>
<g id="layer108" fill="#fbfafa" stroke="none">
 <path d="M688 1550 c-73 -13 -145 -38 -233 -84 -121 -62 -247 -191 -309 -317 -65 -133 -80 -199 -80 -349 0 -114 3 -133 33 -219 39 -116 85 -193 165 -279 160 -171 359 -252 590 -239 198 11 332 72 481 222 110 110 155 181 197 315 20 64 23 95 22 215 0 124 -3 149 -27 220 -15 44 -43 109 -64 145 -46 79 -197 232 -275 278 -142 84 -337 119 -500 92z m289 -45 c323 -76 547 -361 546 -695 0 -129 -18 -204 -80 -330 -38 -77 -61 -109 -127 -176 -67 -66 -99 -89 -176 -127 -126 -62 -201 -80 -330 -80 -334 -1 -613 219 -694 544 -23 92 -21 246 4 345 66 260 253 446 525 519 68 18 255 18 332 0z"/>
 <path d="M726 1029 c-8 -12 -19 -18 -26 -14 -16 10 -60 -22 -60 -45 0 -11 -6 -20 -13 -20 -26 0 -49 -37 -42 -68 4 -20 1 -33 -10 -42 -21 -17 -19 -43 4 -64 16 -15 18 -21 8 -37 -14 -23 -1 -49 31 -64 13 -6 22 -19 22 -32 0 -26 33 -47 60 -38 14 5 20 2 20 -10 0 -8 11 -20 25 -27 19 -9 29 -8 49 5 21 14 26 14 36 2 17 -21 36 -19 62 7 13 13 28 22 35 20 21 -5 51 16 59 40 4 12 18 31 31 42 19 14 24 26 21 48 -3 16 1 33 9 39 17 15 17 53 -1 68 -10 8 -13 23 -9 45 4 27 0 37 -20 52 -13 11 -27 30 -31 42 -8 26 -41 46 -62 38 -7 -3 -18 3 -24 14 -12 23 -59 27 -78 8 -9 -9 -15 -9 -24 0 -19 19 -55 14 -72 -9z m138 -76 c17 7 76 -47 76 -69 0 -7 9 -19 19 -26 15 -9 17 -15 8 -30 -9 -13 -9 -23 -1 -35 8 -13 6 -21 -8 -35 -10 -10 -18 -27 -18 -38 0 -11 -6 -20 -14 -20 -8 0 -21 -9 -29 -20 -8 -11 -21 -18 -28 -15 -8 3 -23 -1 -33 -8 -16 -12 -23 -12 -47 0 -16 8 -33 12 -38 9 -4 -3 -16 3 -26 14 -10 11 -24 20 -32 20 -7 0 -13 10 -13 23 0 13 -5 28 -12 35 -6 6 -11 29 -11 52 0 23 5 46 11 52 7 7 12 20 12 29 0 10 9 21 20 24 11 3 24 15 30 25 6 11 17 16 27 14 10 -3 27 2 38 10 18 13 22 13 37 -1 10 -8 24 -13 32 -10z"/>
 <path d="M784 913 c-39 -8 -79 -60 -79 -103 0 -57 48 -105 105 -105 57 0 105 48 105 105 0 65 -66 117 -131 103z m60 -69 c9 -8 16 -24 16 -34 0 -10 -7 -26 -16 -34 -8 -9 -24 -16 -34 -16 -22 0 -50 26 -50 46 0 8 9 23 20 34 24 24 43 25 64 4z"/>
 <path d="M142 1017 c-42 -51 -40 -382 4 -417 10 -9 40 10 140 92 70 56 129 108 131 115 2 6 -51 56 -119 110 -147 118 -143 116 -156 100z m25 -284 c-1 -43 -3 -8 -3 77 0 85 2 120 3 78 2 -43 2 -113 0 -155z m79 139 c-5 -8 34 -48 44 -45 3 1 6 -7 6 -17 0 -10 -3 -17 -6 -15 -8 5 -45 -38 -42 -48 1 -5 -9 0 -22 10 -34 24 -36 85 -4 107 25 18 32 20 24 8z"/>
 <path d="M1331 924 c-72 -58 -131 -110 -131 -115 0 -14 251 -214 269 -214 50 0 56 384 6 425 -10 8 -43 -14 -144 -96z m126 -191 c-1 -43 -3 -8 -3 77 0 85 2 120 3 78 2 -43 2 -113 0 -155z m-39 81 c2 -32 -3 -42 -23 -57 -14 -10 -24 -15 -23 -10 3 10 -34 53 -42 48 -3 -2 -6 5 -6 15 0 10 3 18 6 17 12 -4 49 37 42 47 -3 6 5 4 18 -5 18 -12 26 -27 28 -55z"/>
 </g>
<g id="layer109" fill="#f6a901" stroke="none">
 <path d="M174 1114 c-9 -20 -12 -40 -7 -44 4 -3 79 -64 165 -134 143 -115 159 -125 178 -114 15 10 24 10 38 2 25 -16 68 26 54 52 -14 25 -3 52 21 56 32 4 40 57 14 79 -13 10 -18 23 -14 33 10 26 42 15 42 -14 0 -17 8 -26 28 -31 24 -6 29 -4 37 17 10 26 47 33 68 12 9 -9 15 -9 24 0 20 20 58 14 67 -10 6 -16 16 -22 42 -22 29 -1 34 -5 39 -31 4 -21 12 -31 27 -33 27 -4 39 -37 22 -58 -11 -13 -9 -19 11 -34 16 -12 34 -17 48 -13 12 3 29 0 36 -7 12 -9 46 14 178 121 90 72 164 135 166 140 2 4 -4 21 -13 38 l-16 31 -620 0 -620 0 -15 -36z m656 -9 c15 -18 5 -35 -21 -35 -12 0 -19 7 -19 18 0 33 20 42 40 17z m-84 -16 c3 -6 0 -18 -9 -26 -18 -18 -37 -9 -37 18 0 21 34 27 46 8z m177 -3 c7 -17 -18 -40 -33 -31 -5 3 -10 15 -10 26 0 23 35 27 43 5z m77 -45 c0 -27 -19 -36 -37 -18 -18 18 -9 37 18 37 12 0 19 -7 19 -19z m-395 -66 c0 -30 -39 -27 -43 3 -3 20 0 23 20 20 15 -2 23 -10 23 -23z m453 3 c-5 -34 -38 -37 -38 -4 0 20 5 26 21 26 15 0 20 -5 17 -22z m-489 -71 c14 -17 4 -27 -26 -27 -16 0 -23 6 -23 20 0 23 31 27 49 7z m531 -7 c0 -23 -35 -28 -43 -6 -7 18 1 26 25 26 11 0 18 -7 18 -20z"/>
 <path d="M790 975 c-10 -12 -9 -16 4 -21 9 -3 23 -3 32 0 13 5 14 9 4 21 -7 8 -16 15 -20 15 -4 0 -13 -7 -20 -15z"/>
 <path d="M725 970 c-8 -13 3 -30 20 -30 23 0 27 18 6 30 -13 7 -22 7 -26 0z"/>
 <path d="M864 966 c-18 -14 -18 -15 -1 -22 22 -8 46 11 31 26 -7 7 -17 5 -30 -4z"/>
 <path d="M675 920 c-11 -17 5 -32 21 -19 7 6 11 15 8 20 -7 12 -21 11 -29 -1z"/>
 <path d="M916 921 c-3 -5 0 -14 8 -20 10 -8 16 -8 25 2 6 8 8 17 4 20 -9 10 -31 9 -37 -2z"/>
 <path d="M212 908 c-16 -16 -15 -33 3 -48 20 -16 43 2 41 32 -1 26 -25 35 -44 16z"/>
 <path d="M1369 918 c-8 -19 -3 -50 8 -60 21 -17 52 16 37 40 -10 15 -42 29 -45 20z"/>
 <path d="M948 875 c-7 -8 3 -54 13 -60 4 -3 13 3 18 13 8 15 6 23 -8 36 -10 9 -20 14 -23 11z"/>
 <path d="M641 857 c-9 -11 -8 -17 4 -27 12 -10 16 -9 21 5 9 23 -10 40 -25 22z"/>
 <path d="M767 852 c-22 -24 -21 -65 1 -85 40 -36 102 -9 102 45 0 51 -69 78 -103 40z"/>
 <path d="M289 834 c-1 -2 -2 -14 -2 -26 -1 -21 3 -23 48 -23 47 0 50 2 50 25 0 23 -4 25 -47 26 -27 1 -48 0 -49 -2z"/>
 <path d="M1234 825 c-13 -32 4 -44 53 -42 43 2 47 4 47 27 0 23 -4 25 -47 27 -34 2 -49 -2 -53 -12z"/>
 <path d="M204 746 c-10 -26 4 -48 28 -44 17 2 23 10 23 28 0 18 -6 26 -23 28 -13 2 -25 -3 -28 -12z"/>
 <path d="M1364 746 c-10 -26 4 -48 28 -44 17 2 23 10 23 28 0 18 -6 26 -23 28 -13 2 -25 -3 -28 -12z"/>
 <path d="M325 310 c-3 -5 20 -30 52 -54 215 -169 496 -200 738 -81 91 45 190 119 179 136 -7 12 -961 12 -969 -1z"/>
 </g>
<g id="layer110" fill="#c8181e" stroke="none">
 <path d="M782 1115 c-17 -22 -21 -23 -32 -9 -17 20 -52 14 -65 -11 -7 -14 -18 -19 -37 -17 -28 3 -54 -27 -45 -52 3 -7 -5 -11 -20 -11 -34 0 -52 -28 -36 -54 11 -17 9 -20 -9 -23 -29 -4 -46 -33 -32 -56 24 -37 91 -20 80 21 -3 13 3 27 20 40 16 12 24 27 21 38 -3 12 0 16 10 12 20 -8 55 27 49 50 -4 18 -4 18 14 2 14 -13 23 -14 38 -6 11 6 22 16 25 23 4 10 7 11 18 1 18 -18 39 -16 61 4 16 15 18 15 18 0 0 -19 36 -41 51 -32 5 4 21 -5 34 -19 29 -31 37 -32 59 -7 34 38 -3 89 -45 63 -12 -8 -19 -9 -15 -4 8 14 -23 52 -43 52 -9 0 -22 -5 -28 -11 -8 -8 -17 -5 -32 10 -27 27 -35 26 -59 -4z"/>
 <path d="M153 1063 c-3 -10 -8 -21 -10 -25 -2 -4 56 -55 129 -113 73 -59 134 -110 136 -114 1 -4 -58 -55 -132 -114 -111 -89 -133 -111 -129 -128 3 -11 12 -23 19 -26 7 -2 83 53 169 122 116 95 159 125 168 116 16 -16 42 -13 60 7 15 16 15 20 1 40 -16 24 -43 29 -61 11 -8 -8 -52 22 -166 115 -86 69 -160 126 -167 126 -6 0 -13 -8 -17 -17z"/>
 <path d="M1284 955 c-102 -83 -155 -120 -162 -113 -14 14 -53 6 -66 -15 -21 -34 38 -77 67 -48 7 7 61 -31 170 -120 88 -71 164 -126 168 -122 4 4 10 18 13 29 6 18 -14 38 -129 130 -74 60 -135 111 -135 114 1 3 57 50 126 105 69 55 130 105 135 112 12 14 -6 53 -24 52 -7 0 -80 -56 -163 -124z"/>
 <path d="M1012 1008 c-29 -29 -1 -88 35 -74 15 6 16 5 1 -11 -22 -25 -7 -63 25 -63 47 0 63 54 22 75 -13 6 -19 18 -17 33 6 42 -37 69 -66 40z"/>
 <path d="M750 963 c-24 -9 -70 -55 -86 -85 -8 -15 -14 -48 -14 -74 0 -82 74 -154 158 -154 56 0 102 22 132 62 51 69 43 151 -21 214 -34 34 -45 38 -96 41 -32 1 -65 0 -73 -4z m124 -89 c59 -59 20 -154 -64 -154 -73 0 -110 64 -79 134 23 51 101 62 143 20z"/>
 <path d="M187 853 c-2 -4 -4 -26 -3 -48 l1 -40 50 0 50 0 0 45 0 45 -47 3 c-25 2 -48 -1 -51 -5z"/>
 <path d="M1337 853 c-2 -4 -4 -26 -3 -48 l1 -40 50 0 50 0 0 45 0 45 -47 3 c-25 2 -48 -1 -51 -5z"/>
 <path d="M512 748 c-26 -26 -6 -68 31 -68 16 0 17 -2 7 -15 -10 -12 -10 -21 -2 -40 14 -30 42 -32 66 -6 26 29 2 69 -37 62 -4 -1 -3 8 3 20 21 38 -37 78 -68 47z"/>
 <path d="M1050 745 c-26 -32 13 -81 48 -59 34 22 22 74 -18 74 -10 0 -23 -7 -30 -15z"/>
 <path d="M1010 665 c-26 -32 13 -81 48 -59 34 22 22 74 -18 74 -10 0 -23 -7 -30 -15z"/>
 <path d="M610 600 c-8 -14 -8 -26 0 -40 14 -25 42 -26 64 -1 14 15 15 24 6 40 -14 27 -56 28 -70 1z"/>
 <path d="M950 605 c-26 -32 13 -81 48 -59 22 14 27 41 12 59 -16 19 -44 19 -60 0z"/>
 <path d="M690 565 c-26 -32 13 -81 48 -59 22 14 27 41 12 59 -16 19 -44 19 -60 0z"/>
 <path d="M870 565 c-26 -32 13 -81 48 -59 22 14 27 41 12 59 -16 19 -44 19 -60 0z"/>
 <path d="M782 558 c-17 -17 -15 -38 5 -60 16 -17 6 -18 -280 -18 -182 0 -298 -4 -302 -10 -8 -13 7 -40 66 -110 l50 -60 488 0 489 0 45 50 c50 56 88 115 80 124 -4 3 -142 6 -307 6 -209 1 -296 4 -283 11 20 12 23 49 5 67 -15 15 -41 15 -56 0z"/>
 </g>
<g id="layer111" fill="#1e2e53" stroke="none">
 <path d="M755 1561 c-7 -12 12 -24 25 -16 11 7 4 25 -10 25 -5 0 -11 -4 -15 -9z"/>
 <path d="M1016 1531 c-4 -5 -2 -12 4 -16 5 -3 10 -3 10 1 0 3 6 1 14 -5 10 -8 16 -9 21 -1 3 5 4 11 1 11 -3 1 -9 2 -13 3 -5 1 -13 5 -20 9 -6 4 -14 3 -17 -2z"/>
 <path d="M669 1523 c-1 -4 -1 -11 -1 -14 2 -13 -50 -20 -64 -8 -13 11 -19 5 -15 -15 1 -5 -5 -4 -13 4 -9 7 -17 10 -17 6 -1 -3 -2 -10 -3 -15 0 -5 -28 -24 -61 -41 -33 -17 -75 -43 -93 -56 -18 -14 -32 -22 -31 -17 3 20 -2 25 -16 13 -11 -9 -12 -17 -4 -31 9 -19 26 -19 462 -17 377 3 452 5 449 17 -2 7 4 21 13 31 11 12 13 20 6 25 -11 6 -15 -1 -12 -19 1 -5 -5 -4 -13 4 -15 11 -20 7 -17 -13 1 -5 -3 -6 -9 -2 -6 4 -9 12 -8 19 2 6 -1 12 -7 13 -5 0 -9 -3 -8 -7 1 -5 -23 7 -55 26 -107 65 -270 99 -404 85 -37 -4 -65 -4 -62 0 2 4 0 10 -6 14 -5 3 -11 3 -11 -2z"/>
 <path d="M321 1386 c-7 -8 -8 -17 -3 -20 6 -3 15 1 21 8 7 8 8 17 3 20 -6 3 -15 -1 -21 -8z"/>
 <path d="M231 1296 c-7 -8 -8 -17 -3 -20 6 -3 15 1 21 8 7 8 8 17 3 20 -6 3 -15 -1 -21 -8z"/>
 <path d="M239 1264 c-7 -9 -5 -15 9 -23 15 -8 23 -6 37 9 10 11 16 20 14 21 -29 6 -51 3 -60 -7z"/>
 <path d="M1346 1252 c-3 -6 1 -15 8 -21 8 -7 17 -8 20 -3 3 6 -1 15 -8 21 -8 7 -17 8 -20 3z"/>
 <path d="M1401 1229 c-22 -18 -47 -19 -580 -19 -394 0 -560 3 -568 11 -8 8 -17 0 -35 -30 -12 -22 -28 -40 -35 -38 -6 1 -13 -2 -15 -8 -4 -14 1242 -19 1255 -6 7 7 4 18 -6 34 -14 22 -14 25 5 44 26 27 10 37 -21 12z"/>
 <path d="M115 1030 c-3 -5 -2 -10 2 -12 13 -7 33 -3 36 6 3 12 -31 17 -38 6z"/>
 <path d="M148 963 c-3 -4 -4 -75 -4 -158 1 -126 3 -150 16 -150 13 0 15 24 15 154 0 108 -3 155 -12 158 -6 2 -13 0 -15 -4z"/>
 <path d="M1447 963 c-9 -18 -2 -308 8 -308 6 0 10 58 10 153 1 136 -4 180 -18 155z"/>
 <path d="M65 940 c-4 -6 -3 -16 3 -22 6 -6 12 -6 17 2 4 6 3 16 -3 22 -6 6 -12 6 -17 -2z"/>
 <path d="M547 793 c-15 -15 -21 -16 -38 -5 -11 7 -25 10 -31 6 -24 -15 -318 -255 -318 -260 0 -3 7 -18 15 -34 l16 -30 619 0 619 0 16 30 c8 16 15 31 15 34 0 5 -294 245 -318 260 -6 4 -20 1 -31 -6 -15 -9 -23 -9 -36 2 -14 11 -19 10 -38 -8 -19 -19 -20 -25 -9 -43 15 -24 3 -45 -35 -60 -29 -11 -30 -45 -3 -74 17 -18 18 -24 7 -39 -19 -25 -49 -10 -45 23 3 22 -1 26 -25 29 -36 4 -47 -22 -18 -49 25 -23 26 -32 6 -49 -20 -17 -48 5 -40 31 4 13 1 21 -12 25 -10 3 -26 10 -36 15 -10 6 -24 6 -35 0 -9 -5 -24 -12 -33 -14 -11 -4 -15 -13 -12 -30 6 -32 -25 -46 -45 -20 -11 16 -10 21 13 38 22 18 23 23 12 39 -8 11 -22 17 -38 14 -19 -2 -23 -8 -21 -27 4 -26 -13 -42 -35 -34 -19 8 -16 41 6 52 25 14 16 59 -15 73 -28 13 -37 34 -25 56 6 12 3 25 -13 45 -21 26 -23 26 -39 10z m18 -57 c16 -12 17 -16 6 -30 -26 -31 -62 -9 -47 29 7 19 17 19 41 1z m535 -2 c11 -12 10 -18 -3 -32 -16 -15 -18 -15 -34 0 -13 14 -14 20 -3 32 7 9 16 16 20 16 4 0 13 -7 20 -16z m-492 -88 c4 -21 -14 -37 -35 -29 -14 5 -18 35 -6 47 12 12 38 1 41 -18z m456 7 c10 -26 -23 -48 -42 -29 -8 8 -12 22 -9 30 8 21 43 20 51 -1z m-229 -128 c0 -25 -40 -33 -49 -10 -9 24 2 37 27 33 14 -2 22 -10 22 -23z"/>
 <path d="M645 780 c-4 -6 -3 -16 3 -22 6 -6 12 -6 17 2 4 6 3 16 -3 22 -6 6 -12 6 -17 -2z"/>
 <path d="M955 780 c-11 -17 5 -32 21 -19 7 6 11 15 8 20 -7 12 -21 11 -29 -1z"/>
 <path d="M725 670 c-11 -17 5 -32 21 -19 7 6 11 15 8 20 -7 12 -21 11 -29 -1z"/>
 <path d="M866 671 c-3 -5 1 -14 8 -20 16 -13 32 2 21 19 -8 12 -22 13 -29 1z"/>
 <path d="M795 651 c-7 -12 12 -24 25 -16 11 7 4 25 -10 25 -5 0 -11 -4 -15 -9z"/>
 <path d="M1311 306 c-13 -13 -18 -26 -13 -30 5 -3 19 5 31 18 13 13 18 26 13 30 -5 3 -19 -5 -31 -18z"/>
 <path d="M346 241 c-10 -11 -13 -22 -8 -25 5 -3 17 3 26 13 10 11 13 22 8 25 -5 3 -17 -3 -26 -13z"/>
 </g>
<g id="layer112" fill="#0c0706" stroke="none">
 <path d="M650 1600 c-254 -33 -509 -256 -606 -531 -25 -70 -27 -85 -27 -259 0 -167 2 -191 22 -250 72 -206 214 -373 401 -469 137 -71 162 -76 375 -75 188 0 191 1 273 31 223 85 401 262 483 482 33 86 33 87 33 276 1 207 -5 235 -67 360 -99 200 -283 358 -487 419 -65 20 -302 29 -400 16z m30 -75 c-36 -8 -92 -23 -125 -35 -33 -11 -55 -16 -50 -11 9 8 115 44 160 54 11 3 34 5 50 5 17 0 1 -6 -35 -13z m248 8 c-10 -2 -26 -2 -35 0 -10 3 -2 5 17 5 19 0 27 -2 18 -5z m127 -28 c39 -17 21 -18 -25 0 -19 7 -28 14 -20 14 8 0 29 -6 45 -14z m-55 -36 c73 -20 161 -61 210 -99 25 -19 23 -20 -397 -20 -233 0 -423 2 -423 5 0 2 30 22 68 44 162 96 351 120 542 70z m150 -4 c17 -9 30 -18 30 -21 0 -4 -59 23 -69 32 -10 9 13 3 39 -11z m-720 -33 c-88 -61 -174 -147 -243 -242 -10 -14 -8 -6 5 18 34 64 121 156 191 201 60 40 97 57 47 23z m901 -102 c68 -67 136 -167 154 -225 3 -11 -6 2 -21 30 -53 99 -132 188 -244 278 l-35 28 35 -18 c19 -10 69 -52 111 -93z m60 -147 c27 -43 61 -114 76 -158 23 -70 27 -97 27 -215 1 -149 -7 -186 -72 -315 -170 -342 -577 -472 -931 -298 -87 43 -219 165 -266 246 -116 200 -134 434 -51 632 9 22 37 73 62 113 l45 72 530 0 530 0 50 -77z m-1267 -134 c-8 -24 -22 -73 -30 -109 -13 -59 -13 -61 -9 -15 5 50 44 180 51 172 2 -2 -3 -24 -12 -48z m1410 -104 c5 -49 5 -49 -4 -10 -19 77 -21 91 -11 75 5 -8 12 -37 15 -65z m13 -162 c-2 -16 -4 -5 -4 22 0 28 2 40 4 28 2 -13 2 -35 0 -50z m-1441 -180 c-5 -5 -26 92 -25 115 1 9 7 -12 15 -47 8 -35 12 -66 10 -68z m1360 -132 c-15 -28 -28 -51 -31 -51 -3 0 7 25 22 55 15 30 29 53 31 51 2 -2 -8 -27 -22 -55z m-1286 -29 c0 -4 -9 7 -20 23 -11 17 -20 35 -20 40 0 6 9 -5 20 -23 11 -18 20 -36 20 -40z m1221 -74 c-33 -48 -109 -123 -159 -157 -18 -13 16 27 75 87 60 60 109 110 111 111 2 1 -10 -18 -27 -41z m-1001 -162 l35 -27 -35 18 c-40 21 -171 146 -190 183 -7 14 25 -14 71 -61 46 -47 100 -98 119 -113z m800 -21 c0 -6 -97 -55 -107 -55 -4 1 17 14 47 30 61 32 60 32 60 25z m-651 -63 c-8 -3 -109 45 -109 53 0 2 26 -8 59 -23 32 -15 55 -28 50 -30z m146 -32 c27 -7 27 -8 5 -8 -14 0 -36 4 -50 8 -20 6 -21 8 -5 8 11 0 34 -4 50 -8z m138 -17 c-13 -2 -35 -2 -50 0 -16 2 -5 4 22 4 28 0 40 -2 28 -4z"/>
 </g>

</svg>