<!DOCTYPE svg PUBLIC "-//W3C//DTD SVG 20010904//EN" "http://www.w3.org/TR/2001/REC-SVG-20010904/DTD/svg10.dtd">
<svg version="1.0" xmlns="http://www.w3.org/2000/svg" width="162px" height="162px" viewBox="0 0 1620 1620" preserveAspectRatio="xMidYMid meet">
<g id="layer101" fill="#828080" stroke="none">
 <path d="M706 1542 c-9 -15 21 -49 34 -36 7 7 5 15 -9 28 -10 9 -22 13 -25 8z"/>
 <path d="M890 1531 c-5 -11 -6 -22 -1 -25 11 -7 43 28 34 37 -11 12 -22 8 -33 -12z"/>
 <path d="M647 1534 c-3 -6 -2 -16 3 -24 5 -9 5 -19 -1 -26 -7 -8 -6 -14 1 -19 5 -3 11 -4 11 -1 1 3 2 9 3 14 1 4 4 12 8 18 4 6 1 19 -6 29 -7 10 -16 14 -19 9z"/>
 <path d="M950 1521 c-7 -13 -7 -22 0 -26 6 -4 8 -10 5 -15 -3 -5 -1 -11 4 -14 5 -4 12 -2 15 3 4 5 2 12 -4 16 -7 4 -7 12 0 25 6 12 7 21 1 25 -6 3 -15 -3 -21 -14z"/>
 <path d="M695 1491 c-7 -12 12 -24 25 -16 11 7 4 25 -10 25 -5 0 -11 -4 -15 -9z"/>
 <path d="M439 1456 c-1 -3 -2 -9 -3 -13 -1 -5 -5 -13 -9 -20 -4 -6 -3 -14 3 -18 5 -3 11 -4 11 -1 1 3 2 9 3 14 1 4 5 12 9 19 4 6 3 14 -3 18 -5 3 -11 4 -11 1z"/>
 <path d="M396 1402 c-3 -5 3 -17 13 -26 11 -10 22 -13 25 -8 3 5 -3 17 -13 26 -11 10 -22 13 -25 8z"/>
 <path d="M1054 1396 c-4 -10 -2 -22 4 -28 8 -8 13 -7 18 6 4 10 2 22 -4 28 -8 8 -13 7 -18 -6z"/>
 <path d="M655 1341 c-3 -6 4 -15 15 -21 11 -6 20 -8 20 -4 0 3 6 1 14 -5 10 -8 16 -9 21 -1 3 5 4 11 1 11 -3 1 -9 2 -13 3 -5 1 -18 7 -30 14 -13 7 -24 8 -28 3z"/>
 <path d="M1087 1253 c-4 -6 0 -18 7 -28 8 -11 16 -14 19 -8 4 6 0 18 -7 28 -8 11 -16 14 -19 8z"/>
 <path d="M205 1211 c-6 -11 1 -15 18 -12 5 1 6 -3 3 -8 -4 -5 -2 -12 3 -15 19 -12 20 12 2 28 -13 11 -21 14 -26 7z"/>
 <path d="M1396 1191 c-10 -11 -13 -22 -8 -25 5 -3 17 3 26 13 10 11 13 22 8 25 -5 3 -17 -3 -26 -13z"/>
 <path d="M185 1180 c-4 -6 -10 -8 -15 -5 -5 3 -11 1 -14 -4 -4 -5 -2 -12 3 -15 5 -4 12 -2 16 4 4 6 10 8 15 5 5 -3 11 -1 14 4 4 5 2 12 -3 15 -5 4 -12 2 -16 -4z"/>
 <path d="M1437 1153 c-4 -3 -2 -14 4 -24 6 -12 6 -18 0 -17 -5 2 -9 -1 -10 -7 -1 -5 9 -9 22 -9 12 0 22 4 22 9 0 6 4 16 8 23 5 6 6 13 3 13 -3 1 -9 2 -13 3 -5 1 -13 4 -19 8 -6 4 -14 5 -17 1z"/>
 <path d="M365 1106 c-11 -8 -14 -16 -8 -19 6 -4 18 0 28 7 11 8 14 16 8 19 -6 4 -18 0 -28 -7z"/>
 <path d="M115 1091 c-7 -12 25 -30 43 -24 7 3 12 1 11 -4 -3 -20 2 -25 16 -13 12 10 13 16 4 26 -6 8 -15 11 -20 8 -5 -3 -17 0 -28 6 -12 6 -22 6 -26 1z"/>
 <path d="M1256 1091 c-4 -5 -2 -12 4 -16 5 -3 10 -3 10 1 0 3 6 1 14 -5 10 -8 16 -9 21 -1 3 5 4 11 1 11 -3 1 -9 2 -13 3 -5 1 -13 5 -20 9 -6 4 -14 3 -17 -2z"/>
 <path d="M245 1071 c-7 -12 12 -24 25 -16 11 7 4 25 -10 25 -5 0 -11 -4 -15 -9z"/>
 <path d="M1335 1071 c-7 -12 12 -24 25 -16 11 7 4 25 -10 25 -5 0 -11 -4 -15 -9z"/>
 <path d="M1405 1071 c-7 -12 12 -24 25 -16 11 7 4 25 -10 25 -5 0 -11 -4 -15 -9z"/>
 <path d="M732 1008 c-7 -7 -12 -9 -12 -5 0 4 -9 3 -20 -3 -11 -6 -18 -15 -15 -21 4 -5 15 -4 28 3 12 7 25 12 29 13 12 0 19 13 10 19 -5 3 -14 0 -20 -6z"/>
 <path d="M75 961 c-3 -6 3 -15 14 -21 13 -7 22 -7 26 0 4 6 10 8 15 5 5 -3 11 -1 14 4 4 5 2 12 -3 15 -5 4 -12 2 -16 -4 -4 -7 -12 -7 -25 0 -12 6 -21 7 -25 1z"/>
 <path d="M1486 921 c-7 -11 -6 -12 13 -15 5 0 13 -4 16 -8 10 -10 47 11 40 23 -4 6 -13 6 -24 -1 -12 -6 -22 -5 -28 1 -8 8 -13 7 -17 0z"/>
 <path d="M67 913 c-12 -11 -8 -22 12 -33 11 -5 22 -6 25 -1 7 11 -28 43 -37 34z"/>
 <path d="M115 910 c-4 -6 -3 -16 3 -22 6 -6 12 -6 17 2 4 6 3 16 -3 22 -6 6 -12 6 -17 -2z"/>
 <path d="M276 911 c-4 -5 -2 -12 4 -16 6 -4 8 -10 5 -15 -3 -5 -1 -11 4 -14 5 -4 12 -2 15 3 4 5 2 12 -4 16 -6 4 -8 10 -5 15 3 5 1 11 -4 14 -5 4 -12 2 -15 -3z"/>
 <path d="M1297 843 c-9 -15 -2 -88 8 -88 12 0 17 83 5 90 -5 3 -11 2 -13 -2z"/>
 <path d="M1495 838 c-9 -24 -2 -93 10 -93 14 0 19 85 6 98 -7 7 -12 5 -16 -5z"/>
 <path d="M1545 828 c-9 -22 -2 -68 10 -71 14 -3 19 63 6 76 -7 7 -12 5 -16 -5z"/>
 <path d="M295 810 c-4 -6 -3 -16 3 -22 6 -6 12 -6 17 2 4 6 3 16 -3 22 -6 6 -12 6 -17 -2z"/>
 <path d="M76 711 c-21 -23 -6 -36 20 -16 14 10 16 17 8 25 -7 7 -15 5 -28 -9z"/>
 <path d="M597 723 c-4 -6 0 -18 7 -28 8 -11 16 -14 19 -8 4 6 0 18 -7 28 -8 11 -16 14 -19 8z"/>
 <path d="M1515 690 c-4 -6 -10 -8 -15 -5 -5 3 -11 1 -14 -4 -4 -5 -2 -12 3 -15 5 -4 12 -2 16 4 4 7 12 7 25 0 12 -6 21 -7 25 -1 3 6 -3 15 -14 21 -13 7 -22 7 -26 0z"/>
 <path d="M1505 641 c-3 -6 3 -15 14 -21 12 -6 22 -6 26 -1 3 6 -3 15 -14 21 -12 6 -22 6 -26 1z"/>
 <path d="M104 608 c-6 -9 -4 -10 26 -11 11 -1 19 3 18 8 -4 12 -37 14 -44 3z"/>
 <path d="M1464 598 c-6 -9 -4 -10 26 -11 11 -1 19 3 18 8 -4 12 -37 14 -44 3z"/>
 <path d="M1454 568 c-6 -9 -4 -10 26 -11 11 -1 19 3 18 8 -4 12 -37 14 -44 3z"/>
 <path d="M176 563 c-3 -3 -14 -7 -24 -8 -9 0 -18 -5 -18 -10 -1 -6 3 -9 8 -7 6 1 16 -2 23 -8 10 -9 16 -6 24 9 11 19 1 37 -13 24z"/>
 <path d="M1425 550 c-4 -6 -3 -16 3 -22 6 -6 12 -6 17 2 4 6 3 16 -3 22 -6 6 -12 6 -17 -2z"/>
 <path d="M255 541 c-7 -12 12 -24 25 -16 11 7 4 25 -10 25 -5 0 -11 -4 -15 -9z"/>
 <path d="M306 531 c-4 -5 -2 -12 4 -16 5 -3 10 -3 10 1 0 3 6 1 14 -5 10 -8 16 -9 21 -1 3 5 4 11 1 11 -3 1 -9 2 -13 3 -5 1 -13 5 -20 9 -6 4 -14 3 -17 -2z"/>
 <path d="M320 251 c-6 -12 -6 -22 -1 -26 6 -3 15 3 21 14 6 12 6 22 1 26 -6 3 -15 -3 -21 -14z"/>
 <path d="M388 232 c-23 -27 -29 -40 -20 -46 5 -3 18 8 30 24 23 31 14 51 -10 22z"/>
 <path d="M1054 227 c-3 -9 -3 -20 0 -26 4 -5 1 -13 -4 -16 -8 -5 -6 -13 5 -25 9 -10 15 -21 13 -26 -2 -5 1 -11 6 -14 15 -8 14 39 0 51 -10 8 -11 15 -1 30 9 14 9 21 0 30 -10 10 -14 9 -19 -4z"/>
 <path d="M475 190 c-3 -5 5 -14 17 -21 32 -16 31 -15 19 -38 -7 -12 -7 -22 -2 -26 12 -7 30 25 24 43 -3 7 -1 11 4 10 4 -2 9 0 11 5 1 4 0 7 -3 7 -3 0 -18 6 -35 15 -17 9 -31 11 -35 5z"/>
 <path d="M1189 196 c-1 -3 -2 -9 -3 -13 -1 -5 -5 -13 -9 -20 -4 -6 -3 -14 3 -18 5 -3 11 -4 11 -1 1 3 2 9 3 14 1 4 5 12 9 19 4 6 3 14 -3 18 -5 3 -11 4 -11 1z"/>
 <path d="M436 181 c-4 -5 -2 -12 4 -16 6 -4 8 -10 5 -15 -3 -5 -1 -11 4 -14 5 -4 12 -2 15 3 4 5 2 12 -4 16 -6 4 -8 10 -5 15 3 5 1 11 -4 14 -5 4 -12 2 -15 -3z"/>
 <path d="M569 156 c-5 -23 -2 -46 5 -48 12 -4 15 41 4 48 -4 3 -8 3 -9 0z"/>
 <path d="M599 146 c-5 -23 -2 -46 5 -48 12 -4 15 41 4 48 -4 3 -8 3 -9 0z"/>
 <path d="M676 121 c-4 -5 -2 -12 4 -16 7 -4 7 -12 0 -25 -6 -12 -7 -21 -1 -25 6 -3 15 3 21 14 7 13 7 22 0 26 -6 4 -8 10 -5 15 3 5 1 11 -4 14 -5 4 -12 2 -15 -3z"/>
 <path d="M929 126 c-1 -3 -2 -10 -3 -15 0 -5 -4 -13 -8 -16 -10 -10 11 -47 23 -40 6 4 6 13 -1 24 -6 12 -5 22 1 28 8 8 7 13 0 17 -6 4 -12 5 -12 2z"/>
 <path d="M747 114 c-11 -11 3 -24 26 -24 l22 0 -23 -18 c-31 -24 -19 -32 44 -32 66 0 76 14 26 37 -22 10 -40 23 -40 28 -2 12 -45 19 -55 9z"/>
 <path d="M825 110 c-3 -6 1 -13 9 -16 21 -8 49 3 41 16 -8 13 -42 13 -50 0z"/>
 <path d="M630 91 c-6 -12 -6 -22 -1 -26 6 -3 15 3 21 14 6 12 6 22 1 26 -6 3 -15 -3 -21 -14z"/>
 <path d="M1045 100 c-4 -6 -10 -8 -15 -5 -5 3 -11 1 -14 -4 -4 -5 -2 -12 3 -15 5 -4 12 -2 16 4 4 6 10 8 15 5 5 -3 11 -1 14 4 4 5 2 12 -3 15 -5 4 -12 2 -16 -4z"/>
 </g>
<g id="layer102" fill="#636161" stroke="none">
 <path d="M685 1541 c-7 -12 12 -24 25 -16 11 7 4 25 -10 25 -5 0 -11 -4 -15 -9z"/>
 <path d="M595 1521 c-6 -11 1 -15 18 -12 5 1 6 -3 3 -8 -4 -5 -2 -12 3 -15 19 -12 20 12 2 28 -13 11 -21 14 -26 7z"/>
 <path d="M865 1521 c-7 -12 12 -24 25 -16 11 7 4 25 -10 25 -5 0 -11 -4 -15 -9z"/>
 <path d="M986 1501 c-15 -16 -23 -31 -18 -35 5 -3 19 6 32 19 18 19 26 22 37 14 7 -6 13 -8 13 -4 0 4 7 2 15 -5 13 -11 12 -15 -5 -37 -15 -19 -17 -30 -9 -44 14 -27 32 -13 27 22 -2 15 -2 27 1 26 6 -2 12 9 10 18 -1 3 -2 11 -3 18 0 6 -7 13 -13 13 -7 1 -15 3 -18 4 -3 1 -8 3 -12 4 -5 1 -13 4 -19 8 -6 4 -23 -6 -38 -21z"/>
 <path d="M566 1511 c-7 -10 0 -15 17 -12 4 0 6 -5 5 -11 -2 -7 3 -12 10 -10 8 1 11 -2 8 -7 -4 -5 -2 -12 3 -15 24 -15 17 14 -8 38 -18 18 -31 24 -35 17z"/>
 <path d="M519 1496 c-1 -3 -2 -9 -3 -13 -1 -5 -5 -13 -8 -19 -4 -6 1 -19 12 -29 16 -14 22 -15 35 -5 20 17 9 33 -15 20 -19 -10 -22 2 -7 27 4 6 3 14 -3 18 -5 3 -11 4 -11 1z"/>
 <path d="M556 1482 c-3 -5 3 -17 13 -26 11 -10 22 -13 25 -8 3 5 -3 17 -13 26 -11 10 -22 13 -25 8z"/>
 <path d="M416 1441 c-7 -11 -6 -13 17 -15 6 0 12 -8 12 -16 0 -8 5 -16 10 -17 6 -1 9 4 7 12 -1 7 5 15 13 19 9 3 13 10 10 16 -4 7 -12 7 -24 0 -12 -6 -22 -5 -28 1 -8 8 -13 7 -17 0z"/>
 <path d="M1208 1433 c-7 -16 -2 -73 7 -73 10 0 14 69 4 76 -4 2 -9 1 -11 -3z"/>
 <path d="M1179 1426 c-5 -23 -2 -46 5 -48 12 -4 15 41 4 48 -4 3 -8 3 -9 0z"/>
 <path d="M359 1404 c-1 -5 -1 -13 0 -18 1 -4 -3 -14 -9 -21 -7 -9 -7 -15 -1 -19 5 -4 13 -2 16 4 5 8 11 8 20 0 9 -8 15 -8 20 0 6 10 5 12 -17 14 -7 0 -13 9 -13 18 0 18 -14 37 -16 22z"/>
 <path d="M991 1376 c-7 -8 -8 -17 -3 -20 6 -3 15 1 21 8 7 8 8 17 3 20 -6 3 -15 -1 -21 -8z"/>
 <path d="M1236 1381 c-4 -5 -1 -13 5 -16 5 -4 8 -13 5 -20 -6 -17 20 -40 28 -26 4 5 1 13 -5 16 -5 4 -8 13 -5 20 6 17 -20 40 -28 26z"/>
 <path d="M1055 1370 c-4 -6 -3 -16 3 -22 6 -6 12 -6 17 2 4 6 3 16 -3 22 -6 6 -12 6 -17 -2z"/>
 <path d="M1286 1372 c-3 -6 1 -15 8 -21 8 -7 17 -8 20 -3 3 6 -1 15 -8 21 -8 7 -17 8 -20 3z"/>
 <path d="M276 1331 c-15 -16 -23 -31 -18 -35 5 -3 21 8 36 23 15 16 23 31 18 35 -5 3 -21 -8 -36 -23z"/>
 <path d="M937 1344 c-38 -20 -24 -38 14 -19 16 9 27 20 24 25 -7 12 -4 13 -38 -6z"/>
 <path d="M311 1296 c-18 -19 -29 -36 -23 -39 5 -4 23 9 41 27 18 19 29 36 23 39 -5 4 -23 -9 -41 -27z"/>
 <path d="M1306 1322 c-3 -5 3 -17 13 -26 11 -10 22 -13 25 -8 3 5 -3 17 -13 26 -11 10 -22 13 -25 8z"/>
 <path d="M529 1316 c-1 -3 -2 -9 -3 -13 -1 -5 -5 -13 -9 -20 -4 -6 -3 -14 3 -18 5 -3 11 -4 11 -1 1 3 2 9 3 14 1 4 5 12 9 19 4 6 3 14 -3 18 -5 3 -11 4 -11 1z"/>
 <path d="M1066 1301 c-4 -5 -2 -12 4 -16 6 -4 8 -10 5 -15 -3 -5 -1 -11 4 -14 5 -4 12 -2 15 3 4 5 2 12 -4 16 -6 4 -8 10 -5 15 3 5 1 11 -4 14 -5 4 -12 2 -15 -3z"/>
 <path d="M245 1260 c-4 -6 -13 -9 -20 -8 -8 2 -15 -1 -17 -7 -2 -5 6 -10 17 -10 11 0 20 -6 20 -12 0 -7 3 -13 8 -13 4 0 10 0 13 0 4 0 2 6 -5 13 -7 10 -7 17 0 24 7 7 7 13 1 17 -6 3 -14 2 -17 -4z"/>
 <path d="M1326 1262 c-3 -6 1 -15 8 -21 8 -7 17 -8 20 -3 3 6 -1 15 -8 21 -8 7 -17 8 -20 3z"/>
 <path d="M1379 1243 c-1 -2 -2 -6 -3 -10 -1 -5 -5 -13 -9 -20 -4 -6 -3 -14 3 -18 10 -6 12 -5 14 18 0 6 9 12 18 12 23 0 18 19 -4 20 -10 1 -19 0 -19 -2z"/>
 <path d="M167 1194 c-4 -4 -3 -12 1 -18 4 -6 7 -15 7 -21 0 -5 10 -9 23 -9 12 0 22 4 22 9 0 5 -8 10 -18 10 -9 0 -17 5 -17 12 0 15 -10 25 -18 17z"/>
 <path d="M1136 1172 c-3 -5 3 -17 13 -26 11 -10 22 -13 25 -8 3 5 -3 17 -13 26 -11 10 -22 13 -25 8z"/>
 <path d="M1407 1153 c-4 -6 0 -18 7 -28 8 -11 16 -14 19 -8 4 6 0 18 -7 28 -8 11 -16 14 -19 8z"/>
 <path d="M1477 1123 c-4 -6 0 -18 7 -28 8 -11 16 -14 19 -8 4 6 0 18 -7 28 -8 11 -16 14 -19 8z"/>
 <path d="M335 1090 c-4 -6 -10 -8 -15 -5 -5 3 -11 1 -14 -4 -4 -5 -2 -12 3 -15 5 -4 12 -2 16 4 4 6 10 8 15 5 5 -3 11 -1 14 4 4 5 2 12 -3 15 -5 4 -12 2 -16 -4z"/>
 <path d="M1430 1081 c-6 -12 -6 -22 -1 -26 6 -3 15 3 21 14 6 12 6 22 1 26 -6 3 -15 -3 -21 -14z"/>
 <path d="M105 1071 c-6 -11 1 -15 18 -12 5 1 6 -3 3 -8 -4 -5 -2 -12 3 -15 19 -12 20 12 2 28 -13 11 -21 14 -26 7z"/>
 <path d="M160 1065 c-7 -8 -9 -15 -5 -15 4 0 2 -6 -4 -14 -8 -9 -8 -16 -2 -20 5 -4 12 -2 16 4 3 5 3 10 -1 10 -4 0 1 9 10 19 10 11 13 22 8 25 -5 3 -15 -1 -22 -9z"/>
 <path d="M1466 1051 c-11 -13 -14 -21 -7 -26 11 -6 15 1 12 18 -1 5 3 6 8 3 5 -4 12 -2 15 3 12 19 -12 20 -28 2z"/>
 <path d="M1486 1031 c-18 -18 -24 -31 -17 -35 10 -7 15 0 12 17 0 4 5 6 12 5 6 -2 11 3 9 10 -1 8 2 11 7 8 5 -4 12 -2 15 3 15 24 -14 17 -38 -8z"/>
 <path d="M96 1041 c-7 -10 0 -15 17 -12 4 0 6 -5 5 -11 -2 -7 3 -12 10 -10 8 1 11 -2 8 -7 -4 -5 -2 -12 3 -15 24 -15 17 14 -8 38 -18 18 -31 24 -35 17z"/>
 <path d="M1496 1001 c-18 -18 -24 -31 -17 -35 10 -7 15 0 12 17 0 4 5 6 12 5 6 -2 11 3 9 10 -1 8 2 11 7 8 5 -4 12 -2 15 3 15 24 -14 17 -38 -8z"/>
 <path d="M85 1011 c-6 -11 1 -15 18 -12 5 1 6 -3 3 -8 -4 -5 -2 -12 3 -15 19 -12 20 12 2 28 -13 11 -21 14 -26 7z"/>
 <path d="M1505 960 c-15 -15 -24 -33 -20 -39 9 -15 28 -2 21 15 -3 8 0 13 7 11 7 -1 11 4 9 11 -1 8 2 11 7 8 5 -4 12 -2 15 3 15 24 -14 17 -39 -9z"/>
 <path d="M745 961 c-7 -12 12 -24 25 -16 11 7 4 25 -10 25 -5 0 -11 -4 -15 -9z"/>
 <path d="M826 961 c-4 -5 -2 -12 4 -16 5 -3 10 -3 10 1 0 3 6 1 14 -5 10 -8 16 -9 21 -1 3 5 4 11 1 11 -3 1 -9 2 -13 3 -5 1 -13 5 -20 9 -6 4 -14 3 -17 -2z"/>
 <path d="M1535 940 c-4 -6 -3 -16 3 -22 6 -6 12 -6 17 2 4 6 3 16 -3 22 -6 6 -12 6 -17 -2z"/>
 <path d="M1319 926 c-1 -3 -2 -9 -3 -13 -1 -5 -5 -13 -9 -20 -4 -6 -3 -14 3 -18 5 -3 11 -4 11 -1 1 3 2 9 3 14 1 4 5 12 9 19 4 6 3 14 -3 18 -5 3 -11 4 -11 1z"/>
 <path d="M1515 900 c-4 -6 -3 -16 3 -22 6 -6 12 -6 17 2 4 6 3 16 -3 22 -6 6 -12 6 -17 -2z"/>
 <path d="M85 880 c-4 -6 -3 -16 3 -22 6 -6 12 -6 17 2 4 6 3 16 -3 22 -6 6 -12 6 -17 -2z"/>
 <path d="M986 881 c-4 -5 -2 -12 4 -16 6 -4 8 -10 5 -15 -3 -5 -1 -11 4 -14 5 -4 12 -2 15 3 4 5 2 12 -4 16 -6 4 -8 10 -5 15 3 5 1 11 -4 14 -5 4 -12 2 -15 -3z"/>
 <path d="M1495 860 c-4 -6 -3 -16 3 -22 6 -6 12 -6 17 2 4 6 3 16 -3 22 -6 6 -12 6 -17 -2z"/>
 <path d="M1545 850 c-4 -6 -3 -16 3 -22 6 -6 12 -6 17 2 4 6 3 16 -3 22 -6 6 -12 6 -17 -2z"/>
 <path d="M297 833 c-8 -15 -2 -63 8 -63 12 0 16 58 5 65 -5 3 -10 2 -13 -2z"/>
 <path d="M1545 760 c-4 -6 -3 -16 3 -22 6 -6 12 -6 17 2 4 6 3 16 -3 22 -6 6 -12 6 -17 -2z"/>
 <path d="M1495 750 c-4 -6 -3 -16 3 -22 6 -6 12 -6 17 2 4 6 3 16 -3 22 -6 6 -12 6 -17 -2z"/>
 <path d="M85 740 c-4 -6 -3 -16 3 -22 6 -6 12 -6 17 2 4 6 3 16 -3 22 -6 6 -12 6 -17 -2z"/>
 <path d="M1307 723 c-4 -3 -2 -12 4 -20 6 -7 9 -13 5 -13 -4 0 1 -14 9 -30 9 -17 20 -28 25 -25 6 4 3 19 -7 38 -9 18 -17 35 -18 39 0 11 -11 18 -18 11z"/>
 <path d="M901 696 c-13 -13 -18 -26 -13 -30 5 -3 19 5 31 18 13 13 18 26 13 30 -5 3 -19 -5 -31 -18z"/>
 <path d="M1515 710 c-4 -6 -3 -16 3 -22 6 -6 12 -6 17 2 4 6 3 16 -3 22 -6 6 -12 6 -17 -2z"/>
 <path d="M65 690 c-4 -6 -3 -16 3 -22 6 -6 12 -6 17 2 4 6 3 16 -3 22 -6 6 -12 6 -17 -2z"/>
 <path d="M105 680 c-9 -10 -14 -24 -10 -30 9 -15 27 -1 21 17 -3 8 -2 11 3 8 5 -3 12 -1 15 4 12 19 -12 20 -29 1z"/>
 <path d="M616 682 c-3 -6 1 -15 8 -21 8 -7 17 -8 20 -3 3 6 -1 15 -8 21 -8 7 -17 8 -20 3z"/>
 <path d="M705 671 c-3 -6 4 -15 15 -21 11 -6 20 -8 20 -4 0 3 7 1 15 -6 8 -6 19 -9 25 -5 13 8 3 26 -13 23 -7 -1 -22 3 -34 10 -13 7 -24 8 -28 3z"/>
 <path d="M106 621 c-18 -18 -24 -31 -17 -35 10 -7 15 0 12 17 0 4 5 6 12 5 6 -2 11 3 9 10 -1 8 2 11 7 8 5 -4 12 -2 15 3 15 24 -14 17 -38 -8z"/>
 <path d="M1476 632 c-3 -5 6 -19 19 -32 19 -18 22 -26 14 -37 -6 -7 -8 -13 -4 -13 4 0 2 -7 -5 -15 -12 -14 -15 -14 -30 0 -12 11 -20 13 -25 6 -6 -11 1 -15 18 -12 4 1 3 -8 -3 -18 -6 -12 -6 -22 -1 -26 6 -3 15 4 21 15 6 11 16 19 22 17 7 -1 13 4 14 11 1 6 3 14 4 17 1 3 3 8 4 13 1 4 4 12 8 18 4 6 -6 23 -21 38 -16 15 -31 23 -35 18z"/>
 <path d="M685 621 c-3 -6 4 -15 15 -21 11 -6 20 -8 20 -4 0 3 6 1 14 -5 10 -8 16 -9 21 -1 3 5 4 11 1 11 -3 1 -9 2 -13 3 -5 1 -18 7 -30 14 -13 7 -24 8 -28 3z"/>
 <path d="M126 591 c-11 -13 -14 -21 -7 -26 11 -6 15 1 12 18 -1 5 3 6 8 3 5 -4 12 -2 15 3 12 19 -12 20 -28 2z"/>
 <path d="M145 571 c-6 -11 1 -15 18 -12 5 1 6 -3 3 -8 -4 -5 -2 -12 3 -15 19 -12 20 12 2 28 -13 11 -21 14 -26 7z"/>
 <path d="M106 541 c-4 -5 -2 -12 4 -16 5 -3 10 -3 10 1 0 3 6 1 14 -5 10 -8 16 -9 21 -1 3 5 4 11 1 11 -3 1 -9 2 -13 3 -5 1 -13 5 -20 9 -6 4 -14 3 -17 -2z"/>
 <path d="M177 503 c-4 -6 0 -18 7 -28 8 -11 16 -14 19 -8 4 6 0 18 -7 28 -8 11 -16 14 -19 8z"/>
 <path d="M127 494 c-9 -10 22 -66 33 -59 6 4 4 18 -5 36 -17 31 -18 32 -28 23z"/>
 <path d="M1146 451 c-15 -16 -23 -31 -18 -35 5 -3 21 8 36 23 15 16 23 31 18 35 -5 3 -21 -8 -36 -23z"/>
 <path d="M1394 438 c-5 -8 -3 -9 26 -12 8 0 15 -7 15 -13 0 -7 3 -13 8 -13 4 0 10 0 13 0 4 0 2 6 -4 13 -6 6 -12 16 -14 22 -4 12 -37 14 -44 3z"/>
 <path d="M189 433 c-1 -2 -2 -6 -3 -10 -1 -5 -5 -13 -9 -20 -4 -6 -3 -14 3 -18 10 -6 12 -5 14 18 0 6 9 12 18 12 23 0 18 19 -4 20 -10 1 -19 0 -19 -2z"/>
 <path d="M239 406 c-1 -3 -2 -12 -3 -18 0 -7 -10 -13 -21 -13 -11 0 -19 -4 -17 -10 3 -12 47 -12 47 0 0 6 4 15 8 22 4 6 3 14 -3 18 -5 3 -11 4 -11 1z"/>
 <path d="M497 384 c-3 -4 -1 -16 5 -28 7 -11 13 -24 14 -28 1 -5 3 -10 4 -13 1 -3 3 -9 4 -15 0 -5 4 -10 9 -10 7 0 8 4 6 15 -1 3 -3 10 -4 15 -1 6 -3 11 -5 13 -1 1 -3 10 -5 21 -4 23 -19 39 -28 30z"/>
 <path d="M1349 374 c-7 -8 -6 -14 1 -19 8 -5 8 -11 1 -19 -14 -17 -2 -29 15 -16 6 6 16 9 20 8 5 -2 11 1 14 7 3 5 -2 10 -10 10 -8 0 -15 5 -15 10 0 6 11 10 25 10 14 0 26 5 28 10 3 13 -68 12 -79 -1z"/>
 <path d="M1079 346 c-1 -3 -2 -9 -3 -13 -1 -5 -5 -13 -9 -20 -4 -6 -3 -14 3 -18 5 -3 11 -4 11 -1 1 3 2 9 3 14 1 4 5 12 9 19 4 6 3 14 -3 18 -5 3 -11 4 -11 1z"/>
 <path d="M227 333 c-10 -9 13 -33 27 -27 6 2 25 -9 40 -25 16 -17 33 -28 38 -25 6 4 -5 21 -23 40 -18 18 -36 31 -41 28 -5 -3 -15 -1 -22 5 -7 6 -16 8 -19 4z"/>
 <path d="M855 301 c-7 -12 12 -24 24 -16 5 3 12 1 16 -5 4 -6 11 -8 16 -4 5 3 7 10 3 15 -3 5 -9 7 -14 4 -5 -3 -11 -1 -15 5 -8 13 -22 13 -30 1z"/>
 <path d="M356 272 c-3 -6 1 -15 8 -21 8 -7 17 -8 20 -3 3 6 -1 15 -8 21 -8 7 -17 8 -20 3z"/>
 <path d="M1273 257 c-11 -16 -10 -53 2 -48 6 1 9 8 7 13 -1 6 2 16 8 23 7 8 7 16 2 19 -6 3 -14 0 -19 -7z"/>
 <path d="M1055 250 c-4 -6 -3 -16 3 -22 6 -6 12 -6 17 2 4 6 3 16 -3 22 -6 6 -12 6 -17 -2z"/>
 <path d="M1169 217 c-5 -27 -2 -47 6 -48 6 0 15 -5 22 -10 7 -7 14 -6 18 1 6 10 5 12 -17 14 -7 0 -13 9 -13 18 0 16 -14 38 -16 25z"/>
 <path d="M459 203 c-1 -4 -2 -15 -3 -23 0 -8 -7 -15 -13 -15 -7 0 -13 -3 -13 -7 0 -5 0 -11 0 -15 0 -4 5 -2 11 4 9 9 19 8 40 -2 18 -10 30 -11 34 -5 3 5 -6 15 -20 22 -14 6 -24 17 -21 24 3 8 1 16 -4 19 -6 4 -11 3 -11 -2z"/>
 <path d="M1050 161 c-6 -12 -6 -22 -1 -26 6 -3 15 3 21 14 6 12 6 22 1 26 -6 3 -15 -3 -21 -14z"/>
 <path d="M1015 141 c-6 -11 1 -15 18 -12 5 1 6 -3 3 -8 -4 -5 -2 -12 3 -15 19 -12 20 12 2 28 -13 11 -21 14 -26 7z"/>
 <path d="M1089 146 c-1 -3 -2 -9 -3 -13 -1 -5 -5 -13 -9 -20 -4 -6 -3 -14 3 -18 5 -3 11 -4 11 -1 1 3 2 9 3 14 1 4 5 12 9 19 4 6 3 14 -3 18 -5 3 -11 4 -11 1z"/>
 <path d="M610 115 c-18 -19 -26 -22 -37 -14 -7 6 -13 8 -13 4 0 -4 -6 -2 -14 4 -10 8 -16 9 -21 1 -3 -5 -4 -11 -1 -11 3 -1 9 -2 14 -3 4 -1 13 -5 20 -9 6 -5 12 -5 12 -1 0 3 6 1 13 -5 10 -8 20 -4 41 18 15 16 23 31 18 35 -5 3 -19 -6 -32 -19z"/>
 <path d="M936 121 c-8 -12 31 -44 44 -36 15 9 1 27 -17 21 -8 -3 -11 -2 -8 3 3 5 1 12 -4 15 -5 4 -12 2 -15 -3z"/>
 <path d="M865 111 c-7 -12 12 -24 25 -16 11 7 4 25 -10 25 -5 0 -11 -4 -15 -9z"/>
 <path d="M695 91 c-7 -12 12 -24 25 -16 11 7 4 25 -10 25 -5 0 -11 -4 -15 -9z"/>
 <path d="M935 71 c-7 -12 12 -24 25 -16 11 7 4 25 -10 25 -5 0 -11 -4 -15 -9z"/>
 <path d="M735 61 c-7 -12 12 -24 25 -16 11 7 4 25 -10 25 -5 0 -11 -4 -15 -9z"/>
 </g>
<g id="layer103" fill="#acabab" stroke="none">
 <path d="M706 1531 c-11 -12 -14 -21 -7 -25 13 -9 63 23 55 35 -9 15 -30 10 -48 -10z"/>
 <path d="M876 1541 c-3 -5 1 -14 9 -21 11 -9 12 -16 5 -25 -8 -9 -8 -15 0 -20 13 -8 32 3 25 15 -3 5 0 12 5 15 8 5 6 13 -6 26 -19 21 -30 24 -38 10z"/>
 <path d="M650 1521 c-7 -13 -7 -22 0 -26 6 -4 8 -10 5 -15 -3 -5 -1 -11 4 -14 5 -4 12 -2 15 3 4 5 2 12 -4 16 -7 4 -7 12 0 25 6 12 7 21 1 25 -6 3 -15 -3 -21 -14z"/>
 <path d="M947 1534 c-3 -6 -2 -16 3 -24 5 -9 5 -19 -1 -26 -7 -8 -6 -14 1 -19 5 -3 11 -4 11 -1 1 3 2 9 3 14 1 4 4 12 8 18 4 6 1 19 -6 29 -7 10 -16 14 -19 9z"/>
 <path d="M611 1512 c-7 -13 -7 -22 0 -29 8 -8 7 -13 0 -17 -6 -4 -11 -4 -11 0 0 3 -7 1 -15 -6 -16 -13 -17 -12 -19 20 0 11 -5 20 -10 20 -13 1 -17 -28 -5 -36 5 -3 5 -12 -1 -23 -7 -14 -2 -25 24 -50 39 -38 57 -29 20 10 -23 24 -26 58 -4 44 5 -3 11 -1 15 5 4 6 10 8 15 5 5 -3 11 -1 14 4 4 5 2 12 -4 16 -7 4 -7 12 0 25 6 12 7 21 1 25 -6 3 -15 -3 -20 -13z"/>
 <path d="M999 1526 c-1 -3 -2 -14 -3 -23 -1 -10 -5 -23 -9 -30 -4 -6 -3 -14 3 -18 5 -3 11 -4 11 -1 4 17 7 26 9 29 7 9 7 38 -1 43 -5 3 -10 3 -10 0z"/>
 <path d="M578 1513 c-7 -14 -3 -33 6 -33 12 -1 17 28 6 35 -5 3 -10 2 -12 -2z"/>
 <path d="M1025 1510 c-6 -10 -5 -12 18 -14 6 0 12 -7 12 -13 0 -7 5 -13 10 -13 6 0 10 8 10 18 0 9 -4 17 -10 17 -5 0 -15 4 -22 8 -6 4 -14 3 -18 -3z"/>
 <path d="M715 1491 c-7 -12 12 -24 25 -16 11 7 4 25 -10 25 -5 0 -11 -4 -15 -9z"/>
 <path d="M1089 1498 c-9 -32 -4 -40 42 -63 27 -14 49 -24 50 -23 9 32 4 40 -42 63 -27 14 -49 24 -50 23z"/>
 <path d="M476 1473 c-15 -8 -24 -19 -20 -23 14 -14 29 -16 33 -5 2 6 11 15 19 21 24 18 -1 23 -32 7z"/>
 <path d="M1075 1441 c-3 -6 3 -15 14 -21 12 -6 22 -6 26 -1 3 6 -3 15 -14 21 -12 6 -22 6 -26 1z"/>
 <path d="M409 1433 c-1 -4 -1 -12 0 -16 1 -4 -7 -7 -16 -5 -10 2 -18 -3 -18 -12 0 -8 -8 -15 -17 -15 -10 0 -23 -6 -30 -13 -6 -6 -8 -12 -3 -12 5 0 -8 -18 -30 -40 -21 -21 -42 -37 -46 -34 -9 5 -23 -16 -24 -36 0 -8 -7 -15 -15 -15 -9 0 -14 -8 -12 -18 2 -9 -1 -16 -7 -15 -5 2 -9 -1 -10 -7 -1 -5 7 -10 16 -10 11 0 18 8 18 19 0 20 31 31 41 15 3 -6 11 -5 20 2 7 6 11 15 8 21 -3 5 -11 5 -19 -2 -10 -8 -15 -8 -20 0 -7 12 14 44 23 35 8 -7 72 56 67 65 -7 12 23 33 35 25 8 -5 8 -10 0 -20 -7 -8 -7 -16 -2 -19 6 -3 15 1 21 8 7 9 8 17 2 20 -16 10 -5 41 14 41 19 0 30 31 14 41 -5 3 -10 2 -10 -3z"/>
 <path d="M487 1424 c-38 -20 -24 -38 14 -19 16 9 27 20 24 25 -7 12 -4 13 -38 -6z"/>
 <path d="M1021 1406 c-13 -13 -18 -26 -13 -30 5 -3 19 5 31 18 13 13 18 26 13 30 -5 3 -19 -5 -31 -18z"/>
 <path d="M1204 1415 c-10 -8 -15 -15 -10 -15 5 0 3 -6 -3 -14 -8 -10 -9 -16 -1 -21 10 -6 11 -5 14 15 0 5 10 15 20 23 11 8 15 17 9 20 -6 4 -19 0 -29 -8z"/>
 <path d="M1135 1411 c-3 -6 3 -15 14 -21 12 -6 22 -6 26 -1 3 6 -3 15 -14 21 -12 6 -22 6 -26 1z"/>
 <path d="M1229 1393 c-1 -2 -2 -6 -3 -10 -1 -5 -5 -13 -9 -19 -4 -7 -1 -17 7 -23 16 -14 29 -2 15 15 -13 16 8 31 24 15 6 -6 7 -11 2 -11 -4 0 0 -9 10 -20 10 -11 22 -17 27 -14 13 8 40 -17 34 -32 -5 -12 31 -51 43 -46 3 1 6 -4 6 -10 0 -7 -6 -13 -12 -13 -7 0 -13 -3 -13 -7 0 -5 0 -11 0 -14 0 -4 6 -1 13 5 8 6 16 8 20 5 3 -3 10 3 16 14 8 15 7 23 -4 32 -8 7 -15 9 -15 5 0 -4 -7 -2 -15 5 -9 7 -14 18 -12 24 6 15 -43 66 -58 60 -11 -5 -30 10 -37 31 -3 8 -36 16 -39 8z"/>
 <path d="M525 1340 c-4 -6 -3 -16 3 -22 6 -6 12 -6 17 2 4 6 3 16 -3 22 -6 6 -12 6 -17 -2z"/>
 <path d="M905 1330 c-4 -6 -10 -8 -15 -5 -5 3 -11 1 -14 -4 -4 -5 -2 -12 3 -15 5 -4 12 -2 16 4 4 6 10 8 15 5 5 -3 11 -1 14 4 4 5 2 12 -3 15 -5 4 -12 2 -16 -4z"/>
 <path d="M1267 1322 c-4 -5 9 -23 27 -41 19 -18 36 -29 39 -23 4 5 -9 23 -27 41 -19 18 -36 29 -39 23z"/>
 <path d="M755 1311 c-7 -12 12 -24 25 -16 11 7 4 25 -10 25 -5 0 -11 -4 -15 -9z"/>
 <path d="M815 1310 c-8 -12 20 -24 35 -15 6 3 8 11 5 16 -8 12 -32 12 -40 -1z"/>
 <path d="M519 1296 c-1 -3 -2 -9 -3 -13 -1 -5 -10 -22 -19 -40 -10 -19 -13 -34 -7 -38 5 -3 16 8 25 25 8 16 13 30 9 30 -4 0 -1 6 5 14 8 10 9 16 1 21 -5 3 -11 4 -11 1z"/>
 <path d="M461 1186 c-7 -8 -8 -17 -3 -20 6 -3 15 1 21 8 7 8 8 17 3 20 -6 3 -15 -1 -21 -8z"/>
 <path d="M1430 1180 c-6 -11 -15 -18 -20 -15 -5 3 -11 1 -14 -4 -4 -5 -2 -12 3 -15 5 -4 12 -2 16 4 4 6 10 8 15 5 5 -3 14 3 20 14 6 12 6 22 1 26 -6 3 -15 -4 -21 -15z"/>
 <path d="M136 1132 c-9 -18 -15 -32 -14 -33 42 -11 67 15 44 47 -13 17 -15 16 -30 -14z"/>
 <path d="M185 1121 c-9 -18 -11 -32 -5 -36 5 -3 16 8 25 24 9 18 11 32 5 36 -5 3 -16 -8 -25 -24z"/>
 <path d="M1215 1111 c-3 -6 3 -15 14 -21 12 -6 22 -6 26 -1 3 6 -3 15 -14 21 -12 6 -22 6 -26 1z"/>
 <path d="M325 1090 c-4 -6 -10 -8 -15 -5 -5 3 -11 1 -14 -4 -4 -5 -2 -12 3 -15 5 -4 12 -2 16 4 4 6 10 8 15 5 5 -3 11 -1 14 4 4 5 2 12 -3 15 -5 4 -12 2 -16 -4z"/>
 <path d="M1465 1091 c-2 -5 2 -16 9 -26 13 -18 14 -18 25 3 6 12 10 22 9 23 -23 6 -39 6 -43 0z"/>
 <path d="M184 1067 c-5 -15 -19 -17 -39 -6 -16 8 -35 5 -35 -6 0 -5 9 -11 20 -11 32 -2 33 -3 22 -16 -10 -12 -12 -19 -12 -35 0 -4 -5 -2 -12 5 -13 13 -52 -3 -43 -19 4 -6 13 -6 24 1 12 6 22 5 29 -2 7 -7 13 -9 13 -5 2 12 6 27 9 32 3 5 6 19 9 32 0 4 14 -6 30 -21 16 -15 31 -23 35 -18 3 5 -4 18 -15 28 l-21 19 28 5 c39 7 37 24 -4 28 -21 2 -34 -2 -38 -11z"/>
 <path d="M1355 1071 c-7 -13 17 -24 40 -19 9 1 16 8 16 13 0 14 -48 19 -56 6z"/>
 <path d="M1426 1062 c-18 -21 -10 -38 11 -21 7 6 14 9 14 5 3 -13 7 -26 9 -31 1 -3 3 -9 4 -15 1 -9 8 -12 21 -9 3 1 10 2 15 3 6 0 10 4 10 9 0 4 0 10 0 13 0 4 -6 1 -14 -5 -10 -8 -16 -9 -21 -1 -7 11 -5 12 25 14 11 0 19 5 18 11 -4 13 -26 16 -34 4 -3 -5 -10 -7 -15 -3 -5 3 -7 9 -4 14 3 4 -1 13 -9 19 -10 8 -17 6 -30 -7z"/>
 <path d="M95 1030 c-3 -5 -2 -10 2 -12 13 -7 33 -3 36 6 3 12 -31 17 -38 6z"/>
 <path d="M825 1010 c-6 -9 -4 -11 20 -14 6 -1 20 -7 32 -14 13 -7 24 -8 28 -3 3 6 -4 15 -15 21 -11 6 -20 7 -20 3 0 -4 -5 -2 -12 5 -15 15 -25 15 -33 2z"/>
 <path d="M1371 1006 c-7 -8 -8 -17 -3 -20 6 -3 15 1 21 8 7 8 8 17 3 20 -6 3 -15 -1 -21 -8z"/>
 <path d="M1504 969 c-3 -5 -9 -7 -14 -4 -5 3 -11 1 -14 -4 -4 -5 -2 -12 3 -15 5 -4 12 -2 16 4 4 7 12 7 25 0 19 -10 39 4 26 18 -11 10 -36 11 -42 1z"/>
 <path d="M87 959 c-23 -14 -12 -32 12 -19 12 6 22 5 28 -1 8 -8 13 -7 17 0 4 6 5 12 2 12 -3 1 -9 2 -13 3 -5 1 -13 4 -18 8 -6 3 -18 2 -28 -3z"/>
 <path d="M641 956 c-7 -8 -8 -17 -3 -20 6 -3 15 1 21 8 7 8 8 17 3 20 -6 3 -15 -1 -21 -8z"/>
 <path d="M725 958 c-32 -17 -75 -60 -69 -70 3 -5 20 4 38 19 18 15 41 33 51 39 25 14 5 25 -20 12z"/>
 <path d="M257 953 c-4 -6 0 -18 7 -28 8 -11 16 -14 19 -8 4 6 0 18 -7 28 -8 11 -16 14 -19 8z"/>
 <path d="M1517 933 c-12 -11 -8 -22 12 -33 11 -5 22 -6 25 -1 7 11 -28 43 -37 34z"/>
 <path d="M75 900 c-12 -14 -15 -24 -9 -30 7 -7 17 -4 29 10 12 14 15 24 9 30 -7 7 -17 4 -29 -10z"/>
 <path d="M600 900 c-6 -11 -8 -20 -4 -20 3 0 1 -6 -5 -14 -8 -10 -9 -16 -1 -21 5 -3 11 -4 11 -1 1 3 2 9 3 14 1 4 7 17 14 29 7 13 8 24 3 28 -6 3 -15 -4 -21 -15z"/>
 <path d="M1319 916 c-1 -3 -2 -9 -3 -13 -1 -5 -5 -13 -9 -20 -4 -6 -3 -14 3 -18 5 -3 11 -4 11 -1 1 3 2 9 3 14 1 4 5 12 9 19 4 6 3 14 -3 18 -5 3 -11 4 -11 1z"/>
 <path d="M976 901 c-4 -5 -2 -12 4 -16 6 -4 8 -10 5 -15 -3 -5 -1 -11 4 -14 5 -4 12 -2 15 3 4 5 2 12 -4 16 -6 4 -8 10 -5 15 3 5 1 11 -4 14 -5 4 -12 2 -15 -3z"/>
 <path d="M115 890 c-4 -6 -3 -16 3 -22 6 -6 12 -6 17 2 4 6 3 16 -3 22 -6 6 -12 6 -17 -2z"/>
 <path d="M927 894 c-3 -4 -1 -16 5 -28 7 -11 12 -24 13 -28 0 -5 3 -8 8 -8 6 0 9 5 6 13 0 1 -2 10 -4 21 -4 23 -19 39 -28 30z"/>
 <path d="M1525 848 c-9 -24 -1 -103 10 -103 14 0 19 95 6 108 -7 7 -12 5 -16 -5z"/>
 <path d="M995 827 c-9 -22 -2 -62 10 -60 6 1 11 14 13 29 4 32 -14 56 -23 31z"/>
 <path d="M624 816 c-8 -21 3 -49 16 -41 5 3 10 15 10 25 0 25 -18 36 -26 16z"/>
 <path d="M1295 810 c-4 -6 -3 -16 3 -22 6 -6 12 -6 17 2 4 6 3 16 -3 22 -6 6 -12 6 -17 -2z"/>
 <path d="M949 776 c-1 -3 -2 -9 -3 -13 -1 -5 -7 -18 -14 -30 -7 -13 -8 -24 -3 -28 6 -3 15 4 21 15 6 11 8 20 4 20 -3 0 -1 6 5 14 8 10 9 16 1 21 -5 3 -11 4 -11 1z"/>
 <path d="M585 760 c-4 -6 -3 -16 3 -22 6 -6 12 -6 17 2 4 6 3 16 -3 22 -6 6 -12 6 -17 -2z"/>
 <path d="M637 753 c-4 -6 0 -18 7 -28 8 -11 16 -14 19 -8 4 6 0 18 -7 28 -8 11 -16 14 -19 8z"/>
 <path d="M67 734 c-13 -13 -7 -33 12 -44 11 -5 22 -7 25 -2 6 11 -28 54 -37 46z"/>
 <path d="M1306 731 c-4 -5 -2 -12 4 -16 6 -4 8 -10 5 -15 -3 -5 -1 -11 4 -14 5 -4 12 -2 15 3 4 5 2 12 -4 16 -6 4 -8 10 -5 15 3 5 1 11 -4 14 -5 4 -12 2 -15 -3z"/>
 <path d="M115 720 c-4 -6 -3 -16 3 -22 6 -6 12 -6 17 2 4 6 3 16 -3 22 -6 6 -12 6 -17 -2z"/>
 <path d="M666 702 c-3 -5 3 -17 13 -26 11 -10 22 -13 25 -8 3 5 -3 17 -13 26 -11 10 -22 13 -25 8z"/>
 <path d="M1485 700 c-4 -6 -3 -16 3 -22 6 -6 12 -6 17 2 4 6 3 16 -3 22 -6 6 -12 6 -17 -2z"/>
 <path d="M1526 691 c-21 -23 -6 -36 20 -16 14 10 16 17 8 25 -7 7 -15 5 -28 -9z"/>
 <path d="M260 671 c-6 -12 -6 -22 -1 -26 6 -3 15 3 21 14 6 12 6 22 1 26 -6 3 -15 -3 -21 -14z"/>
 <path d="M936 661 c-15 -16 -23 -31 -18 -35 5 -3 21 8 36 23 15 16 23 31 18 35 -5 3 -21 -8 -36 -23z"/>
 <path d="M857 664 c-38 -20 -24 -38 14 -19 16 9 27 20 24 25 -7 12 -4 13 -38 -6z"/>
 <path d="M74 659 c-8 -13 24 -41 37 -33 15 9 10 23 -10 34 -14 7 -22 7 -27 -1z"/>
 <path d="M716 661 c-4 -5 -2 -12 4 -16 5 -3 10 -3 10 1 0 3 6 1 14 -5 10 -8 16 -9 21 -1 3 5 4 11 1 11 -3 1 -9 2 -13 3 -5 1 -13 5 -20 9 -6 4 -14 3 -17 -2z"/>
 <path d="M1476 641 c-7 -11 -6 -12 13 -15 5 0 13 -4 16 -8 10 -10 47 11 40 23 -4 6 -13 6 -24 -1 -12 -6 -22 -5 -28 1 -8 8 -13 7 -17 0z"/>
 <path d="M86 613 c-3 -3 -1 -12 5 -20 6 -7 8 -13 4 -13 -4 0 -2 -7 5 -15 7 -8 9 -15 5 -15 -4 0 -2 -7 5 -15 7 -8 9 -15 6 -15 -4 0 -2 -9 4 -19 8 -16 21 -19 48 -12 6 2 -19 41 -26 40 -19 -3 -22 3 -12 21 6 11 15 18 20 15 5 -3 11 -1 14 4 4 5 2 12 -3 15 -5 4 -12 2 -16 -4 -4 -7 -13 -7 -26 0 -11 6 -17 15 -14 20 6 10 -10 22 -19 13z"/>
 <path d="M1366 612 c-3 -5 6 -20 20 -33 l26 -24 -36 -5 c-53 -7 -49 -24 7 -28 51 -3 52 -4 37 -32 -6 -12 -7 -21 -1 -25 11 -6 30 24 36 54 4 21 -79 108 -89 93z"/>
 <path d="M200 585 c-13 -14 -20 -25 -15 -25 4 0 1 -8 -8 -18 -23 -25 -16 -29 38 -22 54 6 64 24 16 28 l-33 3 22 24 c12 12 17 25 12 29 -5 3 -20 -6 -32 -19z"/>
 <path d="M815 601 c-7 -12 12 -24 25 -16 11 7 4 25 -10 25 -5 0 -11 -4 -15 -9z"/>
 <path d="M1519 606 c-4 -16 -7 -26 -9 -31 -1 -3 -3 -11 -4 -17 0 -7 -7 -13 -13 -13 -7 0 -13 -4 -13 -10 0 -15 35 -12 36 3 1 6 3 14 4 17 1 3 3 8 4 13 1 4 5 12 9 19 4 6 3 14 -3 18 -5 3 -11 4 -11 1z"/>
 <path d="M1282 528 c-7 -7 -12 -9 -12 -5 0 4 -14 0 -30 -8 -17 -9 -28 -20 -25 -25 4 -6 19 -3 38 7 18 9 35 17 40 18 4 0 7 4 8 8 1 15 -7 17 -19 5z"/>
 <path d="M355 511 c-3 -6 3 -15 14 -21 12 -6 22 -6 26 -1 3 6 -3 15 -14 21 -12 6 -22 6 -26 1z"/>
 <path d="M1450 481 c-6 -13 -5 -24 4 -37 13 -17 15 -16 30 14 9 18 15 32 14 33 -26 7 -40 4 -48 -10z"/>
 <path d="M197 473 c-4 -6 0 -18 7 -28 8 -11 16 -14 19 -8 4 6 0 18 -7 28 -8 11 -16 14 -19 8z"/>
 <path d="M162 453 c-9 -15 -8 -25 2 -38 13 -18 14 -18 24 2 9 15 8 25 -2 38 -13 18 -14 18 -24 -2z"/>
 <path d="M1385 430 c-6 -9 1 -14 17 -11 4 0 12 -8 18 -19 6 -11 15 -18 21 -15 5 4 5 14 -2 26 -6 12 -13 18 -16 15 -4 -3 -12 -1 -19 5 -8 7 -14 7 -19 -1z"/>
 <path d="M245 391 c-3 -6 -10 -9 -15 -6 -5 3 -14 -3 -19 -14 -8 -14 -7 -22 6 -32 9 -8 19 -13 22 -12 3 2 6 -4 6 -12 0 -21 65 -84 80 -79 13 5 30 -12 30 -31 0 -12 44 -12 48 0 1 6 -7 10 -18 10 -11 0 -20 5 -20 10 0 6 -4 15 -8 22 -4 6 -2 15 4 18 7 5 -3 21 -27 46 -26 27 -41 36 -49 29 -9 -7 -16 -5 -25 5 -7 8 -17 12 -22 8 -6 -3 -9 0 -6 8 3 8 10 14 16 14 7 0 12 4 13 8 1 14 -9 19 -16 8z m95 -135 c-14 -14 -75 47 -65 64 5 8 18 2 41 -21 23 -22 31 -36 24 -43z"/>
 <path d="M1090 370 c-6 -11 -8 -20 -4 -20 3 0 1 -6 -5 -14 -8 -10 -9 -16 -1 -21 5 -3 11 -4 11 -1 1 3 2 9 3 14 1 4 7 17 14 29 7 13 8 24 3 28 -6 3 -15 -4 -21 -15z"/>
 <path d="M1402 368 c-7 -7 -12 -8 -12 -4 0 5 -6 3 -14 -3 -10 -9 -16 -9 -21 -1 -5 8 -13 6 -26 -6 -10 -9 -16 -21 -13 -26 3 -5 14 -2 24 7 21 19 39 2 20 -20 -6 -8 -7 -16 -2 -19 12 -7 37 21 37 43 0 9 6 16 13 16 6 0 12 4 13 8 1 15 -7 17 -19 5z"/>
 <path d="M506 351 c-4 -5 -2 -12 4 -16 6 -4 8 -10 5 -15 -3 -5 -1 -11 4 -14 5 -4 12 -2 15 3 4 5 2 12 -4 16 -6 4 -8 10 -5 15 3 5 1 11 -4 14 -5 4 -12 2 -15 -3z"/>
 <path d="M745 301 c-7 -12 12 -24 25 -16 11 7 4 25 -10 25 -5 0 -11 -4 -15 -9z"/>
 <path d="M835 301 c-7 -12 12 -24 25 -16 11 7 4 25 -10 25 -5 0 -11 -4 -15 -9z"/>
 <path d="M702 288 c-7 -7 -12 -9 -12 -5 0 4 -9 3 -20 -3 -11 -6 -18 -15 -15 -21 4 -5 15 -4 28 3 12 7 25 12 29 13 12 0 19 13 10 19 -5 3 -14 0 -20 -6z"/>
 <path d="M1256 281 c-12 -13 -14 -21 -6 -26 8 -5 7 -11 -2 -22 -7 -9 -12 -19 -11 -22 2 -3 -5 -6 -15 -6 -9 0 -17 -8 -17 -18 0 -9 5 -17 10 -16 6 1 9 5 7 10 -1 6 6 9 15 7 10 -2 18 3 18 12 0 8 7 15 16 15 22 0 50 25 43 37 -3 5 -11 4 -19 -2 -22 -19 -39 -1 -20 20 9 10 12 21 7 24 -5 3 -17 -3 -26 -13z"/>
 <path d="M591 226 c-7 -8 -8 -17 -3 -20 6 -3 15 1 21 8 7 8 8 17 3 20 -6 3 -15 -1 -21 -8z"/>
 <path d="M996 232 c-3 -5 8 -21 23 -36 16 -15 31 -23 35 -18 3 5 -8 21 -23 36 -16 15 -31 23 -35 18z"/>
 <path d="M1117 189 c-21 -11 -35 -24 -32 -29 4 -6 23 -1 46 10 22 12 37 25 34 30 -7 12 -2 13 -48 -11z"/>
 <path d="M418 193 c-7 -14 -3 -33 6 -33 12 -1 17 28 6 35 -5 3 -10 2 -12 -2z"/>
 <path d="M541 180 l-24 -18 21 -11 c12 -6 23 -9 23 -6 1 3 2 8 3 13 1 4 5 12 9 19 13 20 -7 22 -32 3z"/>
 <path d="M1130 160 c-19 -10 -36 -23 -36 -29 -3 -21 -4 -22 -24 -11 -11 6 -18 15 -15 20 3 5 1 11 -4 14 -5 4 -12 2 -16 -4 -4 -6 -10 -8 -15 -5 -5 3 -11 1 -14 -4 -4 -5 -2 -12 4 -16 7 -4 7 -12 0 -25 -6 -12 -7 -21 -1 -25 6 -3 15 4 21 15 8 16 15 18 29 11 12 -7 22 -6 29 1 7 7 12 9 12 5 0 -4 18 2 39 13 34 17 46 38 30 54 -2 2 -20 -4 -39 -14z"/>
 <path d="M465 141 c-3 -6 3 -15 14 -21 12 -6 22 -6 26 -1 3 6 -3 15 -14 21 -12 6 -22 6 -26 1z"/>
 <path d="M538 133 c-8 -16 -3 -38 10 -39 6 -1 14 -3 17 -4 3 -1 8 -3 13 -4 4 -1 12 -5 19 -9 6 -4 14 -3 18 3 3 5 4 11 1 11 -16 4 -26 7 -31 9 -3 1 -11 3 -17 4 -7 0 -13 6 -13 13 0 15 -12 27 -17 16z"/>
 <path d="M639 136 c-1 -3 -2 -10 -3 -15 0 -5 -4 -13 -8 -16 -10 -10 11 -47 23 -40 6 4 6 13 -1 24 -6 12 -5 22 1 28 8 8 7 13 0 17 -6 4 -12 5 -12 2z"/>
 <path d="M966 131 c-4 -5 -2 -12 4 -16 7 -4 7 -12 0 -25 -6 -12 -7 -21 -1 -25 6 -3 15 3 21 14 7 13 7 22 0 26 -6 4 -8 10 -5 15 3 5 1 11 -4 14 -5 4 -12 2 -15 -3z"/>
 <path d="M685 121 c-7 -12 12 -24 25 -16 11 7 4 25 -10 25 -5 0 -11 -4 -15 -9z"/>
 <path d="M795 110 c-8 -12 20 -24 35 -15 6 3 8 11 5 16 -8 12 -32 12 -40 -1z"/>
 <path d="M676 92 c-9 -15 21 -49 34 -36 7 7 5 15 -9 28 -10 9 -22 13 -25 8z"/>
 <path d="M920 81 c-5 -11 -6 -22 -1 -25 11 -7 43 28 34 37 -11 12 -22 8 -33 -12z"/>
 <path d="M745 80 c-8 -13 20 -24 41 -16 8 3 12 10 9 16 -8 13 -42 13 -50 0z"/>
 <path d="M825 81 c-7 -13 17 -24 40 -19 9 1 16 8 16 13 0 14 -48 19 -56 6z"/>
 </g>
<g id="layer104" fill="#c7161e" stroke="none">
 <path d="M673 1196 c-24 -8 -66 -28 -93 -46 -275 -176 -254 -573 38 -717 73 -37 80 -38 181 -38 94 0 112 3 164 27 66 31 156 112 191 172 61 104 71 242 26 359 -31 81 -121 177 -208 219 -58 29 -76 33 -161 35 -62 2 -111 -2 -138 -11z m275 -107 c250 -123 227 -496 -38 -595 -156 -58 -343 21 -413 174 -17 36 -22 66 -22 132 0 73 4 93 28 142 82 167 275 231 445 147z"/>
 </g>
<g id="layer105" fill="#fdfdfd" stroke="none">
 <path d="M705 1541 c-188 -30 -356 -127 -475 -274 -168 -208 -212 -476 -120 -730 38 -102 103 -198 194 -284 135 -129 282 -191 472 -200 140 -7 235 12 359 72 251 122 407 356 422 631 13 235 -69 432 -247 597 -81 75 -210 145 -315 172 -73 19 -222 27 -290 16z m281 -51 c300 -76 505 -318 539 -636 8 -78 -10 -208 -42 -298 -78 -219 -265 -391 -493 -452 -87 -24 -262 -24 -350 -1 -161 42 -326 153 -409 276 -91 133 -121 226 -128 386 -5 102 -2 134 16 205 65 259 256 453 514 520 100 26 249 26 353 0z"/>
 <path d="M692 1489 c-186 -31 -378 -164 -481 -333 -49 -82 -47 -90 20 -94 158 -8 297 123 315 296 l7 62 44 -41 c61 -56 123 -81 197 -82 84 -1 156 26 214 78 l49 44 6 -64 c13 -162 133 -282 292 -293 l70 -4 -37 -41 c-55 -59 -82 -121 -86 -199 -6 -92 17 -154 80 -223 l50 -55 -64 0 c-159 0 -292 -130 -306 -297 l-5 -63 -44 41 c-64 59 -124 83 -208 83 -82 0 -156 -30 -217 -87 l-38 -35 0 37 c0 21 -7 62 -16 91 -41 138 -157 229 -292 230 -47 0 -64 -4 -68 -15 -11 -26 82 -159 165 -237 43 -40 105 -86 137 -102 32 -16 71 -36 86 -43 88 -44 295 -56 422 -23 247 63 460 282 511 525 26 126 16 289 -26 390 -7 17 -13 36 -15 43 -6 32 -74 131 -133 194 -166 177 -394 256 -629 217z"/>
 <path d="M163 1048 c-47 -56 -64 -303 -30 -428 10 -36 22 -69 27 -74 14 -14 82 55 116 118 26 45 29 61 29 136 0 73 -4 92 -27 135 -35 67 -101 131 -115 113z"/>
 <path d="M726 1006 c-77 -29 -145 -121 -146 -196 0 -133 125 -246 248 -224 54 10 83 27 129 77 46 50 58 90 51 167 -13 129 -161 221 -282 176z m155 -79 c90 -60 90 -194 0 -254 -41 -28 -107 -30 -157 -7 -98 47 -105 207 -11 264 46 28 124 27 168 -3z"/>
 </g>
<g id="layer106" fill="#060101" stroke="none">
 <path d="M590 1577 c-149 -46 -248 -106 -353 -212 -181 -182 -250 -402 -219 -696 27 -257 225 -513 475 -616 176 -73 485 -70 653 7 191 86 360 271 432 472 25 69 26 83 26 263 1 213 -4 238 -76 376 -94 184 -256 323 -459 396 -66 23 -91 26 -239 30 -150 3 -172 1 -240 -20z m10 -82 c-46 -18 -64 -17 -25 0 17 8 37 14 45 14 8 0 -1 -7 -20 -14z m438 -49 c109 -41 189 -91 262 -166 79 -81 123 -152 163 -267 26 -77 30 -102 31 -203 1 -136 -15 -206 -75 -330 -53 -109 -168 -226 -275 -282 l-71 -38 3 72 c7 170 133 296 300 298 28 0 54 3 57 7 4 3 -12 26 -34 50 -61 66 -83 123 -83 213 0 90 22 147 84 214 47 51 47 52 -43 59 -156 14 -264 122 -282 282 -4 33 -10 64 -12 68 -3 4 -23 -9 -45 -29 -121 -109 -300 -110 -422 -2 -26 22 -45 42 -43 44 2 2 37 13 78 24 61 16 98 19 204 17 112 -3 140 -8 203 -31z m-548 10 c0 -2 -25 -18 -57 -36 -67 -38 -198 -167 -237 -233 -34 -57 -47 -64 -15 -7 51 91 145 185 245 245 59 36 64 38 64 31z m781 -82 c57 -44 122 -115 154 -169 l17 -30 -23 30 c-49 63 -144 156 -195 191 -30 21 -54 39 -54 41 0 8 47 -22 101 -63z m-741 -11 c0 -43 -7 -74 -28 -118 -49 -103 -135 -160 -258 -172 l-66 -6 25 49 c39 76 111 167 169 212 53 41 137 92 151 92 4 0 7 -26 7 -57z m443 -211 c127 -63 204 -180 214 -328 12 -163 -76 -312 -225 -382 -50 -24 -69 -27 -163 -27 -101 0 -108 1 -181 38 -49 24 -90 53 -113 79 -154 181 -124 461 64 591 77 53 133 68 242 64 84 -2 103 -6 162 -35z m497 -23 c12 -23 20 -43 18 -45 -3 -2 -14 17 -26 41 -27 56 -20 60 8 4z m-1345 -89 c-13 -36 -24 -60 -24 -53 -1 16 40 126 44 121 2 -2 -7 -33 -20 -68z m1394 -40 c0 -8 -7 1 -14 20 -18 46 -17 64 0 25 8 -16 14 -37 14 -45z m-1256 -69 c41 -84 43 -169 5 -251 -27 -60 -85 -133 -98 -125 -5 3 -16 39 -26 81 -20 94 -15 281 11 363 l16 53 30 -28 c17 -16 44 -58 62 -93z m1274 -38 c-3 -10 -5 -2 -5 17 0 19 2 27 5 18 2 -10 2 -26 0 -35z m10 -125 c-2 -18 -4 -6 -4 27 0 33 2 48 4 33 2 -15 2 -42 0 -60z m-1454 -88 c4 -36 3 -46 -3 -30 -8 25 -13 97 -6 89 2 -2 6 -29 9 -59z m1393 -177 c-8 -15 -15 -25 -16 -21 0 12 23 58 27 54 3 -2 -2 -17 -11 -33z m-1118 -7 c102 -52 166 -160 160 -270 l-3 -56 -64 37 c-35 21 -88 60 -117 86 -54 49 -134 159 -154 212 l-11 28 70 -6 c45 -4 87 -15 119 -31z m-64 -212 c69 -68 110 -100 168 -129 42 -22 75 -41 73 -43 -6 -6 -110 51 -171 94 -34 24 -82 67 -108 95 -46 51 -126 175 -126 195 0 5 17 -20 37 -56 22 -39 72 -101 127 -156z m1136 128 c-11 -20 -37 -55 -56 -77 -42 -47 -34 -27 11 30 18 22 38 50 44 63 6 12 14 22 17 22 3 0 -4 -17 -16 -38z m-514 -146 c50 -23 134 -90 134 -106 0 -4 -33 -16 -72 -26 -106 -27 -269 -25 -367 5 l-74 22 34 36 c34 34 91 69 139 84 56 17 153 10 206 -15z m349 -41 c-41 -35 -115 -81 -115 -71 0 3 13 12 28 20 16 8 48 31 71 50 24 20 46 36 49 36 4 -1 -11 -16 -33 -35z m-295 -145 c-14 -4 -34 -8 -45 -8 -16 0 -15 2 5 8 14 4 34 8 45 8 16 0 15 -2 -5 -8z m-143 -17 c-20 -2 -52 -2 -70 0 -17 2 0 4 38 4 39 0 53 -2 32 -4z"/>
 <path d="M693 1130 c-80 -26 -170 -107 -210 -188 -24 -49 -28 -69 -28 -142 0 -104 21 -156 95 -234 124 -131 313 -148 454 -40 88 67 137 165 138 274 0 231 -231 401 -449 330z m195 -149 c119 -61 149 -215 61 -316 -87 -99 -270 -80 -329 35 -27 53 -27 147 0 200 20 38 57 72 101 89 42 17 127 12 167 -8z"/>
 <path d="M744 959 c-18 -5 -48 -27 -67 -48 -63 -69 -62 -158 2 -222 46 -46 109 -66 161 -50 44 13 104 74 119 123 23 69 -20 156 -93 189 -45 20 -74 22 -122 8z"/>
 </g>

</svg>