<!DOCTYPE svg PUBLIC "-//W3C//DTD SVG 20010904//EN" "http://www.w3.org/TR/2001/REC-SVG-20010904/DTD/svg10.dtd">
<svg version="1.0" xmlns="http://www.w3.org/2000/svg" width="162px" height="162px" viewBox="0 0 1620 1620" preserveAspectRatio="xMidYMid meet">
<g id="layer101" fill="#5398a1" stroke="none">
 <path d="M706 1542 c-9 -15 21 -49 34 -36 7 7 5 15 -9 28 -10 9 -22 13 -25 8z"/>
 <path d="M876 1531 c-15 -17 -13 -31 5 -31 13 0 30 38 20 44 -4 3 -16 -3 -25 -13z"/>
 <path d="M647 1533 c-4 -6 0 -18 7 -28 8 -11 16 -14 19 -8 4 6 0 18 -7 28 -8 11 -16 14 -19 8z"/>
 <path d="M1120 1461 c-8 -16 -7 -22 9 -31 21 -11 40 3 21 15 -6 4 -8 10 -5 15 3 5 1 11 -4 15 -6 3 -15 -3 -21 -14z"/>
 <path d="M1220 1401 c-6 -12 -6 -22 -1 -26 6 -3 15 3 21 14 6 12 6 22 1 26 -6 3 -15 -3 -21 -14z"/>
 <path d="M195 1241 c-3 -6 3 -15 14 -21 12 -6 22 -6 26 -1 3 6 -3 15 -14 21 -12 6 -22 6 -26 1z"/>
 <path d="M1395 1226 c-11 -8 -14 -16 -8 -19 6 -4 18 0 28 7 11 8 14 16 8 19 -6 4 -18 0 -28 -7z"/>
 <path d="M1415 1196 c-11 -8 -14 -16 -8 -19 6 -4 18 0 28 7 11 8 14 16 8 19 -6 4 -18 0 -28 -7z"/>
 <path d="M656 1128 c-10 -14 -12 -26 -6 -33 5 -7 7 -14 4 -18 -3 -3 3 -10 14 -16 24 -13 36 -3 19 17 -10 13 -9 15 5 9 12 -4 21 0 28 13 13 24 -5 37 -18 14 -6 -11 -14 -14 -22 -9 -10 6 -8 10 9 17 12 4 19 12 16 18 -10 17 -33 11 -49 -12z"/>
 <path d="M725 1140 c-8 -13 20 -24 41 -16 20 8 9 26 -16 26 -10 0 -22 -5 -25 -10z"/>
 <path d="M835 1140 c-8 -13 20 -24 41 -16 20 8 9 26 -16 26 -10 0 -22 -5 -25 -10z"/>
 <path d="M897 1132 c-11 -12 -13 -22 -6 -35 6 -9 15 -15 20 -11 6 3 17 -2 24 -12 8 -11 15 -16 16 -11 1 4 2 10 3 15 1 4 4 12 8 18 9 13 -18 54 -36 54 -7 0 -20 -8 -29 -18z m37 -23 c-8 -13 -21 -11 -27 5 -4 10 0 12 14 9 10 -3 16 -9 13 -14z"/>
 <path d="M734 1089 c-17 -29 -4 -96 17 -84 5 4 5 13 -1 26 -7 13 -7 25 0 38 11 21 -3 40 -16 20z"/>
 <path d="M857 1094 c-3 -4 -2 -15 4 -25 6 -13 6 -25 -1 -38 -6 -13 -6 -22 -1 -26 13 -7 28 24 25 53 -2 26 -17 46 -27 36z"/>
 <path d="M615 1060 c-4 -6 -3 -16 3 -22 6 -6 12 -6 17 2 4 6 3 16 -3 22 -6 6 -12 6 -17 -2z"/>
 <path d="M975 1060 c-4 -6 -3 -16 3 -22 6 -6 12 -6 17 2 4 6 3 16 -3 22 -6 6 -12 6 -17 -2z"/>
 <path d="M659 1038 c-1 -5 -2 -11 -3 -15 -1 -5 -4 -13 -8 -19 -9 -14 19 -54 37 -54 24 0 27 20 4 28 -17 7 -19 11 -9 17 8 5 16 2 22 -9 13 -24 31 -9 18 15 -6 11 -16 17 -21 13 -6 -3 -17 2 -24 12 -8 11 -15 16 -16 12z"/>
 <path d="M934 1026 c-4 -9 -13 -15 -20 -12 -16 6 -39 -30 -25 -39 6 -3 14 2 19 11 6 11 14 14 22 9 10 -6 8 -10 -9 -17 -12 -4 -19 -12 -16 -18 10 -17 33 -11 49 12 12 17 13 25 3 36 -7 8 -10 17 -9 19 2 3 1 7 -2 10 -3 3 -8 -2 -12 -11z"/>
 <path d="M725 970 c-8 -13 20 -24 41 -16 20 8 9 26 -16 26 -10 0 -22 -5 -25 -10z"/>
 <path d="M835 970 c-8 -13 20 -24 41 -16 20 8 9 26 -16 26 -10 0 -22 -5 -25 -10z"/>
 <path d="M1515 946 c-11 -8 -14 -16 -8 -19 6 -4 18 0 28 7 11 8 14 16 8 19 -6 4 -18 0 -28 -7z"/>
 <path d="M1525 880 c-12 -14 -15 -24 -9 -30 7 -7 17 -4 29 10 12 14 15 24 9 30 -7 7 -17 4 -29 -10z"/>
 <path d="M55 860 c-4 -7 -2 -17 4 -23 14 -14 14 -60 0 -74 -7 -7 -9 -20 -5 -30 7 -16 9 -16 26 7 26 33 26 92 1 114 -14 12 -21 14 -26 6z"/>
 <path d="M1517 754 c-13 -13 -7 -33 12 -44 11 -5 22 -7 25 -2 6 11 -28 54 -37 46z"/>
 <path d="M75 676 c-11 -8 -14 -16 -8 -19 6 -4 18 0 28 7 11 8 14 16 8 19 -6 4 -18 0 -28 -7z"/>
 <path d="M85 626 c-11 -8 -14 -16 -8 -19 6 -4 18 0 28 7 11 8 14 16 8 19 -6 4 -18 0 -28 -7z"/>
 <path d="M1495 621 c-3 -6 3 -15 14 -21 12 -6 22 -6 26 -1 3 6 -3 15 -14 21 -12 6 -22 6 -26 1z"/>
 <path d="M919 616 c-1 -3 -2 -9 -3 -13 -1 -5 -5 -13 -9 -20 -4 -6 -3 -14 3 -18 5 -3 11 -4 11 -1 1 3 2 9 3 14 1 4 5 12 9 19 4 6 3 14 -3 18 -5 3 -11 4 -11 1z"/>
 <path d="M636 591 c-4 -5 -2 -12 4 -16 6 -4 8 -10 5 -15 -3 -5 -1 -11 4 -14 5 -4 12 -2 15 3 4 5 2 12 -4 16 -6 4 -8 10 -5 15 3 5 1 11 -4 14 -5 4 -12 2 -15 -3z"/>
 <path d="M1465 531 c-3 -6 3 -15 14 -21 12 -6 22 -6 26 -1 3 6 -3 15 -14 21 -12 6 -22 6 -26 1z"/>
 <path d="M689 526 c-1 -3 -2 -9 -3 -13 -1 -5 -5 -13 -9 -20 -4 -6 -3 -14 3 -18 5 -3 11 -4 11 -1 1 3 2 9 3 14 1 4 5 12 9 19 4 6 3 14 -3 18 -5 3 -11 4 -11 1z"/>
 <path d="M906 521 c-4 -5 -2 -12 4 -16 6 -4 8 -10 5 -15 -3 -5 -1 -11 4 -14 5 -4 12 -2 15 3 4 5 2 12 -4 16 -6 4 -8 10 -5 15 3 5 1 11 -4 14 -5 4 -12 2 -15 -3z"/>
 <path d="M149 498 c-1 -5 -2 -11 -3 -15 -1 -5 -5 -13 -9 -20 -11 -17 7 -24 27 -10 15 11 15 14 2 32 -9 11 -16 17 -17 13z"/>
 <path d="M1415 431 c-3 -6 3 -15 14 -21 12 -6 22 -6 26 -1 3 6 -3 15 -14 21 -12 6 -22 6 -26 1z"/>
 <path d="M1375 371 c-3 -6 3 -15 14 -21 12 -6 22 -6 26 -1 3 6 -3 15 -14 21 -12 6 -22 6 -26 1z"/>
 <path d="M215 356 c-11 -8 -14 -16 -8 -19 6 -4 18 0 28 7 11 8 14 16 8 19 -6 4 -18 0 -28 -7z"/>
 <path d="M350 221 c-6 -12 -6 -22 -1 -26 6 -3 15 3 21 14 6 12 6 22 1 26 -6 3 -15 -3 -21 -14z"/>
 <path d="M1197 203 c-4 -6 0 -18 7 -28 8 -11 16 -14 19 -8 4 6 0 18 -7 28 -8 11 -16 14 -19 8z"/>
 <path d="M460 151 c-11 -21 3 -40 15 -21 4 6 10 8 15 5 5 -3 11 -1 15 4 3 6 -3 15 -14 21 -16 8 -22 7 -31 -9z"/>
 <path d="M1087 143 c-4 -6 0 -18 7 -28 8 -11 16 -14 19 -8 4 6 0 18 -7 28 -8 11 -16 14 -19 8z"/>
 <path d="M620 91 c-6 -12 -6 -22 -1 -26 6 -3 15 3 21 14 6 12 6 22 1 26 -6 3 -15 -3 -21 -14z"/>
 <path d="M670 81 c-6 -12 -6 -22 -1 -26 6 -3 15 3 21 14 6 12 6 22 1 26 -6 3 -15 -3 -21 -14z"/>
 <path d="M750 70 c-23 -17 -23 -19 -7 -26 10 -4 23 -2 30 5 14 14 50 14 64 0 7 -7 19 -9 29 -5 16 6 16 8 -1 26 -23 26 -82 26 -115 0z"/>
 </g>
<g id="layer102" fill="#acadac" stroke="none">
 <path d="M877 1543 c-4 -6 0 -18 7 -28 8 -11 16 -14 19 -8 4 6 0 18 -7 28 -8 11 -16 14 -19 8z"/>
 <path d="M948 1533 c-7 -14 -3 -33 6 -33 12 -1 17 28 6 35 -5 3 -10 2 -12 -2z"/>
 <path d="M608 1523 c-7 -14 -3 -33 6 -33 12 -1 17 28 6 35 -5 3 -10 2 -12 -2z"/>
 <path d="M988 1523 c-7 -14 -3 -33 6 -33 12 -1 17 28 6 35 -5 3 -10 2 -12 -2z"/>
 <path d="M578 1513 c-7 -14 -3 -33 6 -33 12 -1 17 28 6 35 -5 3 -10 2 -12 -2z"/>
 <path d="M548 1503 c-7 -14 -3 -33 6 -33 12 -1 17 28 6 35 -5 3 -10 2 -12 -2z"/>
 <path d="M1079 1498 c-7 -28 -4 -40 11 -48 13 -7 21 -7 25 0 3 6 -1 13 -9 16 -9 3 -14 10 -11 14 3 5 1 11 -5 15 -5 3 -10 5 -11 3z"/>
 <path d="M477 1454 c-38 -20 -24 -38 14 -19 16 9 27 20 24 25 -7 12 -4 13 -38 -6z"/>
 <path d="M385 1421 c-3 -6 3 -15 14 -21 12 -6 22 -6 26 -1 3 6 -3 15 -14 21 -12 6 -22 6 -26 1z"/>
 <path d="M355 1401 c-3 -6 3 -15 14 -21 12 -6 22 -6 26 -1 3 6 -3 15 -14 21 -12 6 -22 6 -26 1z"/>
 <path d="M1265 1366 c-11 -8 -14 -16 -8 -19 6 -4 18 0 28 7 11 8 14 16 8 19 -6 4 -18 0 -28 -7z"/>
 <path d="M296 1351 c-11 -12 -13 -21 -7 -25 5 -4 13 -1 16 5 4 5 13 8 21 5 21 -8 27 12 6 23 -15 8 -23 6 -36 -8z"/>
 <path d="M246 1302 c-13 -16 -14 -21 -2 -37 11 -15 15 -16 22 -4 10 17 13 49 4 54 -4 3 -15 -4 -24 -13z"/>
 <path d="M1360 1271 c-6 -12 -6 -22 -1 -26 6 -3 15 3 21 14 6 12 6 22 1 26 -6 3 -15 -3 -21 -14z"/>
 <path d="M135 1141 c-9 -18 -11 -32 -5 -36 5 -3 16 8 25 24 9 18 11 32 5 36 -5 3 -16 -8 -25 -24z"/>
 <path d="M1427 1163 c-4 -6 0 -18 7 -28 8 -11 16 -14 19 -8 4 6 0 18 -7 28 -8 11 -16 14 -19 8z"/>
 <path d="M715 1140 c-4 -6 -10 -8 -15 -5 -5 3 -11 1 -14 -4 -4 -5 -2 -12 3 -15 5 -4 12 -2 16 4 4 6 10 8 15 5 5 -3 11 -1 14 4 4 5 2 12 -3 15 -5 4 -12 2 -16 -4z"/>
 <path d="M760 1131 c-6 -12 -6 -22 -1 -26 6 -3 15 3 21 14 6 12 6 22 1 26 -6 3 -15 -3 -21 -14z"/>
 <path d="M827 1143 c-4 -6 0 -18 7 -28 8 -11 16 -14 19 -8 4 6 0 18 -7 28 -8 11 -16 14 -19 8z"/>
 <path d="M876 1141 c-4 -5 -2 -12 4 -16 5 -3 10 -3 10 1 0 3 6 1 14 -5 10 -8 16 -9 21 -1 3 5 4 11 1 11 -3 1 -9 2 -13 3 -5 1 -13 5 -20 9 -6 4 -14 3 -17 -2z"/>
 <path d="M955 1070 c-17 -19 -17 -21 0 -40 17 -19 41 -18 29 1 -3 5 -9 7 -13 5 -3 -3 -7 4 -7 14 0 10 4 17 7 14 4 -2 10 0 13 5 12 19 -12 20 -29 1z"/>
 <path d="M1489 1086 c-1 -3 -2 -9 -3 -13 -1 -5 -4 -13 -8 -19 -4 -6 -4 -14 0 -18 4 -4 8 -12 8 -17 1 -5 3 -11 4 -14 1 -3 3 -11 4 -17 1 -15 36 -18 36 -3 0 6 -6 10 -12 10 -7 0 -14 6 -14 13 -1 6 -3 14 -4 17 -6 13 -5 31 2 42 5 6 5 14 -2 18 -5 3 -11 4 -11 1z"/>
 <path d="M919 1076 c-5 -23 -2 -46 5 -48 12 -4 15 41 4 48 -4 3 -8 3 -9 0z"/>
 <path d="M765 1060 c-4 -6 -3 -16 3 -22 6 -6 12 -6 17 2 4 6 3 16 -3 22 -6 6 -12 6 -17 -2z"/>
 <path d="M825 1060 c-4 -6 -3 -16 3 -22 6 -6 12 -6 17 2 4 6 3 16 -3 22 -6 6 -12 6 -17 -2z"/>
 <path d="M636 1041 c-10 -11 -13 -22 -8 -25 5 -3 15 1 22 9 9 11 16 12 25 5 9 -8 15 -8 20 0 3 5 4 11 1 11 -3 1 -9 2 -13 3 -5 1 -13 5 -19 8 -6 4 -19 -1 -28 -11z"/>
 <path d="M757 993 c-4 -6 0 -18 7 -28 8 -11 16 -14 19 -8 4 6 0 18 -7 28 -8 11 -16 14 -19 8z"/>
 <path d="M830 981 c-6 -12 -6 -22 -1 -26 6 -3 15 3 21 14 6 12 6 22 1 26 -6 3 -15 -3 -21 -14z"/>
 <path d="M75 980 c-3 -5 -2 -10 2 -12 13 -7 33 -3 36 6 3 12 -31 17 -38 6z"/>
 <path d="M686 981 c-4 -5 -2 -12 4 -16 5 -3 10 -3 10 1 0 3 6 1 14 -5 10 -8 16 -9 21 -1 3 5 4 11 1 11 -3 1 -9 2 -13 3 -5 1 -13 5 -20 9 -6 4 -14 3 -17 -2z"/>
 <path d="M905 980 c-4 -6 -10 -8 -15 -5 -5 3 -11 1 -14 -4 -4 -5 -2 -12 3 -15 5 -4 12 -2 16 4 4 6 10 8 15 5 5 -3 11 -1 14 4 4 5 2 12 -3 15 -5 4 -12 2 -16 -4z"/>
 <path d="M65 930 c-3 -5 -2 -10 2 -12 13 -7 33 -3 36 6 3 12 -31 17 -38 6z"/>
 <path d="M65 846 c-11 -8 -14 -16 -8 -19 6 -4 18 0 28 7 11 8 14 16 8 19 -6 4 -18 0 -28 -7z"/>
 <path d="M55 771 c-3 -6 3 -15 14 -21 12 -6 22 -6 26 -1 3 6 -3 15 -14 21 -12 6 -22 6 -26 1z"/>
 <path d="M1505 660 c-3 -5 -2 -10 2 -12 13 -7 33 -3 36 6 3 12 -31 17 -38 6z"/>
 <path d="M651 622 c-8 -15 -6 -23 8 -36 13 -12 21 -14 26 -6 3 5 10 8 15 5 5 -3 14 3 20 14 13 25 -5 39 -18 14 -5 -9 -17 -18 -26 -19 -12 -2 -14 2 -6 16 6 12 7 21 1 25 -6 3 -15 -3 -20 -13z"/>
 <path d="M938 634 c-4 -4 -3 -15 2 -24 13 -24 -18 -21 -32 3 -13 25 -31 10 -17 -14 6 -12 13 -18 16 -15 4 3 12 1 18 -4 8 -7 17 -4 28 8 14 15 15 21 4 36 -7 9 -16 14 -19 10z"/>
 <path d="M85 590 c-3 -5 -2 -10 2 -12 13 -7 33 -3 36 6 3 12 -31 17 -38 6z"/>
 <path d="M774 569 c-13 -15 -16 -24 -8 -36 20 -32 41 -38 63 -19 26 23 26 38 3 59 -24 22 -35 21 -58 -4z m51 -24 c0 -13 -7 -20 -20 -20 -13 0 -20 7 -20 20 0 13 7 20 20 20 13 0 20 -7 20 -20z"/>
 <path d="M1485 580 c-3 -5 -2 -10 2 -12 13 -7 33 -3 36 6 3 12 -31 17 -38 6z"/>
 <path d="M95 560 c-3 -5 -2 -10 2 -12 13 -7 33 -3 36 6 3 12 -31 17 -38 6z"/>
 <path d="M618 563 c-7 -14 -3 -33 6 -33 12 -1 17 28 6 35 -5 3 -10 2 -12 -2z"/>
 <path d="M978 563 c-7 -14 -3 -33 6 -33 12 -1 17 28 6 35 -5 3 -10 2 -12 -2z"/>
 <path d="M1475 550 c-3 -5 -2 -10 2 -12 13 -7 33 -3 36 6 3 12 -31 17 -38 6z"/>
 <path d="M656 502 c-21 -24 -8 -37 15 -16 16 14 18 14 29 -5 6 -12 15 -19 21 -16 5 4 5 14 -2 26 -6 12 -13 18 -16 15 -4 -3 -12 -1 -18 4 -8 7 -17 4 -29 -8z"/>
 <path d="M925 510 c-3 -5 -10 -8 -15 -5 -5 3 -11 1 -14 -4 -4 -5 -2 -12 3 -15 5 -4 13 -1 16 4 5 8 13 6 25 -5 10 -9 21 -12 24 -7 3 5 -3 17 -13 26 -13 12 -21 14 -26 6z"/>
 <path d="M190 391 c-6 -12 -6 -22 -1 -26 6 -3 15 3 21 14 6 12 6 22 1 26 -6 3 -15 -3 -21 -14z"/>
 <path d="M1341 326 c-6 -7 -8 -16 -4 -19 9 -10 -19 -39 -33 -33 -7 3 -18 -1 -24 -9 -9 -11 -7 -16 8 -24 16 -8 24 -5 47 19 28 29 40 66 24 75 -3 3 -12 -1 -18 -9z"/>
 <path d="M276 302 c-3 -5 3 -17 13 -26 11 -10 22 -13 25 -8 3 5 -3 17 -13 26 -11 10 -22 13 -25 8z"/>
 <path d="M1225 221 c-3 -6 3 -15 14 -21 12 -6 22 -6 26 -1 3 6 -3 15 -14 21 -12 6 -22 6 -26 1z"/>
 <path d="M385 196 c-11 -8 -14 -16 -8 -19 6 -4 18 0 28 7 11 8 14 16 8 19 -6 4 -18 0 -28 -7z"/>
 <path d="M1125 136 c-11 -8 -14 -16 -8 -19 6 -4 18 0 28 7 11 8 14 16 8 19 -6 4 -18 0 -28 -7z"/>
 <path d="M1068 133 c-7 -14 -3 -33 6 -33 12 -1 17 28 6 35 -5 3 -10 2 -12 -2z"/>
 <path d="M558 123 c-7 -14 -3 -33 6 -33 12 -1 17 28 6 35 -5 3 -10 2 -12 -2z"/>
 <path d="M1036 123 c-4 -5 -12 -9 -17 -9 -5 -1 -11 -3 -14 -4 -3 -1 -11 -3 -17 -4 -15 -1 -18 -36 -3 -36 6 0 10 6 10 13 0 6 6 13 13 13 6 1 14 3 17 4 3 1 10 3 15 4 10 1 15 14 8 22 -3 2 -8 1 -12 -3z"/>
 <path d="M588 113 c-7 -14 -3 -33 6 -33 12 -1 17 28 6 35 -5 3 -10 2 -12 -2z"/>
 <path d="M928 93 c-7 -14 -3 -33 6 -33 12 -1 17 28 6 35 -5 3 -10 2 -12 -2z"/>
 <path d="M757 83 c-4 -6 0 -18 7 -28 8 -11 16 -14 19 -8 4 6 0 18 -7 28 -8 11 -16 14 -19 8z"/>
 </g>
<g id="layer103" fill="#53635b" stroke="none">
 <path d="M685 1541 c-7 -12 12 -24 25 -16 11 7 4 25 -10 25 -5 0 -11 -4 -15 -9z"/>
 <path d="M895 1541 c-7 -12 12 -24 25 -16 11 7 4 25 -10 25 -5 0 -11 -4 -15 -9z"/>
 <path d="M595 1521 c-6 -11 1 -15 18 -12 5 1 6 -3 3 -8 -4 -5 -2 -12 3 -15 19 -12 20 12 2 28 -13 11 -21 14 -26 7z"/>
 <path d="M735 1520 c-3 -5 0 -13 8 -16 23 -8 127 0 130 11 3 14 -129 19 -138 5z"/>
 <path d="M986 1511 c-11 -13 -14 -21 -7 -26 11 -6 15 1 12 18 -1 5 3 6 8 3 5 -4 12 -2 15 3 12 19 -12 20 -28 2z"/>
 <path d="M566 1513 c-4 -5 -13 -8 -19 -8 -7 -1 -11 -6 -10 -13 2 -6 -6 -16 -17 -22 -11 -6 -18 -15 -15 -21 4 -5 14 -5 26 2 12 6 18 13 15 16 -3 4 -1 12 6 20 9 11 14 11 28 -2 10 -9 21 -12 24 -7 7 12 -28 44 -38 35z"/>
 <path d="M925 1511 c-7 -12 12 -24 25 -16 11 7 4 25 -10 25 -5 0 -11 -4 -15 -9z"/>
 <path d="M1076 1481 c-11 -13 -14 -21 -7 -26 11 -6 15 1 12 18 -1 4 8 3 18 -3 12 -6 22 -6 26 -1 3 6 -3 15 -13 20 -15 8 -23 6 -36 -8z"/>
 <path d="M468 1474 c-16 -8 -25 -20 -22 -28 3 -7 -2 -16 -11 -20 -9 -3 -13 -10 -10 -16 10 -16 45 7 39 25 -4 8 -2 15 3 15 5 0 17 6 28 13 26 20 5 28 -27 11z"/>
 <path d="M1145 1460 c-3 -6 1 -13 10 -16 9 -4 14 -13 11 -20 -6 -17 30 -39 39 -24 3 6 -1 13 -10 16 -9 4 -14 13 -11 20 6 17 -30 39 -39 24z"/>
 <path d="M399 1436 c-5 -23 -2 -46 5 -48 12 -4 15 41 4 48 -4 3 -8 3 -9 0z"/>
 <path d="M369 1416 c-5 -23 -2 -46 5 -48 12 -4 15 41 4 48 -4 3 -8 3 -9 0z"/>
 <path d="M321 1376 c-6 -7 -8 -16 -4 -20 4 -3 -8 -21 -26 -40 -18 -19 -29 -36 -23 -39 11 -8 75 57 66 66 -4 4 -1 13 5 21 7 8 8 17 3 20 -6 3 -15 0 -21 -8z"/>
 <path d="M1266 1352 c-3 -6 1 -15 8 -21 8 -7 17 -8 20 -3 3 6 -1 15 -8 21 -8 7 -17 8 -20 3z"/>
 <path d="M1336 1282 c-7 -11 18 -35 27 -26 3 3 11 3 17 -1 8 -5 8 -10 0 -20 -7 -8 -7 -15 -1 -19 5 -4 12 -2 16 4 3 5 3 10 -1 10 -3 0 -1 6 5 14 8 10 8 16 -2 25 -8 6 -17 8 -20 4 -4 -3 -13 0 -21 6 -8 7 -17 8 -20 3z"/>
 <path d="M159 1189 c-6 -11 -6 -20 1 -24 6 -4 2 -21 -10 -46 -12 -22 -25 -37 -30 -34 -5 3 -11 1 -14 -4 -4 -5 -2 -12 3 -15 5 -4 12 -2 16 4 4 6 10 8 15 5 5 -3 18 12 30 34 11 23 16 42 10 46 -13 8 0 36 15 33 8 -2 13 1 12 7 -3 16 -38 12 -48 -6z"/>
 <path d="M1415 1171 c-9 -8 6 -20 18 -15 8 3 20 -10 30 -31 9 -20 22 -33 27 -30 17 11 -26 81 -50 81 -11 0 -23 -2 -25 -5z"/>
 <path d="M1466 1071 c-4 -5 -2 -12 4 -16 5 -3 10 -3 10 1 0 3 7 1 15 -6 14 -12 14 -15 0 -30 -11 -12 -13 -20 -6 -25 10 -6 15 1 12 18 0 4 2 6 7 5 7 -3 13 7 11 17 -1 3 -2 11 -3 18 0 6 -5 12 -11 12 -5 0 -15 4 -22 8 -6 4 -14 3 -17 -2z"/>
 <path d="M89 1026 c-1 -3 -2 -9 -3 -13 -1 -5 -5 -14 -9 -20 -8 -12 -2 -17 16 -14 5 1 6 -3 3 -8 -4 -5 -2 -12 3 -15 17 -11 22 11 6 24 -11 9 -12 16 -5 25 8 9 8 15 0 20 -5 3 -11 4 -11 1z"/>
 <path d="M1506 991 c-11 -13 -14 -21 -7 -26 11 -6 15 1 12 18 -1 5 3 6 8 3 5 -4 12 -2 15 3 12 19 -12 20 -28 2z"/>
 <path d="M65 950 c-4 -6 -3 -16 3 -22 6 -6 12 -6 17 2 4 6 3 16 -3 22 -6 6 -12 6 -17 -2z"/>
 <path d="M85 920 c-4 -6 -3 -16 3 -22 6 -6 12 -6 17 2 4 6 3 16 -3 22 -6 6 -12 6 -17 -2z"/>
 <path d="M1535 910 c-4 -6 -3 -16 3 -22 6 -6 12 -6 17 2 4 6 3 16 -3 22 -6 6 -12 6 -17 -2z"/>
 <path d="M54 886 c-4 -10 -2 -22 4 -28 8 -8 13 -7 18 6 4 10 2 22 -4 28 -8 8 -13 7 -18 -6z"/>
 <path d="M1515 848 c-9 -24 -1 -103 10 -103 14 0 19 95 6 108 -7 7 -12 5 -16 -5z"/>
 <path d="M55 730 c-4 -6 -3 -16 3 -22 6 -6 12 -6 17 2 4 6 3 16 -3 22 -6 6 -12 6 -17 -2z"/>
 <path d="M1535 710 c-4 -6 -3 -16 3 -22 6 -6 12 -6 17 2 4 6 3 16 -3 22 -6 6 -12 6 -17 -2z"/>
 <path d="M85 700 c-4 -6 -3 -16 3 -22 6 -6 12 -6 17 2 4 6 3 16 -3 22 -6 6 -12 6 -17 -2z"/>
 <path d="M1505 680 c-4 -6 -3 -16 3 -22 6 -6 12 -6 17 2 4 6 3 16 -3 22 -6 6 -12 6 -17 -2z"/>
 <path d="M1525 650 c-4 -6 -3 -16 3 -22 6 -6 12 -6 17 2 4 6 3 16 -3 22 -6 6 -12 6 -17 -2z"/>
 <path d="M684 628 c-6 -9 -4 -10 26 -11 11 -1 19 3 18 8 -4 12 -37 14 -44 3z"/>
 <path d="M874 628 c-6 -9 -4 -10 26 -11 11 -1 19 3 18 8 -4 12 -37 14 -44 3z"/>
 <path d="M96 591 c-11 -13 -14 -21 -7 -26 11 -6 15 1 12 18 -1 5 3 6 8 3 5 -4 12 -2 15 3 12 19 -12 20 -28 2z"/>
 <path d="M1485 591 c-6 -11 1 -15 18 -12 5 1 6 -3 3 -8 -4 -5 -2 -12 3 -15 19 -12 20 12 2 28 -13 11 -21 14 -26 7z"/>
 <path d="M654 578 c-3 -4 -9 -6 -14 -3 -15 9 -29 -28 -19 -47 8 -14 14 -16 29 -8 11 6 23 9 27 8 4 -2 9 2 10 7 1 6 -10 9 -23 9 -14 -1 -23 3 -21 10 2 6 15 11 28 11 13 0 24 5 24 10 0 12 -34 14 -41 3z"/>
 <path d="M106 561 c-11 -13 -14 -21 -7 -26 11 -6 15 1 12 18 -1 5 3 6 8 3 5 -4 12 -2 15 3 12 19 -12 20 -28 2z"/>
 <path d="M967 574 c-4 -4 -17 -8 -30 -9 -15 -1 -22 -8 -22 -21 1 -10 7 -18 13 -16 7 1 21 -2 32 -8 15 -8 21 -6 29 8 11 21 -8 60 -22 46z"/>
 <path d="M1476 562 c-3 -5 3 -17 13 -26 11 -10 22 -13 25 -8 3 5 -3 17 -13 26 -11 10 -22 13 -25 8z"/>
 <path d="M1440 481 c-12 -25 -16 -42 -10 -46 6 -3 13 1 16 10 4 8 12 14 18 13 6 -2 11 2 11 7 0 6 -4 9 -8 7 -4 -1 -3 7 3 17 6 13 7 22 0 26 -5 3 -18 -12 -30 -34z"/>
 <path d="M117 503 c-4 -6 0 -18 7 -28 8 -11 16 -14 19 -8 4 6 0 18 -7 28 -8 11 -16 14 -19 8z"/>
 <path d="M684 468 c-6 -9 -4 -10 26 -11 11 -1 19 3 18 8 -4 12 -37 14 -44 3z"/>
 <path d="M874 468 c-6 -9 -4 -10 26 -11 11 -1 19 3 18 8 -4 12 -37 14 -44 3z"/>
 <path d="M148 444 c-12 -11 10 -41 29 -39 10 0 18 5 18 10 0 6 -4 9 -9 7 -4 -1 -13 4 -20 13 -6 9 -15 13 -18 9z"/>
 <path d="M1394 398 c-6 -9 -4 -10 26 -11 11 -1 19 3 18 8 -4 12 -37 14 -44 3z"/>
 <path d="M174 388 c-6 -9 -4 -10 26 -11 11 -1 19 3 18 8 -4 12 -37 14 -44 3z"/>
 <path d="M1361 316 c-7 -8 -8 -17 -3 -20 6 -3 15 1 21 8 7 8 8 17 3 20 -6 3 -15 -1 -21 -8z"/>
 <path d="M247 302 c-4 -5 9 -23 27 -41 19 -18 36 -29 39 -23 4 5 -9 23 -27 41 -19 18 -36 29 -39 23z"/>
 <path d="M1306 291 c-10 -11 -13 -22 -8 -25 5 -3 17 3 26 13 10 11 13 22 8 25 -5 3 -17 -3 -26 -13z"/>
 <path d="M1281 236 c-7 -8 -8 -17 -3 -20 6 -3 15 1 21 8 7 8 8 17 3 20 -6 3 -15 -1 -21 -8z"/>
 <path d="M1239 236 c-5 -23 -2 -46 5 -48 12 -4 15 41 4 48 -4 3 -8 3 -9 0z"/>
 <path d="M389 216 c-5 -23 -2 -46 5 -48 12 -4 15 41 4 48 -4 3 -8 3 -9 0z"/>
 <path d="M419 198 c-7 -27 -3 -51 12 -59 12 -6 20 -5 24 1 3 6 -1 13 -10 16 -9 4 -14 13 -11 20 3 7 1 16 -4 19 -6 4 -10 5 -11 3z"/>
 <path d="M1127 164 c-15 -8 -25 -19 -22 -24 4 -6 17 -4 34 5 19 9 31 11 38 4 8 -8 13 -7 17 0 4 6 5 12 2 12 -3 1 -9 2 -13 3 -5 1 -13 4 -18 8 -6 3 -23 0 -38 -8z"/>
 <path d="M475 131 c-3 -6 3 -15 14 -21 12 -6 22 -6 26 -1 3 6 -3 15 -14 21 -12 6 -22 6 -26 1z"/>
 <path d="M1055 131 c-6 -11 1 -15 18 -12 5 1 6 -3 3 -8 -4 -5 -2 -12 3 -15 19 -12 20 12 2 28 -13 11 -21 14 -26 7z"/>
 <path d="M556 111 c-11 -13 -14 -21 -7 -26 11 -6 15 1 12 18 -1 5 3 6 8 3 5 -4 12 -2 15 3 12 19 -12 20 -28 2z"/>
 <path d="M586 101 c-11 -13 -14 -21 -7 -26 11 -6 15 1 12 18 -1 5 3 6 8 3 5 -4 12 -2 15 3 12 19 -12 20 -28 2z"/>
 <path d="M995 111 c-6 -11 1 -15 18 -12 5 1 6 -3 3 -8 -4 -5 -2 -12 3 -15 5 -4 12 -2 16 4 4 6 10 8 15 5 5 -3 11 -1 14 4 4 5 2 12 -3 15 -5 4 -13 1 -16 -4 -5 -8 -13 -6 -25 5 -12 11 -20 13 -25 6z"/>
 <path d="M685 91 c-7 -12 12 -24 25 -16 11 7 4 25 -10 25 -5 0 -11 -4 -15 -9z"/>
 <path d="M935 71 c-7 -12 12 -24 25 -16 11 7 4 25 -10 25 -5 0 -11 -4 -15 -9z"/>
 <path d="M715 61 c-7 -12 12 -24 25 -16 11 7 4 25 -10 25 -5 0 -11 -4 -15 -9z"/>
 <path d="M865 60 c-8 -12 20 -24 35 -15 6 3 8 11 5 16 -8 12 -32 12 -40 -1z"/>
 </g>
<g id="layer104" fill="#561d20" stroke="none">
 <path d="M626 1502 c-9 -15 21 -49 34 -36 7 7 5 15 -9 28 -10 9 -22 13 -25 8z"/>
 <path d="M785 1500 c-8 -12 20 -24 35 -15 6 3 8 11 5 16 -8 12 -32 12 -40 -1z"/>
 <path d="M685 1490 c-8 -12 20 -24 35 -15 6 3 8 11 5 16 -8 12 -32 12 -40 -1z"/>
 <path d="M885 1490 c-8 -12 20 -24 35 -15 6 3 8 11 5 16 -8 12 -32 12 -40 -1z"/>
 <path d="M1000 1485 c-9 -11 -16 -12 -26 -4 -7 6 -18 8 -24 4 -13 -8 -3 -26 13 -24 7 1 25 -3 41 -10 16 -6 36 -13 45 -14 20 -4 97 -43 133 -68 15 -11 29 -15 32 -10 4 5 -6 18 -21 29 -28 19 -104 60 -113 60 -16 0 -59 26 -55 33 10 15 -13 19 -25 4z"/>
 <path d="M555 1481 c-6 -11 1 -15 18 -12 5 1 6 -3 3 -8 -4 -5 -2 -12 3 -15 5 -4 12 -2 16 4 4 6 10 8 15 5 5 -3 11 -1 14 4 4 5 2 12 -3 15 -5 4 -13 1 -16 -4 -5 -8 -13 -6 -25 5 -12 11 -20 13 -25 6z"/>
 <path d="M521 1444 c-54 -23 -102 -55 -96 -64 3 -4 36 8 75 27 38 19 67 39 64 44 -3 5 -6 9 -7 9 -1 -1 -17 -7 -36 -16z"/>
 <path d="M1229 1383 c-4 -29 -3 -39 4 -50 5 -7 13 -10 19 -7 5 3 4 11 -2 19 -7 8 -9 19 -6 24 4 5 2 12 -4 16 -5 3 -11 3 -11 -2z"/>
 <path d="M359 1373 c-1 -4 -1 -12 0 -17 1 -5 -5 -16 -14 -26 -9 -10 -12 -21 -7 -24 13 -8 35 20 37 45 2 19 -14 39 -16 22z"/>
 <path d="M391 1366 c-7 -8 -8 -17 -3 -20 6 -3 15 1 21 8 7 8 8 17 3 20 -6 3 -15 -1 -21 -8z"/>
 <path d="M1316 1342 c-3 -5 3 -17 13 -26 11 -10 22 -13 25 -8 3 5 -3 17 -13 26 -11 10 -22 13 -25 8z"/>
 <path d="M1286 1332 c-3 -5 8 -21 23 -36 16 -15 31 -23 35 -18 3 5 -8 21 -23 36 -16 15 -31 23 -35 18z"/>
 <path d="M271 1256 c-13 -13 -18 -26 -13 -30 5 -3 19 5 31 18 13 13 18 26 13 30 -5 3 -19 -5 -31 -18z"/>
 <path d="M1336 1242 c-3 -6 1 -15 8 -21 8 -7 17 -8 20 -3 3 6 -1 15 -8 21 -8 7 -17 8 -20 3z"/>
 <path d="M1410 1214 c-7 -8 -19 -13 -26 -10 -20 8 -24 -5 -7 -30 8 -13 19 -21 25 -18 5 3 7 9 4 12 -4 3 3 16 15 28 11 12 16 25 11 28 -5 3 -15 -1 -22 -10z"/>
 <path d="M222 1193 c-11 -16 -31 -52 -46 -80 -14 -29 -30 -52 -34 -50 -7 2 -13 -8 -11 -20 1 -5 2 -16 3 -25 2 -35 18 -21 41 36 13 33 38 81 54 108 32 51 26 77 -7 31z"/>
 <path d="M1408 1144 c-6 -6 28 -92 42 -107 20 -22 17 14 -5 61 -25 53 -27 56 -37 46z"/>
 <path d="M1466 1031 c-12 -13 -14 -21 -6 -26 5 -3 8 -10 5 -15 -3 -5 -1 -11 4 -14 5 -4 12 -2 15 3 4 5 1 13 -4 16 -8 5 -6 13 5 25 9 10 12 21 7 24 -5 3 -17 -3 -26 -13z"/>
 <path d="M105 1001 c-6 -11 1 -15 18 -12 5 1 6 -3 3 -8 -4 -5 -2 -12 3 -15 19 -12 20 12 2 28 -13 11 -21 14 -26 7z"/>
 <path d="M1487 969 c-18 -11 -23 -34 -8 -43 5 -3 16 5 25 19 18 27 10 38 -17 24z"/>
 <path d="M97 964 c-9 -9 24 -55 34 -48 15 9 10 33 -10 43 -10 6 -21 8 -24 5z"/>
 <path d="M1497 919 c-18 -11 -23 -44 -8 -54 5 -3 16 8 24 25 17 33 11 44 -16 29z"/>
 <path d="M104 887 c-7 -20 -2 -47 11 -50 14 -3 19 43 6 56 -7 7 -12 6 -17 -6z"/>
 <path d="M104 747 c-7 -20 -2 -47 11 -50 14 -3 19 43 6 56 -7 7 -12 6 -17 -6z"/>
 <path d="M1484 716 c-4 -10 -2 -22 4 -28 8 -8 13 -7 18 6 4 10 2 22 -4 28 -8 8 -13 7 -18 -6z"/>
 <path d="M115 670 c-4 -6 -2 -17 4 -24 6 -7 8 -16 4 -19 -3 -4 0 -13 7 -22 7 -8 9 -15 5 -15 -4 0 -2 -7 5 -15 7 -8 10 -15 6 -15 -8 0 19 -65 50 -118 45 -76 43 -35 -1 53 -24 47 -41 85 -37 85 3 0 1 5 -5 11 -6 6 -9 17 -7 24 3 7 1 16 -5 19 -6 4 -8 13 -5 20 7 17 -12 30 -21 16z"/>
 <path d="M1475 660 c-4 -6 -4 -14 -1 -17 3 -3 1 -12 -4 -19 -6 -6 -10 -16 -8 -20 3 -12 -66 -157 -92 -193 -11 -17 -16 -32 -11 -35 5 -4 18 6 29 21 26 37 81 148 85 170 1 10 6 24 11 31 4 7 5 16 2 19 -3 3 -1 12 6 20 8 10 8 17 1 24 -8 8 -13 7 -18 -1z"/>
 <path d="M236 392 c-3 -6 1 -15 8 -21 8 -7 17 -8 20 -3 3 6 -1 15 -8 21 -8 7 -17 8 -20 3z"/>
 <path d="M1289 312 c-25 -26 -44 -54 -44 -63 0 -22 25 -50 37 -43 5 3 2 14 -8 25 -17 19 -16 21 30 68 26 27 44 51 39 54 -5 4 -30 -15 -54 -41z"/>
 <path d="M249 346 c-1 -3 -2 -9 -3 -13 -1 -5 -5 -13 -9 -20 -4 -6 -3 -14 3 -18 5 -3 11 -4 11 -1 1 3 2 9 3 14 1 4 5 12 9 19 4 6 3 14 -3 18 -5 3 -11 4 -11 1z"/>
 <path d="M286 332 c-3 -5 8 -21 23 -36 16 -15 31 -23 35 -18 3 5 -8 21 -23 36 -16 15 -31 23 -35 18z"/>
 <path d="M339 253 c-1 -4 -1 -12 0 -17 1 -5 -4 -4 -13 3 -8 7 -17 8 -20 3 -3 -6 0 -15 8 -21 10 -8 17 -6 30 8 11 12 14 21 7 26 -6 3 -12 3 -12 -2z"/>
 <path d="M375 251 c-9 -16 136 -107 182 -114 10 -1 24 -6 31 -10 6 -5 12 -5 12 -1 0 3 7 1 15 -6 9 -7 18 -10 22 -7 3 4 12 2 19 -4 17 -14 48 -4 39 12 -4 6 -16 9 -26 6 -10 -3 -22 -1 -25 5 -3 5 -12 7 -19 4 -7 -2 -16 -2 -20 2 -4 4 -10 7 -13 8 -18 2 -127 56 -166 83 -25 17 -47 27 -51 22z"/>
 <path d="M1209 246 c-5 -27 -1 -51 10 -48 7 1 10 -2 7 -7 -4 -5 -2 -12 3 -15 17 -11 21 11 5 24 -8 7 -13 19 -10 26 3 7 1 16 -4 19 -6 4 -10 4 -11 1z"/>
 <path d="M1179 223 c-4 -30 -3 -40 10 -55 7 -10 18 -15 23 -12 5 3 2 14 -7 24 -9 10 -14 23 -11 29 4 5 2 12 -4 16 -5 3 -11 3 -11 -2z"/>
 <path d="M1100 179 c-30 -16 -56 -30 -57 -29 -2 0 -3 -2 -3 -5 0 -3 0 -8 0 -11 0 -4 7 -1 15 6 8 7 15 10 15 6 0 -3 23 5 50 19 28 14 48 30 45 35 -8 12 -1 15 -65 -21z"/>
 <path d="M1006 141 c-4 -6 -13 -8 -20 -5 -8 3 -17 1 -20 -5 -4 -6 -13 -8 -20 -5 -8 3 -17 1 -20 -5 -9 -14 14 -25 26 -13 6 6 16 8 23 6 7 -3 16 0 20 6 5 8 12 6 25 -5 10 -9 21 -12 24 -7 3 5 -3 17 -13 26 -12 11 -21 13 -25 7z"/>
 <path d="M715 111 c-7 -13 17 -24 40 -19 9 1 16 8 16 13 0 14 -48 19 -56 6z"/>
 <path d="M837 114 c-11 -12 3 -24 28 -24 13 0 27 -5 30 -10 12 -19 25 0 15 21 -10 18 -59 27 -73 13z"/>
 </g>
<g id="layer105" fill="#0a6db0" stroke="none">
 <path d="M644 1100 c-30 -45 -28 -69 10 -115 18 -22 28 -27 36 -19 8 8 5 21 -10 48 l-22 36 21 36 c20 34 20 54 1 54 -6 0 -22 -18 -36 -40z"/>
 <path d="M696 1095 l-27 -45 27 -45 c18 -32 32 -45 48 -45 35 0 37 9 13 51 l-22 39 22 39 c24 42 22 51 -13 51 -16 0 -30 -13 -48 -45z"/>
 <path d="M837 1134 c-3 -4 4 -24 16 -45 l22 -39 -22 -39 c-24 -42 -22 -51 13 -51 16 0 30 13 48 45 l27 45 -27 45 c-18 32 -32 45 -48 45 -13 0 -25 -3 -29 -6z"/>
 <path d="M915 1131 c-3 -5 4 -26 16 -45 l21 -36 -22 -36 c-15 -27 -18 -40 -10 -48 8 -8 18 -3 36 19 38 46 40 70 10 115 -26 40 -40 48 -51 31z"/>
 <path d="M780 1075 c-26 -31 13 -82 44 -56 19 16 21 42 4 59 -16 16 -33 15 -48 -3z"/>
 </g>
<g id="layer106" fill="#006536" stroke="none">
 <path d="M656 618 c-37 -57 -39 -73 -17 -116 24 -47 38 -59 53 -44 7 7 3 23 -12 50 l-23 40 22 36 c31 50 8 82 -23 34z"/>
 <path d="M718 623 c-8 -10 -22 -31 -32 -46 -16 -27 -16 -29 6 -69 26 -47 48 -64 72 -55 15 6 15 10 -5 49 l-21 42 20 42 c12 23 18 45 15 48 -12 12 -40 6 -55 -11z"/>
 <path d="M837 634 c-3 -4 3 -25 15 -47 l20 -41 -21 -43 c-19 -39 -19 -44 -5 -50 23 -9 45 8 71 52 20 36 21 41 6 69 -29 57 -64 82 -86 60z"/>
 <path d="M915 630 c-4 -6 3 -27 15 -47 l22 -37 -22 -39 c-16 -27 -19 -42 -12 -49 15 -15 35 2 57 51 17 39 17 40 -6 82 -25 45 -43 57 -54 39z"/>
 <path d="M780 566 c-27 -33 18 -72 48 -42 13 13 14 20 6 34 -15 23 -38 26 -54 8z"/>
 </g>
<g id="layer107" fill="#f0ac44" stroke="none">
 <path d="M414 845 l-26 -46 23 -45 c27 -51 42 -62 63 -45 10 8 16 9 21 1 7 -11 48 -14 58 -3 4 3 -4 25 -17 48 l-25 41 24 41 c13 23 20 44 17 47 -14 15 -52 3 -72 -21 -14 -19 -18 -21 -11 -7 6 12 7 24 4 28 -15 15 -34 3 -59 -39z"/>
 <path d="M608 884 c-3 -3 4 -24 17 -47 l24 -41 -25 -41 c-13 -23 -21 -45 -17 -48 10 -11 51 -8 58 3 5 8 11 7 21 -1 21 -17 36 -6 63 45 l23 45 -27 46 c-18 31 -32 45 -43 42 -9 -2 -16 -10 -14 -17 3 -11 -1 -10 -16 3 -18 17 -53 23 -64 11z"/>
 <path d="M554 819 c-22 -25 -9 -54 26 -54 35 0 48 29 26 54 -11 12 -22 21 -26 21 -4 0 -15 -9 -26 -21z"/>
 </g>
<g id="layer108" fill="#e89ea1" stroke="none">
 <path d="M715 1451 c-7 -12 12 -24 25 -16 11 7 4 25 -10 25 -5 0 -11 -4 -15 -9z"/>
 <path d="M865 1451 c-7 -12 12 -24 25 -16 11 7 4 25 -10 25 -5 0 -11 -4 -15 -9z"/>
 <path d="M709 1423 c-1 -4 -1 -12 0 -17 1 -5 -4 -4 -13 3 -8 7 -17 8 -20 3 -3 -6 0 -15 8 -21 10 -8 17 -6 30 8 11 12 14 21 7 26 -6 3 -12 3 -12 -2z"/>
 <path d="M886 1422 c-3 -5 3 -17 13 -26 11 -10 22 -13 25 -8 3 5 -3 17 -13 26 -11 10 -22 13 -25 8z"/>
 <path d="M507 1389 c-21 -11 -35 -24 -32 -29 4 -6 23 -1 46 10 22 12 37 25 34 30 -7 12 -2 13 -48 -11z"/>
 <path d="M645 1400 c-4 -6 -3 -16 3 -22 6 -6 12 -6 17 2 4 6 3 16 -3 22 -6 6 -12 6 -17 -2z"/>
 <path d="M945 1400 c-4 -6 -3 -16 3 -22 6 -6 12 -6 17 2 4 6 3 16 -3 22 -6 6 -12 6 -17 -2z"/>
 <path d="M1055 1400 c-3 -5 12 -18 34 -30 23 -11 42 -16 46 -10 3 5 -12 18 -34 30 -23 11 -42 16 -46 10z"/>
 <path d="M596 1382 c-3 -6 1 -15 8 -21 8 -7 17 -8 20 -3 3 6 -1 15 -8 21 -8 7 -17 8 -20 3z"/>
 <path d="M991 1376 c-7 -8 -8 -17 -3 -20 6 -3 15 1 21 8 7 8 8 17 3 20 -6 3 -15 -1 -21 -8z"/>
 <path d="M738 1374 c-4 -4 -3 -16 3 -27 7 -13 7 -17 1 -13 -6 3 -13 2 -16 -3 -12 -18 11 -20 28 -3 13 15 14 21 3 36 -7 9 -16 14 -19 10z"/>
 <path d="M850 1360 c-10 -19 -7 -24 13 -21 5 1 6 -3 3 -8 -4 -5 -2 -12 3 -16 6 -3 15 4 21 15 10 19 7 24 -13 21 -5 -1 -6 3 -3 8 4 5 2 12 -3 16 -6 3 -15 -4 -21 -15z"/>
 <path d="M480 1315 c-13 -14 -29 -24 -36 -23 -7 2 -12 -1 -11 -7 1 -5 10 -10 19 -10 21 -2 74 50 60 59 -5 3 -20 -6 -32 -19z"/>
 <path d="M599 1324 c-6 -8 -6 -14 0 -18 5 -4 13 -2 16 4 5 8 11 8 20 0 10 -8 15 -8 20 0 15 24 -37 37 -56 14z"/>
 <path d="M954 1328 c-9 -15 7 -30 20 -19 9 7 16 7 23 0 7 -7 13 -7 17 -1 3 6 1 14 -6 18 -18 11 -48 12 -54 2z"/>
 <path d="M1096 1332 c-7 -12 45 -57 66 -57 10 0 18 5 17 10 0 6 -11 9 -25 9 -13 -1 -21 2 -19 6 3 4 -4 15 -14 24 -11 10 -22 13 -25 8z"/>
 <path d="M536 1301 c-18 -18 -24 -31 -17 -35 11 -7 15 0 12 18 -1 5 4 4 12 -2 19 -16 30 -3 14 16 -8 11 -8 14 0 9 6 -4 14 -3 17 2 15 24 -14 17 -38 -8z"/>
 <path d="M1036 1321 c-7 -11 0 -15 18 -12 5 1 4 -4 -2 -12 -16 -19 -3 -30 16 -14 11 8 14 8 9 0 -4 -6 -3 -14 2 -17 24 -15 17 14 -8 38 -18 18 -31 24 -35 17z"/>
 <path d="M779 1305 c-1 -5 -1 -13 0 -17 0 -5 -2 -7 -6 -7 -20 3 -23 -3 -13 -21 6 -11 15 -18 21 -15 5 4 7 10 5 14 -3 4 6 7 19 7 13 0 22 -3 19 -7 -2 -4 0 -10 5 -14 6 -3 15 4 21 15 10 19 7 24 -13 21 -5 -1 -6 3 -3 8 4 5 2 12 -4 16 -6 3 -13 -1 -16 -10 -6 -14 -8 -14 -20 2 -7 10 -14 14 -15 8z"/>
 <path d="M935 1270 c-4 -7 -2 -17 4 -23 6 -6 11 -7 11 -3 0 5 6 3 14 -3 18 -15 34 5 17 22 -6 6 -11 7 -11 3 0 -5 -6 -3 -14 3 -11 9 -16 9 -21 1z"/>
 <path d="M576 1251 c-10 -11 -13 -22 -8 -25 5 -3 17 3 26 13 10 11 13 22 8 25 -5 3 -17 -3 -26 -13z"/>
 <path d="M625 1260 c-4 -6 -3 -16 3 -22 6 -6 12 -6 17 2 4 6 3 16 -3 22 -6 6 -12 6 -17 -2z"/>
 <path d="M1006 1262 c-3 -5 3 -17 13 -26 11 -10 22 -13 25 -8 3 5 -3 17 -13 26 -11 10 -22 13 -25 8z"/>
 <path d="M434 1248 c-6 -9 -4 -10 26 -11 11 -1 19 3 18 8 -4 12 -37 14 -44 3z"/>
 <path d="M1124 1248 c-6 -9 -4 -10 26 -11 11 -1 19 3 18 8 -4 12 -37 14 -44 3z"/>
 <path d="M301 1226 c-7 -8 -8 -17 -3 -20 6 -3 15 1 21 8 7 8 8 17 3 20 -6 3 -15 -1 -21 -8z"/>
 <path d="M1286 1232 c-3 -6 1 -15 8 -21 8 -7 17 -8 20 -3 3 6 -1 15 -8 21 -8 7 -17 8 -20 3z"/>
 <path d="M446 1221 c-4 -5 -2 -12 4 -16 5 -3 10 -3 10 1 0 3 6 1 14 -5 10 -8 16 -9 21 -1 3 5 4 11 1 11 -3 1 -9 2 -13 3 -5 1 -13 5 -20 9 -6 4 -14 3 -17 -2z"/>
 <path d="M1145 1220 c-4 -6 -10 -8 -15 -5 -5 3 -11 1 -14 -4 -4 -5 -2 -12 3 -15 5 -4 12 -2 16 4 4 6 10 8 15 5 5 -3 11 -1 14 4 4 5 2 12 -3 15 -5 4 -12 2 -16 -4z"/>
 <path d="M606 1212 c-3 -6 1 -15 9 -22 8 -7 15 -9 15 -5 0 4 6 2 14 -4 10 -8 16 -9 21 -1 8 13 -4 32 -16 24 -5 -3 -16 -1 -24 6 -8 6 -16 7 -19 2z"/>
 <path d="M985 1209 c-4 -5 -13 -8 -21 -5 -16 6 -28 -9 -19 -24 5 -8 11 -8 19 -1 7 6 15 9 18 6 3 -3 11 1 17 9 8 9 8 16 2 20 -5 4 -13 1 -16 -5z"/>
 <path d="M289 1183 c-1 -4 -1 -12 0 -17 3 -15 -32 -47 -46 -42 -16 6 -48 -50 -33 -59 5 -3 15 6 22 20 6 14 17 24 24 21 26 -10 66 65 42 80 -4 3 -9 2 -9 -3z"/>
 <path d="M454 1178 c-6 -9 -4 -10 26 -11 11 -1 19 3 18 8 -4 12 -37 14 -44 3z"/>
 <path d="M1104 1178 c-6 -9 -4 -10 26 -11 11 -1 19 3 18 8 -4 12 -37 14 -44 3z"/>
 <path d="M1309 1183 c-5 -31 -2 -40 15 -60 10 -12 23 -20 28 -17 5 4 0 17 -12 29 -12 13 -19 28 -16 34 4 5 2 12 -4 16 -5 3 -11 3 -11 -2z"/>
 <path d="M316 1171 c-4 -5 -2 -12 4 -16 6 -4 8 -10 5 -15 -3 -5 -1 -11 4 -14 5 -4 12 -2 15 3 4 5 2 12 -4 16 -6 4 -8 10 -5 15 3 5 1 11 -4 14 -5 4 -12 2 -15 -3z"/>
 <path d="M1279 1176 c-1 -3 -2 -9 -3 -13 -1 -5 -5 -13 -9 -20 -4 -6 -3 -14 3 -18 5 -3 11 -4 11 -1 1 3 2 9 3 14 1 4 5 12 9 19 4 6 3 14 -3 18 -5 3 -11 4 -11 1z"/>
 <path d="M359 1166 c-5 -23 -2 -46 5 -48 12 -4 15 41 4 48 -4 3 -8 3 -9 0z"/>
 <path d="M1239 1166 c-5 -23 -2 -46 5 -48 12 -4 15 41 4 48 -4 3 -8 3 -9 0z"/>
 <path d="M399 1156 c-5 -23 -2 -46 5 -48 12 -4 15 41 4 48 -4 3 -8 3 -9 0z"/>
 <path d="M1199 1156 c-5 -23 -2 -46 5 -48 12 -4 15 41 4 48 -4 3 -8 3 -9 0z"/>
 <path d="M464 1138 c-6 -9 -4 -10 26 -11 11 -1 19 3 18 8 -4 12 -37 14 -44 3z"/>
 <path d="M1095 1141 c-11 -10 7 -18 35 -15 21 3 30 0 28 -9 -2 -7 1 -14 7 -15 5 -1 9 8 9 20 0 18 -5 22 -37 23 -21 0 -40 -1 -42 -4z"/>
 <path d="M296 1091 c-10 -11 -13 -22 -8 -25 5 -3 17 3 26 13 10 11 13 22 8 25 -5 3 -17 -3 -26 -13z"/>
 <path d="M1286 1102 c-3 -5 3 -17 13 -26 11 -10 22 -13 25 -8 3 5 -3 17 -13 26 -11 10 -22 13 -25 8z"/>
 <path d="M1377 1103 c-4 -6 0 -18 7 -28 8 -11 16 -14 19 -8 4 6 0 18 -7 28 -8 11 -16 14 -19 8z"/>
 <path d="M245 1061 c-7 -12 12 -24 25 -16 11 7 4 25 -10 25 -5 0 -11 -4 -15 -9z"/>
 <path d="M1335 1061 c-7 -12 12 -24 25 -16 11 7 4 25 -10 25 -5 0 -11 -4 -15 -9z"/>
 <path d="M336 1041 c-10 -11 -13 -22 -8 -25 5 -3 17 3 26 13 10 11 13 22 8 25 -5 3 -17 -3 -26 -13z"/>
 <path d="M1246 1052 c-3 -5 3 -17 13 -26 11 -10 22 -13 25 -8 3 5 -3 17 -13 26 -11 10 -22 13 -25 8z"/>
 <path d="M219 1043 c-4 -30 -3 -40 10 -55 7 -10 18 -15 23 -12 5 3 2 14 -7 24 -9 10 -14 23 -11 29 4 5 2 12 -4 16 -5 3 -11 3 -11 -2z"/>
 <path d="M1379 1043 c-1 -4 -1 -12 0 -17 1 -5 -5 -16 -14 -26 -9 -10 -12 -21 -7 -24 13 -8 35 20 37 45 2 19 -14 39 -16 22z"/>
 <path d="M189 1036 c-1 -3 -2 -9 -3 -13 -1 -5 -5 -14 -9 -20 -5 -7 -5 -13 -1 -13 3 0 1 -6 -5 -13 -14 -17 10 -54 28 -43 9 6 9 12 -3 25 -12 13 -13 20 -4 29 7 7 8 12 4 12 -5 0 -3 6 3 14 8 10 9 16 1 21 -5 3 -11 4 -11 1z"/>
 <path d="M1406 1031 c-4 -5 -2 -12 4 -16 6 -4 8 -10 5 -15 -3 -5 0 -12 5 -15 8 -5 6 -13 -5 -25 -12 -14 -13 -20 -4 -26 18 -11 42 26 28 43 -6 7 -8 13 -4 13 4 0 1 7 -6 17 -8 9 -12 18 -11 20 2 3 1 7 -1 9 -3 3 -8 1 -11 -5z"/>
 <path d="M366 1001 c-10 -11 -13 -22 -8 -25 5 -3 17 3 26 13 10 11 13 22 8 25 -5 3 -17 -3 -26 -13z"/>
 <path d="M1215 1011 c-6 -11 1 -15 19 -12 5 1 4 -4 -3 -13 -7 -8 -8 -17 -3 -20 6 -3 15 0 21 8 8 10 6 17 -8 30 -12 11 -21 14 -26 7z"/>
 <path d="M416 961 c-4 -6 -13 -8 -20 -5 -17 7 -30 -12 -16 -21 6 -4 16 -2 23 3 7 6 15 11 20 11 8 1 11 11 4 17 -3 3 -8 1 -11 -5z"/>
 <path d="M1176 962 c-3 -6 -2 -13 4 -17 5 -3 10 -3 10 1 0 3 7 1 15 -6 8 -6 19 -9 25 -5 14 9 1 28 -15 21 -7 -2 -17 0 -23 6 -6 6 -12 6 -16 0z"/>
 <path d="M305 941 c-7 -12 12 -24 25 -16 11 7 4 25 -10 25 -5 0 -11 -4 -15 -9z"/>
 <path d="M1275 941 c-7 -12 12 -24 25 -16 11 7 4 25 -10 25 -5 0 -11 -4 -15 -9z"/>
 <path d="M235 931 c-7 -12 12 -24 25 -16 11 7 4 25 -10 25 -5 0 -11 -4 -15 -9z"/>
 <path d="M1345 931 c-7 -12 12 -24 25 -16 11 7 4 25 -10 25 -5 0 -11 -4 -15 -9z"/>
 <path d="M449 893 c-1 -4 -1 -11 0 -15 0 -5 -3 -7 -8 -5 -5 1 -8 -2 -7 -8 0 -5 5 -9 9 -7 4 1 16 -2 27 -8 22 -12 38 4 16 17 -8 4 -15 12 -15 18 1 12 -21 20 -22 8z"/>
 <path d="M495 890 c-3 -6 3 -14 14 -18 11 -4 20 -10 20 -14 1 -11 16 -10 16 1 0 5 3 13 7 17 4 4 5 11 2 15 -7 12 -51 11 -59 -1z"/>
 <path d="M607 894 c-4 -4 -3 -12 1 -18 4 -6 7 -14 7 -18 0 -5 5 -8 10 -7 6 1 9 5 7 11 -1 5 6 9 15 8 31 -4 36 0 23 15 -13 15 -51 20 -63 9z"/>
 <path d="M688 893 c-10 -20 -1 -37 20 -37 12 0 21 4 20 9 -2 6 -6 9 -10 8 -5 -2 -7 2 -5 8 2 13 -19 24 -25 12z"/>
 <path d="M886 891 c-4 -5 -2 -12 2 -15 14 -9 12 -64 -3 -76 -11 -9 -12 -17 -4 -31 6 -11 6 -18 0 -17 -8 3 -11 -2 -11 -19 0 -3 9 2 20 12 17 16 20 16 26 2 3 -9 3 -20 0 -26 -4 -5 -2 -12 3 -16 16 -9 31 28 20 48 -6 10 -14 15 -19 12 -5 -3 -14 4 -20 16 -8 13 -8 19 -1 15 14 -9 26 21 26 64 0 24 -5 36 -17 38 -9 2 -19 -1 -22 -7z"/>
 <path d="M940 885 c-13 -15 -8 -19 23 -15 16 1 17 -2 8 -19 -7 -12 -7 -22 -2 -26 6 -3 15 4 21 15 6 11 8 20 4 20 -3 0 -1 6 5 13 6 8 8 17 4 20 -12 12 -50 7 -63 -8z"/>
 <path d="M1055 891 c-7 -12 3 -18 35 -21 39 -3 43 -1 30 15 -14 17 -56 20 -65 6z"/>
 <path d="M1139 896 c-5 -23 -4 -33 3 -49 5 -10 13 -15 19 -12 5 4 7 11 3 16 -3 5 -1 8 4 7 6 -2 9 2 9 7 -1 6 -5 9 -9 8 -5 -2 -7 2 -5 8 1 6 -4 14 -10 16 -7 3 -14 2 -14 -1z"/>
 <path d="M259 883 c-1 -4 -1 -12 0 -16 1 -4 -8 -3 -18 3 -12 6 -22 6 -26 1 -3 -6 3 -15 13 -20 15 -8 23 -6 36 8 11 13 14 21 7 26 -6 3 -12 3 -12 -2z"/>
 <path d="M1336 882 c-3 -5 3 -17 13 -26 11 -10 22 -13 25 -8 3 5 -3 17 -13 26 -11 10 -22 13 -25 8z"/>
 <path d="M144 856 c-4 -10 -2 -22 4 -28 8 -8 13 -7 18 6 4 10 2 22 -4 28 -8 8 -13 7 -18 -6z"/>
 <path d="M1444 856 c-8 -21 3 -49 16 -41 5 3 10 15 10 25 0 25 -18 36 -26 16z"/>
 <path d="M309 853 c-1 -4 -1 -12 0 -16 1 -5 -3 -6 -8 -3 -5 4 -12 2 -16 -3 -3 -6 4 -15 15 -21 19 -10 24 -7 21 13 -1 5 3 6 8 3 5 -4 12 -2 16 3 3 6 -4 15 -15 21 -11 6 -21 7 -21 3z"/>
 <path d="M1277 849 c-10 -6 -15 -15 -12 -20 4 -5 11 -7 16 -3 5 3 9 2 8 -3 -3 -20 2 -23 21 -13 11 6 18 15 15 21 -4 5 -11 6 -17 3 -6 -4 -8 -2 -4 4 9 16 -7 22 -27 11z"/>
 <path d="M845 821 c-9 -18 -11 -32 -5 -36 5 -3 16 8 25 24 9 18 11 32 5 36 -5 3 -16 -8 -25 -24z"/>
 <path d="M550 825 c-14 -16 0 -27 17 -14 9 9 17 8 27 0 9 -8 16 -8 20 -2 14 21 -47 36 -64 16z"/>
 <path d="M1004 828 c-6 -9 -4 -10 26 -11 11 -1 19 3 18 8 -4 12 -37 14 -44 3z"/>
 <path d="M1195 820 c-3 -5 4 -19 15 -30 24 -24 45 -18 30 9 -11 22 -37 34 -45 21z"/>
 <path d="M371 801 c-14 -24 0 -35 23 -18 16 12 16 14 3 26 -13 10 -17 9 -26 -8z"/>
 <path d="M1146 812 c-7 -12 28 -44 39 -35 4 5 3 -2 -4 -14 -7 -13 -7 -24 -2 -28 6 -3 15 3 20 13 8 15 5 24 -18 46 -16 15 -31 23 -35 18z"/>
 <path d="M947 803 c-4 -6 0 -18 7 -28 8 -11 16 -14 19 -8 4 6 0 18 -7 28 -8 11 -16 14 -19 8z"/>
 <path d="M287 779 c-25 -14 -11 -32 15 -18 13 7 18 7 14 1 -3 -6 -2 -13 3 -16 18 -11 21 11 3 27 -12 11 -22 13 -35 6z"/>
 <path d="M456 783 c-3 -3 -14 -7 -24 -8 -26 -2 -30 -18 -4 -20 27 -2 60 19 45 28 -6 4 -13 4 -17 0z"/>
 <path d="M1286 771 c-11 -13 -14 -21 -7 -26 11 -6 15 1 12 18 -1 4 8 3 18 -3 12 -6 22 -6 26 -1 3 6 -3 15 -13 20 -15 8 -23 6 -36 -8z"/>
 <path d="M144 766 c-4 -10 -2 -22 4 -28 8 -8 13 -7 18 6 4 10 2 22 -4 28 -8 8 -13 7 -18 -6z"/>
 <path d="M704 771 c-3 -3 -10 -6 -15 -6 -5 0 -9 -3 -9 -7 0 -7 6 -10 13 -7 1 1 13 2 27 3 14 1 25 6 25 11 0 10 -32 15 -41 6z"/>
 <path d="M1444 766 c-4 -10 -2 -22 4 -28 8 -8 13 -7 18 6 4 10 2 22 -4 28 -8 8 -13 7 -18 -6z"/>
 <path d="M1060 741 c-6 -12 -6 -22 -1 -26 6 -3 15 3 21 14 6 12 6 22 1 26 -6 3 -15 -3 -21 -14z"/>
 <path d="M226 743 c-3 -3 1 -14 10 -24 13 -14 21 -16 36 -8 10 5 16 14 13 20 -4 5 -14 5 -27 -2 -13 -7 -18 -7 -14 -1 7 12 -8 25 -18 15z"/>
 <path d="M1369 743 c-1 -4 -1 -12 0 -16 1 -4 -8 -3 -18 3 -12 6 -22 6 -26 1 -3 -6 3 -15 13 -20 15 -8 23 -6 36 8 11 13 14 21 7 26 -6 3 -12 3 -12 -2z"/>
 <path d="M167 709 c-25 -14 -11 -32 15 -18 11 6 18 7 14 1 -3 -5 1 -15 8 -21 24 -20 27 5 3 27 -17 16 -26 18 -40 11z"/>
 <path d="M1401 696 c-13 -13 -18 -27 -13 -30 12 -7 34 18 24 29 -4 4 3 3 15 -4 13 -7 24 -7 28 -2 3 6 -3 15 -13 20 -15 8 -24 5 -41 -13z"/>
 <path d="M276 671 c-4 -5 -2 -12 4 -16 6 -4 8 -10 5 -15 -7 -12 12 -23 25 -15 8 5 7 12 -2 22 -7 9 -12 19 -10 22 6 10 -16 12 -22 2z"/>
 <path d="M1309 675 c-1 -3 -2 -8 -3 -12 -1 -5 -5 -13 -9 -20 -4 -6 -3 -14 3 -18 13 -8 32 4 25 15 -3 5 -1 11 5 15 6 4 8 11 5 16 -7 10 -24 12 -26 4z"/>
 <path d="M345 661 c-7 -12 12 -24 25 -16 11 7 4 25 -10 25 -5 0 -11 -4 -15 -9z"/>
 <path d="M1235 661 c-7 -12 12 -24 25 -16 11 7 4 25 -10 25 -5 0 -11 -4 -15 -9z"/>
 <path d="M215 651 c-7 -12 12 -24 25 -16 11 7 4 25 -10 25 -5 0 -11 -4 -15 -9z"/>
 <path d="M1365 651 c-7 -12 12 -24 25 -16 11 7 4 25 -10 25 -5 0 -11 -4 -15 -9z"/>
 <path d="M341 596 c-8 -10 -6 -17 8 -30 12 -11 21 -14 26 -7 6 11 -1 15 -19 12 -5 -1 -4 4 3 13 7 8 8 17 3 20 -6 3 -15 0 -21 -8z"/>
 <path d="M1247 603 c-4 -3 -1 -13 6 -21 8 -11 8 -14 0 -9 -6 4 -14 3 -17 -2 -12 -19 12 -20 28 -2 14 15 14 20 3 29 -8 7 -17 9 -20 5z"/>
 <path d="M306 552 c-3 -5 3 -17 13 -26 11 -10 22 -13 25 -8 3 5 -3 17 -13 26 -11 10 -22 13 -25 8z"/>
 <path d="M1276 541 c-10 -11 -13 -22 -8 -25 5 -3 17 3 26 13 10 11 13 22 8 25 -5 3 -17 -3 -26 -13z"/>
 <path d="M1390 541 c-6 -12 -6 -22 -1 -26 6 -3 15 3 21 14 6 12 6 22 1 26 -6 3 -15 -3 -21 -14z"/>
 <path d="M485 510 c-3 -5 3 -14 14 -20 20 -10 41 3 27 18 -10 10 -35 11 -41 2z"/>
 <path d="M1084 509 c-11 -18 6 -29 27 -18 12 6 18 13 15 17 -11 10 -36 11 -42 1z"/>
 <path d="M266 502 c-3 -5 6 -20 19 -32 l25 -24 -21 -22 c-11 -12 -16 -25 -11 -28 5 -3 17 3 27 14 10 11 15 20 10 20 -4 0 -2 6 4 13 8 10 4 20 -18 41 -16 15 -31 23 -35 18z"/>
 <path d="M1306 481 c-18 -19 -24 -31 -17 -36 6 -3 9 -10 6 -14 -2 -5 4 -16 14 -25 11 -10 22 -13 25 -8 3 5 -3 17 -14 27 -20 18 -20 19 6 46 14 15 21 29 16 33 -5 3 -21 -8 -36 -23z"/>
 <path d="M1360 481 c-6 -12 -6 -22 -1 -26 6 -3 15 3 21 14 6 12 6 22 1 26 -6 3 -15 -3 -21 -14z"/>
 <path d="M379 488 c-1 -2 -2 -14 -3 -28 0 -14 -5 -31 -9 -38 -8 -11 -3 -15 40 -28 21 -6 24 15 4 25 -13 7 -18 19 -16 36 1 14 -2 28 -6 31 -5 3 -9 4 -10 2z"/>
 <path d="M1218 483 c-3 -5 -3 -18 -2 -31 1 -13 -6 -27 -18 -33 -21 -11 -15 -31 7 -24 8 3 22 7 31 10 11 4 13 9 6 18 -5 6 -8 22 -7 35 2 23 -10 40 -17 25z"/>
 <path d="M339 476 c-5 -23 -2 -46 5 -48 12 -4 15 41 4 48 -4 3 -8 3 -9 0z"/>
 <path d="M445 471 c-3 -6 3 -15 14 -21 13 -7 22 -7 26 0 4 6 10 8 15 5 5 -3 11 -1 14 4 4 5 2 12 -3 15 -5 4 -12 2 -16 -4 -4 -7 -12 -7 -25 0 -12 6 -21 7 -25 1z"/>
 <path d="M1096 471 c-7 -11 -6 -12 13 -15 5 0 13 -4 16 -8 10 -10 47 11 40 23 -4 6 -13 6 -24 -1 -12 -6 -22 -5 -28 1 -8 8 -13 7 -17 0z"/>
 <path d="M1259 476 c-5 -23 -2 -46 5 -48 12 -4 15 41 4 48 -4 3 -8 3 -9 0z"/>
 <path d="M454 428 c-6 -9 -4 -10 26 -11 11 -1 19 3 18 8 -4 12 -37 14 -44 3z"/>
 <path d="M1104 428 c-6 -9 -4 -10 26 -11 11 -1 19 3 18 8 -4 12 -37 14 -44 3z"/>
 <path d="M637 424 c-3 -4 -2 -16 4 -26 8 -15 14 -17 22 -9 8 8 7 15 -4 26 -8 9 -18 13 -22 9z"/>
 <path d="M950 414 c-9 -10 -10 -18 -3 -25 8 -8 14 -5 22 9 13 25 -2 38 -19 16z"/>
 <path d="M349 408 c-7 -26 -2 -51 13 -65 15 -13 23 -14 43 -5 15 7 26 8 30 1 4 -5 11 -7 16 -3 5 3 7 10 3 15 -3 5 -9 7 -14 4 -5 -3 -11 -1 -14 4 -4 6 -18 6 -35 1 -27 -7 -29 -6 -26 16 1 14 -2 27 -6 30 -5 3 -9 4 -10 2z"/>
 <path d="M1248 403 c-2 -4 -3 -18 -3 -29 2 -19 -1 -21 -26 -14 -15 5 -30 5 -34 2 -4 -4 -18 -7 -31 -7 -13 -1 -25 -5 -27 -10 -3 -11 42 -15 49 -4 2 5 16 3 29 -3 20 -9 28 -8 43 5 10 10 18 26 17 37 -1 22 -11 35 -17 23z"/>
 <path d="M444 388 c-6 -9 -4 -10 26 -11 11 -1 19 3 18 8 -4 12 -37 14 -44 3z"/>
 <path d="M592 387 c-16 -19 -3 -30 17 -15 9 7 13 9 9 4 -4 -5 -3 -18 3 -28 8 -15 14 -17 22 -9 8 8 5 18 -14 37 -21 21 -27 23 -37 11z"/>
 <path d="M787 380 c-9 -13 -13 -28 -10 -34 4 -6 10 -4 17 6 9 15 11 15 21 1 8 -10 14 -12 18 -6 4 6 -1 21 -11 34 l-19 22 -16 -23z"/>
 <path d="M1114 388 c-6 -9 -4 -10 26 -11 11 -1 19 3 18 8 -4 12 -37 14 -44 3z"/>
 <path d="M1009 383 c-1 -4 -1 -12 0 -17 1 -5 -4 -4 -12 2 -18 16 -47 -12 -30 -29 7 -7 19 -3 38 14 19 16 24 26 17 31 -7 4 -13 4 -13 -1z"/>
 <path d="M546 352 c-3 -5 3 -17 13 -26 11 -10 22 -13 25 -8 3 5 -3 17 -13 26 -11 10 -22 13 -25 8z"/>
 <path d="M1036 341 c-10 -11 -13 -22 -8 -25 5 -3 17 3 26 13 10 11 13 22 8 25 -5 3 -17 -3 -26 -13z"/>
 <path d="M655 340 c-4 -6 -3 -16 3 -22 6 -6 12 -6 17 2 4 6 3 16 -3 22 -6 6 -12 6 -17 -2z"/>
 <path d="M935 340 c-4 -6 -3 -16 3 -22 6 -6 12 -6 17 2 4 6 3 16 -3 22 -6 6 -12 6 -17 -2z"/>
 <path d="M1136 321 c-4 -5 -2 -12 4 -16 5 -3 10 -3 10 1 0 3 6 1 14 -5 10 -8 16 -9 21 -1 3 5 4 11 1 11 -3 1 -9 2 -13 3 -5 1 -13 5 -20 9 -6 4 -14 3 -17 -2z"/>
 <path d="M496 312 c-3 -5 3 -17 13 -26 11 -10 22 -13 25 -8 3 5 -3 17 -13 26 -11 10 -22 13 -25 8z"/>
 <path d="M745 311 c-6 -11 1 -15 18 -12 4 1 3 -8 -3 -18 -6 -12 -6 -22 -1 -26 6 -3 15 3 20 13 8 15 6 23 -8 36 -13 11 -21 14 -26 7z"/>
 <path d="M837 302 c-11 -12 -13 -22 -6 -35 14 -25 32 -11 18 15 -7 13 -7 18 -1 14 6 -3 13 -2 16 3 11 18 -11 21 -27 3z"/>
 <path d="M1086 301 c-10 -11 -13 -22 -8 -25 5 -3 17 3 26 13 10 11 13 22 8 25 -5 3 -17 -3 -26 -13z"/>
 <path d="M395 291 c-8 -13 24 -27 57 -26 22 1 25 -2 17 -17 -8 -14 -2 -21 30 -38 23 -11 42 -16 46 -10 3 5 -8 16 -25 25 -17 9 -28 20 -26 24 8 12 -31 44 -43 37 -6 -4 -19 -2 -30 4 -12 6 -22 6 -26 1z"/>
 <path d="M565 290 c-8 -12 20 -24 35 -15 6 3 8 11 5 16 -8 12 -32 12 -40 -1z"/>
 <path d="M635 290 c-4 -6 -3 -16 3 -22 6 -6 12 -6 17 2 4 6 3 16 -3 22 -6 6 -12 6 -17 -2z"/>
 <path d="M955 290 c-4 -6 -3 -16 3 -22 6 -6 12 -6 17 2 4 6 3 16 -3 22 -6 6 -12 6 -17 -2z"/>
 <path d="M1005 290 c-8 -12 20 -24 35 -15 6 3 8 11 5 16 -8 12 -32 12 -40 -1z"/>
 <path d="M1187 289 c-9 -6 -22 -7 -28 -4 -12 8 -51 -24 -43 -36 2 -4 -9 -15 -26 -24 -17 -9 -28 -20 -25 -25 4 -6 23 -1 46 10 33 17 38 24 30 39 -9 15 -6 17 20 16 31 -2 69 18 53 28 -5 3 -17 1 -27 -4z"/>
 <path d="M665 270 c-4 -6 -3 -16 3 -22 6 -6 12 -6 17 2 4 6 3 16 -3 22 -6 6 -12 6 -17 -2z"/>
 <path d="M925 270 c-4 -6 -3 -16 3 -22 6 -6 12 -6 17 2 4 6 3 16 -3 22 -6 6 -12 6 -17 -2z"/>
 <path d="M711 252 c-8 -15 -6 -23 8 -36 13 -11 21 -14 26 -7 6 11 -1 15 -18 12 -4 -1 -3 8 3 18 6 12 6 22 1 26 -6 3 -15 -3 -20 -13z"/>
 <path d="M876 231 c-10 -11 -13 -22 -8 -25 5 -3 17 3 26 13 10 11 13 22 8 25 -5 3 -17 -3 -26 -13z"/>
 <path d="M567 224 c-4 -4 -3 -12 1 -18 4 -6 7 -14 7 -18 0 -5 5 -8 10 -9 6 0 15 -5 22 -10 7 -7 14 -6 18 1 3 5 4 11 1 11 -3 1 -10 3 -16 4 -5 1 -13 3 -16 4 -4 0 -1 7 5 14 16 20 -13 39 -32 21z"/>
 <path d="M945 220 c-4 -6 -3 -16 3 -22 6 -6 12 -6 17 2 4 6 3 16 -3 22 -6 6 -12 6 -17 -2z"/>
 <path d="M1007 223 c-4 -3 -2 -12 4 -20 11 -13 10 -14 -11 -17 -5 0 -10 -4 -10 -8 0 -5 0 -11 0 -14 0 -4 7 0 17 7 9 8 19 13 22 12 3 -2 6 1 6 6 0 5 3 13 7 17 4 4 5 11 2 15 -6 11 -28 12 -37 2z"/>
 <path d="M646 211 c-4 -5 -2 -12 4 -16 5 -3 10 -3 10 1 0 3 6 1 14 -5 10 -8 16 -9 21 -1 3 5 4 11 1 11 -3 1 -9 2 -13 3 -5 1 -13 5 -20 9 -6 4 -14 3 -17 -2z"/>
 <path d="M695 170 c-4 -6 -3 -16 3 -22 6 -6 12 -6 17 2 4 6 3 16 -3 22 -6 6 -12 6 -17 -2z"/>
 <path d="M765 150 c-3 -5 0 -13 9 -16 21 -8 71 -1 71 11 0 14 -72 19 -80 5z"/>
 </g>
<g id="layer109" fill="#c4cfc0" stroke="none">
 <path d="M725 1541 c-7 -12 12 -24 25 -16 11 7 4 25 -10 25 -5 0 -11 -4 -15 -9z"/>
 <path d="M855 1541 c-7 -12 12 -24 25 -16 11 7 4 25 -10 25 -5 0 -11 -4 -15 -9z"/>
 <path d="M936 1532 c-3 -5 3 -17 13 -26 11 -10 22 -13 25 -8 3 5 -3 17 -13 26 -11 10 -22 13 -25 8z"/>
 <path d="M695 1521 c-7 -12 12 -24 25 -16 11 7 4 25 -10 25 -5 0 -11 -4 -15 -9z"/>
 <path d="M1007 1509 c-9 -6 -15 -15 -12 -20 4 -5 10 -7 15 -4 5 3 11 1 15 -5 4 -6 10 -8 15 -5 5 3 11 1 15 -5 12 -19 25 1 14 21 -6 12 -13 18 -16 15 -4 -3 -11 -2 -17 3 -7 6 -18 6 -29 0z"/>
 <path d="M468 1469 c-24 -12 -35 -25 -34 -36 2 -10 7 -16 12 -13 5 3 8 8 7 11 -3 10 54 32 66 25 5 -4 12 -2 16 3 13 23 -30 29 -67 10z"/>
 <path d="M735 1451 c-7 -12 12 -24 25 -16 11 7 4 25 -10 25 -5 0 -11 -4 -15 -9z"/>
 <path d="M845 1451 c-7 -12 12 -24 25 -16 11 7 4 25 -10 25 -5 0 -11 -4 -15 -9z"/>
 <path d="M1155 1451 c-3 -6 1 -13 9 -18 8 -4 16 -12 17 -18 2 -5 9 -9 16 -7 7 2 12 -3 11 -10 -2 -8 5 -12 17 -10 11 2 17 1 13 -4 -10 -9 12 -35 23 -28 5 3 6 11 2 17 -4 7 -8 17 -8 22 0 6 -8 9 -18 7 -10 -2 -16 3 -15 10 2 8 -4 12 -16 10 -10 -2 -15 1 -12 7 4 5 -2 15 -13 21 -12 6 -22 6 -26 1z"/>
 <path d="M626 1432 c-3 -5 3 -17 14 -27 11 -10 20 -14 20 -10 0 5 11 -2 24 -14 16 -15 26 -19 31 -12 3 6 10 9 15 6 5 -3 11 -1 14 4 4 5 2 12 -3 15 -5 4 -13 1 -16 -4 -5 -8 -13 -6 -26 6 -10 9 -19 13 -19 9 0 -5 -11 2 -24 14 -13 12 -27 18 -30 13z"/>
 <path d="M785 1430 c-8 -12 20 -24 35 -15 6 3 8 11 5 16 -8 12 -32 12 -40 -1z"/>
 <path d="M956 1421 c-10 -11 -13 -22 -8 -25 5 -3 17 3 26 13 10 11 13 22 8 25 -5 3 -17 -3 -26 -13z"/>
 <path d="M910 1395 c-9 -11 -16 -12 -25 -5 -9 8 -15 8 -20 0 -3 -5 -4 -11 -1 -11 3 -1 9 -2 14 -3 4 -1 12 -4 18 -8 17 -11 52 18 38 32 -8 8 -14 7 -24 -5z"/>
 <path d="M349 1396 c-1 -3 -2 -9 -3 -13 -1 -5 -5 -13 -9 -20 -4 -6 -3 -14 2 -17 10 -7 24 10 27 31 2 13 -15 30 -17 19z"/>
 <path d="M766 1372 c-3 -6 1 -15 8 -21 8 -7 17 -8 20 -3 3 6 -1 15 -8 21 -8 7 -17 8 -20 3z"/>
 <path d="M1286 1362 c-3 -5 3 -17 13 -26 11 -10 22 -13 25 -8 3 5 -3 17 -13 26 -11 10 -22 13 -25 8z"/>
 <path d="M271 1326 c-7 -8 -8 -17 -3 -20 6 -3 15 1 21 8 7 8 8 17 3 20 -6 3 -15 -1 -21 -8z"/>
 <path d="M665 1330 c-4 -6 -3 -16 3 -22 6 -6 12 -6 17 2 4 6 3 16 -3 22 -6 6 -12 6 -17 -2z"/>
 <path d="M925 1330 c-4 -6 -3 -16 3 -22 6 -6 12 -6 17 2 4 6 3 16 -3 22 -6 6 -12 6 -17 -2z"/>
 <path d="M765 1320 c-4 -6 -10 -8 -15 -5 -5 3 -11 1 -14 -4 -4 -5 -2 -12 3 -15 5 -4 12 -2 16 4 4 6 10 8 15 5 5 -3 11 -1 14 4 4 5 2 12 -3 15 -5 4 -12 2 -16 -4z"/>
 <path d="M826 1321 c-4 -5 -2 -12 4 -16 5 -3 10 -3 10 1 0 3 6 1 14 -5 10 -8 16 -9 21 -1 3 5 4 11 1 11 -3 1 -9 2 -13 3 -5 1 -13 5 -20 9 -6 4 -14 3 -17 -2z"/>
 <path d="M1336 1312 c-3 -5 3 -17 13 -26 11 -10 22 -13 25 -8 3 5 -3 17 -13 26 -11 10 -22 13 -25 8z"/>
 <path d="M340 1265 c-19 -19 -31 -35 -27 -36 31 -5 52 -1 49 10 -2 8 4 21 13 31 31 34 -2 29 -35 -5z"/>
 <path d="M1227 1293 c-4 -3 0 -14 8 -23 9 -10 15 -23 13 -30 -3 -13 40 -22 47 -10 6 10 -60 72 -68 63z"/>
 <path d="M236 1263 c-4 -5 -13 -8 -19 -8 -7 0 -11 -8 -9 -18 2 -10 -3 -16 -10 -15 -8 2 -12 -4 -10 -15 2 -10 -3 -16 -10 -15 -7 2 -12 -3 -10 -10 1 -7 -7 -30 -18 -52 -11 -22 -16 -41 -10 -45 11 -7 49 65 43 83 -3 7 1 11 9 10 8 -2 12 4 10 15 -2 10 2 16 10 15 6 -2 12 6 13 17 0 11 6 20 13 20 6 0 12 4 13 8 1 13 -7 18 -15 10z"/>
 <path d="M655 1260 c-4 -6 -3 -16 3 -22 6 -6 12 -6 17 2 4 6 3 16 -3 22 -6 6 -12 6 -17 -2z"/>
 <path d="M1365 1250 c-6 -10 -5 -12 18 -14 6 0 12 -10 12 -21 1 -11 7 -19 13 -17 8 1 12 -5 10 -15 -2 -10 2 -17 8 -16 14 3 49 -72 40 -85 -3 -6 -2 -13 3 -17 5 -3 14 2 19 12 12 21 -32 118 -49 107 -6 -3 -9 2 -7 12 2 12 -2 18 -10 16 -7 -1 -12 5 -10 15 2 10 -1 18 -7 18 -5 0 -15 4 -22 8 -6 4 -14 3 -18 -3z"/>
 <path d="M415 1228 c-9 -24 0 -35 27 -32 13 1 24 3 26 4 1 2 7 3 12 4 6 0 10 4 10 9 0 7 -4 8 -15 6 -21 -5 -32 -2 -42 11 -10 13 -12 13 -18 -2z"/>
 <path d="M1175 1228 c-7 -16 -21 -18 -42 -5 -6 4 -14 3 -18 -3 -3 -5 -4 -11 -1 -11 17 -4 26 -7 29 -9 1 -1 13 -3 25 -4 26 -3 41 19 24 36 -8 8 -13 7 -17 -4z"/>
 <path d="M346 1202 c-3 -6 1 -15 8 -21 8 -7 17 -8 20 -3 3 6 -1 15 -8 21 -8 7 -17 8 -20 3z"/>
 <path d="M1241 1196 c-7 -8 -8 -17 -3 -20 6 -3 15 1 21 8 7 8 8 17 3 20 -6 3 -15 -1 -21 -8z"/>
 <path d="M329 1176 c-1 -3 -2 -9 -3 -13 -1 -5 -5 -13 -9 -20 -4 -6 -3 -14 3 -18 5 -3 11 -4 11 -1 1 3 2 9 3 14 1 4 5 12 9 19 4 6 3 14 -3 18 -5 3 -11 4 -11 1z"/>
 <path d="M1266 1171 c-4 -5 -2 -12 4 -16 6 -4 8 -10 5 -15 -3 -5 -1 -11 4 -14 5 -4 12 -2 15 3 4 5 2 12 -4 16 -6 4 -8 10 -5 15 3 5 1 11 -4 14 -5 4 -12 2 -15 -3z"/>
 <path d="M277 1153 c-4 -6 0 -18 7 -28 8 -11 16 -14 19 -8 4 6 0 18 -7 28 -8 11 -16 14 -19 8z"/>
 <path d="M1310 1141 c-6 -12 -6 -22 -1 -26 6 -3 15 3 21 14 6 12 6 22 1 26 -6 3 -15 -3 -21 -14z"/>
 <path d="M439 1146 c-1 -3 -2 -9 -3 -13 -1 -5 -5 -13 -9 -20 -4 -6 -3 -14 3 -18 5 -3 11 -4 11 -1 1 3 2 9 3 14 1 4 5 12 9 19 4 6 3 14 -3 18 -5 3 -11 4 -11 1z"/>
 <path d="M640 1111 c-6 -12 -6 -22 -1 -26 6 -3 15 3 21 14 6 12 6 22 1 26 -6 3 -15 -3 -21 -14z"/>
 <path d="M675 1111 c-2 -5 2 -16 9 -26 13 -18 14 -18 25 3 6 12 10 22 9 23 -23 6 -39 6 -43 0z"/>
 <path d="M895 1111 c-2 -5 2 -16 9 -26 13 -18 14 -18 25 3 6 12 10 22 9 23 -23 6 -39 6 -43 0z"/>
 <path d="M773 1078 c-16 -27 -2 -75 19 -62 5 3 4 12 -3 20 -9 11 -9 17 0 28 8 9 8 16 2 20 -5 4 -13 1 -18 -6z"/>
 <path d="M817 1083 c-4 -3 -2 -12 4 -20 9 -9 8 -17 0 -27 -8 -9 -8 -16 -2 -20 11 -7 24 11 26 36 2 20 -18 42 -28 31z"/>
 <path d="M109 1078 c-1 -5 -2 -11 -3 -15 -1 -5 -5 -14 -9 -20 -5 -7 -5 -13 -1 -13 3 0 1 -6 -5 -13 -15 -19 -2 -28 21 -16 11 6 17 13 14 16 -3 4 -1 11 4 18 6 8 5 18 -5 31 -8 10 -15 16 -16 12z"/>
 <path d="M278 1054 c-9 -14 11 -56 22 -49 13 8 13 18 -3 40 -8 10 -16 14 -19 9z"/>
 <path d="M1310 1040 c-11 -21 -5 -44 9 -35 13 7 20 44 11 50 -5 3 -14 -4 -20 -15z"/>
 <path d="M1490 1041 c-8 -16 -7 -22 9 -31 21 -11 40 3 21 15 -6 4 -8 10 -5 15 3 5 1 11 -4 15 -6 3 -15 -3 -21 -14z"/>
 <path d="M681 1012 c-6 -12 -10 -22 -9 -23 42 -11 54 -1 34 26 -13 18 -14 18 -25 -3z"/>
 <path d="M901 1012 c-6 -12 -10 -22 -9 -23 42 -11 54 -1 34 26 -13 18 -14 18 -25 -3z"/>
 <path d="M76 971 c-4 -5 -1 -13 4 -16 8 -5 6 -13 -5 -25 -9 -10 -12 -21 -7 -24 5 -3 17 3 26 13 12 13 14 21 6 26 -5 3 -8 10 -5 15 3 5 1 11 -4 14 -5 4 -12 2 -15 -3z"/>
 <path d="M305 971 c-7 -12 12 -24 25 -16 11 7 4 25 -10 25 -5 0 -11 -4 -15 -9z"/>
 <path d="M1275 971 c-7 -12 12 -24 25 -16 11 7 4 25 -10 25 -5 0 -11 -4 -15 -9z"/>
 <path d="M165 960 c-4 -6 -3 -16 3 -22 6 -6 12 -6 17 2 4 6 3 16 -3 22 -6 6 -12 6 -17 -2z"/>
 <path d="M235 961 c-7 -12 12 -24 25 -16 11 7 4 25 -10 25 -5 0 -11 -4 -15 -9z"/>
 <path d="M1345 961 c-7 -12 12 -24 25 -16 11 7 4 25 -10 25 -5 0 -11 -4 -15 -9z"/>
 <path d="M1425 960 c-4 -6 -3 -16 3 -22 6 -6 12 -6 17 2 4 6 3 16 -3 22 -6 6 -12 6 -17 -2z"/>
 <path d="M1506 951 c-3 -5 1 -14 9 -21 11 -9 12 -16 4 -26 -6 -7 -8 -18 -4 -24 9 -14 28 -1 21 16 -3 7 -1 16 4 19 6 4 10 10 10 15 0 14 -38 32 -44 21z"/>
 <path d="M1366 901 c-4 -5 -2 -12 3 -15 5 -4 8 -18 6 -32 -3 -28 19 -44 37 -26 8 8 7 13 -5 18 -9 3 -15 10 -12 14 3 5 1 11 -5 15 -6 4 -8 10 -5 15 3 5 1 11 -4 14 -5 4 -12 2 -15 -3z"/>
 <path d="M1124 888 c-6 -9 -4 -10 26 -11 11 -1 19 3 18 8 -4 12 -37 14 -44 3z"/>
 <path d="M75 870 c-4 -6 -3 -16 3 -22 6 -6 12 -6 17 2 4 6 3 16 -3 22 -6 6 -12 6 -17 -2z"/>
 <path d="M279 876 c-1 -3 -2 -9 -3 -13 -1 -5 -5 -13 -9 -20 -4 -6 -3 -14 3 -18 5 -3 11 -4 11 -1 1 3 2 9 3 14 1 4 5 12 9 19 4 6 3 14 -3 18 -5 3 -11 4 -11 1z"/>
 <path d="M1316 871 c-4 -5 -2 -12 4 -16 6 -4 8 -10 5 -15 -3 -5 -1 -11 4 -14 5 -4 12 -2 15 3 4 5 2 12 -4 16 -6 4 -8 10 -5 15 3 5 1 11 -4 14 -5 4 -12 2 -15 -3z"/>
 <path d="M1534 866 c-8 -21 3 -49 16 -41 5 3 10 15 10 25 0 25 -18 36 -26 16z"/>
 <path d="M447 853 c-4 -6 0 -18 7 -28 8 -11 16 -14 19 -8 4 6 0 18 -7 28 -8 11 -16 14 -19 8z"/>
 <path d="M690 841 c-6 -12 -6 -22 -1 -26 6 -3 15 3 21 14 6 12 6 22 1 26 -6 3 -15 -3 -21 -14z"/>
 <path d="M195 840 c-8 -12 20 -24 35 -15 6 3 8 11 5 16 -8 12 -32 12 -40 -1z"/>
 <path d="M1186 842 c-4 -4 -16 -7 -27 -7 -10 0 -18 -4 -16 -10 3 -13 25 -16 33 -4 3 5 9 7 14 4 5 -3 11 -1 14 4 8 12 -9 23 -18 13z"/>
 <path d="M55 827 c-9 -22 -2 -62 10 -60 6 1 11 14 13 29 4 32 -14 56 -23 31z"/>
 <path d="M145 827 c-9 -22 -2 -62 10 -60 6 1 11 14 13 29 4 32 -14 56 -23 31z"/>
 <path d="M1444 817 c-7 -20 -2 -47 11 -50 14 -3 19 43 6 56 -7 7 -12 6 -17 -6z"/>
 <path d="M326 801 c-4 -5 -2 -12 4 -16 6 -4 8 -10 5 -15 -3 -5 -1 -11 4 -14 5 -4 12 -2 15 3 4 5 2 12 -4 16 -6 4 -8 10 -5 15 3 5 1 11 -4 14 -5 4 -12 2 -15 -3z"/>
 <path d="M1269 806 c-1 -3 -2 -9 -3 -13 -1 -5 -5 -13 -9 -20 -4 -6 -3 -14 3 -18 5 -3 11 -4 11 -1 1 3 2 9 3 14 1 4 5 12 9 19 4 6 3 14 -3 18 -5 3 -11 4 -11 1z"/>
 <path d="M232 777 c-16 -19 -3 -30 16 -14 11 8 14 8 9 0 -4 -6 -3 -14 2 -17 19 -12 20 12 2 28 -15 14 -20 14 -29 3z"/>
 <path d="M994 778 c-10 -15 35 -29 57 -18 11 7 18 14 15 17 -8 9 -67 9 -72 1z"/>
 <path d="M1356 782 c-3 -6 1 -15 8 -21 8 -7 17 -8 20 -3 3 6 -1 15 -8 21 -8 7 -17 8 -20 3z"/>
 <path d="M1534 756 c-4 -10 -2 -22 4 -28 8 -8 13 -7 18 6 4 10 2 22 -4 28 -8 8 -13 7 -18 -6z"/>
 <path d="M74 746 c-4 -10 -2 -22 4 -28 8 -8 13 -7 18 6 4 10 2 22 -4 28 -8 8 -13 7 -18 -6z"/>
 <path d="M667 743 c-4 -6 0 -18 7 -28 8 -11 16 -14 19 -8 4 6 0 18 -7 28 -8 11 -16 14 -19 8z"/>
 <path d="M905 740 c-4 -6 -10 -8 -15 -5 -5 3 -11 1 -14 -4 -4 -5 -2 -12 3 -15 5 -4 12 -2 16 4 4 6 10 8 15 5 5 -3 11 -1 14 4 4 5 2 12 -3 15 -5 4 -12 2 -16 -4z"/>
 <path d="M1114 739 c-6 -10 -4 -11 24 -13 9 -1 22 -5 29 -9 6 -4 14 -3 18 3 3 5 4 11 1 11 -17 4 -26 7 -28 9 -10 7 -39 7 -44 -1z"/>
 <path d="M206 731 c-4 -5 -2 -12 3 -16 5 -3 8 -14 6 -25 -4 -21 9 -35 25 -25 7 4 6 14 -2 28 -7 12 -12 25 -13 29 0 13 -13 19 -19 9z"/>
 <path d="M1389 736 c-1 -3 -2 -9 -3 -13 -1 -5 -7 -18 -14 -30 -8 -14 -9 -24 -2 -28 15 -9 29 3 25 23 -1 9 2 22 7 29 5 7 5 14 -2 18 -5 3 -11 4 -11 1z"/>
 <path d="M1515 720 c-4 -6 -3 -16 3 -22 6 -6 12 -6 17 2 4 6 3 16 -3 22 -6 6 -12 6 -17 -2z"/>
 <path d="M65 690 c-8 -13 24 -52 36 -44 5 3 7 10 3 15 -3 5 -10 7 -15 4 -5 -3 -6 0 -3 8 6 18 -12 32 -21 17z"/>
 <path d="M1516 661 c-10 -11 -13 -22 -8 -25 5 -3 17 3 26 13 10 11 13 22 8 25 -5 3 -17 -3 -26 -13z"/>
 <path d="M410 641 c-6 -12 -6 -22 -1 -26 6 -3 15 3 21 14 6 12 6 22 1 26 -6 3 -15 -3 -21 -14z"/>
 <path d="M1177 653 c-4 -6 0 -18 7 -28 8 -11 16 -14 19 -8 4 6 0 18 -7 28 -8 11 -16 14 -19 8z"/>
 <path d="M665 640 c-8 -12 20 -24 35 -15 6 3 8 11 5 16 -8 12 -32 12 -40 -1z"/>
 <path d="M725 639 c-4 -6 2 -13 14 -16 11 -3 19 -9 16 -13 -3 -5 -1 -11 4 -15 12 -7 34 32 26 45 -8 13 -52 13 -60 -1z"/>
 <path d="M825 640 c-8 -13 14 -52 26 -45 5 4 7 10 4 15 -3 4 5 10 16 13 12 3 18 10 14 16 -8 14 -52 14 -60 1z"/>
 <path d="M907 643 c-3 -7 -3 -17 2 -40 0 -3 10 2 21 12 11 10 17 22 14 26 -6 11 -31 12 -37 2z"/>
 <path d="M1319 648 c0 -2 -2 -12 -4 -23 -1 -11 -6 -27 -9 -36 -8 -18 9 -36 18 -20 11 17 14 71 5 77 -5 3 -9 4 -10 2z"/>
 <path d="M75 631 c-3 -6 3 -15 14 -21 12 -6 22 -6 26 -1 3 6 -3 15 -14 21 -12 6 -22 6 -26 1z"/>
 <path d="M345 631 c-7 -12 12 -24 25 -16 11 7 4 25 -10 25 -5 0 -11 -4 -15 -9z"/>
 <path d="M1235 631 c-7 -12 12 -24 25 -16 11 7 4 25 -10 25 -5 0 -11 -4 -15 -9z"/>
 <path d="M1505 616 c-11 -8 -14 -16 -8 -19 6 -4 18 0 28 7 11 8 14 16 8 19 -6 4 -18 0 -28 -7z"/>
 <path d="M176 611 c-4 -5 -2 -12 4 -16 6 -4 8 -10 5 -15 -3 -5 -1 -11 4 -14 5 -4 12 -2 15 3 4 5 2 12 -4 16 -6 4 -8 10 -5 15 3 5 1 11 -4 14 -5 4 -12 2 -15 -3z"/>
 <path d="M1419 616 c-1 -3 -2 -9 -3 -13 -1 -5 -5 -13 -9 -20 -4 -6 -3 -14 3 -18 5 -3 11 -4 11 -1 1 3 2 9 3 14 1 4 5 12 9 19 4 6 3 14 -3 18 -5 3 -11 4 -11 1z"/>
 <path d="M285 590 c-4 -6 -3 -16 3 -22 6 -6 12 -6 17 2 4 6 3 16 -3 22 -6 6 -12 6 -17 -2z"/>
 <path d="M651 561 c-12 -22 4 -50 26 -47 24 4 24 58 0 62 -10 1 -21 -5 -26 -15z"/>
 <path d="M919 574 c-7 -29 0 -58 14 -60 21 -3 39 27 27 46 -8 13 -39 23 -41 14z"/>
 <path d="M728 563 c-7 -14 -3 -33 6 -33 12 -1 17 28 6 35 -5 3 -10 2 -12 -2z"/>
 <path d="M868 563 c-7 -14 -3 -33 6 -33 12 -1 17 28 6 35 -5 3 -10 2 -12 -2z"/>
 <path d="M217 543 c-14 -14 -14 -20 -2 -43 13 -26 48 -35 52 -15 1 6 -4 9 -11 7 -7 -1 -18 9 -24 24 -7 14 -8 23 -3 19 5 -3 12 -1 15 4 11 17 -10 20 -27 4z"/>
 <path d="M121 522 c-7 -14 -6 -24 4 -38 16 -21 16 -21 19 19 2 35 -9 44 -23 19z"/>
 <path d="M1482 533 c-17 -6 -60 -94 -55 -111 3 -7 -1 -11 -9 -10 -8 2 -12 -4 -10 -15 2 -10 -2 -16 -10 -15 -6 2 -12 -6 -13 -17 0 -11 -6 -20 -12 -20 -7 0 -13 -4 -13 -10 0 -5 6 -10 13 -11 20 -1 36 16 30 32 -3 9 0 14 8 12 9 -2 13 4 11 15 -2 10 2 16 10 15 6 -2 13 4 14 12 3 37 5 41 13 35 12 -7 30 25 24 43 -3 7 3 19 12 26 19 14 9 27 -13 19z"/>
 <path d="M299 496 c-2 -11 -1 -46 1 -51 1 -3 3 -9 4 -15 0 -5 4 -10 9 -10 4 0 10 0 13 0 4 0 2 6 -3 13 -6 6 -9 22 -8 35 1 19 -13 44 -16 28z"/>
 <path d="M406 491 c-4 -5 -2 -12 4 -16 6 -4 8 -10 5 -15 -3 -5 -1 -11 4 -14 5 -4 12 -2 15 3 4 5 2 12 -4 16 -6 4 -8 10 -5 15 3 5 1 11 -4 14 -5 4 -12 2 -15 -3z"/>
 <path d="M755 490 c-3 -5 -3 -10 2 -11 4 0 -2 -4 -15 -10 -28 -11 -20 -29 13 -29 26 0 41 15 25 25 -6 4 -8 10 -5 15 3 5 1 11 -4 14 -5 4 -12 2 -16 -4z"/>
 <path d="M839 496 c-1 -3 -2 -9 -3 -13 -1 -5 -4 -13 -8 -19 -10 -15 1 -24 28 -24 30 0 42 20 15 27 -11 3 -19 9 -16 13 3 5 1 11 -5 15 -5 3 -11 4 -11 1z"/>
 <path d="M1189 496 c-1 -3 -2 -9 -3 -13 -1 -5 -5 -13 -9 -20 -4 -6 -3 -14 3 -18 5 -3 11 -4 11 -1 1 3 2 9 3 14 1 4 5 12 9 19 4 6 3 14 -3 18 -5 3 -11 4 -11 1z"/>
 <path d="M1299 498 c-1 -2 -2 -14 -3 -28 0 -14 -5 -30 -9 -37 -4 -6 -3 -14 3 -18 5 -3 11 -4 11 -1 4 17 7 26 9 29 6 8 5 49 -2 53 -4 3 -8 4 -9 2z"/>
 <path d="M685 481 c-3 -6 -10 -9 -15 -6 -16 10 -20 -12 -5 -25 18 -15 44 -6 41 14 -3 22 -13 29 -21 17z"/>
 <path d="M885 480 c-2 -4 5 -16 16 -26 14 -13 25 -15 35 -9 17 11 19 29 4 31 -5 1 -11 2 -12 4 -9 6 -39 7 -43 0z"/>
 <path d="M455 471 c-7 -12 12 -24 24 -16 5 3 12 1 16 -5 4 -6 11 -8 16 -4 5 3 7 10 3 15 -3 5 -9 7 -14 4 -5 -3 -11 -1 -15 5 -8 13 -22 13 -30 1z"/>
 <path d="M1126 473 c-4 -5 -12 -8 -17 -8 -5 0 -9 -3 -9 -7 0 -8 3 -9 18 -7 4 1 12 2 17 3 13 1 19 20 8 23 -5 2 -13 0 -17 -4z"/>
 <path d="M148 454 c-11 -11 10 -42 27 -40 9 1 15 5 15 9 0 4 -2 6 -5 5 -2 -2 -10 5 -17 15 -8 10 -17 15 -20 11z"/>
 <path d="M1301 396 c-7 -8 -8 -17 -3 -20 6 -3 15 1 21 8 7 8 8 17 3 20 -6 3 -15 -1 -21 -8z"/>
 <path d="M415 390 c-8 -13 24 -52 36 -45 4 3 10 1 14 -5 4 -6 11 -8 16 -4 5 3 7 10 3 15 -3 5 -9 7 -14 4 -5 -3 -11 -1 -15 5 -4 6 -11 8 -16 5 -5 -3 -6 0 -3 8 6 18 -12 32 -21 17z"/>
 <path d="M1176 391 c-4 -6 -4 -16 0 -23 4 -6 3 -8 -4 -4 -6 3 -13 2 -16 -3 -12 -19 12 -20 29 -1 13 15 15 24 8 31 -8 8 -13 8 -17 0z"/>
 <path d="M195 370 c-3 -5 -2 -10 2 -12 13 -7 33 -3 36 6 3 12 -31 17 -38 6z"/>
 <path d="M606 362 c-3 -5 3 -17 13 -26 13 -12 21 -14 26 -6 3 5 10 8 15 5 5 -3 11 -1 14 4 4 5 2 12 -3 15 -5 4 -13 1 -16 -4 -5 -8 -13 -6 -25 5 -10 9 -21 12 -24 7z"/>
 <path d="M936 351 c-4 -5 -2 -12 4 -16 5 -3 10 -3 10 1 0 3 6 1 14 -5 10 -8 16 -9 21 -1 3 5 4 11 1 11 -3 1 -9 2 -13 3 -5 1 -13 5 -20 9 -6 4 -14 3 -17 -2z"/>
 <path d="M225 330 c-3 -5 -1 -11 5 -15 5 -3 10 -3 10 1 0 4 9 -1 19 -10 11 -10 22 -13 25 -8 7 11 -19 35 -40 38 -8 1 -16 -2 -19 -6z"/>
 <path d="M755 330 c-3 -5 -4 -11 -1 -11 16 -4 26 -7 31 -9 12 -6 31 -6 40 1 6 4 13 8 18 8 4 1 7 3 7 6 0 3 0 8 0 11 0 4 -6 2 -12 -3 -15 -11 -48 -11 -65 0 -6 4 -14 3 -18 -3z"/>
 <path d="M425 320 c-6 -9 1 -14 17 -11 4 0 12 -8 18 -19 6 -11 15 -18 21 -15 5 4 5 14 -2 26 -6 12 -13 18 -16 15 -4 -3 -12 -1 -19 5 -8 7 -14 7 -19 -1z"/>
 <path d="M1165 320 c-4 -6 -10 -8 -15 -5 -5 3 -14 -3 -20 -14 -6 -12 -6 -22 -1 -26 6 -3 15 4 21 15 6 11 15 18 20 15 5 -3 11 -1 14 4 4 5 2 12 -3 15 -5 4 -12 2 -16 -4z"/>
 <path d="M926 281 c-4 -5 -2 -12 4 -16 5 -3 10 -3 10 1 0 3 6 1 14 -5 10 -8 16 -9 21 -1 3 5 4 11 1 11 -3 1 -9 2 -13 3 -5 1 -13 5 -20 9 -6 4 -14 3 -17 -2z"/>
 <path d="M307 273 c-4 -3 1 -15 10 -26 10 -10 17 -21 16 -23 -2 -2 0 -4 4 -4 4 0 8 6 9 14 2 17 -30 49 -39 39z"/>
 <path d="M635 270 c-4 -6 -3 -16 3 -22 6 -6 12 -6 17 2 4 6 3 16 -3 22 -6 6 -12 6 -17 -2z"/>
 <path d="M875 260 c-4 -6 -10 -8 -15 -5 -5 3 -11 1 -14 -4 -4 -5 -2 -12 3 -15 5 -4 12 -2 16 4 4 6 10 8 15 5 5 -3 11 -1 14 4 4 5 2 12 -3 15 -5 4 -12 2 -16 -4z"/>
 <path d="M1263 247 c-12 -16 -11 -37 2 -37 6 0 10 3 10 8 0 4 4 12 8 19 10 16 -8 26 -20 10z"/>
 <path d="M368 223 c-7 -14 -3 -33 6 -33 12 -1 17 28 6 35 -5 3 -10 2 -12 -2z"/>
 <path d="M675 211 c-7 -12 12 -24 24 -16 5 3 12 1 16 -5 4 -6 11 -8 16 -4 5 3 7 10 3 15 -3 5 -9 7 -14 4 -5 -3 -11 -1 -15 5 -8 13 -22 13 -30 1z"/>
 <path d="M906 213 c-4 -5 -12 -8 -17 -8 -5 0 -9 -3 -9 -7 0 -8 3 -9 18 -7 4 1 12 2 17 3 13 1 19 20 8 23 -5 2 -13 0 -17 -4z"/>
 <path d="M1219 213 c-1 -4 -1 -12 0 -16 1 -4 -7 -7 -16 -5 -11 2 -18 -3 -18 -14 0 -10 5 -18 10 -17 6 1 9 5 7 10 -1 6 5 9 14 7 18 -3 29 28 13 38 -5 3 -10 2 -10 -3z"/>
 <path d="M645 200 c-4 -6 -3 -16 3 -22 6 -6 12 -6 17 2 4 6 3 16 -3 22 -6 6 -12 6 -17 -2z"/>
 <path d="M945 200 c-4 -6 -3 -16 3 -22 6 -6 12 -6 17 2 4 6 3 16 -3 22 -6 6 -12 6 -17 -2z"/>
 <path d="M429 188 c-7 -28 -4 -40 11 -48 13 -7 21 -7 25 0 3 6 -1 13 -9 16 -9 3 -14 10 -11 14 3 5 1 11 -5 15 -5 3 -10 5 -11 3z"/>
 <path d="M1125 158 c-27 -14 -46 -39 -39 -50 3 -5 13 -2 23 7 9 9 25 22 35 29 24 16 8 28 -19 14z"/>
 <path d="M484 128 c-3 -4 4 -12 14 -17 14 -7 24 -6 38 4 21 16 21 16 -19 19 -16 1 -31 -2 -33 -6z"/>
 <path d="M1045 120 c-4 -6 -10 -8 -15 -5 -5 3 -14 -3 -20 -14 -10 -21 3 -40 15 -21 4 6 10 8 15 5 5 -3 14 3 20 14 10 21 -3 40 -15 21z"/>
 <path d="M617 103 c-4 -6 0 -18 7 -28 8 -11 16 -14 19 -8 4 6 0 18 -7 28 -8 11 -16 14 -19 8z"/>
 <path d="M656 91 c-8 -12 31 -44 44 -36 15 9 1 27 -17 21 -8 -3 -11 -2 -8 3 3 5 1 12 -4 15 -5 4 -12 2 -15 -3z"/>
 <path d="M926 81 c-10 -11 -13 -22 -8 -25 5 -3 15 1 22 9 9 11 16 12 25 5 9 -8 15 -8 20 0 3 5 4 11 1 11 -3 1 -9 2 -13 3 -5 1 -13 5 -19 8 -6 4 -19 -1 -28 -11z"/>
 <path d="M725 80 c-8 -12 20 -24 35 -15 6 3 8 11 5 16 -8 12 -32 12 -40 -1z"/>
 <path d="M845 80 c-8 -12 20 -24 35 -15 6 3 8 11 5 16 -8 12 -32 12 -40 -1z"/>
 <path d="M775 61 c-7 -13 17 -24 40 -19 9 1 16 8 16 13 0 14 -48 19 -56 6z"/>
 </g>
<g id="layer110" fill="#d85c62" stroke="none">
 <path d="M695 1451 c-7 -12 12 -24 25 -16 11 7 4 25 -10 25 -5 0 -11 -4 -15 -9z"/>
 <path d="M885 1451 c-7 -12 12 -24 25 -16 11 7 4 25 -10 25 -5 0 -11 -4 -15 -9z"/>
 <path d="M645 1440 c-4 -6 -11 -8 -16 -4 -5 3 -16 0 -24 -6 -8 -7 -15 -9 -15 -6 0 4 -9 2 -20 -4 -10 -6 -17 -17 -14 -24 3 -8 0 -17 -5 -21 -6 -3 -9 -11 -5 -16 4 -6 11 -6 20 2 7 6 11 16 8 21 -8 12 26 37 42 31 7 -2 15 1 19 6 3 6 10 9 15 6 5 -3 11 -1 14 4 4 5 2 12 -3 15 -5 4 -12 2 -16 -4z"/>
 <path d="M946 1441 c-4 -5 -2 -12 4 -16 5 -3 10 -3 10 1 0 3 7 1 15 -6 8 -6 18 -9 22 -7 12 8 46 -20 39 -31 -3 -5 1 -15 8 -21 9 -8 16 -8 20 -2 4 5 1 13 -5 16 -5 4 -8 13 -5 21 3 7 -4 18 -14 24 -11 6 -20 8 -20 4 0 -3 -7 -1 -15 6 -9 7 -18 10 -22 7 -3 -4 -12 -2 -19 4 -8 6 -14 6 -18 0z"/>
 <path d="M773 1418 c-17 -28 3 -78 32 -78 16 0 40 31 40 50 -1 22 -15 41 -26 34 -6 -3 -6 -10 -1 -17 16 -21 10 -42 -13 -42 -23 0 -29 21 -13 42 5 7 5 14 -1 17 -5 4 -13 1 -18 -6z"/>
 <path d="M719 1408 c-1 -5 -2 -12 -3 -17 0 -5 -4 -13 -8 -16 -4 -4 -3 -16 3 -27 9 -18 24 -17 24 0 0 4 3 12 7 18 4 6 1 20 -7 30 -8 10 -15 16 -16 12z"/>
 <path d="M870 1391 c-8 -16 -7 -22 9 -31 21 -11 40 3 21 15 -6 4 -8 10 -5 15 3 5 1 11 -4 15 -6 3 -15 -3 -21 -14z"/>
 <path d="M645 1380 c-10 -16 26 -53 39 -40 7 7 4 17 -11 31 -14 15 -23 18 -28 9z"/>
 <path d="M935 1370 c-12 -14 -15 -24 -9 -30 7 -7 17 -4 29 10 12 14 15 24 9 30 -7 7 -17 4 -29 -10z"/>
 <path d="M608 1363 c-7 -14 -3 -33 6 -33 12 -1 17 28 6 35 -5 3 -10 2 -12 -2z"/>
 <path d="M988 1363 c-7 -14 -3 -33 6 -33 12 -1 17 28 6 35 -5 3 -10 2 -12 -2z"/>
 <path d="M448 1326 c-31 -39 -27 -51 12 -31 17 9 26 21 25 34 -2 33 -9 32 -37 -3z"/>
 <path d="M1129 1360 c-7 -41 -4 -52 22 -66 39 -20 42 -5 8 36 -16 19 -29 32 -30 30z"/>
 <path d="M399 1322 c-29 -24 -11 -36 20 -13 14 11 19 21 13 25 -5 3 -20 -2 -33 -12z"/>
 <path d="M747 1328 c-15 -11 -16 -16 -5 -31 11 -15 16 -16 31 -5 15 11 16 16 5 31 -11 15 -16 16 -31 5z"/>
 <path d="M830 1321 c-8 -16 -6 -22 9 -31 16 -8 22 -6 31 9 8 16 6 22 -9 31 -16 8 -22 6 -31 -9z"/>
 <path d="M1176 1331 c-3 -5 5 -16 19 -25 24 -16 45 -6 22 11 -24 19 -36 23 -41 14z"/>
 <path d="M509 1329 c-10 -47 3 -73 20 -40 8 14 7 22 -4 31 -8 7 -15 11 -16 9z"/>
 <path d="M1082 1318 c-9 -11 -9 -19 1 -32 11 -15 15 -16 25 -4 9 11 9 19 -1 32 -11 15 -15 16 -25 4z"/>
 <path d="M635 1310 c-10 -16 26 -53 39 -40 7 7 4 17 -11 31 -14 15 -23 18 -28 9z"/>
 <path d="M945 1300 c-12 -14 -15 -24 -9 -30 7 -7 17 -4 29 10 12 14 15 24 9 30 -7 7 -17 4 -29 -10z"/>
 <path d="M446 1271 c-11 -13 -14 -21 -7 -26 11 -6 15 1 12 18 -1 5 3 6 8 3 5 -4 12 -2 15 3 12 19 -12 20 -28 2z"/>
 <path d="M551 1271 c-8 -14 -7 -22 4 -31 8 -7 15 -11 16 -9 10 47 -3 73 -20 40z"/>
 <path d="M1039 1290 c-10 -45 0 -70 20 -47 8 10 7 19 -4 33 -8 10 -15 17 -16 14z"/>
 <path d="M1136 1281 c-7 -11 28 -43 37 -34 12 11 8 22 -12 33 -11 5 -22 6 -25 1z"/>
 <path d="M396 1252 c-3 -6 1 -15 8 -21 8 -7 17 -8 20 -3 3 6 -1 15 -8 21 -8 7 -17 8 -20 3z"/>
 <path d="M599 1259 c-9 -41 4 -78 17 -46 2 7 11 14 19 14 10 0 11 -6 5 -23 -12 -30 5 -41 20 -13 9 17 8 24 -6 40 -9 10 -19 17 -22 14 -3 -3 -11 0 -19 6 -7 6 -13 10 -14 8z"/>
 <path d="M777 1254 c-8 -14 8 -37 27 -40 20 -3 41 32 26 41 -6 3 -13 -1 -16 -10 -6 -14 -8 -14 -19 1 -6 9 -15 13 -18 8z"/>
 <path d="M995 1250 c-4 -6 -10 -8 -14 -5 -5 2 -16 -4 -25 -14 -14 -16 -15 -24 -6 -40 15 -29 32 -17 20 14 -11 28 6 31 27 5 13 -16 13 -16 17 18 3 25 -9 38 -19 22z"/>
 <path d="M1191 1246 c-7 -8 -8 -17 -3 -20 6 -3 15 1 21 8 7 8 8 17 3 20 -6 3 -15 -1 -21 -8z"/>
 <path d="M455 1236 c-11 -8 -14 -16 -8 -19 6 -4 18 0 28 7 11 8 14 16 8 19 -6 4 -18 0 -28 -7z"/>
 <path d="M1125 1241 c-3 -6 3 -15 14 -21 12 -6 22 -6 26 -1 3 6 -3 15 -14 21 -12 6 -22 6 -26 1z"/>
 <path d="M344 1225 c-8 -20 20 -52 44 -50 25 2 43 15 36 26 -3 6 -10 6 -17 1 -20 -16 -45 -10 -40 9 6 22 -15 35 -23 14z"/>
 <path d="M1244 1226 c-3 -8 -3 -19 0 -24 7 -12 -26 -12 -41 0 -7 5 -14 5 -17 -1 -7 -11 12 -25 34 -26 19 0 50 24 50 41 0 20 -19 27 -26 10z"/>
 <path d="M283 1207 c-12 -16 -11 -37 2 -37 6 0 10 3 10 8 0 4 4 12 8 19 10 16 -8 26 -20 10z"/>
 <path d="M1307 1214 c-4 -4 -3 -12 1 -18 4 -6 7 -14 7 -18 0 -15 19 -9 21 6 2 17 -20 39 -29 30z"/>
 <path d="M465 1196 c-11 -8 -14 -16 -8 -19 6 -4 18 0 28 7 11 8 14 16 8 19 -6 4 -18 0 -28 -7z"/>
 <path d="M1115 1201 c-3 -6 3 -15 14 -21 12 -6 22 -6 26 -1 3 6 -3 15 -14 21 -12 6 -22 6 -26 1z"/>
 <path d="M304 1165 c-4 -9 -13 -14 -20 -11 -7 3 -16 1 -19 -5 -4 -5 -10 -7 -15 -4 -5 3 -11 1 -14 -4 -4 -5 -2 -12 3 -15 5 -4 12 -2 15 3 4 5 17 8 31 6 27 -3 54 28 35 40 -6 3 -13 -1 -16 -10z"/>
 <path d="M478 1163 c-38 -44 -44 -91 -8 -58 10 9 21 15 26 13 5 -2 9 2 9 7 0 6 -6 9 -15 7 -10 -2 -8 1 5 12 14 10 17 18 9 26 -7 7 -15 6 -26 -7z"/>
 <path d="M1104 1169 c-4 -7 1 -18 12 -26 13 -10 14 -14 4 -11 -9 2 -16 -1 -17 -7 0 -5 4 -9 9 -7 6 2 18 -4 28 -13 23 -21 32 -8 15 24 -19 39 -41 55 -51 40z"/>
 <path d="M1288 1174 c-15 -14 11 -41 37 -39 17 2 29 -3 36 -16 5 -11 14 -17 20 -14 5 4 5 14 -1 26 -6 11 -15 17 -20 14 -5 -3 -11 -1 -15 5 -4 6 -11 8 -16 4 -6 -3 -16 1 -22 11 -7 9 -16 13 -19 9z"/>
 <path d="M340 1151 c-6 -12 -6 -22 -1 -26 6 -3 15 3 21 14 6 12 6 22 1 26 -6 3 -15 -3 -21 -14z"/>
 <path d="M1247 1163 c-4 -6 0 -18 7 -28 8 -11 16 -14 19 -8 4 6 0 18 -7 28 -8 11 -16 14 -19 8z"/>
 <path d="M376 1141 c-11 -13 -14 -21 -7 -26 11 -6 15 1 12 18 -1 5 3 6 8 3 5 -4 12 -2 15 3 12 19 -12 20 -28 2z"/>
 <path d="M1205 1151 c-6 -11 1 -15 18 -12 5 1 6 -3 3 -8 -4 -5 -2 -12 3 -15 19 -12 20 12 2 28 -13 11 -21 14 -26 7z"/>
 <path d="M410 1131 c-5 -11 -6 -22 -1 -25 11 -7 43 28 34 37 -11 12 -22 8 -33 -12z"/>
 <path d="M1166 1141 c-7 -10 28 -43 37 -35 8 8 -11 44 -23 44 -5 0 -11 -4 -14 -9z"/>
 <path d="M276 1117 c-15 -11 -16 -15 -4 -25 11 -9 19 -9 32 1 15 11 16 15 4 25 -11 9 -19 9 -32 -1z"/>
 <path d="M1300 1115 c-9 -11 -7 -16 8 -24 15 -8 23 -7 32 4 9 11 7 16 -8 24 -15 8 -23 7 -32 -4z"/>
 <path d="M475 1101 c-7 -12 12 -24 25 -16 11 7 4 25 -10 25 -5 0 -11 -4 -15 -9z"/>
 <path d="M1105 1101 c-7 -12 12 -24 25 -16 11 7 4 25 -10 25 -5 0 -11 -4 -15 -9z"/>
 <path d="M294 1069 c-6 -10 15 -23 39 -24 22 -2 31 11 15 21 -17 11 -48 12 -54 3z"/>
 <path d="M1259 1063 c-6 -7 -10 -13 -8 -14 28 -6 51 -3 60 8 6 7 10 13 8 14 -28 6 -51 3 -60 -8z"/>
 <path d="M190 1050 c-6 -11 -8 -20 -4 -20 3 0 1 -7 -6 -15 -7 -8 -9 -15 -5 -15 4 0 2 -6 -4 -14 -8 -10 -9 -16 -1 -21 5 -3 11 -4 11 -1 4 16 7 26 9 31 1 3 3 8 4 13 1 4 7 17 14 29 7 13 8 24 3 28 -6 3 -15 -4 -21 -15z"/>
 <path d="M1397 1064 c-3 -4 -1 -16 5 -28 7 -11 13 -24 14 -28 1 -5 3 -10 4 -13 1 -3 3 -9 4 -15 0 -5 4 -10 9 -10 7 0 8 4 6 15 -1 3 -3 10 -4 15 -1 6 -3 11 -5 13 -1 1 -3 10 -5 21 -4 23 -19 39 -28 30z"/>
 <path d="M221 1041 c-13 -24 -5 -48 21 -62 15 -8 23 -8 31 0 9 9 6 13 -12 18 -18 4 -22 11 -18 30 6 30 -9 39 -22 14z"/>
 <path d="M1369 1055 c-1 -5 0 -20 0 -31 2 -14 -5 -23 -19 -27 -21 -5 -20 -27 1 -27 11 0 49 37 49 48 0 13 -29 48 -31 37z"/>
 <path d="M346 1027 c-15 -11 -16 -15 -4 -25 11 -9 19 -9 32 1 15 11 16 15 4 25 -11 9 -19 9 -32 -1z"/>
 <path d="M1230 1025 c-9 -11 -7 -16 8 -24 15 -8 23 -7 32 4 9 11 7 16 -8 24 -15 8 -23 7 -32 -4z"/>
 <path d="M350 978 l-24 -9 21 -21 c22 -22 46 -17 36 7 -6 17 8 20 24 4 7 -7 13 -7 17 -1 13 22 -35 35 -74 20z"/>
 <path d="M1191 976 c-7 -8 -8 -17 -3 -20 6 -3 15 1 21 8 7 8 8 17 3 20 -6 3 -15 -1 -21 -8z"/>
 <path d="M1236 961 c-12 -13 -14 -21 -6 -26 13 -8 52 24 44 36 -8 14 -19 11 -38 -10z"/>
 <path d="M266 961 c-8 -12 31 -44 44 -36 8 5 6 13 -6 26 -19 21 -30 24 -38 10z"/>
 <path d="M1306 951 c-12 -13 -14 -21 -6 -26 13 -8 52 24 44 36 -8 14 -19 11 -38 -10z"/>
 <path d="M197 953 c-4 -3 1 -15 10 -25 13 -15 14 -21 4 -31 -10 -9 -12 -9 -9 3 1 9 -1 18 -6 20 -5 3 -10 -5 -11 -18 -2 -25 29 -50 40 -32 4 6 10 8 15 5 5 -3 11 -1 15 4 3 5 -2 14 -11 19 -12 7 -13 11 -5 17 9 5 8 12 -5 26 -18 20 -27 23 -37 12z"/>
 <path d="M1376 941 c-13 -14 -14 -21 -5 -26 8 -6 7 -10 -5 -17 -9 -5 -14 -14 -11 -19 4 -5 10 -7 15 -4 5 3 11 1 15 -5 10 -16 42 6 40 27 0 10 -5 19 -10 20 -6 1 -8 -6 -7 -15 3 -14 1 -14 -9 -5 -10 10 -9 16 4 31 9 10 14 22 10 25 -10 11 -19 8 -37 -12z"/>
 <path d="M145 880 c-4 -6 -3 -16 3 -22 6 -6 12 -6 17 2 4 6 3 16 -3 22 -6 6 -12 6 -17 -2z"/>
 <path d="M1057 883 c-4 -6 0 -18 7 -28 8 -11 16 -14 19 -8 4 6 0 18 -7 28 -8 11 -16 14 -19 8z"/>
 <path d="M1445 880 c-4 -6 -3 -16 3 -22 6 -6 12 -6 17 2 4 6 3 16 -3 22 -6 6 -12 6 -17 -2z"/>
 <path d="M871 862 c-7 -13 -7 -22 1 -30 7 -7 4 -15 -10 -28 -16 -13 -19 -22 -11 -36 6 -10 14 -16 20 -13 5 4 7 10 4 15 -3 5 0 12 6 16 16 9 30 -18 17 -33 -6 -7 -7 -13 -3 -13 4 0 2 -6 -4 -13 -15 -19 -3 -29 20 -17 10 6 22 9 28 8 5 -2 8 2 8 7 -1 6 -7 9 -13 7 -15 -3 -26 25 -14 33 6 4 6 14 0 26 -6 11 -15 17 -20 14 -6 -3 -7 1 -4 10 4 9 13 14 20 11 16 -6 39 30 25 39 -6 3 -14 -2 -19 -11 -5 -9 -15 -14 -21 -10 -6 4 -9 11 -6 16 3 5 1 11 -4 15 -6 3 -15 -3 -20 -13z"/>
 <path d="M285 860 c-4 -6 -10 -8 -15 -5 -5 3 -11 1 -15 -4 -3 -6 3 -15 14 -21 16 -8 22 -7 31 9 11 21 -3 40 -15 21z"/>
 <path d="M1118 864 c-12 -11 11 -44 26 -38 7 3 16 -2 20 -11 4 -13 10 -14 26 -5 16 9 18 15 10 31 -9 16 -14 17 -31 8 -16 -8 -23 -7 -33 6 -6 9 -15 13 -18 9z"/>
 <path d="M1307 863 c-4 -3 -2 -14 4 -24 8 -16 14 -17 30 -8 18 9 19 24 1 24 -4 0 -12 3 -18 7 -6 4 -14 5 -17 1z"/>
 <path d="M181 826 c-7 -8 -8 -17 -3 -20 6 -3 15 1 21 8 7 8 8 17 3 20 -6 3 -15 -1 -21 -8z"/>
 <path d="M227 833 c-4 -3 -2 -12 3 -19 6 -6 9 -16 8 -22 -2 -5 1 -12 6 -13 14 -6 15 40 1 51 -7 5 -15 7 -18 3z"/>
 <path d="M326 812 c-19 -37 -5 -67 25 -52 11 6 17 15 14 21 -4 5 -11 6 -17 3 -6 -4 -9 -1 -6 7 3 8 10 14 16 14 21 0 23 14 3 24 -17 10 -22 7 -35 -17z"/>
 <path d="M950 821 c-6 -12 -6 -22 -1 -26 6 -3 15 3 21 14 6 12 6 22 1 26 -6 3 -15 -3 -21 -14z"/>
 <path d="M1004 825 c-21 -16 -19 -17 26 -17 17 0 33 1 38 1 8 2 -28 31 -38 31 -3 0 -15 -7 -26 -15z"/>
 <path d="M1087 834 c-3 -6 -2 -16 3 -24 5 -8 3 -22 -6 -36 -10 -14 -11 -24 -5 -28 5 -4 15 3 21 14 6 11 8 20 4 20 -3 0 -1 6 5 13 8 10 7 18 -3 32 -7 10 -16 14 -19 9z"/>
 <path d="M1247 829 c-9 -6 -15 -15 -12 -20 4 -5 10 -7 15 -4 5 3 14 -4 20 -15 6 -11 15 -18 20 -15 8 5 -14 66 -23 65 -1 0 -10 -5 -20 -11z"/>
 <path d="M1363 827 c-11 -16 -10 -53 2 -48 6 1 9 8 7 13 -1 6 2 16 8 23 7 8 7 16 2 19 -6 3 -14 0 -19 -7z"/>
 <path d="M1406 832 c-3 -6 1 -15 8 -21 8 -7 17 -8 20 -3 3 6 -1 15 -8 21 -8 7 -17 8 -20 3z"/>
 <path d="M1141 792 c-7 -13 -6 -23 2 -32 10 -10 8 -12 -5 -7 -12 4 -21 0 -28 -13 -13 -24 5 -37 18 -14 5 9 15 14 21 10 6 -4 9 -11 6 -16 -3 -5 -1 -11 4 -15 6 -3 15 3 21 14 7 13 7 22 0 26 -6 4 -8 10 -5 15 3 5 1 11 -5 15 -6 4 -8 10 -5 15 3 5 1 11 -4 15 -6 3 -15 -3 -20 -13z"/>
 <path d="M195 770 c-8 -12 20 -24 35 -15 6 3 8 11 5 16 -8 12 -32 12 -40 -1z"/>
 <path d="M1375 770 c-8 -12 20 -24 35 -15 6 3 8 11 5 16 -8 12 -32 12 -40 -1z"/>
 <path d="M257 759 c-10 -6 -15 -15 -12 -20 4 -5 10 -7 15 -4 5 3 11 1 15 -5 4 -7 13 -7 26 1 18 9 19 24 1 24 -4 0 -12 3 -17 7 -6 3 -18 2 -28 -3z"/>
 <path d="M967 763 c-4 -6 0 -18 7 -28 8 -11 16 -14 19 -8 4 6 0 18 -7 28 -8 11 -16 14 -19 8z"/>
 <path d="M1325 760 c-4 -6 -10 -8 -15 -5 -5 3 -11 1 -15 -4 -3 -6 3 -15 14 -21 13 -7 22 -7 26 0 4 6 10 8 15 5 5 -3 11 -1 15 4 3 6 -3 15 -14 21 -13 7 -22 7 -26 0z"/>
 <path d="M144 736 c-4 -10 -2 -22 4 -28 8 -8 13 -7 18 6 4 10 2 22 -4 28 -8 8 -13 7 -18 -6z"/>
 <path d="M1444 736 c-4 -10 -2 -22 4 -28 8 -8 13 -7 18 6 4 10 2 22 -4 28 -8 8 -13 7 -18 -6z"/>
 <path d="M199 723 c-1 -4 -1 -12 0 -17 1 -5 -6 -18 -16 -30 -16 -19 -20 -36 -13 -58 1 -5 4 -12 5 -18 1 -5 4 -12 5 -15 1 -3 3 -11 4 -17 1 -7 8 -12 15 -10 8 2 22 -5 33 -15 11 -10 23 -16 27 -15 3 2 14 8 24 13 10 6 15 14 12 20 -4 5 -11 7 -16 4 -21 -14 -48 -13 -43 0 10 24 -7 40 -22 21 -8 -11 -14 -13 -19 -7 -3 6 -3 11 1 11 3 0 2 6 -3 13 -14 19 -10 33 20 66 27 31 34 46 20 46 -5 0 -14 4 -20 8 -7 5 -14 5 -14 0z"/>
 <path d="M1396 722 c-4 -4 -12 -7 -17 -7 -14 0 -7 -18 21 -48 26 -30 31 -45 19 -62 -7 -10 -9 -17 -9 -32 0 -4 -6 2 -14 13 -13 17 -15 18 -21 2 -4 -9 -4 -22 -1 -27 7 -10 -26 -7 -43 4 -5 3 -12 1 -16 -4 -3 -6 2 -14 12 -20 10 -5 21 -11 24 -13 4 -1 16 5 27 15 11 10 25 17 33 15 7 -2 14 3 15 10 1 6 3 14 4 17 1 3 4 10 5 15 1 6 4 13 5 18 7 22 3 39 -13 59 -11 12 -16 26 -13 32 8 12 -8 23 -18 13z"/>
 <path d="M246 661 c-12 -13 -14 -21 -6 -26 13 -8 52 24 44 36 -8 14 -19 11 -38 -10z"/>
 <path d="M1326 671 c-8 -12 31 -44 44 -36 8 5 6 13 -6 26 -19 21 -30 24 -38 10z"/>
 <path d="M316 651 c-12 -13 -14 -21 -6 -26 13 -8 52 24 44 36 -8 14 -19 11 -38 -10z"/>
 <path d="M1256 661 c-8 -12 31 -44 44 -36 8 5 6 13 -6 26 -19 21 -30 24 -38 10z"/>
 <path d="M395 651 c-7 -12 12 -24 25 -16 11 7 4 25 -10 25 -5 0 -11 -4 -15 -9z"/>
 <path d="M1185 651 c-7 -12 12 -24 25 -16 11 7 4 25 -10 25 -5 0 -11 -4 -15 -9z"/>
 <path d="M360 621 c-14 -27 21 -49 40 -26 12 14 7 19 -13 16 -5 -1 -6 3 -3 8 4 5 2 12 -3 16 -6 3 -15 -3 -21 -14z"/>
 <path d="M1229 635 c-1 -5 -1 -14 0 -18 1 -5 -3 -6 -8 -3 -15 10 -22 -11 -8 -23 10 -8 18 -7 31 2 15 11 15 14 2 32 -9 11 -16 16 -17 10z"/>
 <path d="M266 612 c-3 -6 1 -15 8 -21 8 -7 17 -8 20 -3 3 6 -1 15 -8 21 -8 7 -17 8 -20 3z"/>
 <path d="M1321 606 c-7 -8 -8 -17 -3 -20 6 -3 15 1 21 8 7 8 8 17 3 20 -6 3 -15 -1 -21 -8z"/>
 <path d="M320 565 c-9 -11 -7 -16 8 -24 15 -8 23 -7 32 4 9 11 7 16 -8 24 -15 8 -23 7 -32 -4z"/>
 <path d="M1254 565 c-10 -8 -17 -15 -14 -16 45 -10 70 0 47 20 -10 8 -19 7 -33 -4z"/>
 <path d="M207 523 c-4 -6 0 -18 7 -28 8 -11 16 -14 19 -8 4 6 0 18 -7 28 -8 11 -16 14 -19 8z"/>
 <path d="M279 513 c-6 -7 -10 -13 -8 -14 28 -6 51 -3 60 8 6 7 10 13 8 14 -28 6 -51 3 -60 -8z"/>
 <path d="M1274 519 c-6 -10 15 -23 39 -24 22 -2 31 11 15 21 -17 11 -48 12 -54 3z"/>
 <path d="M1380 511 c-6 -12 -6 -22 -1 -26 6 -3 15 3 21 14 6 12 6 22 1 26 -6 3 -15 -3 -21 -14z"/>
 <path d="M499 516 c-5 -23 -2 -46 5 -48 12 -4 15 41 4 48 -4 3 -8 3 -9 0z"/>
 <path d="M1099 516 c-5 -23 -2 -46 5 -48 12 -4 15 41 4 48 -4 3 -8 3 -9 0z"/>
 <path d="M455 501 c-7 -12 12 -24 25 -16 11 7 4 25 -10 25 -5 0 -11 -4 -15 -9z"/>
 <path d="M1125 501 c-7 -12 12 -24 25 -16 11 7 4 25 -10 25 -5 0 -11 -4 -15 -9z"/>
 <path d="M427 493 c-4 -6 0 -18 7 -28 8 -11 16 -14 19 -8 4 6 0 18 -7 28 -8 11 -16 14 -19 8z"/>
 <path d="M1160 481 c-6 -12 -6 -22 -1 -26 6 -3 15 3 21 14 6 12 6 22 1 26 -6 3 -15 -3 -21 -14z"/>
 <path d="M251 476 c-8 -9 -4 -19 17 -39 30 -29 48 -27 32 3 -5 10 -7 20 -4 23 3 3 -3 10 -14 16 -15 8 -23 7 -31 -3z"/>
 <path d="M386 482 c-9 -15 21 -49 34 -36 7 7 5 15 -9 28 -10 9 -22 13 -25 8z"/>
 <path d="M1196 471 c-15 -17 -13 -31 5 -31 13 0 30 38 20 44 -4 3 -16 -3 -25 -13z"/>
 <path d="M1324 475 c-10 -8 -15 -15 -11 -15 4 0 3 -9 -3 -19 -16 -32 5 -33 34 -2 22 23 24 30 13 39 -10 9 -18 8 -33 -3z"/>
 <path d="M345 471 c-6 -11 1 -15 18 -12 5 1 6 -3 3 -8 -4 -5 -2 -12 3 -15 19 -12 20 12 2 28 -13 11 -21 14 -26 7z"/>
 <path d="M1236 461 c-11 -13 -14 -21 -7 -26 11 -6 15 1 12 18 -1 5 3 6 8 3 5 -4 12 -2 15 3 12 19 -12 20 -28 2z"/>
 <path d="M317 463 c-4 -6 0 -18 7 -28 8 -11 16 -14 19 -8 4 6 0 18 -7 28 -8 11 -16 14 -19 8z"/>
 <path d="M1270 451 c-6 -12 -6 -22 -1 -26 6 -3 15 3 21 14 6 12 6 22 1 26 -6 3 -15 -3 -21 -14z"/>
 <path d="M465 451 c-3 -6 3 -15 14 -21 12 -6 22 -6 26 -1 3 6 -3 15 -14 21 -12 6 -22 6 -26 1z"/>
 <path d="M1115 446 c-11 -8 -14 -16 -8 -19 6 -4 18 0 28 7 11 8 14 16 8 19 -6 4 -18 0 -28 -7z"/>
 <path d="M455 421 c-6 -11 1 -15 18 -12 5 1 6 -3 3 -8 -4 -5 -2 -12 3 -15 19 -12 20 12 2 28 -13 11 -21 14 -26 7z"/>
 <path d="M1126 411 c-11 -13 -14 -21 -7 -26 11 -6 15 1 12 18 -1 5 3 6 8 3 5 -4 12 -2 15 3 12 19 -12 20 -28 2z"/>
 <path d="M350 401 c-8 -15 -8 -27 0 -41 15 -27 25 -19 24 19 -1 40 -10 48 -24 22z"/>
 <path d="M622 407 c-16 -19 -3 -30 17 -15 11 9 10 6 -2 -9 -22 -25 -8 -38 19 -18 19 14 19 14 -2 35 -17 18 -22 19 -32 7z"/>
 <path d="M954 399 c-18 -20 -18 -21 0 -35 27 -19 41 -6 19 19 -14 17 -14 19 -1 9 20 -16 34 1 14 17 -10 8 -17 6 -32 -10z"/>
 <path d="M1239 418 c-4 -16 -2 -71 3 -74 15 -9 29 35 18 56 -9 18 -18 25 -21 18z"/>
 <path d="M297 383 c-4 -5 16 -31 42 -57 27 -26 51 -44 54 -39 4 5 -16 31 -42 57 -27 26 -51 44 -54 39z"/>
 <path d="M446 381 c-7 -11 28 -43 37 -34 12 11 8 22 -12 33 -11 5 -22 6 -25 1z"/>
 <path d="M1134 375 c-14 -10 -16 -17 -8 -25 7 -7 15 -5 28 9 21 23 6 36 -20 16z"/>
 <path d="M1256 341 c-26 -27 -44 -51 -39 -54 5 -4 31 16 57 42 26 27 44 51 39 54 -5 4 -31 -16 -57 -42z"/>
 <path d="M579 380 c-10 -45 0 -70 20 -47 8 10 7 19 -4 33 -8 10 -15 17 -16 14z"/>
 <path d="M1011 361 c-8 -14 -7 -22 4 -31 8 -7 15 -11 16 -9 10 47 -3 73 -20 40z"/>
 <path d="M435 341 c-3 -6 3 -15 14 -21 12 -6 22 -6 26 -1 3 6 -3 15 -14 21 -12 6 -22 6 -26 1z"/>
 <path d="M534 338 c-11 -17 -12 -48 -3 -54 10 -6 23 15 24 39 2 22 -11 31 -21 15z"/>
 <path d="M759 328 c-13 -24 25 -46 39 -22 8 15 10 15 15 0 5 -14 11 -15 27 -6 15 8 18 15 11 27 -13 24 -80 24 -92 1z"/>
 <path d="M1059 349 c-6 -28 -3 -51 8 -60 7 -6 13 -10 14 -8 6 28 3 51 -8 60 -7 6 -13 10 -14 8z"/>
 <path d="M1145 336 c-11 -8 -14 -16 -8 -19 6 -4 18 0 28 7 11 8 14 16 8 19 -6 4 -18 0 -28 -7z"/>
 <path d="M644 316 c-13 -10 -16 -18 -8 -25 7 -8 16 -7 30 3 13 10 16 18 8 25 -7 8 -16 7 -30 -3z"/>
 <path d="M934 319 c-8 -13 24 -41 37 -33 15 9 10 23 -10 34 -14 7 -22 7 -27 -1z"/>
 <path d="M424 309 c-4 -7 0 -17 8 -23 8 -6 16 -14 16 -18 1 -5 5 -7 10 -5 4 1 6 5 5 10 -6 15 15 6 21 -9 5 -13 9 -14 21 -4 11 9 12 17 4 32 -8 15 -13 17 -25 7 -11 -9 -18 -8 -33 5 -14 13 -21 14 -27 5z"/>
 <path d="M1101 292 c-8 -15 -7 -23 4 -32 12 -10 16 -9 21 4 6 17 26 23 22 7 -2 -5 2 -8 7 -7 6 0 9 4 8 8 -1 3 4 9 12 12 8 3 14 2 12 -2 -1 -4 1 -8 6 -9 18 -7 19 -2 2 17 -14 15 -22 17 -37 9 -14 -7 -23 -7 -33 1 -11 9 -16 7 -24 -8z"/>
 <path d="M730 281 c-7 -13 -7 -22 0 -26 6 -4 8 -10 5 -15 -3 -5 -1 -11 4 -15 6 -3 15 3 21 14 7 13 7 22 0 26 -6 4 -8 10 -5 15 3 5 1 11 -4 15 -6 3 -15 -3 -21 -14z"/>
 <path d="M859 298 c-1 -5 -2 -12 -3 -17 0 -5 -4 -13 -8 -16 -4 -4 -3 -16 3 -27 9 -18 24 -17 24 0 0 4 3 12 7 18 4 6 1 20 -7 30 -8 10 -15 16 -16 12z"/>
 <path d="M597 283 c-4 -3 -2 -12 4 -20 9 -9 8 -17 0 -27 -8 -9 -8 -16 -2 -20 11 -7 24 11 26 36 2 20 -18 42 -28 31z"/>
 <path d="M993 278 c-16 -27 -2 -75 19 -62 5 3 4 12 -3 20 -9 11 -9 17 0 28 8 9 8 16 2 20 -5 4 -13 1 -18 -6z"/>
 <path d="M655 240 c-12 -14 -15 -24 -9 -30 7 -7 17 -4 29 10 12 14 15 24 9 30 -7 7 -17 4 -29 -10z"/>
 <path d="M924 249 c-8 -13 24 -41 37 -33 15 9 10 23 -10 34 -14 7 -22 7 -27 -1z"/>
 <path d="M771 236 c-7 -8 -8 -17 -3 -20 6 -3 15 1 21 8 7 8 8 17 3 20 -6 3 -15 -1 -21 -8z"/>
 <path d="M816 242 c-3 -6 1 -15 8 -21 8 -7 17 -8 20 -3 3 6 -1 15 -8 21 -8 7 -17 8 -20 3z"/>
 <path d="M690 211 c-8 -16 -7 -22 9 -31 21 -11 40 3 21 15 -6 4 -8 10 -5 15 3 5 1 11 -4 15 -6 3 -15 -3 -21 -14z"/>
 <path d="M899 228 c-1 -5 -2 -12 -3 -17 0 -5 -4 -13 -8 -16 -10 -11 11 -47 23 -40 5 4 6 11 3 17 -4 6 -2 8 4 4 20 -12 21 9 1 34 -10 14 -19 22 -20 18z"/>
 <path d="M545 201 c-3 -6 4 -15 15 -21 11 -6 20 -8 20 -4 0 3 7 1 15 -6 8 -7 15 -9 15 -5 0 4 7 2 15 -5 8 -6 19 -9 25 -5 14 9 1 28 -15 21 -7 -2 -16 -2 -20 2 -4 4 -10 7 -13 7 -4 1 -17 6 -29 13 -13 7 -24 8 -28 3z"/>
 <path d="M1032 194 c-12 -8 -22 -12 -22 -8 0 5 -5 3 -11 -3 -6 -6 -17 -9 -24 -7 -16 7 -29 -12 -15 -21 6 -4 16 -2 23 3 7 6 15 11 20 11 4 1 8 1 10 2 1 0 10 2 21 4 24 5 41 21 29 28 -6 4 -19 -1 -31 -9z"/>
 <path d="M785 180 c-8 -12 20 -24 35 -15 6 3 8 11 5 16 -8 12 -32 12 -40 -1z"/>
 <path d="M735 150 c-8 -12 20 -24 35 -15 6 3 8 11 5 16 -8 12 -32 12 -40 -1z"/>
 <path d="M835 150 c-8 -12 20 -24 35 -15 6 3 8 11 5 16 -8 12 -32 12 -40 -1z"/>
 </g>
<g id="layer111" fill="#070202" stroke="none">
 <path d="M594 1580 c-281 -73 -537 -343 -575 -604 -12 -82 -11 -274 1 -361 13 -91 89 -247 164 -336 113 -135 281 -237 436 -264 108 -19 262 -19 370 0 155 27 323 129 436 264 59 70 145 235 163 313 6 26 11 121 11 211 0 140 -3 175 -21 233 -81 262 -306 478 -567 545 -103 26 -316 26 -418 -1z m274 -57 c-32 -2 -86 -2 -120 0 -35 2 -9 3 57 3 66 0 94 -1 63 -3z m-258 -27 c-106 -32 -125 -41 -201 -92 -149 -99 -268 -266 -310 -436 -9 -40 -18 -65 -18 -55 -2 40 24 117 71 216 43 90 61 116 132 185 45 45 107 96 138 115 61 35 210 91 243 90 11 0 -14 -10 -55 -23z m428 0 c310 -105 505 -380 500 -705 l-1 -106 -7 130 c-6 99 -14 149 -34 211 -70 218 -278 414 -501 474 -39 10 -60 19 -48 19 11 1 53 -10 91 -23z m-68 -32 c117 -26 223 -86 315 -177 136 -136 194 -265 202 -454 7 -141 -12 -231 -74 -354 -79 -158 -219 -276 -398 -336 -71 -24 -95 -27 -210 -27 -113 0 -140 4 -210 27 -108 36 -195 89 -274 168 -79 79 -132 165 -168 274 -24 70 -27 96 -27 210 0 98 4 145 18 190 110 360 456 560 826 479z m-856 -889 c36 -113 89 -197 181 -290 92 -92 175 -144 290 -182 71 -24 95 -27 220 -27 125 0 149 3 220 27 116 39 199 91 295 187 97 96 156 197 191 322 14 53 18 61 14 29 -8 -65 -59 -184 -111 -262 -89 -134 -232 -237 -404 -291 -108 -33 -302 -33 -410 0 -250 79 -423 250 -500 497 -16 52 -23 101 -25 190 l-3 120 8 -120 c5 -83 16 -145 34 -200z"/>
 </g>
<g id="layer112" fill="#c81820" stroke="none">
 <path d="M665 1486 c-267 -61 -472 -260 -541 -526 -23 -86 -23 -244 0 -330 9 -36 36 -103 59 -150 33 -68 58 -102 127 -170 47 -47 110 -100 142 -118 125 -74 294 -110 428 -92 177 22 288 77 416 204 78 78 98 104 137 186 73 151 92 282 63 434 -49 255 -233 463 -481 542 -99 32 -258 41 -350 20z m199 -113 c-61 -110 -56 -104 -69 -85 -7 9 -29 47 -49 85 l-38 67 97 0 97 0 -38 -67z m-214 31 c0 -21 -21 -158 -25 -162 -2 -2 -36 22 -76 54 l-73 58 69 33 c77 36 105 41 105 17z m415 -17 l69 -33 -73 -58 c-40 -32 -74 -56 -76 -54 -4 4 -25 141 -25 162 0 24 28 19 105 -17z m-315 -97 c28 -49 53 -90 55 -90 2 0 27 41 55 91 29 49 55 88 58 85 3 -3 11 -45 18 -92 7 -48 17 -91 23 -97 6 -6 39 14 98 61 48 38 89 69 90 68 1 0 -12 -50 -28 -109 -16 -60 -27 -112 -24 -117 3 -5 53 4 112 20 59 16 109 28 110 26 2 -1 -28 -43 -66 -91 -38 -49 -68 -92 -65 -96 2 -4 49 -12 104 -19 55 -7 100 -16 100 -19 -1 -6 -163 -101 -174 -101 -3 0 -15 18 -26 40 -19 37 -38 49 -53 34 -3 -4 4 -24 16 -45 l22 -39 -22 -41 c-22 -40 -22 -59 -2 -59 5 0 22 20 37 44 l28 44 93 -53 93 -53 -89 -11 c-149 -20 -146 -15 -59 -125 l74 -93 -110 29 c-62 17 -114 26 -119 21 -5 -5 4 -55 20 -116 16 -59 28 -107 27 -107 -1 0 -43 31 -91 70 -49 38 -93 66 -97 62 -4 -4 -12 -41 -18 -82 -20 -137 -15 -135 -73 -36 -29 49 -56 89 -61 90 -5 0 -33 -39 -62 -89 -59 -100 -54 -102 -74 35 -6 41 -14 78 -18 82 -4 4 -48 -24 -97 -62 -48 -39 -90 -70 -91 -70 -1 0 11 48 27 107 16 61 25 111 20 116 -5 5 -57 -4 -119 -21 l-111 -29 75 93 c87 110 89 105 -59 125 l-89 11 96 55 c68 39 94 59 87 67 -6 6 -46 31 -90 56 -44 25 -81 48 -81 51 0 3 45 12 100 19 55 7 102 15 104 19 3 4 -27 47 -65 96 -38 48 -68 90 -66 91 1 2 51 -10 110 -26 59 -16 109 -25 112 -20 4 7 -26 134 -50 210 -5 16 17 3 85 -50 59 -47 95 -69 101 -63 5 5 14 41 20 79 12 84 18 114 23 114 3 0 28 -40 56 -90z m-310 -46 c9 -32 20 -71 23 -86 l7 -26 -86 24 c-48 13 -89 26 -92 29 -8 8 110 126 122 122 5 -2 17 -30 26 -63z m825 6 c32 -33 56 -62 53 -65 -3 -3 -44 -16 -92 -29 -77 -22 -86 -22 -82 -8 3 9 12 46 21 82 18 70 22 80 33 80 4 0 34 -27 67 -60z m-961 -191 c67 -86 67 -85 -6 -93 -35 -4 -76 -10 -92 -13 -28 -6 -29 -5 -22 23 10 41 57 144 66 144 4 0 28 -27 54 -61z m1089 4 c14 -32 29 -71 33 -87 7 -28 6 -29 -22 -23 -16 3 -57 9 -92 13 -45 5 -62 10 -58 20 7 19 98 134 106 134 4 0 19 -26 33 -57z m-1134 -223 l73 -42 -73 -44 c-41 -24 -80 -43 -86 -44 -10 0 -13 23 -13 83 0 79 5 101 19 93 3 -2 39 -22 80 -46z m1191 -46 c0 -61 -3 -84 -12 -84 -7 1 -46 20 -87 44 l-74 44 79 45 c43 25 82 43 86 41 4 -3 8 -43 8 -90z m-1093 -178 c3 -3 -20 -36 -50 -75 -43 -55 -57 -68 -66 -57 -11 13 -61 140 -61 155 0 8 168 -13 177 -23z m1048 -51 c-39 -105 -39 -105 -102 -24 -30 39 -53 73 -50 75 9 9 172 30 175 23 1 -3 -9 -37 -23 -74z m-939 -122 c-4 -9 -14 -46 -23 -82 -9 -36 -19 -70 -24 -75 -8 -9 -129 105 -129 121 0 8 136 50 169 52 8 1 11 -5 7 -16z m787 -10 c37 -10 67 -21 67 -26 0 -16 -121 -130 -129 -121 -5 5 -15 39 -24 75 -9 36 -20 74 -23 84 -6 15 -4 17 17 12 13 -4 54 -14 92 -24z m-608 -200 c7 -65 7 -65 -17 -58 -55 16 -151 66 -142 74 5 5 38 32 74 60 l65 50 6 -30 c4 -17 10 -60 14 -96z m428 58 c31 -24 57 -45 57 -48 0 -5 -116 -59 -147 -68 -27 -8 -28 0 -12 109 10 68 13 74 28 63 9 -6 42 -32 74 -56z m-192 -133 c-21 -9 -131 -9 -152 0 -14 6 -10 19 30 88 l46 81 46 -81 c40 -69 44 -82 30 -88z"/>
 <path d="M776 1411 c-23 -25 -6 -61 29 -61 35 0 52 36 29 61 -9 10 -22 19 -29 19 -7 0 -20 -9 -29 -19z"/>
 <path d="M555 1370 c-21 -23 -15 -44 19 -64 14 -9 21 -6 37 13 17 21 18 26 6 45 -20 29 -40 31 -62 6z"/>
 <path d="M996 1368 c-29 -40 18 -86 54 -53 25 22 25 37 2 58 -25 22 -38 21 -56 -5z"/>
 <path d="M866 845 l-27 -45 20 -38 c23 -45 46 -66 61 -57 7 4 3 21 -13 50 l-25 43 23 39 c13 20 21 41 19 45 -12 19 -34 5 -58 -37z"/>
 <path d="M925 850 c-31 -49 -31 -53 0 -107 19 -31 32 -43 49 -43 35 0 36 8 9 56 l-25 44 22 35 c23 38 20 55 -10 55 -12 0 -30 -16 -45 -40z"/>
 <path d="M1065 880 c-4 -6 3 -26 15 -45 l22 -35 -26 -44 c-27 -46 -25 -56 10 -56 16 0 30 13 48 44 32 55 32 57 1 106 -25 39 -56 52 -70 30z"/>
 <path d="M999 814 c-17 -21 0 -49 31 -49 31 0 48 28 31 49 -8 9 -21 16 -31 16 -10 0 -23 -7 -31 -16z"/>
 <path d="M362 1248 c-36 -36 11 -96 49 -62 24 21 24 36 1 57 -22 20 -34 21 -50 5z"/>
 <path d="M1197 1242 c-22 -24 -21 -35 2 -56 38 -34 85 26 49 62 -17 17 -32 15 -51 -6z"/>
 <path d="M230 1045 c-26 -32 13 -81 48 -59 34 22 22 74 -18 74 -10 0 -23 -7 -30 -15z"/>
 <path d="M1320 1045 c-26 -32 13 -81 48 -59 34 22 22 74 -18 74 -10 0 -23 -7 -30 -15z"/>
 <path d="M184 819 c-23 -25 -9 -53 29 -57 36 -4 56 32 31 59 -22 24 -36 24 -60 -2z"/>
 <path d="M1366 821 c-25 -27 -5 -63 31 -59 38 4 52 32 29 57 -24 26 -38 26 -60 2z"/>
 <path d="M232 608 c-36 -36 6 -91 46 -62 27 19 28 36 4 57 -22 20 -34 21 -50 5z"/>
 <path d="M1327 602 c-22 -25 -21 -38 5 -56 27 -19 58 -5 58 27 0 44 -35 60 -63 29z"/>
 <path d="M360 405 c-26 -32 13 -81 48 -59 22 14 27 41 12 59 -16 19 -44 19 -60 0z"/>
 <path d="M1190 405 c-26 -32 13 -81 48 -59 22 14 27 41 12 59 -16 19 -44 19 -60 0z"/>
 <path d="M552 278 c-25 -25 -7 -68 28 -68 9 0 25 9 35 20 17 19 17 21 0 40 -20 23 -45 26 -63 8z"/>
 <path d="M995 270 c-18 -19 -18 -21 0 -40 34 -37 95 -4 69 38 -16 25 -47 26 -69 2z"/>
 <path d="M774 229 c-24 -26 -8 -54 31 -54 39 0 55 28 31 54 -11 12 -24 21 -31 21 -7 0 -20 -9 -31 -21z"/>
 </g>
<g id="layer113" fill="#fefcfc" stroke="none">
 <path d="M705 1540 c-165 -24 -297 -92 -420 -215 -101 -101 -152 -181 -192 -300 -25 -72 -27 -95 -28 -225 0 -114 4 -158 19 -205 62 -203 208 -378 391 -468 123 -61 173 -72 335 -72 137 0 150 2 233 31 109 39 181 82 263 158 114 104 196 240 230 384 24 96 21 256 -5 355 -96 365 -461 611 -826 557z m260 -45 c39 -8 113 -36 165 -61 80 -39 109 -61 182 -134 72 -73 93 -102 131 -181 62 -127 81 -222 74 -358 -9 -189 -73 -335 -202 -467 -259 -263 -668 -284 -968 -49 -180 142 -285 418 -248 655 26 168 85 284 206 405 134 135 299 203 495 204 52 0 127 -6 165 -14z"/>
 <path d="M736 1452 c-16 -4 -31 -11 -32 -17 -4 -14 89 -169 101 -169 16 0 108 165 98 175 -12 12 -130 20 -167 11z m89 -62 c0 -18 -6 -26 -22 -28 -18 -3 -23 1 -23 21 0 28 9 39 30 35 9 -2 15 -14 15 -28z"/>
 <path d="M595 1421 c-51 -18 -135 -59 -135 -65 0 -1 38 -33 85 -70 62 -48 87 -63 91 -52 9 23 32 191 27 199 -6 10 -11 9 -68 -12z m15 -76 c0 -20 -5 -25 -24 -25 -13 0 -26 6 -29 13 -7 22 4 37 29 37 19 0 24 -5 24 -25z"/>
 <path d="M947 1433 c-5 -8 18 -176 27 -199 4 -11 27 2 83 47 43 33 82 65 87 70 6 5 -21 22 -65 43 -82 37 -126 50 -132 39z m103 -88 c0 -20 -5 -25 -25 -25 -20 0 -25 5 -25 25 0 20 5 25 25 25 20 0 25 -5 25 -25z"/>
 <path d="M676 1388 c-2 -7 -9 -53 -16 -103 -6 -49 -13 -91 -15 -93 -2 -2 -43 28 -92 67 -48 38 -92 66 -96 62 -4 -5 4 -54 19 -110 15 -55 25 -104 22 -107 -3 -3 -50 7 -103 21 -59 16 -101 23 -106 18 -6 -6 16 -43 56 -94 35 -46 65 -87 65 -90 0 -3 -47 -12 -105 -19 -58 -7 -108 -17 -110 -21 -3 -4 35 -31 85 -60 50 -28 92 -55 95 -58 2 -4 -37 -31 -87 -60 -58 -34 -87 -56 -81 -62 6 -6 52 -16 103 -24 51 -8 94 -16 97 -19 3 -2 -27 -44 -65 -93 -39 -48 -67 -91 -63 -95 3 -4 56 6 116 22 61 16 111 30 111 30 1 0 -11 -48 -27 -107 -16 -59 -25 -111 -21 -115 5 -5 49 23 99 61 l90 70 14 -102 c11 -77 18 -102 29 -102 8 0 37 39 65 86 l50 87 50 -87 c28 -47 57 -86 65 -86 11 0 18 25 29 102 l14 102 90 -70 c50 -38 94 -66 99 -61 4 4 -5 56 -21 115 -16 59 -28 107 -27 107 0 0 50 -14 111 -30 60 -16 113 -26 116 -22 4 4 -24 47 -63 95 -38 49 -68 91 -65 93 3 3 46 11 97 19 51 8 97 18 102 23 6 6 -23 29 -81 63 -49 29 -88 56 -86 59 3 4 45 31 95 59 50 29 88 56 85 60 -2 4 -52 14 -110 21 -58 7 -105 16 -105 19 0 3 30 44 65 90 40 51 62 88 56 94 -5 5 -46 -1 -104 -17 -52 -14 -99 -26 -105 -26 -5 0 4 46 19 103 16 56 27 108 24 115 -3 9 -35 -10 -97 -58 l-93 -72 -7 34 c-4 18 -10 61 -13 95 -11 97 -26 98 -79 6 -24 -43 -49 -84 -53 -92 -7 -10 -23 10 -59 74 -50 88 -70 109 -78 83z m-8 -298 l-23 -40 23 -40 c12 -22 19 -40 14 -40 -5 0 -18 18 -31 40 l-22 39 21 41 c11 22 25 40 31 40 5 0 -1 -18 -13 -40z m92 34 c0 -4 -9 -22 -21 -40 l-21 -34 21 -34 c25 -40 26 -46 6 -46 -17 0 -55 56 -55 80 0 24 38 80 55 80 8 0 15 -3 15 -6z m145 -36 c19 -35 19 -38 2 -73 -16 -34 -41 -54 -54 -42 -3 3 5 22 17 41 l22 36 -21 34 c-26 41 -26 48 -3 44 9 -2 26 -20 37 -40z m54 2 l22 -40 -22 -40 c-13 -22 -26 -40 -31 -40 -5 0 2 18 14 40 l23 40 -23 40 c-12 22 -19 40 -14 40 5 0 18 -18 31 -40z m-129 -40 c0 -15 -7 -20 -25 -20 -18 0 -25 5 -25 20 0 15 7 20 25 20 18 0 25 -5 25 -20z m-389 -214 l-22 -35 21 -42 c25 -48 11 -45 -18 4 l-19 34 25 42 c13 23 27 40 29 37 3 -3 -4 -21 -16 -40z m77 3 l-23 -41 22 -39 c19 -35 20 -39 4 -39 -10 0 -27 17 -40 40 l-22 39 23 41 c14 23 30 40 41 40 17 0 16 -3 -5 -41z m160 1 l22 -40 -20 -40 c-13 -25 -27 -40 -39 -40 -19 0 -18 2 2 39 l22 39 -23 41 c-21 38 -22 41 -5 41 10 0 27 -17 41 -40z m55 -1 l25 -41 -20 -34 c-29 -50 -43 -53 -18 -5 l21 42 -21 33 c-11 18 -20 36 -20 40 0 14 10 4 33 -35z m158 -5 l-22 -36 21 -35 c22 -38 24 -43 13 -43 -5 0 -18 17 -30 38 -22 39 -21 43 14 100 24 38 27 16 4 -24z m77 2 l-21 -44 22 -36 c22 -35 22 -36 3 -36 -13 0 -28 14 -42 38 l-22 37 22 43 c14 26 30 42 41 42 18 0 18 -2 -3 -44z m160 4 l22 -40 -20 -40 c-14 -27 -27 -40 -41 -40 -21 0 -21 0 2 36 l22 36 -21 44 c-20 40 -20 44 -4 44 9 0 27 -18 40 -40z m55 -1 l25 -41 -21 -37 c-26 -46 -26 -45 -32 -39 -3 3 4 21 15 41 l21 35 -21 34 c-19 32 -25 48 -16 48 3 0 16 -19 29 -41z m-583 -39 c0 -13 -7 -20 -20 -20 -13 0 -20 7 -20 20 0 13 7 20 20 20 13 0 20 -7 20 -20z m448 -2 c-2 -13 -10 -23 -18 -23 -8 0 -16 10 -18 23 -3 17 2 22 18 22 16 0 21 -5 18 -22z m-380 -212 l-21 -44 21 -37 c24 -40 26 -45 15 -45 -5 0 -19 19 -32 42 l-24 42 24 43 c31 56 45 56 17 -1z m78 1 l-25 -42 25 -44 c26 -42 26 -43 5 -39 -13 2 -32 20 -45 43 l-24 40 25 43 c16 26 32 42 44 42 19 0 18 -2 -5 -43z m158 -2 l24 -40 -25 -43 c-16 -26 -32 -42 -45 -42 -18 0 -18 2 6 42 l25 43 -25 43 c-25 43 -25 44 -5 40 12 -2 32 -20 45 -43z m55 2 l24 -43 -24 -42 c-13 -23 -28 -42 -32 -42 -5 0 -7 3 -5 8 2 4 12 24 22 44 19 36 19 37 -3 73 -23 40 -25 45 -13 45 4 0 18 -19 31 -43z m-131 -40 c4 -20 -25 -34 -40 -19 -15 15 -1 44 19 40 10 -2 19 -11 21 -21z"/>
 <path d="M341 1256 c-49 -49 -69 -76 -61 -81 26 -16 185 -54 193 -46 10 10 -29 171 -46 188 -10 10 -28 -2 -86 -61z m74 -41 c0 -14 -8 -21 -27 -23 -24 -3 -28 0 -28 23 0 23 4 26 28 23 19 -2 27 -9 27 -23z"/>
 <path d="M1183 1318 c-17 -20 -55 -180 -46 -189 9 -9 180 34 194 48 5 5 -24 41 -64 81 -58 57 -76 70 -84 60z m67 -103 c0 -20 -5 -25 -24 -25 -14 0 -28 5 -31 10 -12 19 4 40 30 40 20 0 25 -5 25 -25z"/>
 <path d="M216 1093 c-35 -71 -52 -131 -39 -144 12 -12 190 7 198 21 4 7 -121 170 -130 170 -3 0 -15 -21 -29 -47z m63 -57 c15 -18 3 -46 -20 -46 -22 0 -34 22 -25 45 7 19 30 19 45 1z"/>
 <path d="M1296 1059 c-36 -45 -63 -85 -61 -89 6 -10 182 -33 195 -25 5 3 10 13 10 21 0 20 -59 162 -71 169 -4 3 -38 -31 -73 -76z m79 -39 c0 -18 -6 -26 -21 -28 -26 -4 -40 24 -23 45 18 21 44 11 44 -17z"/>
 <path d="M157 903 c-11 -10 -8 -201 3 -208 11 -7 172 85 177 102 2 6 -20 24 -49 41 -29 16 -69 39 -89 51 -20 11 -39 18 -42 14z m81 -106 c3 -23 0 -27 -22 -27 -21 0 -26 5 -26 23 0 13 3 27 7 31 15 14 38 0 41 -27z"/>
 <path d="M1360 859 c-47 -27 -85 -55 -85 -61 0 -16 162 -111 175 -103 12 7 14 202 2 209 -4 2 -46 -18 -92 -45z m58 -62 c3 -23 0 -27 -22 -27 -21 0 -26 5 -26 23 0 13 3 27 7 31 15 14 38 0 41 -27z"/>
 <path d="M168 655 c-14 -14 64 -199 82 -193 5 2 36 38 69 80 69 88 69 90 -29 102 -30 4 -69 9 -85 12 -17 3 -33 2 -37 -1z m122 -73 c-1 -18 -19 -34 -36 -30 -22 4 -31 37 -13 49 13 8 49 -6 49 -19z"/>
 <path d="M1327 646 c-42 -7 -81 -17 -86 -22 -9 -8 99 -155 119 -162 17 -6 96 179 83 192 -8 7 -19 7 -116 -8z m51 -70 c-4 -27 -43 -34 -52 -9 -5 11 -1 22 9 30 23 16 47 5 43 -21z"/>
 <path d="M358 447 c-42 -12 -80 -25 -84 -29 -9 -10 133 -151 147 -146 14 5 61 167 54 186 -6 16 -26 14 -117 -11z m52 -52 c10 -12 10 -18 0 -30 -25 -30 -61 -7 -46 30 3 8 12 15 19 15 8 0 20 -7 27 -15z"/>
 <path d="M1135 458 c-7 -19 40 -181 54 -186 15 -5 156 138 145 148 -10 8 -162 50 -182 50 -7 0 -15 -6 -17 -12z m113 -76 c4 -28 -24 -40 -45 -19 -14 13 -14 19 -3 32 18 22 44 15 48 -13z"/>
 <path d="M547 309 c-42 -33 -77 -65 -77 -70 0 -10 79 -51 133 -69 63 -20 65 -15 51 90 -7 51 -17 97 -22 102 -5 5 -40 -17 -85 -53z m58 -59 c0 -16 -6 -26 -18 -28 -19 -4 -32 20 -23 44 9 25 41 13 41 -16z"/>
 <path d="M975 359 c-4 -6 -13 -51 -20 -101 -14 -103 -11 -108 52 -88 54 18 133 59 133 69 0 8 -116 106 -147 124 -6 4 -15 2 -18 -4z m70 -109 c0 -29 -32 -41 -41 -16 -9 24 4 48 23 44 12 -2 18 -12 18 -28z"/>
 <path d="M750 254 c-63 -108 -60 -114 55 -114 115 0 118 6 55 114 -28 47 -53 86 -55 86 -2 0 -27 -39 -55 -86z m80 -50 c0 -19 -5 -24 -25 -24 -20 0 -25 5 -25 24 0 13 6 26 13 29 22 7 37 -4 37 -29z"/>
 </g>

</svg>